<?xml version="1.0" encoding="utf-8" standalone="no"?>
<!DOCTYPE svg PUBLIC "-//W3C//DTD SVG 1.1//EN"
  "http://www.w3.org/Graphics/SVG/1.1/DTD/svg11.dtd">
<!-- Created with matplotlib (https://matplotlib.org/) -->
<svg height="345.6pt" version="1.1" viewBox="0 0 460.8 345.6" width="460.8pt" xmlns="http://www.w3.org/2000/svg" xmlns:xlink="http://www.w3.org/1999/xlink">
 <metadata>
  <rdf:RDF xmlns:cc="http://creativecommons.org/ns#" xmlns:dc="http://purl.org/dc/elements/1.1/" xmlns:rdf="http://www.w3.org/1999/02/22-rdf-syntax-ns#">
   <cc:Work>
    <dc:type rdf:resource="http://purl.org/dc/dcmitype/StillImage"/>
    <dc:date>2021-01-21T16:35:29.801463</dc:date>
    <dc:format>image/svg+xml</dc:format>
    <dc:creator>
     <cc:Agent>
      <dc:title>Matplotlib v3.3.3, https://matplotlib.org/</dc:title>
     </cc:Agent>
    </dc:creator>
   </cc:Work>
  </rdf:RDF>
 </metadata>
 <defs>
  <style type="text/css">*{stroke-linecap:butt;stroke-linejoin:round;}</style>
 </defs>
 <g id="figure_1">
  <g id="patch_1">
   <path d="M 0 345.6 
L 460.8 345.6 
L 460.8 0 
L 0 0 
z
" style="fill:none;"/>
  </g>
  <g id="axes_1">
   <g id="patch_2">
    <path d="M 57.6 307.584 
L 414.72 307.584 
L 414.72 41.472 
L 57.6 41.472 
z
" style="fill:none;"/>
   </g>
   <g id="matplotlib.axis_1">
    <g id="xtick_1">
     <g id="line2d_1">
      <path clip-path="url(#p349a1695d4)" d="M 73.832727 307.584 
L 73.832727 41.472 
" style="fill:none;stroke:#cccccc;stroke-linecap:round;stroke-width:0.8;"/>
     </g>
     <g id="text_1">
      <!-- 0 -->
      <g style="fill:#262626;" transform="translate(71.052259 321.741812)scale(0.1 -0.1)">
       <defs>
        <path d="M 4.15625 35.296875 
Q 4.15625 48 6.765625 55.734375 
Q 9.375 63.484375 14.515625 67.671875 
Q 19.671875 71.875 27.484375 71.875 
Q 33.25 71.875 37.59375 69.546875 
Q 41.9375 67.234375 44.765625 62.859375 
Q 47.609375 58.5 49.21875 52.21875 
Q 50.828125 45.953125 50.828125 35.296875 
Q 50.828125 22.703125 48.234375 14.96875 
Q 45.65625 7.234375 40.5 3 
Q 35.359375 -1.21875 27.484375 -1.21875 
Q 17.140625 -1.21875 11.234375 6.203125 
Q 4.15625 15.140625 4.15625 35.296875 
z
M 13.1875 35.296875 
Q 13.1875 17.671875 17.3125 11.828125 
Q 21.4375 6 27.484375 6 
Q 33.546875 6 37.671875 11.859375 
Q 41.796875 17.71875 41.796875 35.296875 
Q 41.796875 52.984375 37.671875 58.78125 
Q 33.546875 64.59375 27.390625 64.59375 
Q 21.34375 64.59375 17.71875 59.46875 
Q 13.1875 52.9375 13.1875 35.296875 
z
" id="ArialMT-48"/>
       </defs>
       <use xlink:href="#ArialMT-48"/>
      </g>
     </g>
    </g>
    <g id="xtick_2">
     <g id="line2d_2">
      <path clip-path="url(#p349a1695d4)" d="M 137.490481 307.584 
L 137.490481 41.472 
" style="fill:none;stroke:#cccccc;stroke-linecap:round;stroke-width:0.8;"/>
     </g>
     <g id="text_2">
      <!-- 50 -->
      <g style="fill:#262626;" transform="translate(131.929544 321.741812)scale(0.1 -0.1)">
       <defs>
        <path d="M 4.15625 18.75 
L 13.375 19.53125 
Q 14.40625 12.796875 18.140625 9.390625 
Q 21.875 6 27.15625 6 
Q 33.5 6 37.890625 10.78125 
Q 42.28125 15.578125 42.28125 23.484375 
Q 42.28125 31 38.0625 35.34375 
Q 33.84375 39.703125 27 39.703125 
Q 22.75 39.703125 19.328125 37.765625 
Q 15.921875 35.84375 13.96875 32.765625 
L 5.71875 33.84375 
L 12.640625 70.609375 
L 48.25 70.609375 
L 48.25 62.203125 
L 19.671875 62.203125 
L 15.828125 42.96875 
Q 22.265625 47.46875 29.34375 47.46875 
Q 38.71875 47.46875 45.15625 40.96875 
Q 51.609375 34.46875 51.609375 24.265625 
Q 51.609375 14.546875 45.953125 7.46875 
Q 39.0625 -1.21875 27.15625 -1.21875 
Q 17.390625 -1.21875 11.203125 4.25 
Q 5.03125 9.71875 4.15625 18.75 
z
" id="ArialMT-53"/>
       </defs>
       <use xlink:href="#ArialMT-53"/>
       <use x="55.615234" xlink:href="#ArialMT-48"/>
      </g>
     </g>
    </g>
    <g id="xtick_3">
     <g id="line2d_3">
      <path clip-path="url(#p349a1695d4)" d="M 201.148235 307.584 
L 201.148235 41.472 
" style="fill:none;stroke:#cccccc;stroke-linecap:round;stroke-width:0.8;"/>
     </g>
     <g id="text_3">
      <!-- 100 -->
      <g style="fill:#262626;" transform="translate(192.806829 321.741812)scale(0.1 -0.1)">
       <defs>
        <path d="M 37.25 0 
L 28.46875 0 
L 28.46875 56 
Q 25.296875 52.984375 20.140625 49.953125 
Q 14.984375 46.921875 10.890625 45.40625 
L 10.890625 53.90625 
Q 18.265625 57.375 23.78125 62.296875 
Q 29.296875 67.234375 31.59375 71.875 
L 37.25 71.875 
z
" id="ArialMT-49"/>
       </defs>
       <use xlink:href="#ArialMT-49"/>
       <use x="55.615234" xlink:href="#ArialMT-48"/>
       <use x="111.230469" xlink:href="#ArialMT-48"/>
      </g>
     </g>
    </g>
    <g id="xtick_4">
     <g id="line2d_4">
      <path clip-path="url(#p349a1695d4)" d="M 264.805989 307.584 
L 264.805989 41.472 
" style="fill:none;stroke:#cccccc;stroke-linecap:round;stroke-width:0.8;"/>
     </g>
     <g id="text_4">
      <!-- 150 -->
      <g style="fill:#262626;" transform="translate(256.464583 321.741812)scale(0.1 -0.1)">
       <use xlink:href="#ArialMT-49"/>
       <use x="55.615234" xlink:href="#ArialMT-53"/>
       <use x="111.230469" xlink:href="#ArialMT-48"/>
      </g>
     </g>
    </g>
    <g id="xtick_5">
     <g id="line2d_5">
      <path clip-path="url(#p349a1695d4)" d="M 328.463743 307.584 
L 328.463743 41.472 
" style="fill:none;stroke:#cccccc;stroke-linecap:round;stroke-width:0.8;"/>
     </g>
     <g id="text_5">
      <!-- 200 -->
      <g style="fill:#262626;" transform="translate(320.122337 321.741812)scale(0.1 -0.1)">
       <defs>
        <path d="M 50.34375 8.453125 
L 50.34375 0 
L 3.03125 0 
Q 2.9375 3.171875 4.046875 6.109375 
Q 5.859375 10.9375 9.828125 15.625 
Q 13.8125 20.3125 21.34375 26.46875 
Q 33.015625 36.03125 37.109375 41.625 
Q 41.21875 47.21875 41.21875 52.203125 
Q 41.21875 57.421875 37.46875 61 
Q 33.734375 64.59375 27.734375 64.59375 
Q 21.390625 64.59375 17.578125 60.78125 
Q 13.765625 56.984375 13.71875 50.25 
L 4.6875 51.171875 
Q 5.609375 61.28125 11.65625 66.578125 
Q 17.71875 71.875 27.9375 71.875 
Q 38.234375 71.875 44.234375 66.15625 
Q 50.25 60.453125 50.25 52 
Q 50.25 47.703125 48.484375 43.546875 
Q 46.734375 39.40625 42.65625 34.8125 
Q 38.578125 30.21875 29.109375 22.21875 
Q 21.1875 15.578125 18.9375 13.203125 
Q 16.703125 10.84375 15.234375 8.453125 
z
" id="ArialMT-50"/>
       </defs>
       <use xlink:href="#ArialMT-50"/>
       <use x="55.615234" xlink:href="#ArialMT-48"/>
       <use x="111.230469" xlink:href="#ArialMT-48"/>
      </g>
     </g>
    </g>
    <g id="xtick_6">
     <g id="line2d_6">
      <path clip-path="url(#p349a1695d4)" d="M 392.121497 307.584 
L 392.121497 41.472 
" style="fill:none;stroke:#cccccc;stroke-linecap:round;stroke-width:0.8;"/>
     </g>
     <g id="text_6">
      <!-- 250 -->
      <g style="fill:#262626;" transform="translate(383.780091 321.741812)scale(0.1 -0.1)">
       <use xlink:href="#ArialMT-50"/>
       <use x="55.615234" xlink:href="#ArialMT-53"/>
       <use x="111.230469" xlink:href="#ArialMT-48"/>
      </g>
     </g>
    </g>
    <g id="text_7">
     <!-- runstab -->
     <g style="fill:#262626;" transform="translate(219.484219 334.887125)scale(0.1 -0.1)">
      <defs>
       <path d="M 6.5 0 
L 6.5 51.859375 
L 14.40625 51.859375 
L 14.40625 44 
Q 17.4375 49.515625 20 51.265625 
Q 22.5625 53.03125 25.640625 53.03125 
Q 30.078125 53.03125 34.671875 50.203125 
L 31.640625 42.046875 
Q 28.421875 43.953125 25.203125 43.953125 
Q 22.3125 43.953125 20.015625 42.21875 
Q 17.71875 40.484375 16.75 37.40625 
Q 15.28125 32.71875 15.28125 27.15625 
L 15.28125 0 
z
" id="ArialMT-114"/>
       <path d="M 40.578125 0 
L 40.578125 7.625 
Q 34.515625 -1.171875 24.125 -1.171875 
Q 19.53125 -1.171875 15.546875 0.578125 
Q 11.578125 2.34375 9.640625 5 
Q 7.71875 7.671875 6.9375 11.53125 
Q 6.390625 14.109375 6.390625 19.734375 
L 6.390625 51.859375 
L 15.1875 51.859375 
L 15.1875 23.09375 
Q 15.1875 16.21875 15.71875 13.8125 
Q 16.546875 10.359375 19.234375 8.375 
Q 21.921875 6.390625 25.875 6.390625 
Q 29.828125 6.390625 33.296875 8.421875 
Q 36.765625 10.453125 38.203125 13.9375 
Q 39.65625 17.4375 39.65625 24.078125 
L 39.65625 51.859375 
L 48.4375 51.859375 
L 48.4375 0 
z
" id="ArialMT-117"/>
       <path d="M 6.59375 0 
L 6.59375 51.859375 
L 14.5 51.859375 
L 14.5 44.484375 
Q 20.21875 53.03125 31 53.03125 
Q 35.6875 53.03125 39.625 51.34375 
Q 43.5625 49.65625 45.515625 46.921875 
Q 47.46875 44.1875 48.25 40.4375 
Q 48.734375 37.984375 48.734375 31.890625 
L 48.734375 0 
L 39.9375 0 
L 39.9375 31.546875 
Q 39.9375 36.921875 38.90625 39.578125 
Q 37.890625 42.234375 35.28125 43.8125 
Q 32.671875 45.40625 29.15625 45.40625 
Q 23.53125 45.40625 19.453125 41.84375 
Q 15.375 38.28125 15.375 28.328125 
L 15.375 0 
z
" id="ArialMT-110"/>
       <path d="M 3.078125 15.484375 
L 11.765625 16.84375 
Q 12.5 11.625 15.84375 8.84375 
Q 19.1875 6.0625 25.203125 6.0625 
Q 31.25 6.0625 34.171875 8.515625 
Q 37.109375 10.984375 37.109375 14.3125 
Q 37.109375 17.28125 34.515625 19 
Q 32.71875 20.171875 25.53125 21.96875 
Q 15.875 24.421875 12.140625 26.203125 
Q 8.40625 27.984375 6.46875 31.125 
Q 4.546875 34.28125 4.546875 38.09375 
Q 4.546875 41.546875 6.125 44.5 
Q 7.71875 47.46875 10.453125 49.421875 
Q 12.5 50.921875 16.03125 51.96875 
Q 19.578125 53.03125 23.640625 53.03125 
Q 29.734375 53.03125 34.34375 51.265625 
Q 38.96875 49.515625 41.15625 46.5 
Q 43.359375 43.5 44.1875 38.484375 
L 35.59375 37.3125 
Q 35.015625 41.3125 32.203125 43.546875 
Q 29.390625 45.796875 24.265625 45.796875 
Q 18.21875 45.796875 15.625 43.796875 
Q 13.03125 41.796875 13.03125 39.109375 
Q 13.03125 37.40625 14.109375 36.03125 
Q 15.1875 34.625 17.484375 33.6875 
Q 18.796875 33.203125 25.25 31.453125 
Q 34.578125 28.953125 38.25 27.359375 
Q 41.9375 25.78125 44.03125 22.75 
Q 46.140625 19.734375 46.140625 15.234375 
Q 46.140625 10.84375 43.578125 6.953125 
Q 41.015625 3.078125 36.171875 0.953125 
Q 31.34375 -1.171875 25.25 -1.171875 
Q 15.140625 -1.171875 9.84375 3.03125 
Q 4.546875 7.234375 3.078125 15.484375 
z
" id="ArialMT-115"/>
       <path d="M 25.78125 7.859375 
L 27.046875 0.09375 
Q 23.34375 -0.6875 20.40625 -0.6875 
Q 15.625 -0.6875 12.984375 0.828125 
Q 10.359375 2.34375 9.28125 4.8125 
Q 8.203125 7.28125 8.203125 15.1875 
L 8.203125 45.015625 
L 1.765625 45.015625 
L 1.765625 51.859375 
L 8.203125 51.859375 
L 8.203125 64.703125 
L 16.9375 69.96875 
L 16.9375 51.859375 
L 25.78125 51.859375 
L 25.78125 45.015625 
L 16.9375 45.015625 
L 16.9375 14.703125 
Q 16.9375 10.9375 17.40625 9.859375 
Q 17.875 8.796875 18.921875 8.15625 
Q 19.96875 7.515625 21.921875 7.515625 
Q 23.390625 7.515625 25.78125 7.859375 
z
" id="ArialMT-116"/>
       <path d="M 40.4375 6.390625 
Q 35.546875 2.25 31.03125 0.53125 
Q 26.515625 -1.171875 21.34375 -1.171875 
Q 12.796875 -1.171875 8.203125 3 
Q 3.609375 7.171875 3.609375 13.671875 
Q 3.609375 17.484375 5.34375 20.625 
Q 7.078125 23.78125 9.890625 25.6875 
Q 12.703125 27.59375 16.21875 28.5625 
Q 18.796875 29.25 24.03125 29.890625 
Q 34.671875 31.15625 39.703125 32.90625 
Q 39.75 34.71875 39.75 35.203125 
Q 39.75 40.578125 37.25 42.78125 
Q 33.890625 45.75 27.25 45.75 
Q 21.046875 45.75 18.09375 43.578125 
Q 15.140625 41.40625 13.71875 35.890625 
L 5.125 37.0625 
Q 6.296875 42.578125 8.984375 45.96875 
Q 11.671875 49.359375 16.75 51.1875 
Q 21.828125 53.03125 28.515625 53.03125 
Q 35.15625 53.03125 39.296875 51.46875 
Q 43.453125 49.90625 45.40625 47.53125 
Q 47.359375 45.171875 48.140625 41.546875 
Q 48.578125 39.3125 48.578125 33.453125 
L 48.578125 21.734375 
Q 48.578125 9.46875 49.140625 6.21875 
Q 49.703125 2.984375 51.375 0 
L 42.1875 0 
Q 40.828125 2.734375 40.4375 6.390625 
z
M 39.703125 26.03125 
Q 34.90625 24.078125 25.34375 22.703125 
Q 19.921875 21.921875 17.671875 20.9375 
Q 15.4375 19.96875 14.203125 18.09375 
Q 12.984375 16.21875 12.984375 13.921875 
Q 12.984375 10.40625 15.640625 8.0625 
Q 18.3125 5.71875 23.4375 5.71875 
Q 28.515625 5.71875 32.46875 7.9375 
Q 36.421875 10.15625 38.28125 14.015625 
Q 39.703125 17 39.703125 22.796875 
z
" id="ArialMT-97"/>
       <path d="M 14.703125 0 
L 6.546875 0 
L 6.546875 71.578125 
L 15.328125 71.578125 
L 15.328125 46.046875 
Q 20.90625 53.03125 29.546875 53.03125 
Q 34.328125 53.03125 38.59375 51.09375 
Q 42.875 49.171875 45.625 45.671875 
Q 48.390625 42.1875 49.953125 37.25 
Q 51.515625 32.328125 51.515625 26.703125 
Q 51.515625 13.375 44.921875 6.09375 
Q 38.328125 -1.171875 29.109375 -1.171875 
Q 19.921875 -1.171875 14.703125 6.5 
z
M 14.59375 26.3125 
Q 14.59375 17 17.140625 12.84375 
Q 21.296875 6.0625 28.375 6.0625 
Q 34.125 6.0625 38.328125 11.0625 
Q 42.53125 16.0625 42.53125 25.984375 
Q 42.53125 36.140625 38.5 40.96875 
Q 34.46875 45.796875 28.765625 45.796875 
Q 23 45.796875 18.796875 40.796875 
Q 14.59375 35.796875 14.59375 26.3125 
z
" id="ArialMT-98"/>
      </defs>
      <use xlink:href="#ArialMT-114"/>
      <use x="33.300781" xlink:href="#ArialMT-117"/>
      <use x="88.916016" xlink:href="#ArialMT-110"/>
      <use x="144.53125" xlink:href="#ArialMT-115"/>
      <use x="194.53125" xlink:href="#ArialMT-116"/>
      <use x="222.314453" xlink:href="#ArialMT-97"/>
      <use x="277.929688" xlink:href="#ArialMT-98"/>
     </g>
    </g>
   </g>
   <g id="matplotlib.axis_2">
    <g id="ytick_1">
     <g id="line2d_7">
      <path clip-path="url(#p349a1695d4)" d="M 57.6 307.561787 
L 414.72 307.561787 
" style="fill:none;stroke:#cccccc;stroke-linecap:round;stroke-width:0.8;"/>
     </g>
     <g id="text_8">
      <!-- 0.0 -->
      <g style="fill:#262626;" transform="translate(36.7 311.140694)scale(0.1 -0.1)">
       <defs>
        <path d="M 9.078125 0 
L 9.078125 10.015625 
L 19.09375 10.015625 
L 19.09375 0 
z
" id="ArialMT-46"/>
       </defs>
       <use xlink:href="#ArialMT-48"/>
       <use x="55.615234" xlink:href="#ArialMT-46"/>
       <use x="83.398438" xlink:href="#ArialMT-48"/>
      </g>
     </g>
    </g>
    <g id="ytick_2">
     <g id="line2d_8">
      <path clip-path="url(#p349a1695d4)" d="M 57.6 256.76303 
L 414.72 256.76303 
" style="fill:none;stroke:#cccccc;stroke-linecap:round;stroke-width:0.8;"/>
     </g>
     <g id="text_9">
      <!-- 0.2 -->
      <g style="fill:#262626;" transform="translate(36.7 260.341936)scale(0.1 -0.1)">
       <use xlink:href="#ArialMT-48"/>
       <use x="55.615234" xlink:href="#ArialMT-46"/>
       <use x="83.398438" xlink:href="#ArialMT-50"/>
      </g>
     </g>
    </g>
    <g id="ytick_3">
     <g id="line2d_9">
      <path clip-path="url(#p349a1695d4)" d="M 57.6 205.964272 
L 414.72 205.964272 
" style="fill:none;stroke:#cccccc;stroke-linecap:round;stroke-width:0.8;"/>
     </g>
     <g id="text_10">
      <!-- 0.4 -->
      <g style="fill:#262626;" transform="translate(36.7 209.543179)scale(0.1 -0.1)">
       <defs>
        <path d="M 32.328125 0 
L 32.328125 17.140625 
L 1.265625 17.140625 
L 1.265625 25.203125 
L 33.9375 71.578125 
L 41.109375 71.578125 
L 41.109375 25.203125 
L 50.78125 25.203125 
L 50.78125 17.140625 
L 41.109375 17.140625 
L 41.109375 0 
z
M 32.328125 25.203125 
L 32.328125 57.46875 
L 9.90625 25.203125 
z
" id="ArialMT-52"/>
       </defs>
       <use xlink:href="#ArialMT-48"/>
       <use x="55.615234" xlink:href="#ArialMT-46"/>
       <use x="83.398438" xlink:href="#ArialMT-52"/>
      </g>
     </g>
    </g>
    <g id="ytick_4">
     <g id="line2d_10">
      <path clip-path="url(#p349a1695d4)" d="M 57.6 155.165515 
L 414.72 155.165515 
" style="fill:none;stroke:#cccccc;stroke-linecap:round;stroke-width:0.8;"/>
     </g>
     <g id="text_11">
      <!-- 0.6 -->
      <g style="fill:#262626;" transform="translate(36.7 158.744421)scale(0.1 -0.1)">
       <defs>
        <path d="M 49.75 54.046875 
L 41.015625 53.375 
Q 39.84375 58.546875 37.703125 60.890625 
Q 34.125 64.65625 28.90625 64.65625 
Q 24.703125 64.65625 21.53125 62.3125 
Q 17.390625 59.28125 14.984375 53.46875 
Q 12.59375 47.65625 12.5 36.921875 
Q 15.671875 41.75 20.265625 44.09375 
Q 24.859375 46.4375 29.890625 46.4375 
Q 38.671875 46.4375 44.84375 39.96875 
Q 51.03125 33.5 51.03125 23.25 
Q 51.03125 16.5 48.125 10.71875 
Q 45.21875 4.9375 40.140625 1.859375 
Q 35.0625 -1.21875 28.609375 -1.21875 
Q 17.625 -1.21875 10.6875 6.859375 
Q 3.765625 14.9375 3.765625 33.5 
Q 3.765625 54.25 11.421875 63.671875 
Q 18.109375 71.875 29.4375 71.875 
Q 37.890625 71.875 43.28125 67.140625 
Q 48.6875 62.40625 49.75 54.046875 
z
M 13.875 23.1875 
Q 13.875 18.65625 15.796875 14.5 
Q 17.71875 10.359375 21.1875 8.171875 
Q 24.65625 6 28.46875 6 
Q 34.03125 6 38.03125 10.484375 
Q 42.046875 14.984375 42.046875 22.703125 
Q 42.046875 30.125 38.078125 34.390625 
Q 34.125 38.671875 28.125 38.671875 
Q 22.171875 38.671875 18.015625 34.390625 
Q 13.875 30.125 13.875 23.1875 
z
" id="ArialMT-54"/>
       </defs>
       <use xlink:href="#ArialMT-48"/>
       <use x="55.615234" xlink:href="#ArialMT-46"/>
       <use x="83.398438" xlink:href="#ArialMT-54"/>
      </g>
     </g>
    </g>
    <g id="ytick_5">
     <g id="line2d_11">
      <path clip-path="url(#p349a1695d4)" d="M 57.6 104.366757 
L 414.72 104.366757 
" style="fill:none;stroke:#cccccc;stroke-linecap:round;stroke-width:0.8;"/>
     </g>
     <g id="text_12">
      <!-- 0.8 -->
      <g style="fill:#262626;" transform="translate(36.7 107.945664)scale(0.1 -0.1)">
       <defs>
        <path d="M 17.671875 38.8125 
Q 12.203125 40.828125 9.5625 44.53125 
Q 6.9375 48.25 6.9375 53.421875 
Q 6.9375 61.234375 12.546875 66.546875 
Q 18.171875 71.875 27.484375 71.875 
Q 36.859375 71.875 42.578125 66.421875 
Q 48.296875 60.984375 48.296875 53.171875 
Q 48.296875 48.1875 45.671875 44.5 
Q 43.0625 40.828125 37.75 38.8125 
Q 44.34375 36.671875 47.78125 31.875 
Q 51.21875 27.09375 51.21875 20.453125 
Q 51.21875 11.28125 44.71875 5.03125 
Q 38.234375 -1.21875 27.640625 -1.21875 
Q 17.046875 -1.21875 10.546875 5.046875 
Q 4.046875 11.328125 4.046875 20.703125 
Q 4.046875 27.6875 7.59375 32.390625 
Q 11.140625 37.109375 17.671875 38.8125 
z
M 15.921875 53.71875 
Q 15.921875 48.640625 19.1875 45.40625 
Q 22.46875 42.1875 27.6875 42.1875 
Q 32.765625 42.1875 36.015625 45.375 
Q 39.265625 48.578125 39.265625 53.21875 
Q 39.265625 58.0625 35.90625 61.359375 
Q 32.5625 64.65625 27.59375 64.65625 
Q 22.5625 64.65625 19.234375 61.421875 
Q 15.921875 58.203125 15.921875 53.71875 
z
M 13.09375 20.65625 
Q 13.09375 16.890625 14.875 13.375 
Q 16.65625 9.859375 20.171875 7.921875 
Q 23.6875 6 27.734375 6 
Q 34.03125 6 38.125 10.046875 
Q 42.234375 14.109375 42.234375 20.359375 
Q 42.234375 26.703125 38.015625 30.859375 
Q 33.796875 35.015625 27.4375 35.015625 
Q 21.234375 35.015625 17.15625 30.90625 
Q 13.09375 26.8125 13.09375 20.65625 
z
" id="ArialMT-56"/>
       </defs>
       <use xlink:href="#ArialMT-48"/>
       <use x="55.615234" xlink:href="#ArialMT-46"/>
       <use x="83.398438" xlink:href="#ArialMT-56"/>
      </g>
     </g>
    </g>
    <g id="ytick_6">
     <g id="line2d_12">
      <path clip-path="url(#p349a1695d4)" d="M 57.6 53.568 
L 414.72 53.568 
" style="fill:none;stroke:#cccccc;stroke-linecap:round;stroke-width:0.8;"/>
     </g>
     <g id="text_13">
      <!-- 1.0 -->
      <g style="fill:#262626;" transform="translate(36.7 57.146906)scale(0.1 -0.1)">
       <use xlink:href="#ArialMT-49"/>
       <use x="55.615234" xlink:href="#ArialMT-46"/>
       <use x="83.398438" xlink:href="#ArialMT-48"/>
      </g>
     </g>
    </g>
    <g id="text_14">
     <!-- Consensus_mean -->
     <g style="fill:#262626;" transform="translate(30.7125 214.828)rotate(-90)scale(0.1 -0.1)">
      <defs>
       <path d="M 58.796875 25.09375 
L 68.265625 22.703125 
Q 65.28125 11.03125 57.546875 4.90625 
Q 49.8125 -1.21875 38.625 -1.21875 
Q 27.046875 -1.21875 19.796875 3.484375 
Q 12.546875 8.203125 8.765625 17.140625 
Q 4.984375 26.078125 4.984375 36.328125 
Q 4.984375 47.515625 9.25 55.828125 
Q 13.53125 64.15625 21.40625 68.46875 
Q 29.296875 72.796875 38.765625 72.796875 
Q 49.515625 72.796875 56.828125 67.328125 
Q 64.15625 61.859375 67.046875 51.953125 
L 57.71875 49.75 
Q 55.21875 57.5625 50.484375 61.125 
Q 45.75 64.703125 38.578125 64.703125 
Q 30.328125 64.703125 24.78125 60.734375 
Q 19.234375 56.78125 16.984375 50.109375 
Q 14.75 43.453125 14.75 36.375 
Q 14.75 27.25 17.40625 20.4375 
Q 20.0625 13.625 25.671875 10.25 
Q 31.296875 6.890625 37.84375 6.890625 
Q 45.796875 6.890625 51.3125 11.46875 
Q 56.84375 16.0625 58.796875 25.09375 
z
" id="ArialMT-67"/>
       <path d="M 3.328125 25.921875 
Q 3.328125 40.328125 11.328125 47.265625 
Q 18.015625 53.03125 27.640625 53.03125 
Q 38.328125 53.03125 45.109375 46.015625 
Q 51.90625 39.015625 51.90625 26.65625 
Q 51.90625 16.65625 48.90625 10.90625 
Q 45.90625 5.171875 40.15625 2 
Q 34.421875 -1.171875 27.640625 -1.171875 
Q 16.75 -1.171875 10.03125 5.8125 
Q 3.328125 12.796875 3.328125 25.921875 
z
M 12.359375 25.921875 
Q 12.359375 15.96875 16.703125 11.015625 
Q 21.046875 6.0625 27.640625 6.0625 
Q 34.1875 6.0625 38.53125 11.03125 
Q 42.875 16.015625 42.875 26.21875 
Q 42.875 35.84375 38.5 40.796875 
Q 34.125 45.75 27.640625 45.75 
Q 21.046875 45.75 16.703125 40.8125 
Q 12.359375 35.890625 12.359375 25.921875 
z
" id="ArialMT-111"/>
       <path d="M 42.09375 16.703125 
L 51.171875 15.578125 
Q 49.03125 7.625 43.21875 3.21875 
Q 37.40625 -1.171875 28.375 -1.171875 
Q 17 -1.171875 10.328125 5.828125 
Q 3.65625 12.84375 3.65625 25.484375 
Q 3.65625 38.578125 10.390625 45.796875 
Q 17.140625 53.03125 27.875 53.03125 
Q 38.28125 53.03125 44.875 45.953125 
Q 51.46875 38.875 51.46875 26.03125 
Q 51.46875 25.25 51.421875 23.6875 
L 12.75 23.6875 
Q 13.234375 15.140625 17.578125 10.59375 
Q 21.921875 6.0625 28.421875 6.0625 
Q 33.25 6.0625 36.671875 8.59375 
Q 40.09375 11.140625 42.09375 16.703125 
z
M 13.234375 30.90625 
L 42.1875 30.90625 
Q 41.609375 37.453125 38.875 40.71875 
Q 34.671875 45.796875 27.984375 45.796875 
Q 21.921875 45.796875 17.796875 41.75 
Q 13.671875 37.703125 13.234375 30.90625 
z
" id="ArialMT-101"/>
       <path d="M -1.515625 -19.875 
L -1.515625 -13.53125 
L 56.734375 -13.53125 
L 56.734375 -19.875 
z
" id="ArialMT-95"/>
       <path d="M 6.59375 0 
L 6.59375 51.859375 
L 14.453125 51.859375 
L 14.453125 44.578125 
Q 16.890625 48.390625 20.9375 50.703125 
Q 25 53.03125 30.171875 53.03125 
Q 35.9375 53.03125 39.625 50.640625 
Q 43.3125 48.25 44.828125 43.953125 
Q 50.984375 53.03125 60.84375 53.03125 
Q 68.5625 53.03125 72.703125 48.75 
Q 76.859375 44.484375 76.859375 35.59375 
L 76.859375 0 
L 68.109375 0 
L 68.109375 32.671875 
Q 68.109375 37.9375 67.25 40.25 
Q 66.40625 42.578125 64.15625 43.984375 
Q 61.921875 45.40625 58.890625 45.40625 
Q 53.421875 45.40625 49.796875 41.765625 
Q 46.1875 38.140625 46.1875 30.125 
L 46.1875 0 
L 37.40625 0 
L 37.40625 33.6875 
Q 37.40625 39.546875 35.25 42.46875 
Q 33.109375 45.40625 28.21875 45.40625 
Q 24.515625 45.40625 21.359375 43.453125 
Q 18.21875 41.5 16.796875 37.734375 
Q 15.375 33.984375 15.375 26.90625 
L 15.375 0 
z
" id="ArialMT-109"/>
      </defs>
      <use xlink:href="#ArialMT-67"/>
      <use x="72.216797" xlink:href="#ArialMT-111"/>
      <use x="127.832031" xlink:href="#ArialMT-110"/>
      <use x="183.447266" xlink:href="#ArialMT-115"/>
      <use x="233.447266" xlink:href="#ArialMT-101"/>
      <use x="289.0625" xlink:href="#ArialMT-110"/>
      <use x="344.677734" xlink:href="#ArialMT-115"/>
      <use x="394.677734" xlink:href="#ArialMT-117"/>
      <use x="450.292969" xlink:href="#ArialMT-115"/>
      <use x="500.292969" xlink:href="#ArialMT-95"/>
      <use x="555.908203" xlink:href="#ArialMT-109"/>
      <use x="639.208984" xlink:href="#ArialMT-101"/>
      <use x="694.824219" xlink:href="#ArialMT-97"/>
      <use x="750.439453" xlink:href="#ArialMT-110"/>
     </g>
    </g>
   </g>
   <g id="line2d_13">
    <path clip-path="url(#p349a1695d4)" d="M 73.832727 295.488 
L 74.021131 292.037641 
L 74.635545 283.864224 
L 74.662332 284.233682 
L 74.703833 284.871493 
L 74.761786 284.014055 
L 74.838787 282.687674 
L 74.887627 283.049155 
L 74.904376 283.127264 
L 74.921367 282.769883 
L 75.086144 279.894916 
L 75.105882 280.017444 
L 75.125932 280.168419 
L 75.1463 279.757286 
L 75.209391 279.9674 
L 75.393726 278.618215 
L 75.418587 278.880418 
L 75.443888 278.963885 
L 75.522551 277.717704 
L 75.577421 277.843372 
L 75.605625 278.156653 
L 75.634362 277.860621 
L 75.786579 276.184812 
L 75.818849 276.190551 
L 75.851771 276.452771 
L 75.954652 275.121636 
L 75.99039 275.204499 
L 76.064171 275.827585 
L 76.221681 274.510485 
L 76.263296 274.878505 
L 76.439664 272.4664 
L 76.486412 273.11852 
L 76.5343 272.727821 
L 76.738132 270.885724 
L 76.848095 271.481155 
L 77.024335 270.147478 
L 77.283162 267.937016 
L 77.497871 265.690456 
L 77.573845 265.1538 
L 77.733028 266.144386 
L 77.991701 265.340528 
L 78.179015 263.032878 
L 78.37971 264.85611 
L 78.709151 260.088172 
L 78.827413 261.591479 
L 79.078126 260.54923 
L 79.349733 258.358688 
L 79.494204 257.569592 
L 79.644957 253.41998 
L 79.80241 253.728623 
L 80.139286 252.466576 
L 80.319756 252.319636 
L 80.509028 248.28851 
L 80.707765 248.678735 
L 80.916693 246.843779 
L 81.368429 249.646597 
L 81.871792 247.907535 
L 82.145681 246.259161 
L 82.436169 246.568668 
L 82.744813 245.973559 
L 83.073369 243.498897 
L 83.423829 241.919481 
L 83.798458 242.812201 
L 84.199847 241.673599 
L 84.630969 242.186325 
L 85.095253 241.947503 
L 85.59668 238.802585 
L 86.730342 236.508317 
L 88.079939 231.987714 
L 88.855957 227.276823 
L 89.713662 228.34571 
L 90.666667 225.571039 
L 91.73179 225.299183 
L 92.930053 223.990287 
L 94.288086 217.468959 
L 95.840122 215.995778 
L 97.630934 210.751712 
L 102.189363 205.659848 
L 105.152342 196.850469 
L 108.773761 188.826275 
L 113.300535 194.574633 
L 119.120672 189.205648 
L 126.880856 181.100217 
L 137.745112 168.646591 
L 154.041497 158.580573 
L 181.202139 142.707687 
L 235.523422 114.522705 
L 398.487273 53.568 
L 398.487273 53.568 
" style="fill:none;stroke:#edd1cb;stroke-linecap:round;stroke-width:1.5;"/>
   </g>
   <g id="line2d_14">
    <path clip-path="url(#p349a1695d4)" d="M 73.832727 229.896632 
L 73.852936 230.148375 
L 73.976649 228.998255 
L 73.995377 229.457316 
L 74.082599 228.988383 
L 74.089749 229.087105 
L 74.157257 228.346685 
L 74.189211 228.218346 
L 74.222469 228.988383 
L 74.302501 229.639953 
L 74.321344 228.978511 
L 74.360278 229.625144 
L 74.390627 230.020035 
L 74.443547 229.353657 
L 74.546936 230.490613 
L 74.559129 230.37774 
L 74.622406 229.511613 
L 74.662332 230.25697 
L 74.791954 231.360689 
L 74.703833 230.123694 
L 74.807349 231.054649 
L 74.956099 229.579403 
L 74.887627 231.08975 
L 74.973851 230.219126 
L 75.010156 231.167741 
L 75.105882 230.918224 
L 75.25319 229.130622 
L 75.321671 229.716549 
L 75.393726 230.840766 
L 75.418587 230.340132 
L 75.469641 229.328428 
L 75.522551 229.920341 
L 75.754942 231.843122 
L 75.786579 231.005152 
L 76.026888 228.841121 
L 76.141195 230.325462 
L 76.180991 229.987148 
L 76.221681 230.251982 
L 76.263296 230.136033 
L 76.349429 229.520059 
L 76.439664 230.806435 
L 76.486412 230.536943 
L 76.583371 229.22867 
L 76.633668 229.383413 
L 76.685239 228.756696 
L 76.738132 229.235039 
L 76.792399 229.487427 
L 76.848095 229.215409 
L 76.964001 231.076854 
L 77.024335 231.657291 
L 77.086346 231.204134 
L 77.150103 231.506303 
L 77.424165 229.307966 
L 77.573845 229.843072 
L 77.652193 228.86048 
L 77.733028 229.124042 
L 77.816471 229.672274 
L 77.902649 229.649246 
L 77.991701 229.009887 
L 78.179015 230.364212 
L 78.48553 228.226336 
L 78.59527 228.287217 
L 78.709151 227.279745 
L 78.827413 227.706156 
L 79.078126 229.82222 
L 79.211158 229.759758 
L 79.349733 230.001088 
L 79.644957 230.907769 
L 79.80241 231.104919 
L 80.319756 225.962307 
L 80.509028 226.121184 
L 80.707765 226.917387 
L 81.136617 223.884217 
L 81.368429 223.768798 
L 81.871792 220.839626 
L 82.145681 222.994654 
L 82.436169 223.691998 
L 82.744813 221.474115 
L 83.073369 221.560671 
L 83.423829 216.071923 
L 83.798458 217.541603 
L 84.199847 219.789454 
L 84.630969 220.178672 
L 85.095253 223.885747 
L 85.59668 226.095237 
L 86.139893 222.440201 
L 86.730342 221.395459 
L 88.079939 213.329349 
L 88.855957 212.169097 
L 89.713662 210.384347 
L 90.666667 205.373137 
L 91.73179 202.30745 
L 92.930053 205.343736 
L 94.288086 204.866096 
L 95.840122 203.257397 
L 97.630934 202.393751 
L 99.720214 200.899438 
L 102.189363 192.640067 
L 105.152342 189.39744 
L 108.773761 187.440424 
L 113.300535 185.835297 
L 119.120672 180.546256 
L 126.880856 180.551432 
L 137.745112 162.921933 
L 154.041497 167.405818 
L 181.202139 134.883522 
L 235.523422 102.865142 
L 398.487273 53.568 
L 398.487273 53.568 
" style="fill:none;stroke:#c8879e;stroke-linecap:round;stroke-width:1.5;"/>
   </g>
   <g id="line2d_15">
    <path clip-path="url(#p349a1695d4)" d="M 73.832727 105.229594 
L 73.976649 104.193006 
L 73.858089 105.254275 
L 74.00173 104.42994 
L 74.034358 104.193006 
L 74.119035 104.780406 
L 74.257112 104.039985 
L 74.266 104.138708 
L 74.274981 104.27692 
L 74.330918 103.531563 
L 74.350384 103.358799 
L 74.380397 102.993525 
L 74.411434 103.418032 
L 74.454501 103.31931 
L 74.546936 104.05973 
L 74.59662 103.84254 
L 75.166994 107.164658 
L 74.635545 103.526627 
L 75.231111 106.604086 
L 75.321671 106.281633 
L 75.345279 106.470144 
L 75.469641 106.787636 
L 75.495858 106.63385 
L 75.693492 108.960473 
L 75.851771 110.151069 
L 75.885365 109.91295 
L 75.919652 109.764125 
L 75.954652 109.932793 
L 76.026888 110.774437 
L 76.064171 110.131276 
L 76.263296 108.864897 
L 76.305868 109.004497 
L 76.5343 110.350648 
L 76.685239 111.347797 
L 76.848095 112.783946 
L 76.905275 112.191686 
L 76.964001 112.323299 
L 77.024335 112.910498 
L 77.086346 112.809257 
L 77.283162 113.376207 
L 77.497871 111.937726 
L 77.652193 112.975052 
L 77.733028 112.79291 
L 78.277602 109.839321 
L 78.37971 110.720748 
L 78.48553 110.019445 
L 78.59527 110.126526 
L 79.078126 111.892262 
L 79.349733 114.71207 
L 79.494204 114.872962 
L 79.644957 116.887532 
L 79.80241 116.708617 
L 79.96702 117.11551 
L 80.139286 115.540042 
L 80.319756 115.18627 
L 80.509028 115.638834 
L 80.916693 118.585522 
L 81.871792 122.898208 
L 82.145681 123.644812 
L 82.436169 123.857691 
L 82.744813 121.932072 
L 83.423829 124.038004 
L 83.798458 125.618627 
L 84.630969 127.203149 
L 85.095253 129.728136 
L 85.59668 129.592248 
L 86.730342 130.948805 
L 87.374468 131.063625 
L 88.079939 134.512098 
L 88.855957 132.49341 
L 89.713662 135.229027 
L 90.666667 131.448572 
L 91.73179 134.760969 
L 92.930053 140.619932 
L 94.288086 143.215723 
L 95.840122 154.307015 
L 97.630934 150.625842 
L 99.720214 151.073837 
L 102.189363 156.538126 
L 105.152342 160.726959 
L 108.773761 162.167624 
L 113.300535 174.270488 
L 119.120672 160.80124 
L 126.880856 165.088462 
L 137.745112 150.495033 
L 154.041497 160.788409 
L 181.202139 140.028553 
L 235.523422 131.634536 
L 398.487273 53.568 
L 398.487273 53.568 
" style="fill:none;stroke:#2d1e3e;stroke-linecap:round;stroke-width:1.5;"/>
   </g>
   <g id="line2d_16"/>
   <g id="line2d_17"/>
   <g id="line2d_18"/>
   <g id="patch_3">
    <path d="M 57.6 307.584 
L 57.6 41.472 
" style="fill:none;stroke:#cccccc;stroke-linecap:square;stroke-linejoin:miter;stroke-width:0.8;"/>
   </g>
   <g id="patch_4">
    <path d="M 414.72 307.584 
L 414.72 41.472 
" style="fill:none;stroke:#cccccc;stroke-linecap:square;stroke-linejoin:miter;stroke-width:0.8;"/>
   </g>
   <g id="patch_5">
    <path d="M 57.6 307.584 
L 414.72 307.584 
" style="fill:none;stroke:#cccccc;stroke-linecap:square;stroke-linejoin:miter;stroke-width:0.8;"/>
   </g>
   <g id="patch_6">
    <path d="M 57.6 41.472 
L 414.72 41.472 
" style="fill:none;stroke:#cccccc;stroke-linecap:square;stroke-linejoin:miter;stroke-width:0.8;"/>
   </g>
   <g id="legend_1">
    <g id="patch_7">
     <path d="M 363.152 60.296738 
L 409.052 60.296738 
Q 411.052 60.296738 411.052 58.296738 
L 411.052 16.8608 
Q 411.052 14.8608 409.052 14.8608 
L 363.152 14.8608 
Q 361.152 14.8608 361.152 16.8608 
L 361.152 58.296738 
Q 361.152 60.296738 363.152 60.296738 
z
" style="fill:#ffffff;opacity:0.8;stroke:#cccccc;stroke-linejoin:miter;"/>
    </g>
    <g id="line2d_19">
     <path d="M 365.152 22.518613 
L 385.152 22.518613 
" style="fill:none;stroke:#edd1cb;stroke-linecap:round;stroke-width:1.5;"/>
    </g>
    <g id="line2d_20"/>
    <g id="text_15">
     <!-- 0.0 -->
     <g style="fill:#262626;" transform="translate(393.152 26.018613)scale(0.1 -0.1)">
      <use xlink:href="#ArialMT-48"/>
      <use x="55.615234" xlink:href="#ArialMT-46"/>
      <use x="83.398438" xlink:href="#ArialMT-48"/>
     </g>
    </g>
    <g id="line2d_21">
     <path d="M 365.152 36.663925 
L 385.152 36.663925 
" style="fill:none;stroke:#c8879e;stroke-linecap:round;stroke-width:1.5;"/>
    </g>
    <g id="line2d_22"/>
    <g id="text_16">
     <!-- 0.2 -->
     <g style="fill:#262626;" transform="translate(393.152 40.163925)scale(0.1 -0.1)">
      <use xlink:href="#ArialMT-48"/>
      <use x="55.615234" xlink:href="#ArialMT-46"/>
      <use x="83.398438" xlink:href="#ArialMT-50"/>
     </g>
    </g>
    <g id="line2d_23">
     <path d="M 365.152 50.809237 
L 385.152 50.809237 
" style="fill:none;stroke:#2d1e3e;stroke-linecap:round;stroke-width:1.5;"/>
    </g>
    <g id="line2d_24"/>
    <g id="text_17">
     <!-- 0.6 -->
     <g style="fill:#262626;" transform="translate(393.152 54.309237)scale(0.1 -0.1)">
      <use xlink:href="#ArialMT-48"/>
      <use x="55.615234" xlink:href="#ArialMT-46"/>
      <use x="83.398438" xlink:href="#ArialMT-54"/>
     </g>
    </g>
   </g>
  </g>
 </g>
 <defs>
  <clipPath id="p349a1695d4">
   <rect height="266.112" width="357.12" x="57.6" y="41.472"/>
  </clipPath>
 </defs>
</svg>
