<?xml version="1.0" encoding="utf-8" standalone="no"?>
<!DOCTYPE svg PUBLIC "-//W3C//DTD SVG 1.1//EN"
  "http://www.w3.org/Graphics/SVG/1.1/DTD/svg11.dtd">
<!-- Created with matplotlib (https://matplotlib.org/) -->
<svg height="345.6pt" version="1.1" viewBox="0 0 460.8 345.6" width="460.8pt" xmlns="http://www.w3.org/2000/svg" xmlns:xlink="http://www.w3.org/1999/xlink">
 <metadata>
  <rdf:RDF xmlns:cc="http://creativecommons.org/ns#" xmlns:dc="http://purl.org/dc/elements/1.1/" xmlns:rdf="http://www.w3.org/1999/02/22-rdf-syntax-ns#">
   <cc:Work>
    <dc:type rdf:resource="http://purl.org/dc/dcmitype/StillImage"/>
    <dc:date>2021-01-21T16:43:46.075598</dc:date>
    <dc:format>image/svg+xml</dc:format>
    <dc:creator>
     <cc:Agent>
      <dc:title>Matplotlib v3.3.3, https://matplotlib.org/</dc:title>
     </cc:Agent>
    </dc:creator>
   </cc:Work>
  </rdf:RDF>
 </metadata>
 <defs>
  <style type="text/css">*{stroke-linecap:butt;stroke-linejoin:round;}</style>
 </defs>
 <g id="figure_1">
  <g id="patch_1">
   <path d="M 0 345.6 
L 460.8 345.6 
L 460.8 0 
L 0 0 
z
" style="fill:none;"/>
  </g>
  <g id="axes_1">
   <g id="patch_2">
    <path d="M 57.6 307.584 
L 414.72 307.584 
L 414.72 41.472 
L 57.6 41.472 
z
" style="fill:none;"/>
   </g>
   <g id="matplotlib.axis_1">
    <g id="xtick_1">
     <g id="line2d_1">
      <path clip-path="url(#p0d0be72459)" d="M 73.832727 307.584 
L 73.832727 41.472 
" style="fill:none;stroke:#cccccc;stroke-linecap:round;stroke-width:0.8;"/>
     </g>
     <g id="text_1">
      <!-- 0 -->
      <g style="fill:#262626;" transform="translate(71.052259 321.741812)scale(0.1 -0.1)">
       <defs>
        <path d="M 4.15625 35.296875 
Q 4.15625 48 6.765625 55.734375 
Q 9.375 63.484375 14.515625 67.671875 
Q 19.671875 71.875 27.484375 71.875 
Q 33.25 71.875 37.59375 69.546875 
Q 41.9375 67.234375 44.765625 62.859375 
Q 47.609375 58.5 49.21875 52.21875 
Q 50.828125 45.953125 50.828125 35.296875 
Q 50.828125 22.703125 48.234375 14.96875 
Q 45.65625 7.234375 40.5 3 
Q 35.359375 -1.21875 27.484375 -1.21875 
Q 17.140625 -1.21875 11.234375 6.203125 
Q 4.15625 15.140625 4.15625 35.296875 
z
M 13.1875 35.296875 
Q 13.1875 17.671875 17.3125 11.828125 
Q 21.4375 6 27.484375 6 
Q 33.546875 6 37.671875 11.859375 
Q 41.796875 17.71875 41.796875 35.296875 
Q 41.796875 52.984375 37.671875 58.78125 
Q 33.546875 64.59375 27.390625 64.59375 
Q 21.34375 64.59375 17.71875 59.46875 
Q 13.1875 52.9375 13.1875 35.296875 
z
" id="ArialMT-48"/>
       </defs>
       <use xlink:href="#ArialMT-48"/>
      </g>
     </g>
    </g>
    <g id="xtick_2">
     <g id="line2d_2">
      <path clip-path="url(#p0d0be72459)" d="M 137.490481 307.584 
L 137.490481 41.472 
" style="fill:none;stroke:#cccccc;stroke-linecap:round;stroke-width:0.8;"/>
     </g>
     <g id="text_2">
      <!-- 50 -->
      <g style="fill:#262626;" transform="translate(131.929544 321.741812)scale(0.1 -0.1)">
       <defs>
        <path d="M 4.15625 18.75 
L 13.375 19.53125 
Q 14.40625 12.796875 18.140625 9.390625 
Q 21.875 6 27.15625 6 
Q 33.5 6 37.890625 10.78125 
Q 42.28125 15.578125 42.28125 23.484375 
Q 42.28125 31 38.0625 35.34375 
Q 33.84375 39.703125 27 39.703125 
Q 22.75 39.703125 19.328125 37.765625 
Q 15.921875 35.84375 13.96875 32.765625 
L 5.71875 33.84375 
L 12.640625 70.609375 
L 48.25 70.609375 
L 48.25 62.203125 
L 19.671875 62.203125 
L 15.828125 42.96875 
Q 22.265625 47.46875 29.34375 47.46875 
Q 38.71875 47.46875 45.15625 40.96875 
Q 51.609375 34.46875 51.609375 24.265625 
Q 51.609375 14.546875 45.953125 7.46875 
Q 39.0625 -1.21875 27.15625 -1.21875 
Q 17.390625 -1.21875 11.203125 4.25 
Q 5.03125 9.71875 4.15625 18.75 
z
" id="ArialMT-53"/>
       </defs>
       <use xlink:href="#ArialMT-53"/>
       <use x="55.615234" xlink:href="#ArialMT-48"/>
      </g>
     </g>
    </g>
    <g id="xtick_3">
     <g id="line2d_3">
      <path clip-path="url(#p0d0be72459)" d="M 201.148235 307.584 
L 201.148235 41.472 
" style="fill:none;stroke:#cccccc;stroke-linecap:round;stroke-width:0.8;"/>
     </g>
     <g id="text_3">
      <!-- 100 -->
      <g style="fill:#262626;" transform="translate(192.806829 321.741812)scale(0.1 -0.1)">
       <defs>
        <path d="M 37.25 0 
L 28.46875 0 
L 28.46875 56 
Q 25.296875 52.984375 20.140625 49.953125 
Q 14.984375 46.921875 10.890625 45.40625 
L 10.890625 53.90625 
Q 18.265625 57.375 23.78125 62.296875 
Q 29.296875 67.234375 31.59375 71.875 
L 37.25 71.875 
z
" id="ArialMT-49"/>
       </defs>
       <use xlink:href="#ArialMT-49"/>
       <use x="55.615234" xlink:href="#ArialMT-48"/>
       <use x="111.230469" xlink:href="#ArialMT-48"/>
      </g>
     </g>
    </g>
    <g id="xtick_4">
     <g id="line2d_4">
      <path clip-path="url(#p0d0be72459)" d="M 264.805989 307.584 
L 264.805989 41.472 
" style="fill:none;stroke:#cccccc;stroke-linecap:round;stroke-width:0.8;"/>
     </g>
     <g id="text_4">
      <!-- 150 -->
      <g style="fill:#262626;" transform="translate(256.464583 321.741812)scale(0.1 -0.1)">
       <use xlink:href="#ArialMT-49"/>
       <use x="55.615234" xlink:href="#ArialMT-53"/>
       <use x="111.230469" xlink:href="#ArialMT-48"/>
      </g>
     </g>
    </g>
    <g id="xtick_5">
     <g id="line2d_5">
      <path clip-path="url(#p0d0be72459)" d="M 328.463743 307.584 
L 328.463743 41.472 
" style="fill:none;stroke:#cccccc;stroke-linecap:round;stroke-width:0.8;"/>
     </g>
     <g id="text_5">
      <!-- 200 -->
      <g style="fill:#262626;" transform="translate(320.122337 321.741812)scale(0.1 -0.1)">
       <defs>
        <path d="M 50.34375 8.453125 
L 50.34375 0 
L 3.03125 0 
Q 2.9375 3.171875 4.046875 6.109375 
Q 5.859375 10.9375 9.828125 15.625 
Q 13.8125 20.3125 21.34375 26.46875 
Q 33.015625 36.03125 37.109375 41.625 
Q 41.21875 47.21875 41.21875 52.203125 
Q 41.21875 57.421875 37.46875 61 
Q 33.734375 64.59375 27.734375 64.59375 
Q 21.390625 64.59375 17.578125 60.78125 
Q 13.765625 56.984375 13.71875 50.25 
L 4.6875 51.171875 
Q 5.609375 61.28125 11.65625 66.578125 
Q 17.71875 71.875 27.9375 71.875 
Q 38.234375 71.875 44.234375 66.15625 
Q 50.25 60.453125 50.25 52 
Q 50.25 47.703125 48.484375 43.546875 
Q 46.734375 39.40625 42.65625 34.8125 
Q 38.578125 30.21875 29.109375 22.21875 
Q 21.1875 15.578125 18.9375 13.203125 
Q 16.703125 10.84375 15.234375 8.453125 
z
" id="ArialMT-50"/>
       </defs>
       <use xlink:href="#ArialMT-50"/>
       <use x="55.615234" xlink:href="#ArialMT-48"/>
       <use x="111.230469" xlink:href="#ArialMT-48"/>
      </g>
     </g>
    </g>
    <g id="xtick_6">
     <g id="line2d_6">
      <path clip-path="url(#p0d0be72459)" d="M 392.121497 307.584 
L 392.121497 41.472 
" style="fill:none;stroke:#cccccc;stroke-linecap:round;stroke-width:0.8;"/>
     </g>
     <g id="text_6">
      <!-- 250 -->
      <g style="fill:#262626;" transform="translate(383.780091 321.741812)scale(0.1 -0.1)">
       <use xlink:href="#ArialMT-50"/>
       <use x="55.615234" xlink:href="#ArialMT-53"/>
       <use x="111.230469" xlink:href="#ArialMT-48"/>
      </g>
     </g>
    </g>
    <g id="text_7">
     <!-- unstables -->
     <g style="fill:#262626;" transform="translate(214.757656 334.887125)scale(0.1 -0.1)">
      <defs>
       <path d="M 40.578125 0 
L 40.578125 7.625 
Q 34.515625 -1.171875 24.125 -1.171875 
Q 19.53125 -1.171875 15.546875 0.578125 
Q 11.578125 2.34375 9.640625 5 
Q 7.71875 7.671875 6.9375 11.53125 
Q 6.390625 14.109375 6.390625 19.734375 
L 6.390625 51.859375 
L 15.1875 51.859375 
L 15.1875 23.09375 
Q 15.1875 16.21875 15.71875 13.8125 
Q 16.546875 10.359375 19.234375 8.375 
Q 21.921875 6.390625 25.875 6.390625 
Q 29.828125 6.390625 33.296875 8.421875 
Q 36.765625 10.453125 38.203125 13.9375 
Q 39.65625 17.4375 39.65625 24.078125 
L 39.65625 51.859375 
L 48.4375 51.859375 
L 48.4375 0 
z
" id="ArialMT-117"/>
       <path d="M 6.59375 0 
L 6.59375 51.859375 
L 14.5 51.859375 
L 14.5 44.484375 
Q 20.21875 53.03125 31 53.03125 
Q 35.6875 53.03125 39.625 51.34375 
Q 43.5625 49.65625 45.515625 46.921875 
Q 47.46875 44.1875 48.25 40.4375 
Q 48.734375 37.984375 48.734375 31.890625 
L 48.734375 0 
L 39.9375 0 
L 39.9375 31.546875 
Q 39.9375 36.921875 38.90625 39.578125 
Q 37.890625 42.234375 35.28125 43.8125 
Q 32.671875 45.40625 29.15625 45.40625 
Q 23.53125 45.40625 19.453125 41.84375 
Q 15.375 38.28125 15.375 28.328125 
L 15.375 0 
z
" id="ArialMT-110"/>
       <path d="M 3.078125 15.484375 
L 11.765625 16.84375 
Q 12.5 11.625 15.84375 8.84375 
Q 19.1875 6.0625 25.203125 6.0625 
Q 31.25 6.0625 34.171875 8.515625 
Q 37.109375 10.984375 37.109375 14.3125 
Q 37.109375 17.28125 34.515625 19 
Q 32.71875 20.171875 25.53125 21.96875 
Q 15.875 24.421875 12.140625 26.203125 
Q 8.40625 27.984375 6.46875 31.125 
Q 4.546875 34.28125 4.546875 38.09375 
Q 4.546875 41.546875 6.125 44.5 
Q 7.71875 47.46875 10.453125 49.421875 
Q 12.5 50.921875 16.03125 51.96875 
Q 19.578125 53.03125 23.640625 53.03125 
Q 29.734375 53.03125 34.34375 51.265625 
Q 38.96875 49.515625 41.15625 46.5 
Q 43.359375 43.5 44.1875 38.484375 
L 35.59375 37.3125 
Q 35.015625 41.3125 32.203125 43.546875 
Q 29.390625 45.796875 24.265625 45.796875 
Q 18.21875 45.796875 15.625 43.796875 
Q 13.03125 41.796875 13.03125 39.109375 
Q 13.03125 37.40625 14.109375 36.03125 
Q 15.1875 34.625 17.484375 33.6875 
Q 18.796875 33.203125 25.25 31.453125 
Q 34.578125 28.953125 38.25 27.359375 
Q 41.9375 25.78125 44.03125 22.75 
Q 46.140625 19.734375 46.140625 15.234375 
Q 46.140625 10.84375 43.578125 6.953125 
Q 41.015625 3.078125 36.171875 0.953125 
Q 31.34375 -1.171875 25.25 -1.171875 
Q 15.140625 -1.171875 9.84375 3.03125 
Q 4.546875 7.234375 3.078125 15.484375 
z
" id="ArialMT-115"/>
       <path d="M 25.78125 7.859375 
L 27.046875 0.09375 
Q 23.34375 -0.6875 20.40625 -0.6875 
Q 15.625 -0.6875 12.984375 0.828125 
Q 10.359375 2.34375 9.28125 4.8125 
Q 8.203125 7.28125 8.203125 15.1875 
L 8.203125 45.015625 
L 1.765625 45.015625 
L 1.765625 51.859375 
L 8.203125 51.859375 
L 8.203125 64.703125 
L 16.9375 69.96875 
L 16.9375 51.859375 
L 25.78125 51.859375 
L 25.78125 45.015625 
L 16.9375 45.015625 
L 16.9375 14.703125 
Q 16.9375 10.9375 17.40625 9.859375 
Q 17.875 8.796875 18.921875 8.15625 
Q 19.96875 7.515625 21.921875 7.515625 
Q 23.390625 7.515625 25.78125 7.859375 
z
" id="ArialMT-116"/>
       <path d="M 40.4375 6.390625 
Q 35.546875 2.25 31.03125 0.53125 
Q 26.515625 -1.171875 21.34375 -1.171875 
Q 12.796875 -1.171875 8.203125 3 
Q 3.609375 7.171875 3.609375 13.671875 
Q 3.609375 17.484375 5.34375 20.625 
Q 7.078125 23.78125 9.890625 25.6875 
Q 12.703125 27.59375 16.21875 28.5625 
Q 18.796875 29.25 24.03125 29.890625 
Q 34.671875 31.15625 39.703125 32.90625 
Q 39.75 34.71875 39.75 35.203125 
Q 39.75 40.578125 37.25 42.78125 
Q 33.890625 45.75 27.25 45.75 
Q 21.046875 45.75 18.09375 43.578125 
Q 15.140625 41.40625 13.71875 35.890625 
L 5.125 37.0625 
Q 6.296875 42.578125 8.984375 45.96875 
Q 11.671875 49.359375 16.75 51.1875 
Q 21.828125 53.03125 28.515625 53.03125 
Q 35.15625 53.03125 39.296875 51.46875 
Q 43.453125 49.90625 45.40625 47.53125 
Q 47.359375 45.171875 48.140625 41.546875 
Q 48.578125 39.3125 48.578125 33.453125 
L 48.578125 21.734375 
Q 48.578125 9.46875 49.140625 6.21875 
Q 49.703125 2.984375 51.375 0 
L 42.1875 0 
Q 40.828125 2.734375 40.4375 6.390625 
z
M 39.703125 26.03125 
Q 34.90625 24.078125 25.34375 22.703125 
Q 19.921875 21.921875 17.671875 20.9375 
Q 15.4375 19.96875 14.203125 18.09375 
Q 12.984375 16.21875 12.984375 13.921875 
Q 12.984375 10.40625 15.640625 8.0625 
Q 18.3125 5.71875 23.4375 5.71875 
Q 28.515625 5.71875 32.46875 7.9375 
Q 36.421875 10.15625 38.28125 14.015625 
Q 39.703125 17 39.703125 22.796875 
z
" id="ArialMT-97"/>
       <path d="M 14.703125 0 
L 6.546875 0 
L 6.546875 71.578125 
L 15.328125 71.578125 
L 15.328125 46.046875 
Q 20.90625 53.03125 29.546875 53.03125 
Q 34.328125 53.03125 38.59375 51.09375 
Q 42.875 49.171875 45.625 45.671875 
Q 48.390625 42.1875 49.953125 37.25 
Q 51.515625 32.328125 51.515625 26.703125 
Q 51.515625 13.375 44.921875 6.09375 
Q 38.328125 -1.171875 29.109375 -1.171875 
Q 19.921875 -1.171875 14.703125 6.5 
z
M 14.59375 26.3125 
Q 14.59375 17 17.140625 12.84375 
Q 21.296875 6.0625 28.375 6.0625 
Q 34.125 6.0625 38.328125 11.0625 
Q 42.53125 16.0625 42.53125 25.984375 
Q 42.53125 36.140625 38.5 40.96875 
Q 34.46875 45.796875 28.765625 45.796875 
Q 23 45.796875 18.796875 40.796875 
Q 14.59375 35.796875 14.59375 26.3125 
z
" id="ArialMT-98"/>
       <path d="M 6.390625 0 
L 6.390625 71.578125 
L 15.1875 71.578125 
L 15.1875 0 
z
" id="ArialMT-108"/>
       <path d="M 42.09375 16.703125 
L 51.171875 15.578125 
Q 49.03125 7.625 43.21875 3.21875 
Q 37.40625 -1.171875 28.375 -1.171875 
Q 17 -1.171875 10.328125 5.828125 
Q 3.65625 12.84375 3.65625 25.484375 
Q 3.65625 38.578125 10.390625 45.796875 
Q 17.140625 53.03125 27.875 53.03125 
Q 38.28125 53.03125 44.875 45.953125 
Q 51.46875 38.875 51.46875 26.03125 
Q 51.46875 25.25 51.421875 23.6875 
L 12.75 23.6875 
Q 13.234375 15.140625 17.578125 10.59375 
Q 21.921875 6.0625 28.421875 6.0625 
Q 33.25 6.0625 36.671875 8.59375 
Q 40.09375 11.140625 42.09375 16.703125 
z
M 13.234375 30.90625 
L 42.1875 30.90625 
Q 41.609375 37.453125 38.875 40.71875 
Q 34.671875 45.796875 27.984375 45.796875 
Q 21.921875 45.796875 17.796875 41.75 
Q 13.671875 37.703125 13.234375 30.90625 
z
" id="ArialMT-101"/>
      </defs>
      <use xlink:href="#ArialMT-117"/>
      <use x="55.615234" xlink:href="#ArialMT-110"/>
      <use x="111.230469" xlink:href="#ArialMT-115"/>
      <use x="161.230469" xlink:href="#ArialMT-116"/>
      <use x="189.013672" xlink:href="#ArialMT-97"/>
      <use x="244.628906" xlink:href="#ArialMT-98"/>
      <use x="300.244141" xlink:href="#ArialMT-108"/>
      <use x="322.460938" xlink:href="#ArialMT-101"/>
      <use x="378.076172" xlink:href="#ArialMT-115"/>
     </g>
    </g>
   </g>
   <g id="matplotlib.axis_2">
    <g id="ytick_1">
     <g id="line2d_7">
      <path clip-path="url(#p0d0be72459)" d="M 57.6 307.561787 
L 414.72 307.561787 
" style="fill:none;stroke:#cccccc;stroke-linecap:round;stroke-width:0.8;"/>
     </g>
     <g id="text_8">
      <!-- 0.0 -->
      <g style="fill:#262626;" transform="translate(36.7 311.140694)scale(0.1 -0.1)">
       <defs>
        <path d="M 9.078125 0 
L 9.078125 10.015625 
L 19.09375 10.015625 
L 19.09375 0 
z
" id="ArialMT-46"/>
       </defs>
       <use xlink:href="#ArialMT-48"/>
       <use x="55.615234" xlink:href="#ArialMT-46"/>
       <use x="83.398438" xlink:href="#ArialMT-48"/>
      </g>
     </g>
    </g>
    <g id="ytick_2">
     <g id="line2d_8">
      <path clip-path="url(#p0d0be72459)" d="M 57.6 256.76303 
L 414.72 256.76303 
" style="fill:none;stroke:#cccccc;stroke-linecap:round;stroke-width:0.8;"/>
     </g>
     <g id="text_9">
      <!-- 0.2 -->
      <g style="fill:#262626;" transform="translate(36.7 260.341936)scale(0.1 -0.1)">
       <use xlink:href="#ArialMT-48"/>
       <use x="55.615234" xlink:href="#ArialMT-46"/>
       <use x="83.398438" xlink:href="#ArialMT-50"/>
      </g>
     </g>
    </g>
    <g id="ytick_3">
     <g id="line2d_9">
      <path clip-path="url(#p0d0be72459)" d="M 57.6 205.964272 
L 414.72 205.964272 
" style="fill:none;stroke:#cccccc;stroke-linecap:round;stroke-width:0.8;"/>
     </g>
     <g id="text_10">
      <!-- 0.4 -->
      <g style="fill:#262626;" transform="translate(36.7 209.543179)scale(0.1 -0.1)">
       <defs>
        <path d="M 32.328125 0 
L 32.328125 17.140625 
L 1.265625 17.140625 
L 1.265625 25.203125 
L 33.9375 71.578125 
L 41.109375 71.578125 
L 41.109375 25.203125 
L 50.78125 25.203125 
L 50.78125 17.140625 
L 41.109375 17.140625 
L 41.109375 0 
z
M 32.328125 25.203125 
L 32.328125 57.46875 
L 9.90625 25.203125 
z
" id="ArialMT-52"/>
       </defs>
       <use xlink:href="#ArialMT-48"/>
       <use x="55.615234" xlink:href="#ArialMT-46"/>
       <use x="83.398438" xlink:href="#ArialMT-52"/>
      </g>
     </g>
    </g>
    <g id="ytick_4">
     <g id="line2d_10">
      <path clip-path="url(#p0d0be72459)" d="M 57.6 155.165515 
L 414.72 155.165515 
" style="fill:none;stroke:#cccccc;stroke-linecap:round;stroke-width:0.8;"/>
     </g>
     <g id="text_11">
      <!-- 0.6 -->
      <g style="fill:#262626;" transform="translate(36.7 158.744421)scale(0.1 -0.1)">
       <defs>
        <path d="M 49.75 54.046875 
L 41.015625 53.375 
Q 39.84375 58.546875 37.703125 60.890625 
Q 34.125 64.65625 28.90625 64.65625 
Q 24.703125 64.65625 21.53125 62.3125 
Q 17.390625 59.28125 14.984375 53.46875 
Q 12.59375 47.65625 12.5 36.921875 
Q 15.671875 41.75 20.265625 44.09375 
Q 24.859375 46.4375 29.890625 46.4375 
Q 38.671875 46.4375 44.84375 39.96875 
Q 51.03125 33.5 51.03125 23.25 
Q 51.03125 16.5 48.125 10.71875 
Q 45.21875 4.9375 40.140625 1.859375 
Q 35.0625 -1.21875 28.609375 -1.21875 
Q 17.625 -1.21875 10.6875 6.859375 
Q 3.765625 14.9375 3.765625 33.5 
Q 3.765625 54.25 11.421875 63.671875 
Q 18.109375 71.875 29.4375 71.875 
Q 37.890625 71.875 43.28125 67.140625 
Q 48.6875 62.40625 49.75 54.046875 
z
M 13.875 23.1875 
Q 13.875 18.65625 15.796875 14.5 
Q 17.71875 10.359375 21.1875 8.171875 
Q 24.65625 6 28.46875 6 
Q 34.03125 6 38.03125 10.484375 
Q 42.046875 14.984375 42.046875 22.703125 
Q 42.046875 30.125 38.078125 34.390625 
Q 34.125 38.671875 28.125 38.671875 
Q 22.171875 38.671875 18.015625 34.390625 
Q 13.875 30.125 13.875 23.1875 
z
" id="ArialMT-54"/>
       </defs>
       <use xlink:href="#ArialMT-48"/>
       <use x="55.615234" xlink:href="#ArialMT-46"/>
       <use x="83.398438" xlink:href="#ArialMT-54"/>
      </g>
     </g>
    </g>
    <g id="ytick_5">
     <g id="line2d_11">
      <path clip-path="url(#p0d0be72459)" d="M 57.6 104.366757 
L 414.72 104.366757 
" style="fill:none;stroke:#cccccc;stroke-linecap:round;stroke-width:0.8;"/>
     </g>
     <g id="text_12">
      <!-- 0.8 -->
      <g style="fill:#262626;" transform="translate(36.7 107.945664)scale(0.1 -0.1)">
       <defs>
        <path d="M 17.671875 38.8125 
Q 12.203125 40.828125 9.5625 44.53125 
Q 6.9375 48.25 6.9375 53.421875 
Q 6.9375 61.234375 12.546875 66.546875 
Q 18.171875 71.875 27.484375 71.875 
Q 36.859375 71.875 42.578125 66.421875 
Q 48.296875 60.984375 48.296875 53.171875 
Q 48.296875 48.1875 45.671875 44.5 
Q 43.0625 40.828125 37.75 38.8125 
Q 44.34375 36.671875 47.78125 31.875 
Q 51.21875 27.09375 51.21875 20.453125 
Q 51.21875 11.28125 44.71875 5.03125 
Q 38.234375 -1.21875 27.640625 -1.21875 
Q 17.046875 -1.21875 10.546875 5.046875 
Q 4.046875 11.328125 4.046875 20.703125 
Q 4.046875 27.6875 7.59375 32.390625 
Q 11.140625 37.109375 17.671875 38.8125 
z
M 15.921875 53.71875 
Q 15.921875 48.640625 19.1875 45.40625 
Q 22.46875 42.1875 27.6875 42.1875 
Q 32.765625 42.1875 36.015625 45.375 
Q 39.265625 48.578125 39.265625 53.21875 
Q 39.265625 58.0625 35.90625 61.359375 
Q 32.5625 64.65625 27.59375 64.65625 
Q 22.5625 64.65625 19.234375 61.421875 
Q 15.921875 58.203125 15.921875 53.71875 
z
M 13.09375 20.65625 
Q 13.09375 16.890625 14.875 13.375 
Q 16.65625 9.859375 20.171875 7.921875 
Q 23.6875 6 27.734375 6 
Q 34.03125 6 38.125 10.046875 
Q 42.234375 14.109375 42.234375 20.359375 
Q 42.234375 26.703125 38.015625 30.859375 
Q 33.796875 35.015625 27.4375 35.015625 
Q 21.234375 35.015625 17.15625 30.90625 
Q 13.09375 26.8125 13.09375 20.65625 
z
" id="ArialMT-56"/>
       </defs>
       <use xlink:href="#ArialMT-48"/>
       <use x="55.615234" xlink:href="#ArialMT-46"/>
       <use x="83.398438" xlink:href="#ArialMT-56"/>
      </g>
     </g>
    </g>
    <g id="ytick_6">
     <g id="line2d_12">
      <path clip-path="url(#p0d0be72459)" d="M 57.6 53.568 
L 414.72 53.568 
" style="fill:none;stroke:#cccccc;stroke-linecap:round;stroke-width:0.8;"/>
     </g>
     <g id="text_13">
      <!-- 1.0 -->
      <g style="fill:#262626;" transform="translate(36.7 57.146906)scale(0.1 -0.1)">
       <use xlink:href="#ArialMT-49"/>
       <use x="55.615234" xlink:href="#ArialMT-46"/>
       <use x="83.398438" xlink:href="#ArialMT-48"/>
      </g>
     </g>
    </g>
    <g id="text_14">
     <!-- Consensus_mean -->
     <g style="fill:#262626;" transform="translate(30.7125 214.828)rotate(-90)scale(0.1 -0.1)">
      <defs>
       <path d="M 58.796875 25.09375 
L 68.265625 22.703125 
Q 65.28125 11.03125 57.546875 4.90625 
Q 49.8125 -1.21875 38.625 -1.21875 
Q 27.046875 -1.21875 19.796875 3.484375 
Q 12.546875 8.203125 8.765625 17.140625 
Q 4.984375 26.078125 4.984375 36.328125 
Q 4.984375 47.515625 9.25 55.828125 
Q 13.53125 64.15625 21.40625 68.46875 
Q 29.296875 72.796875 38.765625 72.796875 
Q 49.515625 72.796875 56.828125 67.328125 
Q 64.15625 61.859375 67.046875 51.953125 
L 57.71875 49.75 
Q 55.21875 57.5625 50.484375 61.125 
Q 45.75 64.703125 38.578125 64.703125 
Q 30.328125 64.703125 24.78125 60.734375 
Q 19.234375 56.78125 16.984375 50.109375 
Q 14.75 43.453125 14.75 36.375 
Q 14.75 27.25 17.40625 20.4375 
Q 20.0625 13.625 25.671875 10.25 
Q 31.296875 6.890625 37.84375 6.890625 
Q 45.796875 6.890625 51.3125 11.46875 
Q 56.84375 16.0625 58.796875 25.09375 
z
" id="ArialMT-67"/>
       <path d="M 3.328125 25.921875 
Q 3.328125 40.328125 11.328125 47.265625 
Q 18.015625 53.03125 27.640625 53.03125 
Q 38.328125 53.03125 45.109375 46.015625 
Q 51.90625 39.015625 51.90625 26.65625 
Q 51.90625 16.65625 48.90625 10.90625 
Q 45.90625 5.171875 40.15625 2 
Q 34.421875 -1.171875 27.640625 -1.171875 
Q 16.75 -1.171875 10.03125 5.8125 
Q 3.328125 12.796875 3.328125 25.921875 
z
M 12.359375 25.921875 
Q 12.359375 15.96875 16.703125 11.015625 
Q 21.046875 6.0625 27.640625 6.0625 
Q 34.1875 6.0625 38.53125 11.03125 
Q 42.875 16.015625 42.875 26.21875 
Q 42.875 35.84375 38.5 40.796875 
Q 34.125 45.75 27.640625 45.75 
Q 21.046875 45.75 16.703125 40.8125 
Q 12.359375 35.890625 12.359375 25.921875 
z
" id="ArialMT-111"/>
       <path d="M -1.515625 -19.875 
L -1.515625 -13.53125 
L 56.734375 -13.53125 
L 56.734375 -19.875 
z
" id="ArialMT-95"/>
       <path d="M 6.59375 0 
L 6.59375 51.859375 
L 14.453125 51.859375 
L 14.453125 44.578125 
Q 16.890625 48.390625 20.9375 50.703125 
Q 25 53.03125 30.171875 53.03125 
Q 35.9375 53.03125 39.625 50.640625 
Q 43.3125 48.25 44.828125 43.953125 
Q 50.984375 53.03125 60.84375 53.03125 
Q 68.5625 53.03125 72.703125 48.75 
Q 76.859375 44.484375 76.859375 35.59375 
L 76.859375 0 
L 68.109375 0 
L 68.109375 32.671875 
Q 68.109375 37.9375 67.25 40.25 
Q 66.40625 42.578125 64.15625 43.984375 
Q 61.921875 45.40625 58.890625 45.40625 
Q 53.421875 45.40625 49.796875 41.765625 
Q 46.1875 38.140625 46.1875 30.125 
L 46.1875 0 
L 37.40625 0 
L 37.40625 33.6875 
Q 37.40625 39.546875 35.25 42.46875 
Q 33.109375 45.40625 28.21875 45.40625 
Q 24.515625 45.40625 21.359375 43.453125 
Q 18.21875 41.5 16.796875 37.734375 
Q 15.375 33.984375 15.375 26.90625 
L 15.375 0 
z
" id="ArialMT-109"/>
      </defs>
      <use xlink:href="#ArialMT-67"/>
      <use x="72.216797" xlink:href="#ArialMT-111"/>
      <use x="127.832031" xlink:href="#ArialMT-110"/>
      <use x="183.447266" xlink:href="#ArialMT-115"/>
      <use x="233.447266" xlink:href="#ArialMT-101"/>
      <use x="289.0625" xlink:href="#ArialMT-110"/>
      <use x="344.677734" xlink:href="#ArialMT-115"/>
      <use x="394.677734" xlink:href="#ArialMT-117"/>
      <use x="450.292969" xlink:href="#ArialMT-115"/>
      <use x="500.292969" xlink:href="#ArialMT-95"/>
      <use x="555.908203" xlink:href="#ArialMT-109"/>
      <use x="639.208984" xlink:href="#ArialMT-101"/>
      <use x="694.824219" xlink:href="#ArialMT-97"/>
      <use x="750.439453" xlink:href="#ArialMT-110"/>
     </g>
    </g>
   </g>
   <g id="line2d_13">
    <path clip-path="url(#p0d0be72459)" d="M 73.832727 295.488 
L 76.379037 295.009195 
L 77.652193 295.027294 
L 81.471658 294.611013 
L 82.744813 294.387242 
L 84.017968 294.528744 
L 86.564278 294.415213 
L 87.837433 294.563297 
L 89.110588 294.272065 
L 90.383743 294.485964 
L 92.930053 294.35927 
L 94.203209 293.94628 
L 98.022674 293.791615 
L 99.295829 293.819586 
L 100.568984 293.671502 
L 101.842139 293.265094 
L 103.115294 293.121946 
L 104.388449 293.283193 
L 106.934759 292.79287 
L 108.207914 292.832359 
L 109.48107 292.736927 
L 110.754225 292.424305 
L 113.300535 292.338746 
L 120.939465 291.588124 
L 122.21262 291.566734 
L 126.032086 290.921746 
L 131.124706 290.85955 
L 136.217326 290.79209 
L 137.490481 290.578191 
L 140.036791 290.458736 
L 141.309947 290.625907 
L 143.856257 290.098257 
L 145.129412 289.877118 
L 146.402567 289.884076 
L 150.222032 289.030971 
L 151.495187 289.27538 
L 154.041497 288.492368 
L 155.314652 288.565752 
L 156.587807 288.453819 
L 157.860963 288.484094 
L 159.134118 288.345224 
L 160.407273 288.020426 
L 161.680428 287.562165 
L 162.953583 287.407147 
L 164.226738 287.692479 
L 165.499893 287.487394 
L 166.773048 287.165934 
L 168.046203 287.435071 
L 170.592513 287.142499 
L 173.138824 287.005792 
L 174.411979 287.093561 
L 176.958289 286.71362 
L 178.231444 286.509311 
L 179.504599 286.182562 
L 180.777754 286.357936 
L 182.050909 286.14366 
L 183.324064 285.573325 
L 185.870374 285.515525 
L 189.68984 285.356135 
L 190.962995 284.986677 
L 192.23615 285.100749 
L 196.055615 284.307888 
L 197.32877 284.316374 
L 198.601925 283.988168 
L 199.87508 283.864224 
L 201.148235 284.15211 
L 202.42139 284.233682 
L 203.694545 284.583372 
L 204.967701 284.793463 
L 206.240856 284.871493 
L 211.333476 284.014055 
L 212.606631 283.457839 
L 213.879786 283.249047 
L 215.152941 283.368353 
L 217.699251 282.687674 
L 222.791872 283.127264 
L 224.065027 282.769883 
L 226.611337 281.672045 
L 227.884492 281.384293 
L 229.157647 280.71388 
L 231.703957 280.430624 
L 232.977112 280.651129 
L 234.250267 280.366505 
L 235.523422 279.894916 
L 238.069733 280.168419 
L 239.342888 279.757286 
L 240.616043 279.806571 
L 241.889198 280.066744 
L 244.435508 279.766848 
L 245.708663 279.94983 
L 246.981818 279.8213 
L 248.254973 279.403542 
L 249.528128 279.734589 
L 250.801283 279.645072 
L 252.074439 279.25068 
L 253.347594 278.618215 
L 254.620749 278.880418 
L 255.893904 278.963885 
L 257.167059 278.225362 
L 258.440214 278.268346 
L 259.713369 277.717704 
L 260.986524 277.947867 
L 262.259679 277.843372 
L 263.532834 278.156653 
L 264.805989 277.860621 
L 266.079144 277.213343 
L 267.352299 276.953186 
L 268.625455 277.293262 
L 269.89861 276.580506 
L 271.171765 276.184812 
L 272.44492 276.190551 
L 273.718075 276.452771 
L 274.99123 275.825173 
L 276.264385 275.630397 
L 277.53754 275.121636 
L 278.810695 275.204499 
L 280.08385 275.627872 
L 281.357005 275.827585 
L 282.63016 275.15199 
L 285.176471 274.630009 
L 286.449626 274.510485 
L 287.722781 274.878505 
L 288.995936 274.057535 
L 290.269091 273.777497 
L 291.542246 272.84587 
L 292.815401 272.4664 
L 294.088556 273.11852 
L 295.361711 272.727821 
L 296.634866 271.840467 
L 297.908021 272.646945 
L 299.181176 271.46193 
L 300.454332 270.885724 
L 301.727487 271.455867 
L 303.000642 271.481155 
L 304.273797 271.217273 
L 305.546952 270.748678 
L 306.820107 270.147478 
L 308.093262 269.760085 
L 309.366417 269.05728 
L 310.639572 268.823655 
L 311.912727 267.937016 
L 313.185882 266.716254 
L 314.459037 267.04953 
L 315.732193 265.690456 
L 317.005348 265.1538 
L 318.278503 266.016513 
L 319.551658 266.144386 
L 322.097968 265.685056 
L 323.371123 265.340528 
L 324.644278 264.438011 
L 325.917433 263.032878 
L 327.190588 264.42579 
L 328.463743 264.85611 
L 329.736898 263.367109 
L 331.010053 262.308124 
L 332.283209 260.088172 
L 333.556364 261.591479 
L 334.829519 261.17582 
L 336.102674 260.54923 
L 337.375829 259.120321 
L 339.922139 257.569592 
L 341.195294 253.41998 
L 342.468449 253.728623 
L 343.741604 252.977064 
L 345.014759 252.466576 
L 346.287914 252.319636 
L 347.56107 248.28851 
L 348.834225 248.678735 
L 350.10738 246.843779 
L 351.380535 248.092781 
L 352.65369 249.646597 
L 355.2 247.907535 
L 356.473155 246.259161 
L 357.74631 246.568668 
L 359.019465 245.973559 
L 360.29262 243.498897 
L 361.565775 241.919481 
L 362.83893 242.812201 
L 364.112086 241.673599 
L 365.385241 242.186325 
L 366.658396 241.947503 
L 367.931551 238.802585 
L 369.204706 237.809652 
L 370.477861 236.508317 
L 373.024171 231.987714 
L 374.297326 227.276823 
L 375.570481 228.34571 
L 376.843636 225.571039 
L 378.116791 225.299183 
L 379.389947 223.990287 
L 380.663102 217.468959 
L 381.936257 215.995778 
L 383.209412 210.751712 
L 384.482567 208.490445 
L 385.755722 205.659848 
L 387.028877 196.850469 
L 388.302032 188.826275 
L 389.575187 194.574633 
L 390.848342 189.205648 
L 392.121497 181.100217 
L 393.394652 168.646591 
L 394.667807 158.580573 
L 395.940963 142.707687 
L 397.214118 114.522705 
L 398.487273 53.568 
L 398.487273 53.568 
" style="fill:none;stroke:#edd1cb;stroke-linecap:round;stroke-width:1.5;"/>
   </g>
   <g id="line2d_14">
    <path clip-path="url(#p0d0be72459)" d="M 73.832727 229.896632 
L 75.105882 229.783101 
L 77.652193 229.960801 
L 78.925348 230.148375 
L 80.198503 229.906504 
L 82.744813 229.75842 
L 84.017968 229.960801 
L 85.291123 229.768292 
L 89.110588 229.620208 
L 90.383743 229.679442 
L 91.656898 229.560974 
L 95.476364 229.565911 
L 96.749519 229.126595 
L 105.661604 229.092042 
L 106.934759 228.998255 
L 109.48107 229.403018 
L 110.754225 229.457316 
L 112.02738 229.23519 
L 113.300535 229.245062 
L 114.57369 229.141403 
L 117.12 229.254934 
L 119.66631 229.04268 
L 122.21262 229.353657 
L 124.75893 229.328976 
L 127.305241 228.988383 
L 128.578396 229.087105 
L 129.851551 229.057489 
L 131.124706 228.766257 
L 132.397861 228.884724 
L 136.217326 228.741576 
L 137.490481 228.51945 
L 138.763636 228.58362 
L 140.036791 228.346685 
L 141.309947 228.228218 
L 143.856257 228.509578 
L 145.129412 228.218346 
L 146.402567 228.51945 
L 148.948877 228.702087 
L 151.495187 229.161148 
L 152.768342 229.25987 
L 154.041497 229.501741 
L 156.587807 229.353657 
L 157.860963 229.620208 
L 161.680428 229.639953 
L 164.226738 228.978511 
L 168.046203 229.393146 
L 169.319358 229.625144 
L 170.592513 229.437571 
L 171.865668 229.842334 
L 173.138824 230.020035 
L 174.411979 229.965738 
L 175.685134 229.649825 
L 176.958289 229.649825 
L 178.231444 229.802845 
L 179.504599 229.353657 
L 180.777754 230.06446 
L 184.597219 230.261906 
L 185.870374 230.296459 
L 187.143529 230.212544 
L 188.416684 230.291193 
L 189.68984 230.233934 
L 190.962995 230.490613 
L 194.78246 230.153311 
L 196.055615 229.565911 
L 197.32877 229.669569 
L 198.601925 229.511613 
L 199.87508 229.620208 
L 203.694545 230.45277 
L 204.967701 230.49884 
L 206.240856 230.123694 
L 207.514011 230.321139 
L 210.060321 231.359373 
L 211.333476 231.293558 
L 212.606631 231.036879 
L 213.879786 231.360689 
L 215.152941 231.054649 
L 217.699251 230.870915 
L 218.972406 231.033259 
L 221.518717 231.08975 
L 222.791872 230.251046 
L 225.338182 230.188851 
L 226.611337 229.579403 
L 227.884492 230.219126 
L 229.157647 230.559719 
L 230.430802 231.167741 
L 231.703957 231.154766 
L 232.977112 230.829969 
L 234.250267 231.014392 
L 235.523422 230.903415 
L 236.796578 230.918224 
L 238.069733 230.750724 
L 239.342888 230.157871 
L 240.616043 229.996749 
L 241.889198 229.98813 
L 243.162353 229.857487 
L 244.435508 229.941347 
L 245.708663 229.130622 
L 248.254973 229.947701 
L 249.528128 229.716549 
L 252.074439 230.674606 
L 253.347594 230.840766 
L 254.620749 230.340132 
L 255.893904 229.569617 
L 257.167059 229.328428 
L 260.986524 230.072515 
L 262.259679 230.210076 
L 264.805989 230.885136 
L 266.079144 231.071166 
L 267.352299 231.142175 
L 268.625455 231.324883 
L 269.89861 231.843122 
L 271.171765 231.005152 
L 272.44492 230.50999 
L 273.718075 229.8396 
L 277.53754 228.875596 
L 278.810695 228.977124 
L 280.08385 228.841121 
L 281.357005 229.774599 
L 282.63016 230.203565 
L 283.903316 230.325462 
L 285.176471 229.987148 
L 286.449626 230.251982 
L 287.722781 230.136033 
L 290.269091 229.520059 
L 291.542246 230.303455 
L 292.815401 230.806435 
L 294.088556 230.536943 
L 295.361711 229.516416 
L 296.634866 229.22867 
L 297.908021 229.383413 
L 299.181176 228.756696 
L 300.454332 229.235039 
L 301.727487 229.487427 
L 303.000642 229.215409 
L 304.273797 229.691848 
L 305.546952 231.076854 
L 306.820107 231.657291 
L 308.093262 231.204134 
L 309.366417 231.506303 
L 310.639572 230.739518 
L 311.912727 230.784589 
L 313.185882 229.903926 
L 314.459037 229.307966 
L 315.732193 229.467336 
L 317.005348 229.843072 
L 318.278503 228.86048 
L 319.551658 229.124042 
L 320.824813 229.672274 
L 322.097968 229.649246 
L 323.371123 229.009887 
L 325.917433 230.364212 
L 327.190588 229.622864 
L 328.463743 229.613721 
L 329.736898 228.226336 
L 331.010053 228.287217 
L 332.283209 227.279745 
L 333.556364 227.706156 
L 336.102674 229.82222 
L 337.375829 229.759758 
L 338.648984 230.001088 
L 339.922139 230.572476 
L 341.195294 230.907769 
L 342.468449 231.104919 
L 343.741604 229.718986 
L 345.014759 228.089478 
L 346.287914 225.962307 
L 347.56107 226.121184 
L 348.834225 226.917387 
L 351.380535 223.884217 
L 352.65369 223.768798 
L 355.2 220.839626 
L 356.473155 222.994654 
L 357.74631 223.691998 
L 359.019465 221.474115 
L 360.29262 221.560671 
L 361.565775 216.071923 
L 362.83893 217.541603 
L 364.112086 219.789454 
L 365.385241 220.178672 
L 366.658396 223.885747 
L 367.931551 226.095237 
L 369.204706 222.440201 
L 370.477861 221.395459 
L 373.024171 213.329349 
L 374.297326 212.169097 
L 375.570481 210.384347 
L 376.843636 205.373137 
L 378.116791 202.30745 
L 379.389947 205.343736 
L 380.663102 204.866096 
L 381.936257 203.257397 
L 383.209412 202.393751 
L 384.482567 200.899438 
L 385.755722 192.640067 
L 387.028877 189.39744 
L 388.302032 187.440424 
L 389.575187 185.835297 
L 390.848342 180.546256 
L 392.121497 180.551432 
L 393.394652 162.921933 
L 394.667807 167.405818 
L 397.214118 102.865142 
L 398.487273 53.568 
L 398.487273 53.568 
" style="fill:none;stroke:#c8879e;stroke-linecap:round;stroke-width:1.5;"/>
   </g>
   <g id="line2d_15">
    <path clip-path="url(#p0d0be72459)" d="M 73.832727 105.229594 
L 76.379037 104.997596 
L 77.652193 105.195041 
L 81.471658 105.219722 
L 90.383743 104.602705 
L 92.930053 104.499046 
L 94.203209 104.686619 
L 99.295829 104.548407 
L 105.661604 104.336153 
L 106.934759 104.193006 
L 109.48107 104.528663 
L 112.02738 104.42994 
L 113.300535 104.55828 
L 118.393155 104.193006 
L 123.485775 104.573088 
L 126.032086 104.390451 
L 127.305241 104.55828 
L 133.671016 104.780406 
L 137.490481 104.523727 
L 138.763636 104.563216 
L 141.309947 104.197942 
L 142.583102 104.183133 
L 143.856257 104.296664 
L 146.402567 104.271984 
L 147.675722 104.370706 
L 151.495187 104.14858 
L 155.314652 104.039985 
L 157.860963 104.27692 
L 159.134118 104.222622 
L 160.407273 103.921518 
L 161.680428 103.763562 
L 164.226738 103.704328 
L 165.499893 103.531563 
L 166.773048 103.506883 
L 169.319358 103.131736 
L 170.592513 103.225523 
L 171.865668 102.993525 
L 173.138824 103.31931 
L 175.685134 103.418032 
L 179.504599 103.27982 
L 180.777754 103.31931 
L 183.324064 103.56118 
L 184.597219 103.462457 
L 187.143529 103.620414 
L 188.416684 103.422968 
L 189.68984 103.571052 
L 190.962995 104.05973 
L 192.23615 103.896837 
L 198.601925 103.699392 
L 199.87508 103.526627 
L 201.148235 103.724073 
L 202.42139 103.729009 
L 203.694545 104.163389 
L 208.787166 104.58296 
L 210.060321 104.237431 
L 213.879786 105.328317 
L 215.152941 105.38755 
L 216.426096 105.17036 
L 217.699251 105.417167 
L 218.972406 105.530698 
L 221.518717 105.323381 
L 225.338182 105.229594 
L 226.611337 105.195041 
L 227.884492 105.584996 
L 229.157647 105.831802 
L 230.430802 106.295799 
L 231.703957 105.984823 
L 232.977112 105.915717 
L 234.250267 106.053929 
L 235.523422 106.024312 
L 236.796578 106.40933 
L 238.069733 106.961264 
L 239.342888 107.149775 
L 240.616043 107.164658 
L 244.435508 106.604086 
L 245.708663 106.440379 
L 246.981818 106.460222 
L 248.254973 106.311397 
L 249.528128 106.281633 
L 253.347594 106.767792 
L 257.167059 106.787636 
L 258.440214 106.63385 
L 259.713369 107.253952 
L 260.986524 107.224188 
L 262.259679 107.700426 
L 264.805989 108.017918 
L 266.079144 108.568569 
L 271.171765 110.131226 
L 272.44492 109.858381 
L 273.718075 110.151069 
L 276.264385 109.764125 
L 277.53754 109.932793 
L 278.810695 110.609907 
L 280.08385 110.774437 
L 281.357005 110.131276 
L 283.903316 109.652644 
L 285.176471 109.109198 
L 287.722781 108.864897 
L 288.995936 109.004497 
L 290.269091 109.413328 
L 291.542246 109.413328 
L 292.815401 110.151219 
L 294.088556 109.872017 
L 295.361711 110.350648 
L 296.634866 110.535121 
L 297.908021 110.86418 
L 300.454332 111.856343 
L 301.727487 112.709994 
L 303.000642 112.783946 
L 304.273797 112.191686 
L 305.546952 112.323299 
L 306.820107 112.910498 
L 308.093262 112.809257 
L 309.366417 112.991491 
L 310.639572 113.350897 
L 311.912727 113.376207 
L 313.185882 112.864939 
L 314.459037 112.553376 
L 315.732193 111.937726 
L 317.005348 112.243715 
L 318.278503 112.975052 
L 319.551658 112.79291 
L 320.824813 112.234819 
L 323.371123 110.694899 
L 325.917433 110.366734 
L 327.190588 109.839321 
L 328.463743 110.720748 
L 329.736898 110.019445 
L 331.010053 110.126526 
L 332.283209 110.599012 
L 333.556364 111.323449 
L 336.102674 111.892262 
L 337.375829 113.652552 
L 338.648984 114.71207 
L 339.922139 114.872962 
L 341.195294 116.887532 
L 342.468449 116.708617 
L 343.741604 117.11551 
L 345.014759 115.540042 
L 346.287914 115.18627 
L 347.56107 115.638834 
L 348.834225 117.343587 
L 351.380535 119.687787 
L 352.65369 120.487618 
L 353.926845 121.574112 
L 355.2 122.898208 
L 356.473155 123.644812 
L 357.74631 123.857691 
L 359.019465 121.932072 
L 360.29262 122.876423 
L 361.565775 124.038004 
L 362.83893 125.618627 
L 365.385241 127.203149 
L 366.658396 129.728136 
L 367.931551 129.592248 
L 370.477861 130.948805 
L 371.751016 131.063625 
L 373.024171 134.512098 
L 374.297326 132.49341 
L 375.570481 135.229027 
L 376.843636 131.448572 
L 378.116791 134.760969 
L 379.389947 140.619932 
L 380.663102 143.215723 
L 381.936257 154.307015 
L 383.209412 150.625842 
L 384.482567 151.073837 
L 385.755722 156.538126 
L 387.028877 160.726959 
L 388.302032 162.167624 
L 389.575187 174.270488 
L 390.848342 160.80124 
L 392.121497 165.088462 
L 393.394652 150.495033 
L 394.667807 160.788409 
L 395.940963 140.028553 
L 397.214118 131.634536 
L 398.487273 53.568 
L 398.487273 53.568 
" style="fill:none;stroke:#2d1e3e;stroke-linecap:round;stroke-width:1.5;"/>
   </g>
   <g id="line2d_16"/>
   <g id="line2d_17"/>
   <g id="line2d_18"/>
   <g id="patch_3">
    <path d="M 57.6 307.584 
L 57.6 41.472 
" style="fill:none;stroke:#cccccc;stroke-linecap:square;stroke-linejoin:miter;stroke-width:0.8;"/>
   </g>
   <g id="patch_4">
    <path d="M 414.72 307.584 
L 414.72 41.472 
" style="fill:none;stroke:#cccccc;stroke-linecap:square;stroke-linejoin:miter;stroke-width:0.8;"/>
   </g>
   <g id="patch_5">
    <path d="M 57.6 307.584 
L 414.72 307.584 
" style="fill:none;stroke:#cccccc;stroke-linecap:square;stroke-linejoin:miter;stroke-width:0.8;"/>
   </g>
   <g id="patch_6">
    <path d="M 57.6 41.472 
L 414.72 41.472 
" style="fill:none;stroke:#cccccc;stroke-linecap:square;stroke-linejoin:miter;stroke-width:0.8;"/>
   </g>
   <g id="legend_1">
    <g id="patch_7">
     <path d="M 363.152 60.296738 
L 409.052 60.296738 
Q 411.052 60.296738 411.052 58.296738 
L 411.052 16.8608 
Q 411.052 14.8608 409.052 14.8608 
L 363.152 14.8608 
Q 361.152 14.8608 361.152 16.8608 
L 361.152 58.296738 
Q 361.152 60.296738 363.152 60.296738 
z
" style="fill:#ffffff;opacity:0.8;stroke:#cccccc;stroke-linejoin:miter;"/>
    </g>
    <g id="line2d_19">
     <path d="M 365.152 22.518613 
L 385.152 22.518613 
" style="fill:none;stroke:#edd1cb;stroke-linecap:round;stroke-width:1.5;"/>
    </g>
    <g id="line2d_20"/>
    <g id="text_15">
     <!-- 0.0 -->
     <g style="fill:#262626;" transform="translate(393.152 26.018613)scale(0.1 -0.1)">
      <use xlink:href="#ArialMT-48"/>
      <use x="55.615234" xlink:href="#ArialMT-46"/>
      <use x="83.398438" xlink:href="#ArialMT-48"/>
     </g>
    </g>
    <g id="line2d_21">
     <path d="M 365.152 36.663925 
L 385.152 36.663925 
" style="fill:none;stroke:#c8879e;stroke-linecap:round;stroke-width:1.5;"/>
    </g>
    <g id="line2d_22"/>
    <g id="text_16">
     <!-- 0.2 -->
     <g style="fill:#262626;" transform="translate(393.152 40.163925)scale(0.1 -0.1)">
      <use xlink:href="#ArialMT-48"/>
      <use x="55.615234" xlink:href="#ArialMT-46"/>
      <use x="83.398438" xlink:href="#ArialMT-50"/>
     </g>
    </g>
    <g id="line2d_23">
     <path d="M 365.152 50.809237 
L 385.152 50.809237 
" style="fill:none;stroke:#2d1e3e;stroke-linecap:round;stroke-width:1.5;"/>
    </g>
    <g id="line2d_24"/>
    <g id="text_17">
     <!-- 0.6 -->
     <g style="fill:#262626;" transform="translate(393.152 54.309237)scale(0.1 -0.1)">
      <use xlink:href="#ArialMT-48"/>
      <use x="55.615234" xlink:href="#ArialMT-46"/>
      <use x="83.398438" xlink:href="#ArialMT-54"/>
     </g>
    </g>
   </g>
  </g>
 </g>
 <defs>
  <clipPath id="p0d0be72459">
   <rect height="266.112" width="357.12" x="57.6" y="41.472"/>
  </clipPath>
 </defs>
</svg>
