<?xml version="1.0" encoding="utf-8" standalone="no"?>
<!DOCTYPE svg PUBLIC "-//W3C//DTD SVG 1.1//EN"
  "http://www.w3.org/Graphics/SVG/1.1/DTD/svg11.dtd">
<!-- Created with matplotlib (https://matplotlib.org/) -->
<svg height="391.68pt" version="1.1" viewBox="0 0 583.92 391.68" width="583.92pt" xmlns="http://www.w3.org/2000/svg" xmlns:xlink="http://www.w3.org/1999/xlink">
 <metadata>
  <rdf:RDF xmlns:cc="http://creativecommons.org/ns#" xmlns:dc="http://purl.org/dc/elements/1.1/" xmlns:rdf="http://www.w3.org/1999/02/22-rdf-syntax-ns#">
   <cc:Work>
    <dc:type rdf:resource="http://purl.org/dc/dcmitype/StillImage"/>
    <dc:date>2021-03-08T01:04:28.914008</dc:date>
    <dc:format>image/svg+xml</dc:format>
    <dc:creator>
     <cc:Agent>
      <dc:title>Matplotlib v3.3.3, https://matplotlib.org/</dc:title>
     </cc:Agent>
    </dc:creator>
   </cc:Work>
  </rdf:RDF>
 </metadata>
 <defs>
  <style type="text/css">*{stroke-linecap:butt;stroke-linejoin:round;}</style>
 </defs>
 <g id="figure_1">
  <g id="patch_1">
   <path d="M 0 391.68 
L 583.92 391.68 
L 583.92 0 
L 0 0 
z
" style="fill:none;"/>
  </g>
  <g id="axes_1">
   <g id="patch_2">
    <path d="M 72.99 348.5952 
L 525.528 348.5952 
L 525.528 47.0016 
L 72.99 47.0016 
z
" style="fill:none;"/>
   </g>
   <g id="matplotlib.axis_1">
    <g id="xtick_1">
     <g id="line2d_1">
      <path clip-path="url(#p203a427f5e)" d="M 93.559909 348.5952 
L 93.559909 47.0016 
" style="fill:none;stroke:#cccccc;stroke-linecap:round;stroke-width:0.8;"/>
     </g>
     <g id="text_1">
      <!-- 0 -->
      <g style="fill:#262626;" transform="translate(90.77944 362.753013)scale(0.1 -0.1)">
       <defs>
        <path d="M 4.15625 35.296875 
Q 4.15625 48 6.765625 55.734375 
Q 9.375 63.484375 14.515625 67.671875 
Q 19.671875 71.875 27.484375 71.875 
Q 33.25 71.875 37.59375 69.546875 
Q 41.9375 67.234375 44.765625 62.859375 
Q 47.609375 58.5 49.21875 52.21875 
Q 50.828125 45.953125 50.828125 35.296875 
Q 50.828125 22.703125 48.234375 14.96875 
Q 45.65625 7.234375 40.5 3 
Q 35.359375 -1.21875 27.484375 -1.21875 
Q 17.140625 -1.21875 11.234375 6.203125 
Q 4.15625 15.140625 4.15625 35.296875 
z
M 13.1875 35.296875 
Q 13.1875 17.671875 17.3125 11.828125 
Q 21.4375 6 27.484375 6 
Q 33.546875 6 37.671875 11.859375 
Q 41.796875 17.71875 41.796875 35.296875 
Q 41.796875 52.984375 37.671875 58.78125 
Q 33.546875 64.59375 27.390625 64.59375 
Q 21.34375 64.59375 17.71875 59.46875 
Q 13.1875 52.9375 13.1875 35.296875 
z
" id="ArialMT-48"/>
       </defs>
       <use xlink:href="#ArialMT-48"/>
      </g>
     </g>
    </g>
    <g id="xtick_2">
     <g id="line2d_2">
      <path clip-path="url(#p203a427f5e)" d="M 173.911116 348.5952 
L 173.911116 47.0016 
" style="fill:none;stroke:#cccccc;stroke-linecap:round;stroke-width:0.8;"/>
     </g>
     <g id="text_2">
      <!-- 200 -->
      <g style="fill:#262626;" transform="translate(165.56971 362.753013)scale(0.1 -0.1)">
       <defs>
        <path d="M 50.34375 8.453125 
L 50.34375 0 
L 3.03125 0 
Q 2.9375 3.171875 4.046875 6.109375 
Q 5.859375 10.9375 9.828125 15.625 
Q 13.8125 20.3125 21.34375 26.46875 
Q 33.015625 36.03125 37.109375 41.625 
Q 41.21875 47.21875 41.21875 52.203125 
Q 41.21875 57.421875 37.46875 61 
Q 33.734375 64.59375 27.734375 64.59375 
Q 21.390625 64.59375 17.578125 60.78125 
Q 13.765625 56.984375 13.71875 50.25 
L 4.6875 51.171875 
Q 5.609375 61.28125 11.65625 66.578125 
Q 17.71875 71.875 27.9375 71.875 
Q 38.234375 71.875 44.234375 66.15625 
Q 50.25 60.453125 50.25 52 
Q 50.25 47.703125 48.484375 43.546875 
Q 46.734375 39.40625 42.65625 34.8125 
Q 38.578125 30.21875 29.109375 22.21875 
Q 21.1875 15.578125 18.9375 13.203125 
Q 16.703125 10.84375 15.234375 8.453125 
z
" id="ArialMT-50"/>
       </defs>
       <use xlink:href="#ArialMT-50"/>
       <use x="55.615234" xlink:href="#ArialMT-48"/>
       <use x="111.230469" xlink:href="#ArialMT-48"/>
      </g>
     </g>
    </g>
    <g id="xtick_3">
     <g id="line2d_3">
      <path clip-path="url(#p203a427f5e)" d="M 254.262324 348.5952 
L 254.262324 47.0016 
" style="fill:none;stroke:#cccccc;stroke-linecap:round;stroke-width:0.8;"/>
     </g>
     <g id="text_3">
      <!-- 400 -->
      <g style="fill:#262626;" transform="translate(245.920918 362.753013)scale(0.1 -0.1)">
       <defs>
        <path d="M 32.328125 0 
L 32.328125 17.140625 
L 1.265625 17.140625 
L 1.265625 25.203125 
L 33.9375 71.578125 
L 41.109375 71.578125 
L 41.109375 25.203125 
L 50.78125 25.203125 
L 50.78125 17.140625 
L 41.109375 17.140625 
L 41.109375 0 
z
M 32.328125 25.203125 
L 32.328125 57.46875 
L 9.90625 25.203125 
z
" id="ArialMT-52"/>
       </defs>
       <use xlink:href="#ArialMT-52"/>
       <use x="55.615234" xlink:href="#ArialMT-48"/>
       <use x="111.230469" xlink:href="#ArialMT-48"/>
      </g>
     </g>
    </g>
    <g id="xtick_4">
     <g id="line2d_4">
      <path clip-path="url(#p203a427f5e)" d="M 334.613531 348.5952 
L 334.613531 47.0016 
" style="fill:none;stroke:#cccccc;stroke-linecap:round;stroke-width:0.8;"/>
     </g>
     <g id="text_4">
      <!-- 600 -->
      <g style="fill:#262626;" transform="translate(326.272125 362.753013)scale(0.1 -0.1)">
       <defs>
        <path d="M 49.75 54.046875 
L 41.015625 53.375 
Q 39.84375 58.546875 37.703125 60.890625 
Q 34.125 64.65625 28.90625 64.65625 
Q 24.703125 64.65625 21.53125 62.3125 
Q 17.390625 59.28125 14.984375 53.46875 
Q 12.59375 47.65625 12.5 36.921875 
Q 15.671875 41.75 20.265625 44.09375 
Q 24.859375 46.4375 29.890625 46.4375 
Q 38.671875 46.4375 44.84375 39.96875 
Q 51.03125 33.5 51.03125 23.25 
Q 51.03125 16.5 48.125 10.71875 
Q 45.21875 4.9375 40.140625 1.859375 
Q 35.0625 -1.21875 28.609375 -1.21875 
Q 17.625 -1.21875 10.6875 6.859375 
Q 3.765625 14.9375 3.765625 33.5 
Q 3.765625 54.25 11.421875 63.671875 
Q 18.109375 71.875 29.4375 71.875 
Q 37.890625 71.875 43.28125 67.140625 
Q 48.6875 62.40625 49.75 54.046875 
z
M 13.875 23.1875 
Q 13.875 18.65625 15.796875 14.5 
Q 17.71875 10.359375 21.1875 8.171875 
Q 24.65625 6 28.46875 6 
Q 34.03125 6 38.03125 10.484375 
Q 42.046875 14.984375 42.046875 22.703125 
Q 42.046875 30.125 38.078125 34.390625 
Q 34.125 38.671875 28.125 38.671875 
Q 22.171875 38.671875 18.015625 34.390625 
Q 13.875 30.125 13.875 23.1875 
z
" id="ArialMT-54"/>
       </defs>
       <use xlink:href="#ArialMT-54"/>
       <use x="55.615234" xlink:href="#ArialMT-48"/>
       <use x="111.230469" xlink:href="#ArialMT-48"/>
      </g>
     </g>
    </g>
    <g id="xtick_5">
     <g id="line2d_5">
      <path clip-path="url(#p203a427f5e)" d="M 414.964739 348.5952 
L 414.964739 47.0016 
" style="fill:none;stroke:#cccccc;stroke-linecap:round;stroke-width:0.8;"/>
     </g>
     <g id="text_5">
      <!-- 800 -->
      <g style="fill:#262626;" transform="translate(406.623332 362.753013)scale(0.1 -0.1)">
       <defs>
        <path d="M 17.671875 38.8125 
Q 12.203125 40.828125 9.5625 44.53125 
Q 6.9375 48.25 6.9375 53.421875 
Q 6.9375 61.234375 12.546875 66.546875 
Q 18.171875 71.875 27.484375 71.875 
Q 36.859375 71.875 42.578125 66.421875 
Q 48.296875 60.984375 48.296875 53.171875 
Q 48.296875 48.1875 45.671875 44.5 
Q 43.0625 40.828125 37.75 38.8125 
Q 44.34375 36.671875 47.78125 31.875 
Q 51.21875 27.09375 51.21875 20.453125 
Q 51.21875 11.28125 44.71875 5.03125 
Q 38.234375 -1.21875 27.640625 -1.21875 
Q 17.046875 -1.21875 10.546875 5.046875 
Q 4.046875 11.328125 4.046875 20.703125 
Q 4.046875 27.6875 7.59375 32.390625 
Q 11.140625 37.109375 17.671875 38.8125 
z
M 15.921875 53.71875 
Q 15.921875 48.640625 19.1875 45.40625 
Q 22.46875 42.1875 27.6875 42.1875 
Q 32.765625 42.1875 36.015625 45.375 
Q 39.265625 48.578125 39.265625 53.21875 
Q 39.265625 58.0625 35.90625 61.359375 
Q 32.5625 64.65625 27.59375 64.65625 
Q 22.5625 64.65625 19.234375 61.421875 
Q 15.921875 58.203125 15.921875 53.71875 
z
M 13.09375 20.65625 
Q 13.09375 16.890625 14.875 13.375 
Q 16.65625 9.859375 20.171875 7.921875 
Q 23.6875 6 27.734375 6 
Q 34.03125 6 38.125 10.046875 
Q 42.234375 14.109375 42.234375 20.359375 
Q 42.234375 26.703125 38.015625 30.859375 
Q 33.796875 35.015625 27.4375 35.015625 
Q 21.234375 35.015625 17.15625 30.90625 
Q 13.09375 26.8125 13.09375 20.65625 
z
" id="ArialMT-56"/>
       </defs>
       <use xlink:href="#ArialMT-56"/>
       <use x="55.615234" xlink:href="#ArialMT-48"/>
       <use x="111.230469" xlink:href="#ArialMT-48"/>
      </g>
     </g>
    </g>
    <g id="xtick_6">
     <g id="line2d_6">
      <path clip-path="url(#p203a427f5e)" d="M 495.315946 348.5952 
L 495.315946 47.0016 
" style="fill:none;stroke:#cccccc;stroke-linecap:round;stroke-width:0.8;"/>
     </g>
     <g id="text_6">
      <!-- 1000 -->
      <g style="fill:#262626;" transform="translate(484.194071 362.753013)scale(0.1 -0.1)">
       <defs>
        <path d="M 37.25 0 
L 28.46875 0 
L 28.46875 56 
Q 25.296875 52.984375 20.140625 49.953125 
Q 14.984375 46.921875 10.890625 45.40625 
L 10.890625 53.90625 
Q 18.265625 57.375 23.78125 62.296875 
Q 29.296875 67.234375 31.59375 71.875 
L 37.25 71.875 
z
" id="ArialMT-49"/>
       </defs>
       <use xlink:href="#ArialMT-49"/>
       <use x="55.615234" xlink:href="#ArialMT-48"/>
       <use x="111.230469" xlink:href="#ArialMT-48"/>
       <use x="166.845703" xlink:href="#ArialMT-48"/>
      </g>
     </g>
    </g>
    <g id="text_7">
     <!-- fct -->
     <g style="fill:#262626;" transform="translate(293.980875 375.898325)scale(0.1 -0.1)">
      <defs>
       <path d="M 8.6875 0 
L 8.6875 45.015625 
L 0.921875 45.015625 
L 0.921875 51.859375 
L 8.6875 51.859375 
L 8.6875 57.375 
Q 8.6875 62.59375 9.625 65.140625 
Q 10.890625 68.5625 14.078125 70.671875 
Q 17.28125 72.796875 23.046875 72.796875 
Q 26.765625 72.796875 31.25 71.921875 
L 29.9375 64.265625 
Q 27.203125 64.75 24.75 64.75 
Q 20.75 64.75 19.09375 63.03125 
Q 17.4375 61.328125 17.4375 56.640625 
L 17.4375 51.859375 
L 27.546875 51.859375 
L 27.546875 45.015625 
L 17.4375 45.015625 
L 17.4375 0 
z
" id="ArialMT-102"/>
       <path d="M 40.4375 19 
L 49.078125 17.875 
Q 47.65625 8.9375 41.8125 3.875 
Q 35.984375 -1.171875 27.484375 -1.171875 
Q 16.84375 -1.171875 10.375 5.78125 
Q 3.90625 12.75 3.90625 25.734375 
Q 3.90625 34.125 6.6875 40.421875 
Q 9.46875 46.734375 15.15625 49.875 
Q 20.84375 53.03125 27.546875 53.03125 
Q 35.984375 53.03125 41.359375 48.75 
Q 46.734375 44.484375 48.25 36.625 
L 39.703125 35.296875 
Q 38.484375 40.53125 35.375 43.15625 
Q 32.28125 45.796875 27.875 45.796875 
Q 21.234375 45.796875 17.078125 41.03125 
Q 12.9375 36.28125 12.9375 25.984375 
Q 12.9375 15.53125 16.9375 10.796875 
Q 20.953125 6.0625 27.390625 6.0625 
Q 32.5625 6.0625 36.03125 9.234375 
Q 39.5 12.40625 40.4375 19 
z
" id="ArialMT-99"/>
       <path d="M 25.78125 7.859375 
L 27.046875 0.09375 
Q 23.34375 -0.6875 20.40625 -0.6875 
Q 15.625 -0.6875 12.984375 0.828125 
Q 10.359375 2.34375 9.28125 4.8125 
Q 8.203125 7.28125 8.203125 15.1875 
L 8.203125 45.015625 
L 1.765625 45.015625 
L 1.765625 51.859375 
L 8.203125 51.859375 
L 8.203125 64.703125 
L 16.9375 69.96875 
L 16.9375 51.859375 
L 25.78125 51.859375 
L 25.78125 45.015625 
L 16.9375 45.015625 
L 16.9375 14.703125 
Q 16.9375 10.9375 17.40625 9.859375 
Q 17.875 8.796875 18.921875 8.15625 
Q 19.96875 7.515625 21.921875 7.515625 
Q 23.390625 7.515625 25.78125 7.859375 
z
" id="ArialMT-116"/>
      </defs>
      <use xlink:href="#ArialMT-102"/>
      <use x="27.783203" xlink:href="#ArialMT-99"/>
      <use x="77.783203" xlink:href="#ArialMT-116"/>
     </g>
    </g>
   </g>
   <g id="matplotlib.axis_2">
    <g id="ytick_1">
     <g id="line2d_7">
      <path clip-path="url(#p203a427f5e)" d="M 72.99 340.926006 
L 525.528 340.926006 
" style="fill:none;stroke:#cccccc;stroke-linecap:round;stroke-width:0.8;"/>
     </g>
     <g id="text_8">
      <!-- 0.0 -->
      <g style="fill:#262626;" transform="translate(52.09 344.504912)scale(0.1 -0.1)">
       <defs>
        <path d="M 9.078125 0 
L 9.078125 10.015625 
L 19.09375 10.015625 
L 19.09375 0 
z
" id="ArialMT-46"/>
       </defs>
       <use xlink:href="#ArialMT-48"/>
       <use x="55.615234" xlink:href="#ArialMT-46"/>
       <use x="83.398438" xlink:href="#ArialMT-48"/>
      </g>
     </g>
    </g>
    <g id="ytick_2">
     <g id="line2d_8">
      <path clip-path="url(#p203a427f5e)" d="M 72.99 284.882885 
L 525.528 284.882885 
" style="fill:none;stroke:#cccccc;stroke-linecap:round;stroke-width:0.8;"/>
     </g>
     <g id="text_9">
      <!-- 0.2 -->
      <g style="fill:#262626;" transform="translate(52.09 288.461791)scale(0.1 -0.1)">
       <use xlink:href="#ArialMT-48"/>
       <use x="55.615234" xlink:href="#ArialMT-46"/>
       <use x="83.398438" xlink:href="#ArialMT-50"/>
      </g>
     </g>
    </g>
    <g id="ytick_3">
     <g id="line2d_9">
      <path clip-path="url(#p203a427f5e)" d="M 72.99 228.839764 
L 525.528 228.839764 
" style="fill:none;stroke:#cccccc;stroke-linecap:round;stroke-width:0.8;"/>
     </g>
     <g id="text_10">
      <!-- 0.4 -->
      <g style="fill:#262626;" transform="translate(52.09 232.41867)scale(0.1 -0.1)">
       <use xlink:href="#ArialMT-48"/>
       <use x="55.615234" xlink:href="#ArialMT-46"/>
       <use x="83.398438" xlink:href="#ArialMT-52"/>
      </g>
     </g>
    </g>
    <g id="ytick_4">
     <g id="line2d_10">
      <path clip-path="url(#p203a427f5e)" d="M 72.99 172.796642 
L 525.528 172.796642 
" style="fill:none;stroke:#cccccc;stroke-linecap:round;stroke-width:0.8;"/>
     </g>
     <g id="text_11">
      <!-- 0.6 -->
      <g style="fill:#262626;" transform="translate(52.09 176.375549)scale(0.1 -0.1)">
       <use xlink:href="#ArialMT-48"/>
       <use x="55.615234" xlink:href="#ArialMT-46"/>
       <use x="83.398438" xlink:href="#ArialMT-54"/>
      </g>
     </g>
    </g>
    <g id="ytick_5">
     <g id="line2d_11">
      <path clip-path="url(#p203a427f5e)" d="M 72.99 116.753521 
L 525.528 116.753521 
" style="fill:none;stroke:#cccccc;stroke-linecap:round;stroke-width:0.8;"/>
     </g>
     <g id="text_12">
      <!-- 0.8 -->
      <g style="fill:#262626;" transform="translate(52.09 120.332427)scale(0.1 -0.1)">
       <use xlink:href="#ArialMT-48"/>
       <use x="55.615234" xlink:href="#ArialMT-46"/>
       <use x="83.398438" xlink:href="#ArialMT-56"/>
      </g>
     </g>
    </g>
    <g id="ytick_6">
     <g id="line2d_12">
      <path clip-path="url(#p203a427f5e)" d="M 72.99 60.7104 
L 525.528 60.7104 
" style="fill:none;stroke:#cccccc;stroke-linecap:round;stroke-width:0.8;"/>
     </g>
     <g id="text_13">
      <!-- 1.0 -->
      <g style="fill:#262626;" transform="translate(52.09 64.289306)scale(0.1 -0.1)">
       <use xlink:href="#ArialMT-49"/>
       <use x="55.615234" xlink:href="#ArialMT-46"/>
       <use x="83.398438" xlink:href="#ArialMT-48"/>
      </g>
     </g>
    </g>
   </g>
   <g id="line2d_13">
    <path clip-path="url(#p203a427f5e)" d="M 93.559909 60.7104 
L 99.988006 60.7104 
L 101.59503 78.771171 
L 103.202054 88.896149 
L 104.809078 80.686708 
L 106.416102 117.081899 
L 108.023126 123.649452 
L 109.630151 155.392626 
L 111.237175 177.831767 
L 112.844199 112.977178 
L 114.451223 171.264213 
L 116.058247 137.331855 
L 117.665271 181.115543 
L 119.272295 200.818203 
L 120.87932 176.737174 
L 122.486344 165.243956 
L 124.093368 192.335113 
L 125.700392 189.872281 
L 127.307416 159.770995 
L 128.91444 224.351936 
L 130.521464 192.061465 
L 132.128489 221.615455 
L 133.735513 228.183008 
L 135.342537 211.764125 
L 136.949561 223.804639 
L 138.556585 209.027645 
L 140.163609 248.98026 
L 141.770634 223.804639 
L 143.377658 228.730304 
L 144.984682 235.297858 
L 146.591706 216.68979 
L 148.19873 245.696484 
L 149.805754 229.824897 
L 151.412778 245.149188 
L 153.019803 239.12893 
L 154.626827 218.331678 
L 156.233851 221.068159 
L 157.840875 232.561377 
L 193.195406 265.94644 
L 194.80243 274.703177 
L 199.623503 247.885668 
L 201.230527 270.872105 
L 202.837551 257.736998 
L 204.444575 271.966697 
L 206.051599 284.007211 
L 207.658624 253.358629 
L 209.265648 255.000517 
L 210.872672 257.189702 
L 212.479696 242.412707 
L 214.08672 268.409272 
L 215.693744 270.872105 
L 217.300768 263.209959 
L 218.907793 286.743692 
L 220.514817 280.723434 
L 222.121841 284.007211 
L 223.728865 271.419401 
L 225.335889 273.061289 
L 226.942913 278.53425 
L 228.549937 288.38558 
L 230.156962 264.851847 
L 231.763986 286.470044 
L 233.37101 285.922747 
L 234.978034 281.270731 
L 236.585058 289.75382 
L 238.192082 279.081546 
L 239.799107 285.649099 
L 241.406131 283.459915 
L 243.013155 279.081546 
L 244.620179 276.618714 
L 247.834227 289.206524 
L 249.441251 282.365323 
L 252.6553 297.415966 
L 254.262324 282.365323 
L 255.869348 277.439658 
L 257.476372 282.091675 
L 259.083396 256.09511 
L 260.69042 287.564636 
L 262.297445 291.669357 
L 263.904469 277.986954 
L 265.511493 286.470044 
L 267.118517 280.723434 
L 268.725541 295.500429 
L 270.332565 287.838284 
L 271.939589 295.500429 
L 273.546614 291.395708 
L 275.153638 295.500429 
L 276.760662 292.490301 
L 279.97471 293.037597 
L 281.581734 290.027468 
L 283.188759 293.311245 
L 284.795783 293.584893 
L 286.402807 287.838284 
L 288.009831 295.500429 
L 289.616855 294.132189 
L 291.223879 301.794334 
L 294.437928 295.774077 
L 296.044952 297.142318 
L 297.651976 287.01734 
L 299.259 289.480172 
L 300.866024 299.057854 
L 302.473048 289.206524 
L 304.080072 288.111932 
L 305.687097 294.405837 
L 307.294121 293.858541 
L 308.901145 303.709871 
L 312.115193 294.132189 
L 313.722217 300.426094 
L 315.329241 296.321373 
L 316.936266 302.888927 
L 318.54329 302.067983 
L 384.43128 302.888927 
L 386.038304 302.615279 
L 387.645328 307.814592 
L 389.252352 310.82472 
L 390.859376 311.372016 
L 392.466401 296.321373 
L 394.073425 311.372016 
L 395.680449 308.361888 
L 397.287473 301.247038 
L 398.894497 299.331502 
L 400.501521 303.709871 
L 402.108545 305.351759 
L 403.71557 311.372016 
L 405.322594 313.287553 
L 406.929618 305.625407 
L 408.536642 307.814592 
L 410.143666 295.500429 
L 411.75069 306.719999 
L 413.357714 303.983519 
L 414.964739 306.993647 
L 416.571763 311.645664 
L 418.178787 309.182832 
L 419.785811 311.372016 
L 421.392835 311.098368 
L 422.999859 314.382145 
L 424.606884 310.82472 
L 426.213908 306.172703 
L 427.820932 312.19296 
L 429.427956 309.730128 
L 431.03498 315.203089 
L 432.642004 311.919312 
L 435.856053 315.750385 
L 437.463077 309.182832 
L 439.070101 316.024033 
L 440.677125 307.540944 
L 442.284149 308.635536 
L 443.891173 306.446351 
L 445.498197 310.551072 
L 447.105222 312.19296 
L 448.712246 306.993647 
L 450.31927 307.814592 
L 451.926294 315.476737 
L 453.533318 310.551072 
L 455.140342 312.740257 
L 456.747366 320.67605 
L 458.354391 314.655793 
L 459.961415 316.844977 
L 461.568439 314.655793 
L 463.175463 313.287553 
L 464.782487 317.93957 
L 466.389511 318.760514 
L 467.996536 317.665922 
L 469.60356 319.855106 
L 471.210584 318.486866 
L 472.817608 316.571329 
L 474.424632 319.034162 
L 476.031656 319.034162 
L 479.245705 316.297681 
L 480.852729 309.730128 
L 482.459753 317.93957 
L 484.066777 314.929441 
L 485.673801 317.118625 
L 487.280825 319.581458 
L 488.887849 319.855106 
L 490.494874 318.486866 
L 492.101898 314.655793 
L 493.708922 315.750385 
L 495.315946 320.402402 
L 496.92297 317.665922 
L 498.529994 319.30781 
L 500.137018 319.30781 
L 501.744043 317.392273 
L 503.351067 319.034162 
L 504.958091 320.128754 
L 504.958091 320.128754 
" style="fill:none;stroke:#1f77b4;stroke-linecap:round;stroke-width:1.5;"/>
   </g>
   <g id="line2d_14">
    <path clip-path="url(#p203a427f5e)" d="M 93.559909 159.419336 
L 95.166933 177.986706 
L 96.773957 211.144516 
L 98.380982 230.166212 
L 99.988006 246.357159 
L 101.59503 251.022699 
L 103.202054 250.184351 
L 104.809078 267.032863 
L 106.416102 261.770989 
L 108.023126 274.848211 
L 109.630151 279.91138 
L 111.237175 286.273017 
L 112.844199 285.985686 
L 114.451223 280.548842 
L 116.058247 285.884437 
L 117.665271 280.975028 
L 119.272295 290.473515 
L 120.87932 294.41089 
L 122.486344 295.785023 
L 124.093368 291.513377 
L 125.700392 293.853068 
L 127.307416 293.308189 
L 128.91444 301.701294 
L 130.521464 305.559732 
L 132.128489 301.641092 
L 133.735513 304.941287 
L 135.342537 304.539024 
L 136.949561 305.160206 
L 138.556585 302.738396 
L 140.163609 304.919395 
L 141.770634 305.154687 
L 143.377658 306.501081 
L 144.984682 306.495304 
L 146.591706 303.906533 
L 148.19873 307.382228 
L 149.805754 304.87524 
L 151.412778 310.704314 
L 153.019803 313.256891 
L 154.626827 304.698129 
L 156.233851 307.529983 
L 157.840875 307.257957 
L 191.588382 317.500743 
L 193.195406 316.359598 
L 194.80243 317.861583 
L 196.409455 317.333498 
L 198.016479 320.099102 
L 199.623503 315.091008 
L 201.230527 318.310725 
L 202.837551 317.141888 
L 204.444575 316.355448 
L 206.051599 320.46476 
L 207.658624 321.863963 
L 209.265648 318.629046 
L 210.872672 320.83824 
L 212.479696 321.045727 
L 214.08672 319.929707 
L 215.693744 321.471545 
L 217.300768 318.616685 
L 218.907793 321.618683 
L 220.514817 320.897594 
L 222.121841 323.254621 
L 223.728865 321.060756 
L 225.335889 322.943898 
L 226.942913 320.428386 
L 228.549937 320.477543 
L 230.156962 318.987686 
L 231.763986 322.501203 
L 233.37101 321.687515 
L 234.978034 322.242861 
L 236.585058 321.482655 
L 238.192082 323.97774 
L 239.799107 323.908073 
L 241.406131 324.786811 
L 243.013155 323.324461 
L 244.620179 319.85384 
L 246.227203 323.075476 
L 247.834227 320.70244 
L 249.441251 321.403658 
L 251.048276 324.591712 
L 252.6553 323.030375 
L 254.262324 324.324485 
L 255.869348 323.771977 
L 257.476372 324.008979 
L 259.083396 323.934965 
L 260.69042 322.691436 
L 262.297445 324.953815 
L 263.904469 324.552059 
L 265.511493 323.892913 
L 267.118517 322.317337 
L 268.725541 326.008184 
L 270.332565 323.693098 
L 271.939589 325.188206 
L 273.546614 326.299065 
L 275.153638 325.646784 
L 276.760662 324.113485 
L 278.367686 324.082832 
L 279.97471 325.298595 
L 281.581734 327.412681 
L 283.188759 324.105427 
L 284.795783 326.533799 
L 288.009831 325.856214 
L 289.616855 325.343667 
L 291.223879 328.159856 
L 292.830903 325.67686 
L 294.437928 326.159007 
L 296.044952 327.131104 
L 297.651976 327.687385 
L 299.259 327.186394 
L 300.866024 328.465108 
L 302.473048 325.795687 
L 304.080072 327.438919 
L 305.687097 327.476312 
L 307.294121 328.977462 
L 308.901145 326.339005 
L 310.508169 327.580454 
L 312.115193 327.554827 
L 313.722217 327.671195 
L 315.329241 328.745512 
L 316.936266 328.027739 
L 318.54329 328.304037 
L 384.43128 329.592468 
L 386.038304 330.809224 
L 387.645328 331.110641 
L 389.252352 331.21168 
L 390.859376 330.290362 
L 392.466401 330.366488 
L 394.073425 331.370356 
L 395.680449 331.94691 
L 397.287473 331.590837 
L 398.894497 330.445989 
L 400.501521 331.208425 
L 402.108545 330.568271 
L 403.71557 330.947782 
L 405.322594 330.82593 
L 406.929618 330.556856 
L 408.536642 331.390101 
L 410.143666 330.978091 
L 411.75069 331.424346 
L 413.357714 330.362435 
L 414.964739 330.604184 
L 416.571763 331.107123 
L 418.178787 331.280173 
L 419.785811 331.593148 
L 421.392835 332.254438 
L 422.999859 331.831951 
L 424.606884 331.979539 
L 426.213908 331.059534 
L 427.820932 331.757884 
L 429.427956 331.900181 
L 434.249028 332.928186 
L 435.856053 331.738181 
L 437.463077 332.667464 
L 439.070101 332.41993 
L 440.677125 332.652166 
L 442.284149 332.024052 
L 443.891173 332.784429 
L 445.498197 332.092829 
L 447.105222 332.990942 
L 448.712246 332.658149 
L 450.31927 332.827314 
L 451.926294 332.695373 
L 455.140342 332.86122 
L 456.747366 333.675715 
L 458.354391 333.90311 
L 459.961415 333.326514 
L 461.568439 334.234989 
L 463.175463 334.394386 
L 464.782487 333.390089 
L 466.389511 333.835112 
L 469.60356 333.977925 
L 471.210584 333.886709 
L 472.817608 334.441376 
L 474.424632 333.415887 
L 476.031656 334.112446 
L 477.63868 334.128109 
L 479.245705 334.315148 
L 480.852729 333.21687 
L 482.459753 334.169571 
L 484.066777 334.392544 
L 485.673801 333.946599 
L 488.887849 334.345554 
L 490.494874 334.25618 
L 492.101898 334.546413 
L 493.708922 334.370431 
L 495.315946 334.005567 
L 496.92297 334.344632 
L 498.529994 334.8864 
L 500.137018 334.527064 
L 501.744043 334.57129 
L 503.351067 334.466253 
L 504.958091 334.739902 
L 504.958091 334.739902 
" style="fill:none;stroke:#ff7f0e;stroke-dasharray:6,2.25;stroke-dashoffset:0;stroke-width:1.5;"/>
   </g>
   <g id="line2d_15"/>
   <g id="line2d_16"/>
   <g id="patch_3">
    <path d="M 72.99 348.5952 
L 72.99 47.0016 
" style="fill:none;stroke:#cccccc;stroke-linecap:square;stroke-linejoin:miter;stroke-width:0.8;"/>
   </g>
   <g id="patch_4">
    <path d="M 525.528 348.5952 
L 525.528 47.0016 
" style="fill:none;stroke:#cccccc;stroke-linecap:square;stroke-linejoin:miter;stroke-width:0.8;"/>
   </g>
   <g id="patch_5">
    <path d="M 72.99 348.5952 
L 525.528 348.5952 
" style="fill:none;stroke:#cccccc;stroke-linecap:square;stroke-linejoin:miter;stroke-width:0.8;"/>
   </g>
   <g id="patch_6">
    <path d="M 72.99 47.0016 
L 525.528 47.0016 
" style="fill:none;stroke:#cccccc;stroke-linecap:square;stroke-linejoin:miter;stroke-width:0.8;"/>
   </g>
   <g id="legend_1">
    <g id="patch_7">
     <path d="M 461.5155 83.292225 
L 518.528 83.292225 
Q 520.528 83.292225 520.528 81.292225 
L 520.528 54.0016 
Q 520.528 52.0016 518.528 52.0016 
L 461.5155 52.0016 
Q 459.5155 52.0016 459.5155 54.0016 
L 459.5155 81.292225 
Q 459.5155 83.292225 461.5155 83.292225 
z
" style="fill:#ffffff;opacity:0.8;stroke:#cccccc;stroke-linejoin:miter;"/>
    </g>
    <g id="line2d_17">
     <path d="M 463.5155 59.659412 
L 483.5155 59.659412 
" style="fill:none;stroke:#1f77b4;stroke-linecap:round;stroke-width:1.5;"/>
    </g>
    <g id="line2d_18"/>
    <g id="text_14">
     <!-- max -->
     <g style="fill:#262626;" transform="translate(491.5155 63.159412)scale(0.1 -0.1)">
      <defs>
       <path d="M 6.59375 0 
L 6.59375 51.859375 
L 14.453125 51.859375 
L 14.453125 44.578125 
Q 16.890625 48.390625 20.9375 50.703125 
Q 25 53.03125 30.171875 53.03125 
Q 35.9375 53.03125 39.625 50.640625 
Q 43.3125 48.25 44.828125 43.953125 
Q 50.984375 53.03125 60.84375 53.03125 
Q 68.5625 53.03125 72.703125 48.75 
Q 76.859375 44.484375 76.859375 35.59375 
L 76.859375 0 
L 68.109375 0 
L 68.109375 32.671875 
Q 68.109375 37.9375 67.25 40.25 
Q 66.40625 42.578125 64.15625 43.984375 
Q 61.921875 45.40625 58.890625 45.40625 
Q 53.421875 45.40625 49.796875 41.765625 
Q 46.1875 38.140625 46.1875 30.125 
L 46.1875 0 
L 37.40625 0 
L 37.40625 33.6875 
Q 37.40625 39.546875 35.25 42.46875 
Q 33.109375 45.40625 28.21875 45.40625 
Q 24.515625 45.40625 21.359375 43.453125 
Q 18.21875 41.5 16.796875 37.734375 
Q 15.375 33.984375 15.375 26.90625 
L 15.375 0 
z
" id="ArialMT-109"/>
       <path d="M 40.4375 6.390625 
Q 35.546875 2.25 31.03125 0.53125 
Q 26.515625 -1.171875 21.34375 -1.171875 
Q 12.796875 -1.171875 8.203125 3 
Q 3.609375 7.171875 3.609375 13.671875 
Q 3.609375 17.484375 5.34375 20.625 
Q 7.078125 23.78125 9.890625 25.6875 
Q 12.703125 27.59375 16.21875 28.5625 
Q 18.796875 29.25 24.03125 29.890625 
Q 34.671875 31.15625 39.703125 32.90625 
Q 39.75 34.71875 39.75 35.203125 
Q 39.75 40.578125 37.25 42.78125 
Q 33.890625 45.75 27.25 45.75 
Q 21.046875 45.75 18.09375 43.578125 
Q 15.140625 41.40625 13.71875 35.890625 
L 5.125 37.0625 
Q 6.296875 42.578125 8.984375 45.96875 
Q 11.671875 49.359375 16.75 51.1875 
Q 21.828125 53.03125 28.515625 53.03125 
Q 35.15625 53.03125 39.296875 51.46875 
Q 43.453125 49.90625 45.40625 47.53125 
Q 47.359375 45.171875 48.140625 41.546875 
Q 48.578125 39.3125 48.578125 33.453125 
L 48.578125 21.734375 
Q 48.578125 9.46875 49.140625 6.21875 
Q 49.703125 2.984375 51.375 0 
L 42.1875 0 
Q 40.828125 2.734375 40.4375 6.390625 
z
M 39.703125 26.03125 
Q 34.90625 24.078125 25.34375 22.703125 
Q 19.921875 21.921875 17.671875 20.9375 
Q 15.4375 19.96875 14.203125 18.09375 
Q 12.984375 16.21875 12.984375 13.921875 
Q 12.984375 10.40625 15.640625 8.0625 
Q 18.3125 5.71875 23.4375 5.71875 
Q 28.515625 5.71875 32.46875 7.9375 
Q 36.421875 10.15625 38.28125 14.015625 
Q 39.703125 17 39.703125 22.796875 
z
" id="ArialMT-97"/>
       <path d="M 0.734375 0 
L 19.671875 26.953125 
L 2.15625 51.859375 
L 13.140625 51.859375 
L 21.09375 39.703125 
Q 23.34375 36.234375 24.703125 33.890625 
Q 26.859375 37.109375 28.65625 39.59375 
L 37.40625 51.859375 
L 47.90625 51.859375 
L 29.984375 27.4375 
L 49.265625 0 
L 38.484375 0 
L 27.828125 16.109375 
L 25 20.453125 
L 11.375 0 
z
" id="ArialMT-120"/>
      </defs>
      <use xlink:href="#ArialMT-109"/>
      <use x="83.300781" xlink:href="#ArialMT-97"/>
      <use x="138.916016" xlink:href="#ArialMT-120"/>
     </g>
    </g>
    <g id="line2d_19">
     <path d="M 463.5155 73.804725 
L 483.5155 73.804725 
" style="fill:none;stroke:#ff7f0e;stroke-dasharray:6,2.25;stroke-dashoffset:0;stroke-width:1.5;"/>
    </g>
    <g id="line2d_20"/>
    <g id="text_15">
     <!-- mean -->
     <g style="fill:#262626;" transform="translate(491.5155 77.304725)scale(0.1 -0.1)">
      <defs>
       <path d="M 42.09375 16.703125 
L 51.171875 15.578125 
Q 49.03125 7.625 43.21875 3.21875 
Q 37.40625 -1.171875 28.375 -1.171875 
Q 17 -1.171875 10.328125 5.828125 
Q 3.65625 12.84375 3.65625 25.484375 
Q 3.65625 38.578125 10.390625 45.796875 
Q 17.140625 53.03125 27.875 53.03125 
Q 38.28125 53.03125 44.875 45.953125 
Q 51.46875 38.875 51.46875 26.03125 
Q 51.46875 25.25 51.421875 23.6875 
L 12.75 23.6875 
Q 13.234375 15.140625 17.578125 10.59375 
Q 21.921875 6.0625 28.421875 6.0625 
Q 33.25 6.0625 36.671875 8.59375 
Q 40.09375 11.140625 42.09375 16.703125 
z
M 13.234375 30.90625 
L 42.1875 30.90625 
Q 41.609375 37.453125 38.875 40.71875 
Q 34.671875 45.796875 27.984375 45.796875 
Q 21.921875 45.796875 17.796875 41.75 
Q 13.671875 37.703125 13.234375 30.90625 
z
" id="ArialMT-101"/>
       <path d="M 6.59375 0 
L 6.59375 51.859375 
L 14.5 51.859375 
L 14.5 44.484375 
Q 20.21875 53.03125 31 53.03125 
Q 35.6875 53.03125 39.625 51.34375 
Q 43.5625 49.65625 45.515625 46.921875 
Q 47.46875 44.1875 48.25 40.4375 
Q 48.734375 37.984375 48.734375 31.890625 
L 48.734375 0 
L 39.9375 0 
L 39.9375 31.546875 
Q 39.9375 36.921875 38.90625 39.578125 
Q 37.890625 42.234375 35.28125 43.8125 
Q 32.671875 45.40625 29.15625 45.40625 
Q 23.53125 45.40625 19.453125 41.84375 
Q 15.375 38.28125 15.375 28.328125 
L 15.375 0 
z
" id="ArialMT-110"/>
      </defs>
      <use xlink:href="#ArialMT-109"/>
      <use x="83.300781" xlink:href="#ArialMT-101"/>
      <use x="138.916016" xlink:href="#ArialMT-97"/>
      <use x="194.53125" xlink:href="#ArialMT-110"/>
     </g>
    </g>
   </g>
  </g>
 </g>
 <defs>
  <clipPath id="p203a427f5e">
   <rect height="301.5936" width="452.538" x="72.99" y="47.0016"/>
  </clipPath>
 </defs>
</svg>
