<?xml version="1.0" encoding="utf-8" standalone="no"?>
<!DOCTYPE svg PUBLIC "-//W3C//DTD SVG 1.1//EN"
  "http://www.w3.org/Graphics/SVG/1.1/DTD/svg11.dtd">
<!-- Created with matplotlib (https://matplotlib.org/) -->
<svg height="411.12pt" version="1.1" viewBox="0 0 822.96 411.12" width="822.96pt" xmlns="http://www.w3.org/2000/svg" xmlns:xlink="http://www.w3.org/1999/xlink">
 <metadata>
  <rdf:RDF xmlns:cc="http://creativecommons.org/ns#" xmlns:dc="http://purl.org/dc/elements/1.1/" xmlns:rdf="http://www.w3.org/1999/02/22-rdf-syntax-ns#">
   <cc:Work>
    <dc:type rdf:resource="http://purl.org/dc/dcmitype/StillImage"/>
    <dc:date>2021-03-08T00:00:27.765941</dc:date>
    <dc:format>image/svg+xml</dc:format>
    <dc:creator>
     <cc:Agent>
      <dc:title>Matplotlib v3.3.3, https://matplotlib.org/</dc:title>
     </cc:Agent>
    </dc:creator>
   </cc:Work>
  </rdf:RDF>
 </metadata>
 <defs>
  <style type="text/css">*{stroke-linecap:butt;stroke-linejoin:round;}</style>
 </defs>
 <g id="figure_1">
  <g id="patch_1">
   <path d="M 0 411.12 
L 822.96 411.12 
L 822.96 0 
L 0 0 
z
" style="fill:none;"/>
  </g>
  <g id="axes_1">
   <g id="patch_2">
    <path d="M 102.87 365.8968 
L 740.664 365.8968 
L 740.664 49.3344 
L 102.87 49.3344 
z
" style="fill:none;"/>
   </g>
   <g id="matplotlib.axis_1">
    <g id="xtick_1">
     <g id="line2d_1">
      <path clip-path="url(#p5d5ea63579)" d="M 131.860636 365.8968 
L 131.860636 49.3344 
" style="fill:none;stroke:#cccccc;stroke-linecap:round;stroke-width:0.8;"/>
     </g>
     <g id="text_1">
      <!-- 0 -->
      <g style="fill:#262626;" transform="translate(129.080168 380.054612)scale(0.1 -0.1)">
       <defs>
        <path d="M 4.15625 35.296875 
Q 4.15625 48 6.765625 55.734375 
Q 9.375 63.484375 14.515625 67.671875 
Q 19.671875 71.875 27.484375 71.875 
Q 33.25 71.875 37.59375 69.546875 
Q 41.9375 67.234375 44.765625 62.859375 
Q 47.609375 58.5 49.21875 52.21875 
Q 50.828125 45.953125 50.828125 35.296875 
Q 50.828125 22.703125 48.234375 14.96875 
Q 45.65625 7.234375 40.5 3 
Q 35.359375 -1.21875 27.484375 -1.21875 
Q 17.140625 -1.21875 11.234375 6.203125 
Q 4.15625 15.140625 4.15625 35.296875 
z
M 13.1875 35.296875 
Q 13.1875 17.671875 17.3125 11.828125 
Q 21.4375 6 27.484375 6 
Q 33.546875 6 37.671875 11.859375 
Q 41.796875 17.71875 41.796875 35.296875 
Q 41.796875 52.984375 37.671875 58.78125 
Q 33.546875 64.59375 27.390625 64.59375 
Q 21.34375 64.59375 17.71875 59.46875 
Q 13.1875 52.9375 13.1875 35.296875 
z
" id="ArialMT-48"/>
       </defs>
       <use xlink:href="#ArialMT-48"/>
      </g>
     </g>
    </g>
    <g id="xtick_2">
     <g id="line2d_2">
      <path clip-path="url(#p5d5ea63579)" d="M 245.549406 365.8968 
L 245.549406 49.3344 
" style="fill:none;stroke:#cccccc;stroke-linecap:round;stroke-width:0.8;"/>
     </g>
     <g id="text_2">
      <!-- 50 -->
      <g style="fill:#262626;" transform="translate(239.988469 380.054612)scale(0.1 -0.1)">
       <defs>
        <path d="M 4.15625 18.75 
L 13.375 19.53125 
Q 14.40625 12.796875 18.140625 9.390625 
Q 21.875 6 27.15625 6 
Q 33.5 6 37.890625 10.78125 
Q 42.28125 15.578125 42.28125 23.484375 
Q 42.28125 31 38.0625 35.34375 
Q 33.84375 39.703125 27 39.703125 
Q 22.75 39.703125 19.328125 37.765625 
Q 15.921875 35.84375 13.96875 32.765625 
L 5.71875 33.84375 
L 12.640625 70.609375 
L 48.25 70.609375 
L 48.25 62.203125 
L 19.671875 62.203125 
L 15.828125 42.96875 
Q 22.265625 47.46875 29.34375 47.46875 
Q 38.71875 47.46875 45.15625 40.96875 
Q 51.609375 34.46875 51.609375 24.265625 
Q 51.609375 14.546875 45.953125 7.46875 
Q 39.0625 -1.21875 27.15625 -1.21875 
Q 17.390625 -1.21875 11.203125 4.25 
Q 5.03125 9.71875 4.15625 18.75 
z
" id="ArialMT-53"/>
       </defs>
       <use xlink:href="#ArialMT-53"/>
       <use x="55.615234" xlink:href="#ArialMT-48"/>
      </g>
     </g>
    </g>
    <g id="xtick_3">
     <g id="line2d_3">
      <path clip-path="url(#p5d5ea63579)" d="M 359.238176 365.8968 
L 359.238176 49.3344 
" style="fill:none;stroke:#cccccc;stroke-linecap:round;stroke-width:0.8;"/>
     </g>
     <g id="text_3">
      <!-- 100 -->
      <g style="fill:#262626;" transform="translate(350.89677 380.054612)scale(0.1 -0.1)">
       <defs>
        <path d="M 37.25 0 
L 28.46875 0 
L 28.46875 56 
Q 25.296875 52.984375 20.140625 49.953125 
Q 14.984375 46.921875 10.890625 45.40625 
L 10.890625 53.90625 
Q 18.265625 57.375 23.78125 62.296875 
Q 29.296875 67.234375 31.59375 71.875 
L 37.25 71.875 
z
" id="ArialMT-49"/>
       </defs>
       <use xlink:href="#ArialMT-49"/>
       <use x="55.615234" xlink:href="#ArialMT-48"/>
       <use x="111.230469" xlink:href="#ArialMT-48"/>
      </g>
     </g>
    </g>
    <g id="xtick_4">
     <g id="line2d_4">
      <path clip-path="url(#p5d5ea63579)" d="M 472.926947 365.8968 
L 472.926947 49.3344 
" style="fill:none;stroke:#cccccc;stroke-linecap:round;stroke-width:0.8;"/>
     </g>
     <g id="text_4">
      <!-- 150 -->
      <g style="fill:#262626;" transform="translate(464.58554 380.054612)scale(0.1 -0.1)">
       <use xlink:href="#ArialMT-49"/>
       <use x="55.615234" xlink:href="#ArialMT-53"/>
       <use x="111.230469" xlink:href="#ArialMT-48"/>
      </g>
     </g>
    </g>
    <g id="xtick_5">
     <g id="line2d_5">
      <path clip-path="url(#p5d5ea63579)" d="M 586.615717 365.8968 
L 586.615717 49.3344 
" style="fill:none;stroke:#cccccc;stroke-linecap:round;stroke-width:0.8;"/>
     </g>
     <g id="text_5">
      <!-- 200 -->
      <g style="fill:#262626;" transform="translate(578.27431 380.054612)scale(0.1 -0.1)">
       <defs>
        <path d="M 50.34375 8.453125 
L 50.34375 0 
L 3.03125 0 
Q 2.9375 3.171875 4.046875 6.109375 
Q 5.859375 10.9375 9.828125 15.625 
Q 13.8125 20.3125 21.34375 26.46875 
Q 33.015625 36.03125 37.109375 41.625 
Q 41.21875 47.21875 41.21875 52.203125 
Q 41.21875 57.421875 37.46875 61 
Q 33.734375 64.59375 27.734375 64.59375 
Q 21.390625 64.59375 17.578125 60.78125 
Q 13.765625 56.984375 13.71875 50.25 
L 4.6875 51.171875 
Q 5.609375 61.28125 11.65625 66.578125 
Q 17.71875 71.875 27.9375 71.875 
Q 38.234375 71.875 44.234375 66.15625 
Q 50.25 60.453125 50.25 52 
Q 50.25 47.703125 48.484375 43.546875 
Q 46.734375 39.40625 42.65625 34.8125 
Q 38.578125 30.21875 29.109375 22.21875 
Q 21.1875 15.578125 18.9375 13.203125 
Q 16.703125 10.84375 15.234375 8.453125 
z
" id="ArialMT-50"/>
       </defs>
       <use xlink:href="#ArialMT-50"/>
       <use x="55.615234" xlink:href="#ArialMT-48"/>
       <use x="111.230469" xlink:href="#ArialMT-48"/>
      </g>
     </g>
    </g>
    <g id="xtick_6">
     <g id="line2d_6">
      <path clip-path="url(#p5d5ea63579)" d="M 700.304487 365.8968 
L 700.304487 49.3344 
" style="fill:none;stroke:#cccccc;stroke-linecap:round;stroke-width:0.8;"/>
     </g>
     <g id="text_6">
      <!-- 250 -->
      <g style="fill:#262626;" transform="translate(691.96308 380.054612)scale(0.1 -0.1)">
       <use xlink:href="#ArialMT-50"/>
       <use x="55.615234" xlink:href="#ArialMT-53"/>
       <use x="111.230469" xlink:href="#ArialMT-48"/>
      </g>
     </g>
    </g>
    <g id="text_7">
     <!-- unstables -->
     <g style="fill:#262626;" transform="translate(400.364656 393.199925)scale(0.1 -0.1)">
      <defs>
       <path d="M 40.578125 0 
L 40.578125 7.625 
Q 34.515625 -1.171875 24.125 -1.171875 
Q 19.53125 -1.171875 15.546875 0.578125 
Q 11.578125 2.34375 9.640625 5 
Q 7.71875 7.671875 6.9375 11.53125 
Q 6.390625 14.109375 6.390625 19.734375 
L 6.390625 51.859375 
L 15.1875 51.859375 
L 15.1875 23.09375 
Q 15.1875 16.21875 15.71875 13.8125 
Q 16.546875 10.359375 19.234375 8.375 
Q 21.921875 6.390625 25.875 6.390625 
Q 29.828125 6.390625 33.296875 8.421875 
Q 36.765625 10.453125 38.203125 13.9375 
Q 39.65625 17.4375 39.65625 24.078125 
L 39.65625 51.859375 
L 48.4375 51.859375 
L 48.4375 0 
z
" id="ArialMT-117"/>
       <path d="M 6.59375 0 
L 6.59375 51.859375 
L 14.5 51.859375 
L 14.5 44.484375 
Q 20.21875 53.03125 31 53.03125 
Q 35.6875 53.03125 39.625 51.34375 
Q 43.5625 49.65625 45.515625 46.921875 
Q 47.46875 44.1875 48.25 40.4375 
Q 48.734375 37.984375 48.734375 31.890625 
L 48.734375 0 
L 39.9375 0 
L 39.9375 31.546875 
Q 39.9375 36.921875 38.90625 39.578125 
Q 37.890625 42.234375 35.28125 43.8125 
Q 32.671875 45.40625 29.15625 45.40625 
Q 23.53125 45.40625 19.453125 41.84375 
Q 15.375 38.28125 15.375 28.328125 
L 15.375 0 
z
" id="ArialMT-110"/>
       <path d="M 3.078125 15.484375 
L 11.765625 16.84375 
Q 12.5 11.625 15.84375 8.84375 
Q 19.1875 6.0625 25.203125 6.0625 
Q 31.25 6.0625 34.171875 8.515625 
Q 37.109375 10.984375 37.109375 14.3125 
Q 37.109375 17.28125 34.515625 19 
Q 32.71875 20.171875 25.53125 21.96875 
Q 15.875 24.421875 12.140625 26.203125 
Q 8.40625 27.984375 6.46875 31.125 
Q 4.546875 34.28125 4.546875 38.09375 
Q 4.546875 41.546875 6.125 44.5 
Q 7.71875 47.46875 10.453125 49.421875 
Q 12.5 50.921875 16.03125 51.96875 
Q 19.578125 53.03125 23.640625 53.03125 
Q 29.734375 53.03125 34.34375 51.265625 
Q 38.96875 49.515625 41.15625 46.5 
Q 43.359375 43.5 44.1875 38.484375 
L 35.59375 37.3125 
Q 35.015625 41.3125 32.203125 43.546875 
Q 29.390625 45.796875 24.265625 45.796875 
Q 18.21875 45.796875 15.625 43.796875 
Q 13.03125 41.796875 13.03125 39.109375 
Q 13.03125 37.40625 14.109375 36.03125 
Q 15.1875 34.625 17.484375 33.6875 
Q 18.796875 33.203125 25.25 31.453125 
Q 34.578125 28.953125 38.25 27.359375 
Q 41.9375 25.78125 44.03125 22.75 
Q 46.140625 19.734375 46.140625 15.234375 
Q 46.140625 10.84375 43.578125 6.953125 
Q 41.015625 3.078125 36.171875 0.953125 
Q 31.34375 -1.171875 25.25 -1.171875 
Q 15.140625 -1.171875 9.84375 3.03125 
Q 4.546875 7.234375 3.078125 15.484375 
z
" id="ArialMT-115"/>
       <path d="M 25.78125 7.859375 
L 27.046875 0.09375 
Q 23.34375 -0.6875 20.40625 -0.6875 
Q 15.625 -0.6875 12.984375 0.828125 
Q 10.359375 2.34375 9.28125 4.8125 
Q 8.203125 7.28125 8.203125 15.1875 
L 8.203125 45.015625 
L 1.765625 45.015625 
L 1.765625 51.859375 
L 8.203125 51.859375 
L 8.203125 64.703125 
L 16.9375 69.96875 
L 16.9375 51.859375 
L 25.78125 51.859375 
L 25.78125 45.015625 
L 16.9375 45.015625 
L 16.9375 14.703125 
Q 16.9375 10.9375 17.40625 9.859375 
Q 17.875 8.796875 18.921875 8.15625 
Q 19.96875 7.515625 21.921875 7.515625 
Q 23.390625 7.515625 25.78125 7.859375 
z
" id="ArialMT-116"/>
       <path d="M 40.4375 6.390625 
Q 35.546875 2.25 31.03125 0.53125 
Q 26.515625 -1.171875 21.34375 -1.171875 
Q 12.796875 -1.171875 8.203125 3 
Q 3.609375 7.171875 3.609375 13.671875 
Q 3.609375 17.484375 5.34375 20.625 
Q 7.078125 23.78125 9.890625 25.6875 
Q 12.703125 27.59375 16.21875 28.5625 
Q 18.796875 29.25 24.03125 29.890625 
Q 34.671875 31.15625 39.703125 32.90625 
Q 39.75 34.71875 39.75 35.203125 
Q 39.75 40.578125 37.25 42.78125 
Q 33.890625 45.75 27.25 45.75 
Q 21.046875 45.75 18.09375 43.578125 
Q 15.140625 41.40625 13.71875 35.890625 
L 5.125 37.0625 
Q 6.296875 42.578125 8.984375 45.96875 
Q 11.671875 49.359375 16.75 51.1875 
Q 21.828125 53.03125 28.515625 53.03125 
Q 35.15625 53.03125 39.296875 51.46875 
Q 43.453125 49.90625 45.40625 47.53125 
Q 47.359375 45.171875 48.140625 41.546875 
Q 48.578125 39.3125 48.578125 33.453125 
L 48.578125 21.734375 
Q 48.578125 9.46875 49.140625 6.21875 
Q 49.703125 2.984375 51.375 0 
L 42.1875 0 
Q 40.828125 2.734375 40.4375 6.390625 
z
M 39.703125 26.03125 
Q 34.90625 24.078125 25.34375 22.703125 
Q 19.921875 21.921875 17.671875 20.9375 
Q 15.4375 19.96875 14.203125 18.09375 
Q 12.984375 16.21875 12.984375 13.921875 
Q 12.984375 10.40625 15.640625 8.0625 
Q 18.3125 5.71875 23.4375 5.71875 
Q 28.515625 5.71875 32.46875 7.9375 
Q 36.421875 10.15625 38.28125 14.015625 
Q 39.703125 17 39.703125 22.796875 
z
" id="ArialMT-97"/>
       <path d="M 14.703125 0 
L 6.546875 0 
L 6.546875 71.578125 
L 15.328125 71.578125 
L 15.328125 46.046875 
Q 20.90625 53.03125 29.546875 53.03125 
Q 34.328125 53.03125 38.59375 51.09375 
Q 42.875 49.171875 45.625 45.671875 
Q 48.390625 42.1875 49.953125 37.25 
Q 51.515625 32.328125 51.515625 26.703125 
Q 51.515625 13.375 44.921875 6.09375 
Q 38.328125 -1.171875 29.109375 -1.171875 
Q 19.921875 -1.171875 14.703125 6.5 
z
M 14.59375 26.3125 
Q 14.59375 17 17.140625 12.84375 
Q 21.296875 6.0625 28.375 6.0625 
Q 34.125 6.0625 38.328125 11.0625 
Q 42.53125 16.0625 42.53125 25.984375 
Q 42.53125 36.140625 38.5 40.96875 
Q 34.46875 45.796875 28.765625 45.796875 
Q 23 45.796875 18.796875 40.796875 
Q 14.59375 35.796875 14.59375 26.3125 
z
" id="ArialMT-98"/>
       <path d="M 6.390625 0 
L 6.390625 71.578125 
L 15.1875 71.578125 
L 15.1875 0 
z
" id="ArialMT-108"/>
       <path d="M 42.09375 16.703125 
L 51.171875 15.578125 
Q 49.03125 7.625 43.21875 3.21875 
Q 37.40625 -1.171875 28.375 -1.171875 
Q 17 -1.171875 10.328125 5.828125 
Q 3.65625 12.84375 3.65625 25.484375 
Q 3.65625 38.578125 10.390625 45.796875 
Q 17.140625 53.03125 27.875 53.03125 
Q 38.28125 53.03125 44.875 45.953125 
Q 51.46875 38.875 51.46875 26.03125 
Q 51.46875 25.25 51.421875 23.6875 
L 12.75 23.6875 
Q 13.234375 15.140625 17.578125 10.59375 
Q 21.921875 6.0625 28.421875 6.0625 
Q 33.25 6.0625 36.671875 8.59375 
Q 40.09375 11.140625 42.09375 16.703125 
z
M 13.234375 30.90625 
L 42.1875 30.90625 
Q 41.609375 37.453125 38.875 40.71875 
Q 34.671875 45.796875 27.984375 45.796875 
Q 21.921875 45.796875 17.796875 41.75 
Q 13.671875 37.703125 13.234375 30.90625 
z
" id="ArialMT-101"/>
      </defs>
      <use xlink:href="#ArialMT-117"/>
      <use x="55.615234" xlink:href="#ArialMT-110"/>
      <use x="111.230469" xlink:href="#ArialMT-115"/>
      <use x="161.230469" xlink:href="#ArialMT-116"/>
      <use x="189.013672" xlink:href="#ArialMT-97"/>
      <use x="244.628906" xlink:href="#ArialMT-98"/>
      <use x="300.244141" xlink:href="#ArialMT-108"/>
      <use x="322.460938" xlink:href="#ArialMT-101"/>
      <use x="378.076172" xlink:href="#ArialMT-115"/>
     </g>
    </g>
   </g>
   <g id="matplotlib.axis_2">
    <g id="ytick_1">
     <g id="line2d_7">
      <path clip-path="url(#p5d5ea63579)" d="M 102.87 365.870376 
L 740.664 365.870376 
" style="fill:none;stroke:#cccccc;stroke-linecap:round;stroke-width:0.8;"/>
     </g>
     <g id="text_8">
      <!-- 0.0 -->
      <g style="fill:#262626;" transform="translate(81.97 369.449282)scale(0.1 -0.1)">
       <defs>
        <path d="M 9.078125 0 
L 9.078125 10.015625 
L 19.09375 10.015625 
L 19.09375 0 
z
" id="ArialMT-46"/>
       </defs>
       <use xlink:href="#ArialMT-48"/>
       <use x="55.615234" xlink:href="#ArialMT-46"/>
       <use x="83.398438" xlink:href="#ArialMT-48"/>
      </g>
     </g>
    </g>
    <g id="ytick_2">
     <g id="line2d_8">
      <path clip-path="url(#p5d5ea63579)" d="M 102.87 305.441021 
L 740.664 305.441021 
" style="fill:none;stroke:#cccccc;stroke-linecap:round;stroke-width:0.8;"/>
     </g>
     <g id="text_9">
      <!-- 0.2 -->
      <g style="fill:#262626;" transform="translate(81.97 309.019927)scale(0.1 -0.1)">
       <use xlink:href="#ArialMT-48"/>
       <use x="55.615234" xlink:href="#ArialMT-46"/>
       <use x="83.398438" xlink:href="#ArialMT-50"/>
      </g>
     </g>
    </g>
    <g id="ytick_3">
     <g id="line2d_9">
      <path clip-path="url(#p5d5ea63579)" d="M 102.87 245.011666 
L 740.664 245.011666 
" style="fill:none;stroke:#cccccc;stroke-linecap:round;stroke-width:0.8;"/>
     </g>
     <g id="text_10">
      <!-- 0.4 -->
      <g style="fill:#262626;" transform="translate(81.97 248.590572)scale(0.1 -0.1)">
       <defs>
        <path d="M 32.328125 0 
L 32.328125 17.140625 
L 1.265625 17.140625 
L 1.265625 25.203125 
L 33.9375 71.578125 
L 41.109375 71.578125 
L 41.109375 25.203125 
L 50.78125 25.203125 
L 50.78125 17.140625 
L 41.109375 17.140625 
L 41.109375 0 
z
M 32.328125 25.203125 
L 32.328125 57.46875 
L 9.90625 25.203125 
z
" id="ArialMT-52"/>
       </defs>
       <use xlink:href="#ArialMT-48"/>
       <use x="55.615234" xlink:href="#ArialMT-46"/>
       <use x="83.398438" xlink:href="#ArialMT-52"/>
      </g>
     </g>
    </g>
    <g id="ytick_4">
     <g id="line2d_10">
      <path clip-path="url(#p5d5ea63579)" d="M 102.87 184.58231 
L 740.664 184.58231 
" style="fill:none;stroke:#cccccc;stroke-linecap:round;stroke-width:0.8;"/>
     </g>
     <g id="text_11">
      <!-- 0.6 -->
      <g style="fill:#262626;" transform="translate(81.97 188.161217)scale(0.1 -0.1)">
       <defs>
        <path d="M 49.75 54.046875 
L 41.015625 53.375 
Q 39.84375 58.546875 37.703125 60.890625 
Q 34.125 64.65625 28.90625 64.65625 
Q 24.703125 64.65625 21.53125 62.3125 
Q 17.390625 59.28125 14.984375 53.46875 
Q 12.59375 47.65625 12.5 36.921875 
Q 15.671875 41.75 20.265625 44.09375 
Q 24.859375 46.4375 29.890625 46.4375 
Q 38.671875 46.4375 44.84375 39.96875 
Q 51.03125 33.5 51.03125 23.25 
Q 51.03125 16.5 48.125 10.71875 
Q 45.21875 4.9375 40.140625 1.859375 
Q 35.0625 -1.21875 28.609375 -1.21875 
Q 17.625 -1.21875 10.6875 6.859375 
Q 3.765625 14.9375 3.765625 33.5 
Q 3.765625 54.25 11.421875 63.671875 
Q 18.109375 71.875 29.4375 71.875 
Q 37.890625 71.875 43.28125 67.140625 
Q 48.6875 62.40625 49.75 54.046875 
z
M 13.875 23.1875 
Q 13.875 18.65625 15.796875 14.5 
Q 17.71875 10.359375 21.1875 8.171875 
Q 24.65625 6 28.46875 6 
Q 34.03125 6 38.03125 10.484375 
Q 42.046875 14.984375 42.046875 22.703125 
Q 42.046875 30.125 38.078125 34.390625 
Q 34.125 38.671875 28.125 38.671875 
Q 22.171875 38.671875 18.015625 34.390625 
Q 13.875 30.125 13.875 23.1875 
z
" id="ArialMT-54"/>
       </defs>
       <use xlink:href="#ArialMT-48"/>
       <use x="55.615234" xlink:href="#ArialMT-46"/>
       <use x="83.398438" xlink:href="#ArialMT-54"/>
      </g>
     </g>
    </g>
    <g id="ytick_5">
     <g id="line2d_11">
      <path clip-path="url(#p5d5ea63579)" d="M 102.87 124.152955 
L 740.664 124.152955 
" style="fill:none;stroke:#cccccc;stroke-linecap:round;stroke-width:0.8;"/>
     </g>
     <g id="text_12">
      <!-- 0.8 -->
      <g style="fill:#262626;" transform="translate(81.97 127.731861)scale(0.1 -0.1)">
       <defs>
        <path d="M 17.671875 38.8125 
Q 12.203125 40.828125 9.5625 44.53125 
Q 6.9375 48.25 6.9375 53.421875 
Q 6.9375 61.234375 12.546875 66.546875 
Q 18.171875 71.875 27.484375 71.875 
Q 36.859375 71.875 42.578125 66.421875 
Q 48.296875 60.984375 48.296875 53.171875 
Q 48.296875 48.1875 45.671875 44.5 
Q 43.0625 40.828125 37.75 38.8125 
Q 44.34375 36.671875 47.78125 31.875 
Q 51.21875 27.09375 51.21875 20.453125 
Q 51.21875 11.28125 44.71875 5.03125 
Q 38.234375 -1.21875 27.640625 -1.21875 
Q 17.046875 -1.21875 10.546875 5.046875 
Q 4.046875 11.328125 4.046875 20.703125 
Q 4.046875 27.6875 7.59375 32.390625 
Q 11.140625 37.109375 17.671875 38.8125 
z
M 15.921875 53.71875 
Q 15.921875 48.640625 19.1875 45.40625 
Q 22.46875 42.1875 27.6875 42.1875 
Q 32.765625 42.1875 36.015625 45.375 
Q 39.265625 48.578125 39.265625 53.21875 
Q 39.265625 58.0625 35.90625 61.359375 
Q 32.5625 64.65625 27.59375 64.65625 
Q 22.5625 64.65625 19.234375 61.421875 
Q 15.921875 58.203125 15.921875 53.71875 
z
M 13.09375 20.65625 
Q 13.09375 16.890625 14.875 13.375 
Q 16.65625 9.859375 20.171875 7.921875 
Q 23.6875 6 27.734375 6 
Q 34.03125 6 38.125 10.046875 
Q 42.234375 14.109375 42.234375 20.359375 
Q 42.234375 26.703125 38.015625 30.859375 
Q 33.796875 35.015625 27.4375 35.015625 
Q 21.234375 35.015625 17.15625 30.90625 
Q 13.09375 26.8125 13.09375 20.65625 
z
" id="ArialMT-56"/>
       </defs>
       <use xlink:href="#ArialMT-48"/>
       <use x="55.615234" xlink:href="#ArialMT-46"/>
       <use x="83.398438" xlink:href="#ArialMT-56"/>
      </g>
     </g>
    </g>
    <g id="ytick_6">
     <g id="line2d_12">
      <path clip-path="url(#p5d5ea63579)" d="M 102.87 63.7236 
L 740.664 63.7236 
" style="fill:none;stroke:#cccccc;stroke-linecap:round;stroke-width:0.8;"/>
     </g>
     <g id="text_13">
      <!-- 1.0 -->
      <g style="fill:#262626;" transform="translate(81.97 67.302506)scale(0.1 -0.1)">
       <use xlink:href="#ArialMT-49"/>
       <use x="55.615234" xlink:href="#ArialMT-46"/>
       <use x="83.398438" xlink:href="#ArialMT-48"/>
      </g>
     </g>
    </g>
    <g id="text_14">
     <!-- Consensus_mean -->
     <g style="fill:#262626;" transform="translate(75.9825 247.9156)rotate(-90)scale(0.1 -0.1)">
      <defs>
       <path d="M 58.796875 25.09375 
L 68.265625 22.703125 
Q 65.28125 11.03125 57.546875 4.90625 
Q 49.8125 -1.21875 38.625 -1.21875 
Q 27.046875 -1.21875 19.796875 3.484375 
Q 12.546875 8.203125 8.765625 17.140625 
Q 4.984375 26.078125 4.984375 36.328125 
Q 4.984375 47.515625 9.25 55.828125 
Q 13.53125 64.15625 21.40625 68.46875 
Q 29.296875 72.796875 38.765625 72.796875 
Q 49.515625 72.796875 56.828125 67.328125 
Q 64.15625 61.859375 67.046875 51.953125 
L 57.71875 49.75 
Q 55.21875 57.5625 50.484375 61.125 
Q 45.75 64.703125 38.578125 64.703125 
Q 30.328125 64.703125 24.78125 60.734375 
Q 19.234375 56.78125 16.984375 50.109375 
Q 14.75 43.453125 14.75 36.375 
Q 14.75 27.25 17.40625 20.4375 
Q 20.0625 13.625 25.671875 10.25 
Q 31.296875 6.890625 37.84375 6.890625 
Q 45.796875 6.890625 51.3125 11.46875 
Q 56.84375 16.0625 58.796875 25.09375 
z
" id="ArialMT-67"/>
       <path d="M 3.328125 25.921875 
Q 3.328125 40.328125 11.328125 47.265625 
Q 18.015625 53.03125 27.640625 53.03125 
Q 38.328125 53.03125 45.109375 46.015625 
Q 51.90625 39.015625 51.90625 26.65625 
Q 51.90625 16.65625 48.90625 10.90625 
Q 45.90625 5.171875 40.15625 2 
Q 34.421875 -1.171875 27.640625 -1.171875 
Q 16.75 -1.171875 10.03125 5.8125 
Q 3.328125 12.796875 3.328125 25.921875 
z
M 12.359375 25.921875 
Q 12.359375 15.96875 16.703125 11.015625 
Q 21.046875 6.0625 27.640625 6.0625 
Q 34.1875 6.0625 38.53125 11.03125 
Q 42.875 16.015625 42.875 26.21875 
Q 42.875 35.84375 38.5 40.796875 
Q 34.125 45.75 27.640625 45.75 
Q 21.046875 45.75 16.703125 40.8125 
Q 12.359375 35.890625 12.359375 25.921875 
z
" id="ArialMT-111"/>
       <path d="M -1.515625 -19.875 
L -1.515625 -13.53125 
L 56.734375 -13.53125 
L 56.734375 -19.875 
z
" id="ArialMT-95"/>
       <path d="M 6.59375 0 
L 6.59375 51.859375 
L 14.453125 51.859375 
L 14.453125 44.578125 
Q 16.890625 48.390625 20.9375 50.703125 
Q 25 53.03125 30.171875 53.03125 
Q 35.9375 53.03125 39.625 50.640625 
Q 43.3125 48.25 44.828125 43.953125 
Q 50.984375 53.03125 60.84375 53.03125 
Q 68.5625 53.03125 72.703125 48.75 
Q 76.859375 44.484375 76.859375 35.59375 
L 76.859375 0 
L 68.109375 0 
L 68.109375 32.671875 
Q 68.109375 37.9375 67.25 40.25 
Q 66.40625 42.578125 64.15625 43.984375 
Q 61.921875 45.40625 58.890625 45.40625 
Q 53.421875 45.40625 49.796875 41.765625 
Q 46.1875 38.140625 46.1875 30.125 
L 46.1875 0 
L 37.40625 0 
L 37.40625 33.6875 
Q 37.40625 39.546875 35.25 42.46875 
Q 33.109375 45.40625 28.21875 45.40625 
Q 24.515625 45.40625 21.359375 43.453125 
Q 18.21875 41.5 16.796875 37.734375 
Q 15.375 33.984375 15.375 26.90625 
L 15.375 0 
z
" id="ArialMT-109"/>
      </defs>
      <use xlink:href="#ArialMT-67"/>
      <use x="72.216797" xlink:href="#ArialMT-111"/>
      <use x="127.832031" xlink:href="#ArialMT-110"/>
      <use x="183.447266" xlink:href="#ArialMT-115"/>
      <use x="233.447266" xlink:href="#ArialMT-101"/>
      <use x="289.0625" xlink:href="#ArialMT-110"/>
      <use x="344.677734" xlink:href="#ArialMT-115"/>
      <use x="394.677734" xlink:href="#ArialMT-117"/>
      <use x="450.292969" xlink:href="#ArialMT-115"/>
      <use x="500.292969" xlink:href="#ArialMT-95"/>
      <use x="555.908203" xlink:href="#ArialMT-109"/>
      <use x="639.208984" xlink:href="#ArialMT-101"/>
      <use x="694.824219" xlink:href="#ArialMT-97"/>
      <use x="750.439453" xlink:href="#ArialMT-110"/>
     </g>
    </g>
   </g>
   <g id="line2d_13">
    <path clip-path="url(#p5d5ea63579)" d="M 131.860636 351.5076 
L 136.408187 350.938021 
L 138.681963 350.959552 
L 140.955738 350.812753 
L 143.229513 350.540686 
L 145.503289 350.464351 
L 147.777064 350.198156 
L 150.05084 350.366485 
L 154.59839 350.231431 
L 156.872166 350.407589 
L 159.145941 350.061144 
L 161.419717 350.315595 
L 165.967267 350.164882 
L 168.241043 349.673596 
L 175.062369 349.489608 
L 177.336144 349.522883 
L 179.60992 349.346724 
L 181.883695 348.863268 
L 184.157471 348.692981 
L 186.431246 348.884798 
L 190.978797 348.301518 
L 193.252572 348.348494 
L 195.526348 348.23497 
L 197.800123 347.86308 
L 202.347674 347.761299 
L 215.990326 346.868372 
L 218.264102 346.842927 
L 225.085428 346.07566 
L 231.906754 346.046692 
L 236.454305 345.980143 
L 241.001856 345.97662 
L 243.275631 345.921423 
L 245.549406 345.666973 
L 250.096957 345.524871 
L 252.370733 345.723735 
L 256.918283 345.096052 
L 259.192059 344.832989 
L 261.465834 344.841265 
L 266.013385 344.208102 
L 268.28716 343.826426 
L 270.560936 344.117171 
L 275.108487 343.185712 
L 277.382262 343.273009 
L 279.656037 343.139855 
L 281.929813 343.17587 
L 284.203588 343.010673 
L 286.477364 342.624299 
L 288.751139 342.079159 
L 291.024914 341.894752 
L 293.29869 342.234178 
L 295.572465 341.990213 
L 297.846241 341.607809 
L 300.120016 341.92797 
L 304.667567 341.579931 
L 309.215118 341.417306 
L 311.488893 341.521715 
L 313.762668 341.351625 
L 320.583995 340.438006 
L 322.85777 340.646628 
L 325.131545 340.391729 
L 327.405321 339.713268 
L 331.952872 339.644511 
L 338.774198 339.454903 
L 341.047973 339.015402 
L 343.321749 339.151099 
L 345.595524 338.842822 
L 347.869299 338.414114 
L 350.143075 338.207925 
L 352.41685 338.218019 
L 354.690626 337.827591 
L 356.964401 337.680149 
L 359.238176 338.022614 
L 361.511952 338.11965 
L 363.785727 338.535636 
L 366.059503 338.785557 
L 368.333278 338.87838 
L 375.154604 337.961947 
L 377.42838 337.858386 
L 379.702155 337.196721 
L 381.97593 336.948345 
L 384.249706 337.09027 
L 386.523481 336.626422 
L 388.797257 336.280546 
L 395.618583 336.710557 
L 397.892358 336.803475 
L 400.166134 336.378339 
L 404.713684 335.072371 
L 406.98746 334.730065 
L 409.261235 333.932553 
L 413.808786 333.595597 
L 416.082561 333.857905 
L 418.356337 333.519321 
L 420.630112 332.958327 
L 425.177663 333.283682 
L 427.451439 332.794605 
L 429.725214 332.853233 
L 431.998989 333.162731 
L 434.272765 333.044553 
L 436.54654 332.80598 
L 438.820316 333.023652 
L 441.094091 332.870755 
L 443.367866 332.373796 
L 445.641642 332.767605 
L 447.915417 332.661117 
L 450.189193 332.191954 
L 452.462968 331.439584 
L 454.736743 331.751497 
L 457.010519 331.850788 
L 459.284294 330.972254 
L 461.55807 331.023386 
L 463.831845 330.368352 
L 466.10562 330.64215 
L 468.379396 330.517845 
L 470.653171 330.890519 
L 472.926947 330.538364 
L 475.200722 329.768373 
L 477.474497 329.458894 
L 479.748273 329.863443 
L 482.022048 329.01556 
L 484.295824 328.54485 
L 486.569599 328.551676 
L 488.843374 328.863609 
L 491.11715 328.117029 
L 493.390925 327.885327 
L 495.664701 327.280113 
L 497.938476 327.378685 
L 500.212251 327.882323 
L 502.486027 328.119898 
L 504.759802 327.316222 
L 507.033578 326.947351 
L 511.581128 326.553098 
L 513.854904 326.990888 
L 516.128679 326.014276 
L 518.402455 325.681148 
L 520.67623 324.5729 
L 522.950005 324.121489 
L 525.223781 324.897239 
L 527.497556 324.432471 
L 529.771332 323.376889 
L 532.045107 324.336261 
L 534.318882 322.926587 
L 536.592658 322.241143 
L 538.866433 322.919375 
L 541.140209 322.949457 
L 543.413984 322.635547 
L 545.687759 322.078114 
L 547.961535 321.362937 
L 550.23531 320.902102 
L 552.509086 320.066056 
L 554.782861 319.78814 
L 557.056636 318.733409 
L 559.330412 317.28121 
L 561.604187 317.67767 
L 563.877963 316.060938 
L 566.151738 315.422541 
L 568.425513 316.44881 
L 570.699289 316.600926 
L 572.973064 316.390503 
L 577.520615 315.64467 
L 579.79439 314.57105 
L 582.068166 312.899528 
L 584.341941 314.556513 
L 586.615717 315.068414 
L 588.889492 313.297123 
L 591.163267 312.037373 
L 593.437043 309.396555 
L 595.710818 311.184863 
L 597.984594 310.690403 
L 600.258369 309.945022 
L 602.532144 308.245216 
L 607.079695 306.400493 
L 609.353471 301.464184 
L 611.627246 301.831341 
L 613.901021 300.9373 
L 616.174797 300.330031 
L 618.448572 300.155233 
L 620.722348 295.359873 
L 622.996123 295.824079 
L 625.269898 293.641246 
L 627.543674 295.127037 
L 629.817449 296.975431 
L 634.365 294.906672 
L 636.638775 292.945793 
L 638.912551 293.313978 
L 641.186326 292.606046 
L 643.460102 289.662229 
L 645.733877 287.783382 
L 648.007652 288.845347 
L 650.281428 287.490886 
L 652.555203 288.100816 
L 654.828979 287.816717 
L 657.102754 284.075575 
L 659.376529 282.894398 
L 661.650305 281.346352 
L 663.92408 278.775312 
L 666.197856 275.968718 
L 668.471631 270.364721 
L 670.745406 271.636251 
L 673.019182 268.335549 
L 675.292957 268.012153 
L 677.566733 266.455112 
L 679.840508 258.69745 
L 682.114283 256.944977 
L 684.388059 250.706724 
L 686.661834 248.016758 
L 688.93561 244.649527 
L 691.209385 234.170037 
L 693.48316 224.624589 
L 695.756936 231.462741 
L 698.030711 225.075885 
L 700.304487 215.4338 
L 702.578262 200.619174 
L 704.852037 188.644806 
L 707.125813 169.762686 
L 709.399588 136.234301 
L 711.673364 63.7236 
L 711.673364 63.7236 
" style="fill:none;stroke:#edd1cb;stroke-linecap:round;stroke-width:1.5;"/>
   </g>
   <g id="line2d_14">
    <path clip-path="url(#p5d5ea63579)" d="M 131.860636 273.481201 
L 134.134412 273.346147 
L 138.681963 273.557537 
L 140.955738 273.780671 
L 143.229513 273.492945 
L 147.777064 273.316787 
L 150.05084 273.557537 
L 152.324615 273.328531 
L 159.145941 273.152373 
L 161.419717 273.222836 
L 163.693492 273.081909 
L 170.514818 273.087781 
L 172.788594 272.565178 
L 186.431246 272.547562 
L 190.978797 272.412508 
L 195.526348 272.894007 
L 197.800123 272.958598 
L 200.073898 272.694361 
L 202.347674 272.706105 
L 204.621449 272.582794 
L 209.169 272.717849 
L 213.716551 272.465355 
L 218.264102 272.835288 
L 222.811652 272.805928 
L 227.359203 272.400764 
L 229.632979 272.518203 
L 231.906754 272.482971 
L 234.180529 272.136526 
L 236.454305 272.277453 
L 238.72808 272.218733 
L 241.001856 272.036703 
L 243.275631 272.107166 
L 245.549406 271.842929 
L 247.823182 271.919264 
L 250.096957 271.637411 
L 252.370733 271.496484 
L 254.644508 271.602179 
L 256.918283 271.831185 
L 259.192059 271.48474 
L 261.465834 271.842929 
L 266.013385 272.060191 
L 268.28716 272.400764 
L 275.108487 273.011446 
L 279.656037 272.835288 
L 281.929813 273.152373 
L 288.751139 273.17586 
L 293.29869 272.38902 
L 300.120016 272.882263 
L 302.393791 273.158245 
L 304.667567 272.935111 
L 306.941342 273.41661 
L 309.215118 273.628 
L 311.488893 273.563409 
L 313.762668 273.187604 
L 316.036444 273.187604 
L 318.310219 273.369635 
L 320.583995 272.835288 
L 322.85777 273.680848 
L 327.405321 274.015548 
L 329.679096 273.915725 
L 331.952872 273.956829 
L 334.226647 273.857006 
L 336.500422 273.950566 
L 338.774198 273.882451 
L 341.047973 274.187792 
L 347.869299 273.786543 
L 350.143075 273.087781 
L 352.41685 273.211092 
L 354.690626 273.02319 
L 356.964401 273.152373 
L 363.785727 274.142774 
L 366.059503 274.197579 
L 368.333278 273.751311 
L 370.607053 273.986189 
L 375.154604 275.221254 
L 377.42838 275.142962 
L 379.702155 274.837621 
L 381.97593 275.22282 
L 384.249706 274.85876 
L 388.797257 274.640193 
L 391.071032 274.833315 
L 395.618583 274.900516 
L 397.892358 273.902807 
L 400.166134 273.81003 
L 402.439909 273.828821 
L 404.713684 273.103831 
L 406.98746 273.864835 
L 409.261235 274.269999 
L 411.535011 274.993292 
L 413.808786 274.977858 
L 416.082561 274.591484 
L 418.356337 274.810871 
L 420.630112 274.678854 
L 422.903888 274.69647 
L 425.177663 274.497216 
L 427.451439 273.791967 
L 429.725214 273.600299 
L 431.998989 273.590047 
L 434.272765 273.434636 
L 436.54654 273.534394 
L 438.820316 272.569969 
L 443.367866 273.541953 
L 445.641642 273.266978 
L 450.189193 274.406667 
L 452.462968 274.604327 
L 454.736743 274.008782 
L 457.010519 273.09219 
L 459.284294 272.805275 
L 466.10562 273.690429 
L 468.379396 273.85407 
L 472.926947 274.65711 
L 475.200722 274.878407 
L 477.474497 274.962879 
L 479.748273 275.180225 
L 482.022048 275.796714 
L 484.295824 274.799879 
L 486.569599 274.210842 
L 488.843374 273.413357 
L 493.390925 272.548951 
L 495.664701 272.266594 
L 497.938476 272.38737 
L 500.212251 272.225584 
L 502.486027 273.336034 
L 504.759802 273.846325 
L 507.033578 273.99133 
L 509.307353 273.588878 
L 511.581128 273.90392 
L 513.854904 273.765989 
L 518.402455 273.033237 
L 520.67623 273.965152 
L 522.950005 274.563489 
L 525.223781 274.242905 
L 527.497556 273.028903 
L 529.771332 272.686605 
L 532.045107 272.870685 
L 534.318882 272.125153 
L 536.592658 272.694182 
L 538.866433 272.994418 
L 541.140209 272.67083 
L 543.413984 273.237594 
L 545.687759 274.885174 
L 547.961535 275.575653 
L 550.23531 275.036584 
L 552.509086 275.39604 
L 554.782861 274.483885 
L 557.056636 274.537501 
L 559.330412 273.489879 
L 561.604187 272.780935 
L 563.877963 272.970519 
L 566.151738 273.417488 
L 568.425513 272.248612 
L 570.699289 272.562141 
L 572.973064 273.214309 
L 575.24684 273.186916 
L 577.520615 272.426344 
L 582.068166 274.037428 
L 584.341941 273.155532 
L 586.615717 273.144656 
L 588.889492 271.494246 
L 591.163267 271.566669 
L 593.437043 270.368197 
L 595.710818 270.875448 
L 597.984594 272.063574 
L 600.258369 273.392682 
L 602.532144 273.318379 
L 604.80592 273.605461 
L 607.079695 274.285174 
L 609.353471 274.684033 
L 611.627246 274.91856 
L 613.901021 273.269877 
L 616.174797 271.331441 
L 618.448572 268.800995 
L 620.722348 268.989992 
L 622.996123 269.937142 
L 625.269898 268.03107 
L 627.543674 266.328934 
L 629.817449 266.191632 
L 634.365 262.707138 
L 636.638775 265.270723 
L 638.912551 266.100273 
L 641.186326 263.461917 
L 643.460102 263.564882 
L 645.733877 257.035558 
L 648.007652 258.783866 
L 650.281428 261.457871 
L 652.555203 261.920879 
L 654.828979 266.330753 
L 657.102754 268.959126 
L 659.376529 264.611156 
L 661.650305 263.368348 
L 666.197856 253.773038 
L 668.471631 252.392821 
L 670.745406 250.269712 
L 673.019182 244.308461 
L 675.292957 240.661571 
L 677.566733 244.273486 
L 679.840508 243.705293 
L 682.114283 241.791612 
L 684.388059 240.764233 
L 686.661834 238.986623 
L 688.93561 229.161413 
L 691.209385 225.304038 
L 693.48316 222.976004 
L 695.756936 221.066572 
L 698.030711 214.774818 
L 700.304487 214.780974 
L 702.578262 193.809216 
L 704.852037 199.143171 
L 709.399588 122.366658 
L 711.673364 63.7236 
L 711.673364 63.7236 
" style="fill:none;stroke:#d499a7;stroke-linecap:round;stroke-width:1.5;"/>
   </g>
   <g id="line2d_15">
    <path clip-path="url(#p5d5ea63579)" d="M 131.860636 192.894635 
L 134.134412 192.777196 
L 136.408187 193.041434 
L 140.955738 192.976842 
L 143.229513 192.800684 
L 145.503289 192.777196 
L 147.777064 192.871147 
L 150.05084 192.800684 
L 154.59839 192.413136 
L 156.872166 192.554062 
L 161.419717 192.565806 
L 163.693492 192.18413 
L 165.967267 192.201746 
L 175.062369 191.180027 
L 177.336144 191.344442 
L 190.978797 190.833583 
L 197.800123 190.974509 
L 202.347674 190.575217 
L 204.621449 190.440162 
L 209.169 191.103692 
L 213.716551 190.862942 
L 218.264102 191.080204 
L 220.537877 191.391417 
L 222.811652 191.356186 
L 225.085428 191.150668 
L 231.906754 191.426649 
L 241.001856 191.191771 
L 243.275631 191.485368 
L 247.823182 191.414905 
L 252.370733 191.180027 
L 254.644508 191.303338 
L 259.192059 191.103692 
L 261.465834 191.191771 
L 263.73961 191.397289 
L 266.013385 191.426649 
L 270.560936 191.749606 
L 272.834711 191.544088 
L 275.108487 191.837685 
L 277.382262 191.990356 
L 281.929813 191.884661 
L 284.203588 192.101923 
L 288.751139 191.949252 
L 295.572465 192.501215 
L 300.120016 192.225233 
L 302.393791 192.84766 
L 304.667567 192.941611 
L 306.941342 192.583422 
L 313.762668 193.434854 
L 316.036444 193.42311 
L 318.310219 193.728451 
L 320.583995 193.90461 
L 322.85777 194.386109 
L 325.131545 194.709066 
L 329.679096 194.186463 
L 331.952872 194.339133 
L 334.226647 194.826505 
L 336.500422 194.485932 
L 341.047973 194.620987 
L 345.595524 194.26867 
L 347.869299 194.820633 
L 352.41685 195.131846 
L 354.690626 194.767785 
L 356.964401 194.867608 
L 359.238176 195.466547 
L 361.511952 195.35498 
L 363.785727 195.425443 
L 370.607053 196.488265 
L 372.880829 196.20054 
L 375.154604 196.529369 
L 377.42838 196.359082 
L 381.97593 196.62332 
L 384.249706 196.447162 
L 386.523481 196.423674 
L 388.797257 196.817094 
L 391.071032 196.376698 
L 395.618583 196.599832 
L 397.892358 196.400186 
L 400.166134 196.494137 
L 402.439909 196.417802 
L 404.713684 196.118333 
L 406.98746 196.5646 
L 409.261235 196.500009 
L 411.535011 196.282747 
L 413.808786 195.278645 
L 416.082561 195.120102 
L 418.356337 195.266901 
L 422.903888 196.177052 
L 425.177663 196.059613 
L 427.451439 195.760144 
L 429.725214 196.000894 
L 431.998989 196.629192 
L 434.272765 197.116563 
L 436.54654 197.298594 
L 438.820316 196.916917 
L 441.094091 196.846454 
L 443.367866 196.958021 
L 445.641642 196.793606 
L 447.915417 196.300363 
L 450.189193 196.640936 
L 452.462968 197.598063 
L 454.736743 197.392545 
L 457.010519 196.999124 
L 459.284294 197.187027 
L 461.55807 196.77599 
L 463.831845 197.386673 
L 466.10562 197.280978 
L 468.379396 196.887557 
L 470.653171 196.846454 
L 472.926947 197.222258 
L 475.200722 197.815325 
L 477.474497 197.89166 
L 479.748273 199.036689 
L 482.022048 198.772452 
L 484.295824 199.336158 
L 486.569599 199.412494 
L 488.843374 198.807683 
L 491.11715 198.872275 
L 493.390925 198.443623 
L 495.664701 198.884019 
L 497.938476 198.032391 
L 500.212251 197.527404 
L 502.486027 198.496274 
L 504.759802 198.07369 
L 507.033578 198.390775 
L 509.307353 198.197001 
L 511.581128 198.384903 
L 513.854904 198.191129 
L 516.128679 199.083665 
L 518.402455 198.930994 
L 520.67623 198.455367 
L 522.950005 198.819427 
L 525.223781 199.37139 
L 527.497556 198.625653 
L 529.771332 199.940969 
L 532.045107 199.864633 
L 534.318882 199.494701 
L 536.592658 200.087767 
L 538.866433 201.138845 
L 541.140209 201.420699 
L 543.413984 200.997919 
L 545.687759 201.185821 
L 547.961535 202.213411 
L 550.23531 202.970892 
L 552.509086 203.440647 
L 554.782861 203.687269 
L 557.056636 202.313234 
L 559.330412 202.624447 
L 561.604187 202.007893 
L 563.877963 202.736014 
L 566.151738 200.945071 
L 568.425513 201.866966 
L 570.699289 201.931446 
L 572.973064 201.837495 
L 575.24684 199.852778 
L 577.520615 200.183424 
L 579.79439 200.271503 
L 584.341941 201.111191 
L 586.615717 200.15823 
L 588.889492 199.694347 
L 591.163267 200.404917 
L 593.437043 200.421359 
L 595.710818 200.030942 
L 597.984594 200.097048 
L 600.258369 199.428298 
L 602.532144 199.464011 
L 604.80592 198.269256 
L 607.079695 199.003613 
L 611.627246 201.948713 
L 613.901021 202.048087 
L 618.448572 205.505933 
L 620.722348 207.045725 
L 622.996123 206.234154 
L 625.269898 207.876855 
L 627.543674 206.273732 
L 629.817449 206.342141 
L 632.091225 209.106555 
L 634.365 208.088342 
L 636.638775 207.861893 
L 638.912551 206.636394 
L 643.460102 207.64402 
L 645.733877 207.804989 
L 648.007652 208.514935 
L 650.281428 208.040562 
L 652.555203 208.950493 
L 654.828979 211.047061 
L 657.102754 211.686181 
L 659.376529 215.369633 
L 661.650305 217.118352 
L 663.92408 213.318614 
L 666.197856 208.918867 
L 668.471631 208.335117 
L 670.745406 215.379321 
L 673.019182 214.343617 
L 675.292957 212.817585 
L 677.566733 217.182488 
L 679.840508 223.585059 
L 682.114283 219.336746 
L 684.388059 217.53312 
L 686.661834 223.006237 
L 688.93561 217.843389 
L 691.209385 226.511231 
L 693.48316 221.675617 
L 695.756936 224.092956 
L 698.030711 224.403952 
L 700.304487 211.544196 
L 702.578262 208.686445 
L 704.852037 200.687667 
L 707.125813 155.911305 
L 709.399588 155.880704 
L 711.673364 63.7236 
L 711.673364 63.7236 
" style="fill:none;stroke:#a9678f;stroke-linecap:round;stroke-width:1.5;"/>
   </g>
   <g id="line2d_16">
    <path clip-path="url(#p5d5ea63579)" d="M 131.860636 125.179371 
L 134.134412 125.097164 
L 136.408187 124.90339 
L 138.681963 125.138268 
L 145.503289 125.167627 
L 159.145941 124.369043 
L 161.419717 124.433634 
L 165.967267 124.310323 
L 168.241043 124.533457 
L 175.062369 124.327939 
L 179.60992 124.322067 
L 188.705021 124.116549 
L 190.978797 123.946263 
L 195.526348 124.345555 
L 200.073898 124.228116 
L 202.347674 124.380787 
L 206.895225 124.163525 
L 209.169 124.140037 
L 211.442775 123.946263 
L 213.716551 124.034342 
L 215.990326 124.23986 
L 220.537877 124.398403 
L 225.085428 124.181141 
L 227.359203 124.380787 
L 238.72808 124.645024 
L 245.549406 124.339683 
L 247.823182 124.386659 
L 252.370733 123.952135 
L 254.644508 123.934519 
L 256.918283 124.069574 
L 261.465834 124.040214 
L 263.73961 124.157653 
L 270.560936 123.893415 
L 277.382262 123.764233 
L 281.929813 124.046086 
L 284.203588 123.981494 
L 286.477364 123.623306 
L 288.751139 123.435404 
L 293.29869 123.36494 
L 295.572465 123.159422 
L 297.846241 123.130063 
L 302.393791 122.683795 
L 304.667567 122.795362 
L 306.941342 122.51938 
L 309.215118 122.906929 
L 313.762668 123.024368 
L 320.583995 122.859953 
L 322.85777 122.906929 
L 327.405321 123.194654 
L 329.679096 123.077215 
L 334.226647 123.265117 
L 336.500422 123.030239 
L 338.774198 123.206398 
L 341.047973 123.78772 
L 343.321749 123.593946 
L 350.143075 123.529355 
L 352.41685 123.60569 
L 356.964401 123.15355 
L 359.238176 123.388428 
L 361.511952 123.3943 
L 363.785727 123.911031 
L 366.059503 124.040214 
L 368.333278 124.046086 
L 372.880829 124.410146 
L 375.154604 123.99911 
L 377.42838 124.445378 
L 379.702155 125.026701 
L 381.97593 125.29681 
L 384.249706 125.367273 
L 386.523481 125.108908 
L 388.797257 125.402505 
L 391.071032 125.53756 
L 393.344807 125.349658 
L 404.713684 125.138268 
L 406.98746 125.602151 
L 409.261235 125.895748 
L 411.535011 126.447711 
L 413.808786 126.077779 
L 416.082561 125.995571 
L 418.356337 126.159986 
L 420.630112 126.124754 
L 422.903888 126.582766 
L 425.177663 127.239337 
L 427.451439 127.463587 
L 429.725214 127.481291 
L 431.998989 127.221633 
L 434.272765 127.080002 
L 438.820316 126.6197 
L 441.094091 126.643306 
L 443.367866 126.466267 
L 445.641642 126.430859 
L 452.462968 127.009186 
L 459.284294 127.032792 
L 461.55807 126.849851 
L 463.831845 127.587514 
L 466.10562 127.552106 
L 468.379396 128.118632 
L 472.926947 128.496315 
L 475.200722 129.15136 
L 484.295824 131.010271 
L 486.569599 130.685699 
L 488.843374 131.033876 
L 493.390925 130.573574 
L 495.664701 130.774219 
L 497.938476 131.579702 
L 500.212251 131.775424 
L 502.486027 131.01033 
L 507.033578 130.440958 
L 509.307353 129.794483 
L 513.854904 129.503866 
L 516.128679 129.669933 
L 518.402455 130.156272 
L 520.67623 130.156272 
L 522.950005 131.034054 
L 525.223781 130.70192 
L 527.497556 131.271292 
L 529.771332 131.490738 
L 532.045107 131.882181 
L 536.592658 133.062442 
L 538.866433 134.07793 
L 541.140209 134.165903 
L 543.413984 133.461359 
L 545.687759 133.617925 
L 547.961535 134.316446 
L 550.23531 134.196012 
L 552.509086 134.412794 
L 554.782861 134.840338 
L 557.056636 134.870446 
L 559.330412 134.262251 
L 561.604187 133.89162 
L 563.877963 133.159253 
L 566.151738 133.523253 
L 568.425513 134.393239 
L 570.699289 134.176566 
L 572.973064 133.51267 
L 577.520615 131.680806 
L 579.79439 131.422624 
L 582.068166 131.290427 
L 584.341941 130.663026 
L 586.615717 131.711557 
L 588.889492 130.877298 
L 591.163267 131.00468 
L 593.437043 131.566742 
L 595.710818 132.42852 
L 600.258369 133.10517 
L 602.532144 135.199181 
L 604.80592 136.459567 
L 607.079695 136.650961 
L 609.353471 139.04746 
L 611.627246 138.834626 
L 613.901021 139.318659 
L 616.174797 137.444508 
L 618.448572 137.023667 
L 620.722348 137.56203 
L 622.996123 139.589976 
L 625.269898 141.06736 
L 627.543674 142.378597 
L 629.817449 143.330062 
L 632.091225 144.622538 
L 634.365 146.197659 
L 636.638775 147.085808 
L 638.912551 147.339045 
L 641.186326 145.048361 
L 643.460102 146.171745 
L 645.733877 147.553542 
L 648.007652 149.433825 
L 650.281428 150.315994 
L 652.555203 151.318746 
L 654.828979 154.322429 
L 657.102754 154.160778 
L 661.650305 155.774516 
L 663.92408 155.911103 
L 666.197856 160.01335 
L 668.471631 157.611953 
L 670.745406 160.866196 
L 673.019182 156.36903 
L 675.292957 160.309403 
L 677.566733 167.279127 
L 679.840508 170.367037 
L 682.114283 183.561054 
L 684.388059 179.181992 
L 686.661834 179.714919 
L 688.93561 186.215145 
L 691.209385 191.198112 
L 693.48316 192.911903 
L 695.756936 207.309268 
L 698.030711 191.286475 
L 700.304487 196.386483 
L 702.578262 179.026383 
L 704.852037 191.271211 
L 707.125813 166.575633 
L 709.399588 156.59025 
L 711.673364 63.7236 
L 711.673364 63.7236 
" style="fill:none;stroke:#6e4071;stroke-linecap:round;stroke-width:1.5;"/>
   </g>
   <g id="line2d_17">
    <path clip-path="url(#p5d5ea63579)" d="M 131.860636 80.916653 
L 134.134412 81.165232 
L 138.681963 81.022171 
L 140.955738 81.192665 
L 143.229513 81.054165 
L 145.503289 81.106724 
L 150.05084 80.979619 
L 163.693492 80.949356 
L 165.967267 81.147657 
L 175.062369 80.956631 
L 177.336144 81.109515 
L 181.883695 81.042246 
L 184.157471 81.189014 
L 204.621449 81.20736 
L 206.895225 81.286127 
L 209.169 81.120153 
L 211.442775 81.35954 
L 218.264102 81.408975 
L 220.537877 81.595234 
L 227.359203 81.464784 
L 229.632979 81.620082 
L 234.180529 81.626293 
L 236.454305 81.557963 
L 238.72808 81.721017 
L 243.275631 81.677303 
L 256.918283 81.654729 
L 266.013385 81.768337 
L 268.28716 81.793583 
L 270.560936 82.087443 
L 277.382262 81.97957 
L 279.656037 82.212227 
L 284.203588 82.210077 
L 286.477364 82.485899 
L 288.751139 82.491682 
L 291.024914 82.685593 
L 293.29869 82.633713 
L 295.572465 82.808807 
L 297.846241 82.724503 
L 300.120016 82.504014 
L 302.393791 82.724503 
L 311.488893 83.109873 
L 313.762668 82.959896 
L 318.310219 83.204535 
L 320.583995 83.383563 
L 325.131545 83.264211 
L 327.405321 83.124966 
L 341.047973 83.427955 
L 347.869299 83.794703 
L 350.143075 83.594658 
L 354.690626 83.620384 
L 359.238176 83.76121 
L 361.511952 84.13874 
L 363.785727 84.226417 
L 366.059503 84.125252 
L 368.333278 84.296767 
L 370.607053 84.669838 
L 372.880829 84.82585 
L 379.702155 84.433061 
L 381.97593 84.374714 
L 384.249706 84.711415 
L 386.523481 84.850269 
L 388.797257 84.863538 
L 393.344807 85.333614 
L 395.618583 85.326589 
L 404.713684 84.883486 
L 409.261235 84.911756 
L 411.535011 85.390328 
L 416.082561 85.411787 
L 418.356337 85.887885 
L 420.630112 85.714104 
L 429.725214 86.72769 
L 436.54654 86.569024 
L 438.820316 86.905705 
L 441.094091 86.764667 
L 443.367866 86.870244 
L 445.641642 87.185067 
L 447.915417 87.192633 
L 450.189193 86.867305 
L 452.462968 86.795796 
L 461.55807 87.600587 
L 463.831845 87.328817 
L 466.10562 87.538468 
L 468.379396 87.631647 
L 470.653171 87.305522 
L 472.926947 87.547673 
L 475.200722 87.539857 
L 477.474497 87.777316 
L 479.748273 87.572737 
L 482.022048 87.679705 
L 484.295824 87.615907 
L 486.569599 87.934897 
L 488.843374 87.995223 
L 491.11715 87.810556 
L 493.390925 88.45249 
L 495.664701 88.177635 
L 497.938476 88.207908 
L 500.212251 88.918891 
L 502.486027 89.342689 
L 504.759802 89.39221 
L 507.033578 89.004292 
L 509.307353 89.04556 
L 513.854904 89.331936 
L 516.128679 89.32103 
L 520.67623 89.765758 
L 522.950005 89.281766 
L 525.223781 89.629033 
L 527.497556 89.853024 
L 529.771332 89.923655 
L 532.045107 89.654625 
L 534.318882 90.012817 
L 536.592658 89.995332 
L 538.866433 90.446819 
L 541.140209 90.332317 
L 543.413984 90.692117 
L 545.687759 90.699713 
L 547.961535 90.878541 
L 550.23531 90.145348 
L 552.509086 90.635349 
L 554.782861 90.806532 
L 557.056636 90.599311 
L 559.330412 90.678942 
L 561.604187 91.418558 
L 563.877963 91.574096 
L 566.151738 90.943366 
L 568.425513 92.106513 
L 570.699289 92.811319 
L 572.973064 92.654384 
L 575.24684 92.349763 
L 577.520615 93.297841 
L 579.79439 93.423607 
L 582.068166 93.297841 
L 584.341941 93.386189 
L 586.615717 93.708078 
L 588.889492 93.36668 
L 591.163267 93.930276 
L 593.437043 93.351174 
L 595.710818 93.466173 
L 597.984594 93.440882 
L 600.258369 92.486994 
L 602.532144 92.601384 
L 604.80592 93.547884 
L 607.079695 93.982248 
L 609.353471 93.75598 
L 611.627246 95.218604 
L 613.901021 96.280233 
L 616.174797 95.604055 
L 618.448572 95.17408 
L 620.722348 97.268604 
L 622.996123 98.584475 
L 625.269898 99.278958 
L 627.543674 102.54797 
L 629.817449 101.976986 
L 632.091225 102.246003 
L 634.365 105.345152 
L 636.638775 106.976689 
L 638.912551 107.202327 
L 641.186326 108.805988 
L 643.460102 108.702603 
L 645.733877 110.30583 
L 648.007652 110.225877 
L 650.281428 111.014051 
L 652.555203 110.75089 
L 654.828979 113.252403 
L 657.102754 117.614756 
L 659.376529 115.97284 
L 663.92408 131.024696 
L 666.197856 128.087158 
L 668.471631 130.099222 
L 670.745406 135.837538 
L 673.019182 128.82934 
L 675.292957 134.110065 
L 677.566733 146.721229 
L 679.840508 157.554337 
L 682.114283 156.128189 
L 684.388059 176.703175 
L 686.661834 176.792589 
L 688.93561 173.542315 
L 691.209385 194.565719 
L 693.48316 208.158688 
L 695.756936 199.879548 
L 698.030711 222.035998 
L 700.304487 176.07335 
L 702.578262 196.096969 
L 704.852037 168.176685 
L 707.125813 213.026597 
L 709.399588 63.7236 
L 709.399588 63.7236 
" style="fill:none;stroke:#2d1e3e;stroke-linecap:round;stroke-width:1.5;"/>
   </g>
   <g id="line2d_18"/>
   <g id="line2d_19"/>
   <g id="line2d_20"/>
   <g id="line2d_21"/>
   <g id="line2d_22"/>
   <g id="patch_3">
    <path d="M 102.87 365.8968 
L 102.87 49.3344 
" style="fill:none;stroke:#cccccc;stroke-linecap:square;stroke-linejoin:miter;stroke-width:0.8;"/>
   </g>
   <g id="patch_4">
    <path d="M 740.664 365.8968 
L 740.664 49.3344 
" style="fill:none;stroke:#cccccc;stroke-linecap:square;stroke-linejoin:miter;stroke-width:0.8;"/>
   </g>
   <g id="patch_5">
    <path d="M 102.87 365.8968 
L 740.664 365.8968 
" style="fill:none;stroke:#cccccc;stroke-linecap:square;stroke-linejoin:miter;stroke-width:0.8;"/>
   </g>
   <g id="patch_6">
    <path d="M 102.87 49.3344 
L 740.664 49.3344 
" style="fill:none;stroke:#cccccc;stroke-linecap:square;stroke-linejoin:miter;stroke-width:0.8;"/>
   </g>
   <g id="legend_1">
    <g id="patch_7">
     <path d="M 677.968688 360.8968 
L 733.664 360.8968 
Q 735.664 360.8968 735.664 358.8968 
L 735.664 274.907737 
Q 735.664 272.907737 733.664 272.907737 
L 677.968688 272.907737 
Q 675.968688 272.907737 675.968688 274.907737 
L 675.968688 358.8968 
Q 675.968688 360.8968 677.968688 360.8968 
z
" style="fill:#ffffff;opacity:0.8;stroke:#cccccc;stroke-linejoin:miter;"/>
    </g>
    <g id="text_15">
     <!-- init_magnet -->
     <g style="fill:#262626;" transform="translate(679.968688 284.06555)scale(0.1 -0.1)">
      <defs>
       <path d="M 6.640625 61.46875 
L 6.640625 71.578125 
L 15.4375 71.578125 
L 15.4375 61.46875 
z
M 6.640625 0 
L 6.640625 51.859375 
L 15.4375 51.859375 
L 15.4375 0 
z
" id="ArialMT-105"/>
       <path d="M 4.984375 -4.296875 
L 13.53125 -5.5625 
Q 14.0625 -9.515625 16.5 -11.328125 
Q 19.78125 -13.765625 25.4375 -13.765625 
Q 31.546875 -13.765625 34.859375 -11.328125 
Q 38.1875 -8.890625 39.359375 -4.5 
Q 40.046875 -1.8125 39.984375 6.78125 
Q 34.234375 0 25.640625 0 
Q 14.9375 0 9.078125 7.71875 
Q 3.21875 15.4375 3.21875 26.21875 
Q 3.21875 33.640625 5.90625 39.90625 
Q 8.59375 46.1875 13.6875 49.609375 
Q 18.796875 53.03125 25.6875 53.03125 
Q 34.859375 53.03125 40.828125 45.609375 
L 40.828125 51.859375 
L 48.921875 51.859375 
L 48.921875 7.03125 
Q 48.921875 -5.078125 46.453125 -10.125 
Q 44 -15.1875 38.640625 -18.109375 
Q 33.296875 -21.046875 25.484375 -21.046875 
Q 16.21875 -21.046875 10.5 -16.875 
Q 4.78125 -12.703125 4.984375 -4.296875 
z
M 12.25 26.859375 
Q 12.25 16.65625 16.296875 11.96875 
Q 20.359375 7.28125 26.46875 7.28125 
Q 32.515625 7.28125 36.609375 11.9375 
Q 40.71875 16.609375 40.71875 26.5625 
Q 40.71875 36.078125 36.5 40.90625 
Q 32.28125 45.75 26.3125 45.75 
Q 20.453125 45.75 16.34375 40.984375 
Q 12.25 36.234375 12.25 26.859375 
z
" id="ArialMT-103"/>
      </defs>
      <use xlink:href="#ArialMT-105"/>
      <use x="22.216797" xlink:href="#ArialMT-110"/>
      <use x="77.832031" xlink:href="#ArialMT-105"/>
      <use x="100.048828" xlink:href="#ArialMT-116"/>
      <use x="127.832031" xlink:href="#ArialMT-95"/>
      <use x="183.447266" xlink:href="#ArialMT-109"/>
      <use x="266.748047" xlink:href="#ArialMT-97"/>
      <use x="322.363281" xlink:href="#ArialMT-103"/>
      <use x="377.978516" xlink:href="#ArialMT-110"/>
      <use x="433.59375" xlink:href="#ArialMT-101"/>
      <use x="489.208984" xlink:href="#ArialMT-116"/>
     </g>
    </g>
    <g id="line2d_23">
     <path d="M 684.866344 294.82805 
L 704.866344 294.82805 
" style="fill:none;stroke:#edd1cb;stroke-linecap:round;stroke-width:1.5;"/>
    </g>
    <g id="line2d_24"/>
    <g id="text_16">
     <!-- 0.0 -->
     <g style="fill:#262626;" transform="translate(712.866344 298.32805)scale(0.1 -0.1)">
      <use xlink:href="#ArialMT-48"/>
      <use x="55.615234" xlink:href="#ArialMT-46"/>
      <use x="83.398438" xlink:href="#ArialMT-48"/>
     </g>
    </g>
    <g id="line2d_25">
     <path d="M 684.866344 308.973362 
L 704.866344 308.973362 
" style="fill:none;stroke:#d499a7;stroke-linecap:round;stroke-width:1.5;"/>
    </g>
    <g id="line2d_26"/>
    <g id="text_17">
     <!-- 0.2 -->
     <g style="fill:#262626;" transform="translate(712.866344 312.473362)scale(0.1 -0.1)">
      <use xlink:href="#ArialMT-48"/>
      <use x="55.615234" xlink:href="#ArialMT-46"/>
      <use x="83.398438" xlink:href="#ArialMT-50"/>
     </g>
    </g>
    <g id="line2d_27">
     <path d="M 684.866344 323.118675 
L 704.866344 323.118675 
" style="fill:none;stroke:#a9678f;stroke-linecap:round;stroke-width:1.5;"/>
    </g>
    <g id="line2d_28"/>
    <g id="text_18">
     <!-- 0.4 -->
     <g style="fill:#262626;" transform="translate(712.866344 326.618675)scale(0.1 -0.1)">
      <use xlink:href="#ArialMT-48"/>
      <use x="55.615234" xlink:href="#ArialMT-46"/>
      <use x="83.398438" xlink:href="#ArialMT-52"/>
     </g>
    </g>
    <g id="line2d_29">
     <path d="M 684.866344 337.263987 
L 704.866344 337.263987 
" style="fill:none;stroke:#6e4071;stroke-linecap:round;stroke-width:1.5;"/>
    </g>
    <g id="line2d_30"/>
    <g id="text_19">
     <!-- 0.6 -->
     <g style="fill:#262626;" transform="translate(712.866344 340.763987)scale(0.1 -0.1)">
      <use xlink:href="#ArialMT-48"/>
      <use x="55.615234" xlink:href="#ArialMT-46"/>
      <use x="83.398438" xlink:href="#ArialMT-54"/>
     </g>
    </g>
    <g id="line2d_31">
     <path d="M 684.866344 351.4093 
L 704.866344 351.4093 
" style="fill:none;stroke:#2d1e3e;stroke-linecap:round;stroke-width:1.5;"/>
    </g>
    <g id="line2d_32"/>
    <g id="text_20">
     <!-- 0.8 -->
     <g style="fill:#262626;" transform="translate(712.866344 354.9093)scale(0.1 -0.1)">
      <use xlink:href="#ArialMT-48"/>
      <use x="55.615234" xlink:href="#ArialMT-46"/>
      <use x="83.398438" xlink:href="#ArialMT-56"/>
     </g>
    </g>
   </g>
  </g>
 </g>
 <defs>
  <clipPath id="p5d5ea63579">
   <rect height="316.5624" width="637.794" x="102.87" y="49.3344"/>
  </clipPath>
 </defs>
</svg>
