<?xml version="1.0" encoding="utf-8" standalone="no"?>
<!DOCTYPE svg PUBLIC "-//W3C//DTD SVG 1.1//EN"
  "http://www.w3.org/Graphics/SVG/1.1/DTD/svg11.dtd">
<!-- Created with matplotlib (https://matplotlib.org/) -->
<svg height="363.6pt" version="1.1" viewBox="0 0 591.12 363.6" width="591.12pt" xmlns="http://www.w3.org/2000/svg" xmlns:xlink="http://www.w3.org/1999/xlink">
 <metadata>
  <rdf:RDF xmlns:cc="http://creativecommons.org/ns#" xmlns:dc="http://purl.org/dc/elements/1.1/" xmlns:rdf="http://www.w3.org/1999/02/22-rdf-syntax-ns#">
   <cc:Work>
    <dc:type rdf:resource="http://purl.org/dc/dcmitype/StillImage"/>
    <dc:date>2021-03-08T01:05:30.911264</dc:date>
    <dc:format>image/svg+xml</dc:format>
    <dc:creator>
     <cc:Agent>
      <dc:title>Matplotlib v3.3.3, https://matplotlib.org/</dc:title>
     </cc:Agent>
    </dc:creator>
   </cc:Work>
  </rdf:RDF>
 </metadata>
 <defs>
  <style type="text/css">*{stroke-linecap:butt;stroke-linejoin:round;}</style>
 </defs>
 <g id="figure_1">
  <g id="patch_1">
   <path d="M 0 363.6 
L 591.12 363.6 
L 591.12 0 
L 0 0 
z
" style="fill:none;"/>
  </g>
  <g id="axes_1">
   <g id="patch_2">
    <path d="M 73.89 323.604 
L 532.008 323.604 
L 532.008 43.632 
L 73.89 43.632 
z
" style="fill:none;"/>
   </g>
   <g id="matplotlib.axis_1">
    <g id="xtick_1">
     <g id="line2d_1">
      <path clip-path="url(#pbe73f01393)" d="M 94.713545 323.604 
L 94.713545 43.632 
" style="fill:none;stroke:#cccccc;stroke-linecap:round;stroke-width:0.8;"/>
     </g>
     <g id="text_1">
      <!-- 0 -->
      <g style="fill:#262626;" transform="translate(91.933077 337.761812)scale(0.1 -0.1)">
       <defs>
        <path d="M 4.15625 35.296875 
Q 4.15625 48 6.765625 55.734375 
Q 9.375 63.484375 14.515625 67.671875 
Q 19.671875 71.875 27.484375 71.875 
Q 33.25 71.875 37.59375 69.546875 
Q 41.9375 67.234375 44.765625 62.859375 
Q 47.609375 58.5 49.21875 52.21875 
Q 50.828125 45.953125 50.828125 35.296875 
Q 50.828125 22.703125 48.234375 14.96875 
Q 45.65625 7.234375 40.5 3 
Q 35.359375 -1.21875 27.484375 -1.21875 
Q 17.140625 -1.21875 11.234375 6.203125 
Q 4.15625 15.140625 4.15625 35.296875 
z
M 13.1875 35.296875 
Q 13.1875 17.671875 17.3125 11.828125 
Q 21.4375 6 27.484375 6 
Q 33.546875 6 37.671875 11.859375 
Q 41.796875 17.71875 41.796875 35.296875 
Q 41.796875 52.984375 37.671875 58.78125 
Q 33.546875 64.59375 27.390625 64.59375 
Q 21.34375 64.59375 17.71875 59.46875 
Q 13.1875 52.9375 13.1875 35.296875 
z
" id="ArialMT-48"/>
       </defs>
       <use xlink:href="#ArialMT-48"/>
      </g>
     </g>
    </g>
    <g id="xtick_2">
     <g id="line2d_2">
      <path clip-path="url(#pbe73f01393)" d="M 176.05552 323.604 
L 176.05552 43.632 
" style="fill:none;stroke:#cccccc;stroke-linecap:round;stroke-width:0.8;"/>
     </g>
     <g id="text_2">
      <!-- 200 -->
      <g style="fill:#262626;" transform="translate(167.714114 337.761812)scale(0.1 -0.1)">
       <defs>
        <path d="M 50.34375 8.453125 
L 50.34375 0 
L 3.03125 0 
Q 2.9375 3.171875 4.046875 6.109375 
Q 5.859375 10.9375 9.828125 15.625 
Q 13.8125 20.3125 21.34375 26.46875 
Q 33.015625 36.03125 37.109375 41.625 
Q 41.21875 47.21875 41.21875 52.203125 
Q 41.21875 57.421875 37.46875 61 
Q 33.734375 64.59375 27.734375 64.59375 
Q 21.390625 64.59375 17.578125 60.78125 
Q 13.765625 56.984375 13.71875 50.25 
L 4.6875 51.171875 
Q 5.609375 61.28125 11.65625 66.578125 
Q 17.71875 71.875 27.9375 71.875 
Q 38.234375 71.875 44.234375 66.15625 
Q 50.25 60.453125 50.25 52 
Q 50.25 47.703125 48.484375 43.546875 
Q 46.734375 39.40625 42.65625 34.8125 
Q 38.578125 30.21875 29.109375 22.21875 
Q 21.1875 15.578125 18.9375 13.203125 
Q 16.703125 10.84375 15.234375 8.453125 
z
" id="ArialMT-50"/>
       </defs>
       <use xlink:href="#ArialMT-50"/>
       <use x="55.615234" xlink:href="#ArialMT-48"/>
       <use x="111.230469" xlink:href="#ArialMT-48"/>
      </g>
     </g>
    </g>
    <g id="xtick_3">
     <g id="line2d_3">
      <path clip-path="url(#pbe73f01393)" d="M 257.397494 323.604 
L 257.397494 43.632 
" style="fill:none;stroke:#cccccc;stroke-linecap:round;stroke-width:0.8;"/>
     </g>
     <g id="text_3">
      <!-- 400 -->
      <g style="fill:#262626;" transform="translate(249.056088 337.761812)scale(0.1 -0.1)">
       <defs>
        <path d="M 32.328125 0 
L 32.328125 17.140625 
L 1.265625 17.140625 
L 1.265625 25.203125 
L 33.9375 71.578125 
L 41.109375 71.578125 
L 41.109375 25.203125 
L 50.78125 25.203125 
L 50.78125 17.140625 
L 41.109375 17.140625 
L 41.109375 0 
z
M 32.328125 25.203125 
L 32.328125 57.46875 
L 9.90625 25.203125 
z
" id="ArialMT-52"/>
       </defs>
       <use xlink:href="#ArialMT-52"/>
       <use x="55.615234" xlink:href="#ArialMT-48"/>
       <use x="111.230469" xlink:href="#ArialMT-48"/>
      </g>
     </g>
    </g>
    <g id="xtick_4">
     <g id="line2d_4">
      <path clip-path="url(#pbe73f01393)" d="M 338.739469 323.604 
L 338.739469 43.632 
" style="fill:none;stroke:#cccccc;stroke-linecap:round;stroke-width:0.8;"/>
     </g>
     <g id="text_4">
      <!-- 600 -->
      <g style="fill:#262626;" transform="translate(330.398063 337.761812)scale(0.1 -0.1)">
       <defs>
        <path d="M 49.75 54.046875 
L 41.015625 53.375 
Q 39.84375 58.546875 37.703125 60.890625 
Q 34.125 64.65625 28.90625 64.65625 
Q 24.703125 64.65625 21.53125 62.3125 
Q 17.390625 59.28125 14.984375 53.46875 
Q 12.59375 47.65625 12.5 36.921875 
Q 15.671875 41.75 20.265625 44.09375 
Q 24.859375 46.4375 29.890625 46.4375 
Q 38.671875 46.4375 44.84375 39.96875 
Q 51.03125 33.5 51.03125 23.25 
Q 51.03125 16.5 48.125 10.71875 
Q 45.21875 4.9375 40.140625 1.859375 
Q 35.0625 -1.21875 28.609375 -1.21875 
Q 17.625 -1.21875 10.6875 6.859375 
Q 3.765625 14.9375 3.765625 33.5 
Q 3.765625 54.25 11.421875 63.671875 
Q 18.109375 71.875 29.4375 71.875 
Q 37.890625 71.875 43.28125 67.140625 
Q 48.6875 62.40625 49.75 54.046875 
z
M 13.875 23.1875 
Q 13.875 18.65625 15.796875 14.5 
Q 17.71875 10.359375 21.1875 8.171875 
Q 24.65625 6 28.46875 6 
Q 34.03125 6 38.03125 10.484375 
Q 42.046875 14.984375 42.046875 22.703125 
Q 42.046875 30.125 38.078125 34.390625 
Q 34.125 38.671875 28.125 38.671875 
Q 22.171875 38.671875 18.015625 34.390625 
Q 13.875 30.125 13.875 23.1875 
z
" id="ArialMT-54"/>
       </defs>
       <use xlink:href="#ArialMT-54"/>
       <use x="55.615234" xlink:href="#ArialMT-48"/>
       <use x="111.230469" xlink:href="#ArialMT-48"/>
      </g>
     </g>
    </g>
    <g id="xtick_5">
     <g id="line2d_5">
      <path clip-path="url(#pbe73f01393)" d="M 420.081443 323.604 
L 420.081443 43.632 
" style="fill:none;stroke:#cccccc;stroke-linecap:round;stroke-width:0.8;"/>
     </g>
     <g id="text_5">
      <!-- 800 -->
      <g style="fill:#262626;" transform="translate(411.740037 337.761812)scale(0.1 -0.1)">
       <defs>
        <path d="M 17.671875 38.8125 
Q 12.203125 40.828125 9.5625 44.53125 
Q 6.9375 48.25 6.9375 53.421875 
Q 6.9375 61.234375 12.546875 66.546875 
Q 18.171875 71.875 27.484375 71.875 
Q 36.859375 71.875 42.578125 66.421875 
Q 48.296875 60.984375 48.296875 53.171875 
Q 48.296875 48.1875 45.671875 44.5 
Q 43.0625 40.828125 37.75 38.8125 
Q 44.34375 36.671875 47.78125 31.875 
Q 51.21875 27.09375 51.21875 20.453125 
Q 51.21875 11.28125 44.71875 5.03125 
Q 38.234375 -1.21875 27.640625 -1.21875 
Q 17.046875 -1.21875 10.546875 5.046875 
Q 4.046875 11.328125 4.046875 20.703125 
Q 4.046875 27.6875 7.59375 32.390625 
Q 11.140625 37.109375 17.671875 38.8125 
z
M 15.921875 53.71875 
Q 15.921875 48.640625 19.1875 45.40625 
Q 22.46875 42.1875 27.6875 42.1875 
Q 32.765625 42.1875 36.015625 45.375 
Q 39.265625 48.578125 39.265625 53.21875 
Q 39.265625 58.0625 35.90625 61.359375 
Q 32.5625 64.65625 27.59375 64.65625 
Q 22.5625 64.65625 19.234375 61.421875 
Q 15.921875 58.203125 15.921875 53.71875 
z
M 13.09375 20.65625 
Q 13.09375 16.890625 14.875 13.375 
Q 16.65625 9.859375 20.171875 7.921875 
Q 23.6875 6 27.734375 6 
Q 34.03125 6 38.125 10.046875 
Q 42.234375 14.109375 42.234375 20.359375 
Q 42.234375 26.703125 38.015625 30.859375 
Q 33.796875 35.015625 27.4375 35.015625 
Q 21.234375 35.015625 17.15625 30.90625 
Q 13.09375 26.8125 13.09375 20.65625 
z
" id="ArialMT-56"/>
       </defs>
       <use xlink:href="#ArialMT-56"/>
       <use x="55.615234" xlink:href="#ArialMT-48"/>
       <use x="111.230469" xlink:href="#ArialMT-48"/>
      </g>
     </g>
    </g>
    <g id="xtick_6">
     <g id="line2d_6">
      <path clip-path="url(#pbe73f01393)" d="M 501.423418 323.604 
L 501.423418 43.632 
" style="fill:none;stroke:#cccccc;stroke-linecap:round;stroke-width:0.8;"/>
     </g>
     <g id="text_6">
      <!-- 1000 -->
      <g style="fill:#262626;" transform="translate(490.301543 337.761812)scale(0.1 -0.1)">
       <defs>
        <path d="M 37.25 0 
L 28.46875 0 
L 28.46875 56 
Q 25.296875 52.984375 20.140625 49.953125 
Q 14.984375 46.921875 10.890625 45.40625 
L 10.890625 53.90625 
Q 18.265625 57.375 23.78125 62.296875 
Q 29.296875 67.234375 31.59375 71.875 
L 37.25 71.875 
z
" id="ArialMT-49"/>
       </defs>
       <use xlink:href="#ArialMT-49"/>
       <use x="55.615234" xlink:href="#ArialMT-48"/>
       <use x="111.230469" xlink:href="#ArialMT-48"/>
       <use x="166.845703" xlink:href="#ArialMT-48"/>
      </g>
     </g>
    </g>
    <g id="text_7">
     <!-- fct -->
     <g style="fill:#262626;" transform="translate(297.670875 350.907125)scale(0.1 -0.1)">
      <defs>
       <path d="M 8.6875 0 
L 8.6875 45.015625 
L 0.921875 45.015625 
L 0.921875 51.859375 
L 8.6875 51.859375 
L 8.6875 57.375 
Q 8.6875 62.59375 9.625 65.140625 
Q 10.890625 68.5625 14.078125 70.671875 
Q 17.28125 72.796875 23.046875 72.796875 
Q 26.765625 72.796875 31.25 71.921875 
L 29.9375 64.265625 
Q 27.203125 64.75 24.75 64.75 
Q 20.75 64.75 19.09375 63.03125 
Q 17.4375 61.328125 17.4375 56.640625 
L 17.4375 51.859375 
L 27.546875 51.859375 
L 27.546875 45.015625 
L 17.4375 45.015625 
L 17.4375 0 
z
" id="ArialMT-102"/>
       <path d="M 40.4375 19 
L 49.078125 17.875 
Q 47.65625 8.9375 41.8125 3.875 
Q 35.984375 -1.171875 27.484375 -1.171875 
Q 16.84375 -1.171875 10.375 5.78125 
Q 3.90625 12.75 3.90625 25.734375 
Q 3.90625 34.125 6.6875 40.421875 
Q 9.46875 46.734375 15.15625 49.875 
Q 20.84375 53.03125 27.546875 53.03125 
Q 35.984375 53.03125 41.359375 48.75 
Q 46.734375 44.484375 48.25 36.625 
L 39.703125 35.296875 
Q 38.484375 40.53125 35.375 43.15625 
Q 32.28125 45.796875 27.875 45.796875 
Q 21.234375 45.796875 17.078125 41.03125 
Q 12.9375 36.28125 12.9375 25.984375 
Q 12.9375 15.53125 16.9375 10.796875 
Q 20.953125 6.0625 27.390625 6.0625 
Q 32.5625 6.0625 36.03125 9.234375 
Q 39.5 12.40625 40.4375 19 
z
" id="ArialMT-99"/>
       <path d="M 25.78125 7.859375 
L 27.046875 0.09375 
Q 23.34375 -0.6875 20.40625 -0.6875 
Q 15.625 -0.6875 12.984375 0.828125 
Q 10.359375 2.34375 9.28125 4.8125 
Q 8.203125 7.28125 8.203125 15.1875 
L 8.203125 45.015625 
L 1.765625 45.015625 
L 1.765625 51.859375 
L 8.203125 51.859375 
L 8.203125 64.703125 
L 16.9375 69.96875 
L 16.9375 51.859375 
L 25.78125 51.859375 
L 25.78125 45.015625 
L 16.9375 45.015625 
L 16.9375 14.703125 
Q 16.9375 10.9375 17.40625 9.859375 
Q 17.875 8.796875 18.921875 8.15625 
Q 19.96875 7.515625 21.921875 7.515625 
Q 23.390625 7.515625 25.78125 7.859375 
z
" id="ArialMT-116"/>
      </defs>
      <use xlink:href="#ArialMT-102"/>
      <use x="27.783203" xlink:href="#ArialMT-99"/>
      <use x="77.783203" xlink:href="#ArialMT-116"/>
     </g>
    </g>
   </g>
   <g id="matplotlib.axis_2">
    <g id="ytick_1">
     <g id="line2d_7">
      <path clip-path="url(#pbe73f01393)" d="M 73.89 310.878 
L 532.008 310.878 
" style="fill:none;stroke:#cccccc;stroke-linecap:round;stroke-width:0.8;"/>
     </g>
     <g id="text_8">
      <!-- −1.00 -->
      <g style="fill:#262626;" transform="translate(41.588438 314.456906)scale(0.1 -0.1)">
       <defs>
        <path d="M 52.828125 31.203125 
L 5.5625 31.203125 
L 5.5625 39.40625 
L 52.828125 39.40625 
z
" id="ArialMT-8722"/>
        <path d="M 9.078125 0 
L 9.078125 10.015625 
L 19.09375 10.015625 
L 19.09375 0 
z
" id="ArialMT-46"/>
       </defs>
       <use xlink:href="#ArialMT-8722"/>
       <use x="58.398438" xlink:href="#ArialMT-49"/>
       <use x="114.013672" xlink:href="#ArialMT-46"/>
       <use x="141.796875" xlink:href="#ArialMT-48"/>
       <use x="197.412109" xlink:href="#ArialMT-48"/>
      </g>
     </g>
    </g>
    <g id="ytick_2">
     <g id="line2d_8">
      <path clip-path="url(#pbe73f01393)" d="M 73.89 276.219957 
L 532.008 276.219957 
" style="fill:none;stroke:#cccccc;stroke-linecap:round;stroke-width:0.8;"/>
     </g>
     <g id="text_9">
      <!-- −0.95 -->
      <g style="fill:#262626;" transform="translate(41.588438 279.798864)scale(0.1 -0.1)">
       <defs>
        <path d="M 5.46875 16.546875 
L 13.921875 17.328125 
Q 14.984375 11.375 18.015625 8.6875 
Q 21.046875 6 25.78125 6 
Q 29.828125 6 32.875 7.859375 
Q 35.9375 9.71875 37.890625 12.8125 
Q 39.84375 15.921875 41.15625 21.1875 
Q 42.484375 26.46875 42.484375 31.9375 
Q 42.484375 32.515625 42.4375 33.6875 
Q 39.796875 29.5 35.234375 26.875 
Q 30.671875 24.265625 25.34375 24.265625 
Q 16.453125 24.265625 10.296875 30.703125 
Q 4.15625 37.15625 4.15625 47.703125 
Q 4.15625 58.59375 10.578125 65.234375 
Q 17 71.875 26.65625 71.875 
Q 33.640625 71.875 39.421875 68.109375 
Q 45.21875 64.359375 48.21875 57.390625 
Q 51.21875 50.4375 51.21875 37.25 
Q 51.21875 23.53125 48.234375 15.40625 
Q 45.265625 7.28125 39.375 3.03125 
Q 33.5 -1.21875 25.59375 -1.21875 
Q 17.1875 -1.21875 11.859375 3.4375 
Q 6.546875 8.109375 5.46875 16.546875 
z
M 41.453125 48.140625 
Q 41.453125 55.71875 37.421875 60.15625 
Q 33.40625 64.59375 27.734375 64.59375 
Q 21.875 64.59375 17.53125 59.8125 
Q 13.1875 55.03125 13.1875 47.40625 
Q 13.1875 40.578125 17.3125 36.296875 
Q 21.4375 32.03125 27.484375 32.03125 
Q 33.59375 32.03125 37.515625 36.296875 
Q 41.453125 40.578125 41.453125 48.140625 
z
" id="ArialMT-57"/>
        <path d="M 4.15625 18.75 
L 13.375 19.53125 
Q 14.40625 12.796875 18.140625 9.390625 
Q 21.875 6 27.15625 6 
Q 33.5 6 37.890625 10.78125 
Q 42.28125 15.578125 42.28125 23.484375 
Q 42.28125 31 38.0625 35.34375 
Q 33.84375 39.703125 27 39.703125 
Q 22.75 39.703125 19.328125 37.765625 
Q 15.921875 35.84375 13.96875 32.765625 
L 5.71875 33.84375 
L 12.640625 70.609375 
L 48.25 70.609375 
L 48.25 62.203125 
L 19.671875 62.203125 
L 15.828125 42.96875 
Q 22.265625 47.46875 29.34375 47.46875 
Q 38.71875 47.46875 45.15625 40.96875 
Q 51.609375 34.46875 51.609375 24.265625 
Q 51.609375 14.546875 45.953125 7.46875 
Q 39.0625 -1.21875 27.15625 -1.21875 
Q 17.390625 -1.21875 11.203125 4.25 
Q 5.03125 9.71875 4.15625 18.75 
z
" id="ArialMT-53"/>
       </defs>
       <use xlink:href="#ArialMT-8722"/>
       <use x="58.398438" xlink:href="#ArialMT-48"/>
       <use x="114.013672" xlink:href="#ArialMT-46"/>
       <use x="141.796875" xlink:href="#ArialMT-57"/>
       <use x="197.412109" xlink:href="#ArialMT-53"/>
      </g>
     </g>
    </g>
    <g id="ytick_3">
     <g id="line2d_9">
      <path clip-path="url(#pbe73f01393)" d="M 73.89 241.561915 
L 532.008 241.561915 
" style="fill:none;stroke:#cccccc;stroke-linecap:round;stroke-width:0.8;"/>
     </g>
     <g id="text_10">
      <!-- −0.90 -->
      <g style="fill:#262626;" transform="translate(41.588438 245.140821)scale(0.1 -0.1)">
       <use xlink:href="#ArialMT-8722"/>
       <use x="58.398438" xlink:href="#ArialMT-48"/>
       <use x="114.013672" xlink:href="#ArialMT-46"/>
       <use x="141.796875" xlink:href="#ArialMT-57"/>
       <use x="197.412109" xlink:href="#ArialMT-48"/>
      </g>
     </g>
    </g>
    <g id="ytick_4">
     <g id="line2d_10">
      <path clip-path="url(#pbe73f01393)" d="M 73.89 206.903872 
L 532.008 206.903872 
" style="fill:none;stroke:#cccccc;stroke-linecap:round;stroke-width:0.8;"/>
     </g>
     <g id="text_11">
      <!-- −0.85 -->
      <g style="fill:#262626;" transform="translate(41.588438 210.482779)scale(0.1 -0.1)">
       <use xlink:href="#ArialMT-8722"/>
       <use x="58.398438" xlink:href="#ArialMT-48"/>
       <use x="114.013672" xlink:href="#ArialMT-46"/>
       <use x="141.796875" xlink:href="#ArialMT-56"/>
       <use x="197.412109" xlink:href="#ArialMT-53"/>
      </g>
     </g>
    </g>
    <g id="ytick_5">
     <g id="line2d_11">
      <path clip-path="url(#pbe73f01393)" d="M 73.89 172.24583 
L 532.008 172.24583 
" style="fill:none;stroke:#cccccc;stroke-linecap:round;stroke-width:0.8;"/>
     </g>
     <g id="text_12">
      <!-- −0.80 -->
      <g style="fill:#262626;" transform="translate(41.588438 175.824736)scale(0.1 -0.1)">
       <use xlink:href="#ArialMT-8722"/>
       <use x="58.398438" xlink:href="#ArialMT-48"/>
       <use x="114.013672" xlink:href="#ArialMT-46"/>
       <use x="141.796875" xlink:href="#ArialMT-56"/>
       <use x="197.412109" xlink:href="#ArialMT-48"/>
      </g>
     </g>
    </g>
    <g id="ytick_6">
     <g id="line2d_12">
      <path clip-path="url(#pbe73f01393)" d="M 73.89 137.587787 
L 532.008 137.587787 
" style="fill:none;stroke:#cccccc;stroke-linecap:round;stroke-width:0.8;"/>
     </g>
     <g id="text_13">
      <!-- −0.75 -->
      <g style="fill:#262626;" transform="translate(41.588438 141.166693)scale(0.1 -0.1)">
       <defs>
        <path d="M 4.734375 62.203125 
L 4.734375 70.65625 
L 51.078125 70.65625 
L 51.078125 63.8125 
Q 44.234375 56.546875 37.515625 44.484375 
Q 30.8125 32.421875 27.15625 19.671875 
Q 24.515625 10.6875 23.78125 0 
L 14.75 0 
Q 14.890625 8.453125 18.0625 20.40625 
Q 21.234375 32.375 27.171875 43.484375 
Q 33.109375 54.59375 39.796875 62.203125 
z
" id="ArialMT-55"/>
       </defs>
       <use xlink:href="#ArialMT-8722"/>
       <use x="58.398438" xlink:href="#ArialMT-48"/>
       <use x="114.013672" xlink:href="#ArialMT-46"/>
       <use x="141.796875" xlink:href="#ArialMT-55"/>
       <use x="197.412109" xlink:href="#ArialMT-53"/>
      </g>
     </g>
    </g>
    <g id="ytick_7">
     <g id="line2d_13">
      <path clip-path="url(#pbe73f01393)" d="M 73.89 102.929745 
L 532.008 102.929745 
" style="fill:none;stroke:#cccccc;stroke-linecap:round;stroke-width:0.8;"/>
     </g>
     <g id="text_14">
      <!-- −0.70 -->
      <g style="fill:#262626;" transform="translate(41.588438 106.508651)scale(0.1 -0.1)">
       <use xlink:href="#ArialMT-8722"/>
       <use x="58.398438" xlink:href="#ArialMT-48"/>
       <use x="114.013672" xlink:href="#ArialMT-46"/>
       <use x="141.796875" xlink:href="#ArialMT-55"/>
       <use x="197.412109" xlink:href="#ArialMT-48"/>
      </g>
     </g>
    </g>
    <g id="ytick_8">
     <g id="line2d_14">
      <path clip-path="url(#pbe73f01393)" d="M 73.89 68.271702 
L 532.008 68.271702 
" style="fill:none;stroke:#cccccc;stroke-linecap:round;stroke-width:0.8;"/>
     </g>
     <g id="text_15">
      <!-- −0.65 -->
      <g style="fill:#262626;" transform="translate(41.588438 71.850608)scale(0.1 -0.1)">
       <use xlink:href="#ArialMT-8722"/>
       <use x="58.398438" xlink:href="#ArialMT-48"/>
       <use x="114.013672" xlink:href="#ArialMT-46"/>
       <use x="141.796875" xlink:href="#ArialMT-54"/>
       <use x="197.412109" xlink:href="#ArialMT-53"/>
      </g>
     </g>
    </g>
   </g>
   <g id="line2d_15">
    <path clip-path="url(#pbe73f01393)" d="M 94.713545 310.878 
L 101.220903 310.878 
L 102.847743 308.17034 
L 106.101422 308.17034 
L 107.728261 305.462681 
L 110.98194 305.462681 
L 112.60878 302.755021 
L 114.235619 305.462681 
L 117.489298 300.047362 
L 119.116138 302.755021 
L 120.742977 302.755021 
L 123.996656 297.339702 
L 125.623496 300.047362 
L 127.250335 294.632043 
L 130.504014 294.632043 
L 132.130854 291.924383 
L 133.757693 291.924383 
L 135.384533 289.216723 
L 137.011372 291.924383 
L 138.638212 289.216723 
L 140.265051 289.216723 
L 143.51873 283.801404 
L 146.772409 289.216723 
L 148.399249 283.801404 
L 150.026088 283.801404 
L 151.652928 281.093745 
L 154.906607 281.093745 
L 156.533446 278.386085 
L 158.160286 283.801404 
L 159.787125 275.678426 
L 193.950754 256.724809 
L 195.577594 256.724809 
L 197.204433 251.309489 
L 198.831273 254.017149 
L 200.458112 251.309489 
L 202.084952 256.724809 
L 203.711791 256.724809 
L 205.338631 245.89417 
L 208.59231 251.309489 
L 210.219149 243.186511 
L 211.845989 248.60183 
L 213.472828 245.89417 
L 215.099668 240.478851 
L 216.726507 245.89417 
L 218.353347 243.186511 
L 219.980186 243.186511 
L 221.607026 248.60183 
L 223.233865 240.478851 
L 224.860705 240.478851 
L 226.487544 237.771191 
L 228.114384 248.60183 
L 229.741223 235.063532 
L 231.368063 232.355872 
L 232.994902 232.355872 
L 234.621741 229.648213 
L 236.248581 237.771191 
L 237.87542 232.355872 
L 239.50226 232.355872 
L 241.129099 226.940553 
L 242.755939 224.232894 
L 244.382778 224.232894 
L 246.009618 221.525234 
L 247.636457 232.355872 
L 249.263297 224.232894 
L 250.890136 224.232894 
L 252.516976 218.817574 
L 254.143815 218.817574 
L 255.770655 224.232894 
L 257.397494 221.525234 
L 259.024334 216.109915 
L 260.651173 224.232894 
L 262.278013 216.109915 
L 263.904852 216.109915 
L 265.531692 213.402255 
L 267.158531 224.232894 
L 268.785371 213.402255 
L 272.03905 213.402255 
L 273.665889 216.109915 
L 275.292729 210.694596 
L 276.919568 207.986936 
L 278.546408 210.694596 
L 280.173247 205.279277 
L 281.800087 205.279277 
L 283.426926 199.863957 
L 285.053766 202.571617 
L 286.680605 210.694596 
L 289.934284 205.279277 
L 291.561124 197.156298 
L 293.187963 205.279277 
L 294.814803 199.863957 
L 296.441642 199.863957 
L 298.068482 194.448638 
L 299.695321 199.863957 
L 301.322161 194.448638 
L 302.949 207.986936 
L 304.575839 197.156298 
L 306.202679 189.033319 
L 307.829518 191.740979 
L 309.456358 189.033319 
L 311.083197 197.156298 
L 314.336876 186.32566 
L 315.963716 194.448638 
L 317.590555 194.448638 
L 319.217395 186.32566 
L 320.844234 189.033319 
L 322.471074 180.91034 
L 389.171493 161.956723 
L 390.798332 148.418426 
L 392.425172 151.126085 
L 395.678851 151.126085 
L 398.93253 145.710766 
L 400.559369 148.418426 
L 402.186209 145.710766 
L 403.813048 148.418426 
L 405.439888 145.710766 
L 408.693567 145.710766 
L 410.320406 140.295447 
L 411.947246 140.295447 
L 413.574085 148.418426 
L 418.454604 132.172468 
L 421.708283 132.172468 
L 423.335122 145.710766 
L 424.961962 137.587787 
L 426.588801 132.172468 
L 428.215641 137.587787 
L 429.84248 132.172468 
L 431.46932 140.295447 
L 433.096159 126.757149 
L 434.722999 129.464809 
L 436.349838 121.34183 
L 437.976678 132.172468 
L 439.603517 129.464809 
L 441.230357 140.295447 
L 444.484036 118.63417 
L 446.110875 118.63417 
L 447.737714 134.880128 
L 449.364554 126.757149 
L 452.618233 121.34183 
L 454.245072 129.464809 
L 457.498751 113.218851 
L 459.125591 115.926511 
L 460.75243 115.926511 
L 462.37927 118.63417 
L 464.006109 118.63417 
L 465.632949 110.511191 
L 467.259788 110.511191 
L 468.886628 113.218851 
L 470.513467 113.218851 
L 472.140307 115.926511 
L 473.767146 107.803532 
L 475.393986 107.803532 
L 477.020825 99.680553 
L 478.647665 105.095872 
L 481.901344 110.511191 
L 483.528183 102.388213 
L 485.155023 105.095872 
L 486.781862 99.680553 
L 488.408702 102.388213 
L 490.035541 96.972894 
L 491.662381 102.388213 
L 493.28922 94.265234 
L 498.169739 94.265234 
L 499.796578 96.972894 
L 503.050257 86.142255 
L 504.677097 91.557574 
L 506.303936 83.434596 
L 507.930776 88.849915 
L 509.557615 88.849915 
L 511.184455 83.434596 
L 511.184455 83.434596 
" style="fill:none;stroke:#1f77b4;stroke-linecap:round;stroke-width:1.5;"/>
   </g>
   <g id="line2d_16">
    <path clip-path="url(#pbe73f01393)" d="M 94.713545 291.924383 
L 96.340385 309.063868 
L 97.967224 308.17034 
L 99.594064 306.708204 
L 101.220903 305.516834 
L 102.847743 304.569153 
L 104.474582 303.215323 
L 107.728261 300.913813 
L 109.355101 298.991374 
L 110.98194 297.664621 
L 114.235619 296.012949 
L 115.862459 294.875732 
L 117.489298 293.413596 
L 119.116138 292.113919 
L 120.742977 290.164404 
L 122.369817 289.514566 
L 125.623496 287.348438 
L 128.877175 284.342936 
L 130.504014 283.476485 
L 132.130854 281.337434 
L 133.757693 280.850055 
L 135.384533 279.333766 
L 137.011372 278.440238 
L 138.638212 278.467315 
L 140.265051 275.759655 
L 141.891891 274.270443 
L 143.51873 273.620604 
L 145.14557 272.53754 
L 146.772409 270.858791 
L 148.399249 270.696332 
L 150.026088 269.152966 
L 151.652928 267.176374 
L 153.279767 267.149298 
L 154.906607 266.364077 
L 158.160286 262.383817 
L 159.787125 262.140128 
L 193.950754 238.626242 
L 195.577594 237.74269 
L 197.204433 234.17998 
L 198.831273 234.35099 
L 200.458112 234.037471 
L 202.084952 233.353431 
L 203.711791 231.586327 
L 205.338631 231.415317 
L 206.96547 229.391698 
L 208.59231 228.223129 
L 210.219149 227.22557 
L 211.845989 225.230452 
L 213.472828 226.427523 
L 215.099668 224.00488 
L 216.726507 222.665301 
L 218.353347 222.437288 
L 219.980186 220.10015 
L 221.607026 221.753247 
L 223.233865 219.615622 
L 224.860705 219.188096 
L 228.114384 215.197861 
L 229.741223 213.65877 
L 231.368063 213.972289 
L 232.994902 211.863165 
L 234.621741 210.694596 
L 236.248581 211.606649 
L 237.87542 209.497525 
L 239.50226 209.611532 
L 241.129099 205.991819 
L 242.755939 205.6783 
L 244.382778 206.077324 
L 246.009618 203.882694 
L 247.636457 202.999142 
L 249.263297 201.346045 
L 250.890136 201.346045 
L 252.516976 201.232038 
L 254.143815 198.410372 
L 255.770655 197.384311 
L 257.397494 197.982847 
L 259.024334 195.694162 
L 260.651173 197.237528 
L 262.278013 196.289847 
L 263.904852 195.748315 
L 265.531692 193.744647 
L 267.158531 192.60743 
L 268.785371 191.849285 
L 270.41221 191.632672 
L 272.03905 188.275174 
L 273.665889 187.733643 
L 276.919568 184.646911 
L 278.546408 186.650579 
L 280.173247 185.080136 
L 281.800087 182.101711 
L 283.426926 182.670319 
L 285.053766 182.318323 
L 286.680605 179.664817 
L 288.307445 178.906672 
L 289.934284 176.930081 
L 291.561124 177.309153 
L 293.187963 177.390383 
L 294.814803 179.042055 
L 296.441642 176.713468 
L 298.068482 172.895668 
L 299.695321 174.411957 
L 301.322161 170.919077 
L 302.949 170.215085 
L 304.575839 171.595991 
L 306.202679 168.834179 
L 307.829518 169.727706 
L 309.456358 168.319723 
L 311.083197 166.126519 
L 312.710037 166.505591 
L 314.336876 164.204081 
L 315.963716 162.389949 
L 317.590555 162.362872 
L 319.217395 161.063196 
L 320.844234 160.088438 
L 322.471074 157.462009 
L 389.171493 125.213783 
L 390.798332 122.61443 
L 392.425172 121.206447 
L 394.052011 120.637838 
L 395.678851 119.852617 
L 397.30569 119.229855 
L 398.93253 118.769553 
L 400.559369 115.520362 
L 402.186209 116.08897 
L 403.813048 115.764051 
L 405.439888 115.005906 
L 407.066727 113.78746 
L 410.320406 112.18994 
L 411.947246 111.810868 
L 413.574085 109.861353 
L 415.200925 109.265668 
L 416.827764 110.213349 
L 418.454604 108.155528 
L 420.081443 105.366638 
L 421.708283 106.260166 
L 423.335122 106.937081 
L 424.961962 105.150026 
L 426.588801 104.202345 
L 428.215641 102.983898 
L 429.84248 101.548838 
L 431.46932 100.73654 
L 433.096159 99.46394 
L 434.722999 98.380877 
L 436.349838 97.460272 
L 437.976678 98.19134 
L 439.603517 95.104609 
L 441.230357 95.050455 
L 442.857196 93.669549 
L 444.484036 92.586485 
L 446.110875 91.801264 
L 447.737714 93.2634 
L 449.364554 91.205579 
L 450.991393 89.391447 
L 452.618233 90.528664 
L 454.245072 89.232816 
L 455.871912 86.880708 
L 457.498751 86.388406 
L 459.125591 86.224306 
L 460.75243 85.868754 
L 462.37927 85.649954 
L 464.006109 83.653397 
L 465.632949 83.653397 
L 467.259788 80.207284 
L 468.886628 80.070534 
L 470.513467 79.222681 
L 472.140307 79.277381 
L 473.767146 78.511578 
L 475.393986 77.335524 
L 477.020825 75.749219 
L 478.647665 75.038116 
L 480.274504 74.791965 
L 481.901344 73.123609 
L 483.528183 73.34241 
L 485.155023 70.990302 
L 486.781862 71.099702 
L 488.408702 70.36125 
L 490.035541 68.665544 
L 491.662381 67.872391 
L 493.28922 67.65359 
L 494.91606 65.739083 
L 496.542899 65.000631 
L 498.169739 64.86388 
L 499.796578 63.906627 
L 503.050257 61.034867 
L 504.677097 60.788716 
L 506.303936 58.874209 
L 507.930776 58.354557 
L 509.557615 57.233203 
L 511.184455 56.358 
L 511.184455 56.358 
" style="fill:none;stroke:#ff7f0e;stroke-dasharray:6,2.25;stroke-dashoffset:0;stroke-width:1.5;"/>
   </g>
   <g id="line2d_17"/>
   <g id="line2d_18"/>
   <g id="patch_3">
    <path d="M 73.89 323.604 
L 73.89 43.632 
" style="fill:none;stroke:#cccccc;stroke-linecap:square;stroke-linejoin:miter;stroke-width:0.8;"/>
   </g>
   <g id="patch_4">
    <path d="M 532.008 323.604 
L 532.008 43.632 
" style="fill:none;stroke:#cccccc;stroke-linecap:square;stroke-linejoin:miter;stroke-width:0.8;"/>
   </g>
   <g id="patch_5">
    <path d="M 73.89 323.604 
L 532.008 323.604 
" style="fill:none;stroke:#cccccc;stroke-linecap:square;stroke-linejoin:miter;stroke-width:0.8;"/>
   </g>
   <g id="patch_6">
    <path d="M 73.89 43.632 
L 532.008 43.632 
" style="fill:none;stroke:#cccccc;stroke-linecap:square;stroke-linejoin:miter;stroke-width:0.8;"/>
   </g>
   <g id="legend_1">
    <g id="patch_7">
     <path d="M 80.89 79.922625 
L 137.9025 79.922625 
Q 139.9025 79.922625 139.9025 77.922625 
L 139.9025 50.632 
Q 139.9025 48.632 137.9025 48.632 
L 80.89 48.632 
Q 78.89 48.632 78.89 50.632 
L 78.89 77.922625 
Q 78.89 79.922625 80.89 79.922625 
z
" style="fill:#ffffff;opacity:0.8;stroke:#cccccc;stroke-linejoin:miter;"/>
    </g>
    <g id="line2d_19">
     <path d="M 82.89 56.289812 
L 102.89 56.289812 
" style="fill:none;stroke:#1f77b4;stroke-linecap:round;stroke-width:1.5;"/>
    </g>
    <g id="line2d_20"/>
    <g id="text_16">
     <!-- min -->
     <g style="fill:#262626;" transform="translate(110.89 59.789812)scale(0.1 -0.1)">
      <defs>
       <path d="M 6.59375 0 
L 6.59375 51.859375 
L 14.453125 51.859375 
L 14.453125 44.578125 
Q 16.890625 48.390625 20.9375 50.703125 
Q 25 53.03125 30.171875 53.03125 
Q 35.9375 53.03125 39.625 50.640625 
Q 43.3125 48.25 44.828125 43.953125 
Q 50.984375 53.03125 60.84375 53.03125 
Q 68.5625 53.03125 72.703125 48.75 
Q 76.859375 44.484375 76.859375 35.59375 
L 76.859375 0 
L 68.109375 0 
L 68.109375 32.671875 
Q 68.109375 37.9375 67.25 40.25 
Q 66.40625 42.578125 64.15625 43.984375 
Q 61.921875 45.40625 58.890625 45.40625 
Q 53.421875 45.40625 49.796875 41.765625 
Q 46.1875 38.140625 46.1875 30.125 
L 46.1875 0 
L 37.40625 0 
L 37.40625 33.6875 
Q 37.40625 39.546875 35.25 42.46875 
Q 33.109375 45.40625 28.21875 45.40625 
Q 24.515625 45.40625 21.359375 43.453125 
Q 18.21875 41.5 16.796875 37.734375 
Q 15.375 33.984375 15.375 26.90625 
L 15.375 0 
z
" id="ArialMT-109"/>
       <path d="M 6.640625 61.46875 
L 6.640625 71.578125 
L 15.4375 71.578125 
L 15.4375 61.46875 
z
M 6.640625 0 
L 6.640625 51.859375 
L 15.4375 51.859375 
L 15.4375 0 
z
" id="ArialMT-105"/>
       <path d="M 6.59375 0 
L 6.59375 51.859375 
L 14.5 51.859375 
L 14.5 44.484375 
Q 20.21875 53.03125 31 53.03125 
Q 35.6875 53.03125 39.625 51.34375 
Q 43.5625 49.65625 45.515625 46.921875 
Q 47.46875 44.1875 48.25 40.4375 
Q 48.734375 37.984375 48.734375 31.890625 
L 48.734375 0 
L 39.9375 0 
L 39.9375 31.546875 
Q 39.9375 36.921875 38.90625 39.578125 
Q 37.890625 42.234375 35.28125 43.8125 
Q 32.671875 45.40625 29.15625 45.40625 
Q 23.53125 45.40625 19.453125 41.84375 
Q 15.375 38.28125 15.375 28.328125 
L 15.375 0 
z
" id="ArialMT-110"/>
      </defs>
      <use xlink:href="#ArialMT-109"/>
      <use x="83.300781" xlink:href="#ArialMT-105"/>
      <use x="105.517578" xlink:href="#ArialMT-110"/>
     </g>
    </g>
    <g id="line2d_21">
     <path d="M 82.89 70.435125 
L 102.89 70.435125 
" style="fill:none;stroke:#ff7f0e;stroke-dasharray:6,2.25;stroke-dashoffset:0;stroke-width:1.5;"/>
    </g>
    <g id="line2d_22"/>
    <g id="text_17">
     <!-- mean -->
     <g style="fill:#262626;" transform="translate(110.89 73.935125)scale(0.1 -0.1)">
      <defs>
       <path d="M 42.09375 16.703125 
L 51.171875 15.578125 
Q 49.03125 7.625 43.21875 3.21875 
Q 37.40625 -1.171875 28.375 -1.171875 
Q 17 -1.171875 10.328125 5.828125 
Q 3.65625 12.84375 3.65625 25.484375 
Q 3.65625 38.578125 10.390625 45.796875 
Q 17.140625 53.03125 27.875 53.03125 
Q 38.28125 53.03125 44.875 45.953125 
Q 51.46875 38.875 51.46875 26.03125 
Q 51.46875 25.25 51.421875 23.6875 
L 12.75 23.6875 
Q 13.234375 15.140625 17.578125 10.59375 
Q 21.921875 6.0625 28.421875 6.0625 
Q 33.25 6.0625 36.671875 8.59375 
Q 40.09375 11.140625 42.09375 16.703125 
z
M 13.234375 30.90625 
L 42.1875 30.90625 
Q 41.609375 37.453125 38.875 40.71875 
Q 34.671875 45.796875 27.984375 45.796875 
Q 21.921875 45.796875 17.796875 41.75 
Q 13.671875 37.703125 13.234375 30.90625 
z
" id="ArialMT-101"/>
       <path d="M 40.4375 6.390625 
Q 35.546875 2.25 31.03125 0.53125 
Q 26.515625 -1.171875 21.34375 -1.171875 
Q 12.796875 -1.171875 8.203125 3 
Q 3.609375 7.171875 3.609375 13.671875 
Q 3.609375 17.484375 5.34375 20.625 
Q 7.078125 23.78125 9.890625 25.6875 
Q 12.703125 27.59375 16.21875 28.5625 
Q 18.796875 29.25 24.03125 29.890625 
Q 34.671875 31.15625 39.703125 32.90625 
Q 39.75 34.71875 39.75 35.203125 
Q 39.75 40.578125 37.25 42.78125 
Q 33.890625 45.75 27.25 45.75 
Q 21.046875 45.75 18.09375 43.578125 
Q 15.140625 41.40625 13.71875 35.890625 
L 5.125 37.0625 
Q 6.296875 42.578125 8.984375 45.96875 
Q 11.671875 49.359375 16.75 51.1875 
Q 21.828125 53.03125 28.515625 53.03125 
Q 35.15625 53.03125 39.296875 51.46875 
Q 43.453125 49.90625 45.40625 47.53125 
Q 47.359375 45.171875 48.140625 41.546875 
Q 48.578125 39.3125 48.578125 33.453125 
L 48.578125 21.734375 
Q 48.578125 9.46875 49.140625 6.21875 
Q 49.703125 2.984375 51.375 0 
L 42.1875 0 
Q 40.828125 2.734375 40.4375 6.390625 
z
M 39.703125 26.03125 
Q 34.90625 24.078125 25.34375 22.703125 
Q 19.921875 21.921875 17.671875 20.9375 
Q 15.4375 19.96875 14.203125 18.09375 
Q 12.984375 16.21875 12.984375 13.921875 
Q 12.984375 10.40625 15.640625 8.0625 
Q 18.3125 5.71875 23.4375 5.71875 
Q 28.515625 5.71875 32.46875 7.9375 
Q 36.421875 10.15625 38.28125 14.015625 
Q 39.703125 17 39.703125 22.796875 
z
" id="ArialMT-97"/>
      </defs>
      <use xlink:href="#ArialMT-109"/>
      <use x="83.300781" xlink:href="#ArialMT-101"/>
      <use x="138.916016" xlink:href="#ArialMT-97"/>
      <use x="194.53125" xlink:href="#ArialMT-110"/>
     </g>
    </g>
   </g>
  </g>
 </g>
 <defs>
  <clipPath id="pbe73f01393">
   <rect height="279.972" width="458.118" x="73.89" y="43.632"/>
  </clipPath>
 </defs>
</svg>
