<?xml version="1.0" encoding="utf-8" standalone="no"?>
<!DOCTYPE svg PUBLIC "-//W3C//DTD SVG 1.1//EN"
  "http://www.w3.org/Graphics/SVG/1.1/DTD/svg11.dtd">
<!-- Created with matplotlib (https://matplotlib.org/) -->
<svg height="422.64pt" version="1.1" viewBox="0 0 769.68 422.64" width="769.68pt" xmlns="http://www.w3.org/2000/svg" xmlns:xlink="http://www.w3.org/1999/xlink">
 <metadata>
  <rdf:RDF xmlns:cc="http://creativecommons.org/ns#" xmlns:dc="http://purl.org/dc/elements/1.1/" xmlns:rdf="http://www.w3.org/1999/02/22-rdf-syntax-ns#">
   <cc:Work>
    <dc:type rdf:resource="http://purl.org/dc/dcmitype/StillImage"/>
    <dc:date>2021-03-07T22:38:03.779102</dc:date>
    <dc:format>image/svg+xml</dc:format>
    <dc:creator>
     <cc:Agent>
      <dc:title>Matplotlib v3.3.3, https://matplotlib.org/</dc:title>
     </cc:Agent>
    </dc:creator>
   </cc:Work>
  </rdf:RDF>
 </metadata>
 <defs>
  <style type="text/css">*{stroke-linecap:butt;stroke-linejoin:round;}</style>
 </defs>
 <g id="figure_1">
  <g id="patch_1">
   <path d="M 0 422.64 
L 769.68 422.64 
L 769.68 0 
L 0 0 
z
" style="fill:none;"/>
  </g>
  <g id="axes_1">
   <g id="patch_2">
    <path d="M 96.21 376.1496 
L 692.712 376.1496 
L 692.712 50.7168 
L 96.21 50.7168 
z
" style="fill:none;"/>
   </g>
   <g id="matplotlib.axis_1">
    <g id="xtick_1">
     <g id="line2d_1">
      <path clip-path="url(#p6daee5e330)" d="M 123.323727 376.1496 
L 123.323727 50.7168 
" style="fill:none;stroke:#cccccc;stroke-linecap:round;stroke-width:0.8;"/>
     </g>
     <g id="text_1">
      <!-- 0 -->
      <g style="fill:#262626;" transform="translate(120.543259 390.307412)scale(0.1 -0.1)">
       <defs>
        <path d="M 4.15625 35.296875 
Q 4.15625 48 6.765625 55.734375 
Q 9.375 63.484375 14.515625 67.671875 
Q 19.671875 71.875 27.484375 71.875 
Q 33.25 71.875 37.59375 69.546875 
Q 41.9375 67.234375 44.765625 62.859375 
Q 47.609375 58.5 49.21875 52.21875 
Q 50.828125 45.953125 50.828125 35.296875 
Q 50.828125 22.703125 48.234375 14.96875 
Q 45.65625 7.234375 40.5 3 
Q 35.359375 -1.21875 27.484375 -1.21875 
Q 17.140625 -1.21875 11.234375 6.203125 
Q 4.15625 15.140625 4.15625 35.296875 
z
M 13.1875 35.296875 
Q 13.1875 17.671875 17.3125 11.828125 
Q 21.4375 6 27.484375 6 
Q 33.546875 6 37.671875 11.859375 
Q 41.796875 17.71875 41.796875 35.296875 
Q 41.796875 52.984375 37.671875 58.78125 
Q 33.546875 64.59375 27.390625 64.59375 
Q 21.34375 64.59375 17.71875 59.46875 
Q 13.1875 52.9375 13.1875 35.296875 
z
" id="ArialMT-48"/>
       </defs>
       <use xlink:href="#ArialMT-48"/>
      </g>
     </g>
    </g>
    <g id="xtick_2">
     <g id="line2d_2">
      <path clip-path="url(#p6daee5e330)" d="M 229.65207 376.1496 
L 229.65207 50.7168 
" style="fill:none;stroke:#cccccc;stroke-linecap:round;stroke-width:0.8;"/>
     </g>
     <g id="text_2">
      <!-- 50 -->
      <g style="fill:#262626;" transform="translate(224.091132 390.307412)scale(0.1 -0.1)">
       <defs>
        <path d="M 4.15625 18.75 
L 13.375 19.53125 
Q 14.40625 12.796875 18.140625 9.390625 
Q 21.875 6 27.15625 6 
Q 33.5 6 37.890625 10.78125 
Q 42.28125 15.578125 42.28125 23.484375 
Q 42.28125 31 38.0625 35.34375 
Q 33.84375 39.703125 27 39.703125 
Q 22.75 39.703125 19.328125 37.765625 
Q 15.921875 35.84375 13.96875 32.765625 
L 5.71875 33.84375 
L 12.640625 70.609375 
L 48.25 70.609375 
L 48.25 62.203125 
L 19.671875 62.203125 
L 15.828125 42.96875 
Q 22.265625 47.46875 29.34375 47.46875 
Q 38.71875 47.46875 45.15625 40.96875 
Q 51.609375 34.46875 51.609375 24.265625 
Q 51.609375 14.546875 45.953125 7.46875 
Q 39.0625 -1.21875 27.15625 -1.21875 
Q 17.390625 -1.21875 11.203125 4.25 
Q 5.03125 9.71875 4.15625 18.75 
z
" id="ArialMT-53"/>
       </defs>
       <use xlink:href="#ArialMT-53"/>
       <use x="55.615234" xlink:href="#ArialMT-48"/>
      </g>
     </g>
    </g>
    <g id="xtick_3">
     <g id="line2d_3">
      <path clip-path="url(#p6daee5e330)" d="M 335.980412 376.1496 
L 335.980412 50.7168 
" style="fill:none;stroke:#cccccc;stroke-linecap:round;stroke-width:0.8;"/>
     </g>
     <g id="text_3">
      <!-- 100 -->
      <g style="fill:#262626;" transform="translate(327.639006 390.307412)scale(0.1 -0.1)">
       <defs>
        <path d="M 37.25 0 
L 28.46875 0 
L 28.46875 56 
Q 25.296875 52.984375 20.140625 49.953125 
Q 14.984375 46.921875 10.890625 45.40625 
L 10.890625 53.90625 
Q 18.265625 57.375 23.78125 62.296875 
Q 29.296875 67.234375 31.59375 71.875 
L 37.25 71.875 
z
" id="ArialMT-49"/>
       </defs>
       <use xlink:href="#ArialMT-49"/>
       <use x="55.615234" xlink:href="#ArialMT-48"/>
       <use x="111.230469" xlink:href="#ArialMT-48"/>
      </g>
     </g>
    </g>
    <g id="xtick_4">
     <g id="line2d_4">
      <path clip-path="url(#p6daee5e330)" d="M 442.308754 376.1496 
L 442.308754 50.7168 
" style="fill:none;stroke:#cccccc;stroke-linecap:round;stroke-width:0.8;"/>
     </g>
     <g id="text_4">
      <!-- 150 -->
      <g style="fill:#262626;" transform="translate(433.967348 390.307412)scale(0.1 -0.1)">
       <use xlink:href="#ArialMT-49"/>
       <use x="55.615234" xlink:href="#ArialMT-53"/>
       <use x="111.230469" xlink:href="#ArialMT-48"/>
      </g>
     </g>
    </g>
    <g id="xtick_5">
     <g id="line2d_5">
      <path clip-path="url(#p6daee5e330)" d="M 548.637096 376.1496 
L 548.637096 50.7168 
" style="fill:none;stroke:#cccccc;stroke-linecap:round;stroke-width:0.8;"/>
     </g>
     <g id="text_5">
      <!-- 200 -->
      <g style="fill:#262626;" transform="translate(540.29569 390.307412)scale(0.1 -0.1)">
       <defs>
        <path d="M 50.34375 8.453125 
L 50.34375 0 
L 3.03125 0 
Q 2.9375 3.171875 4.046875 6.109375 
Q 5.859375 10.9375 9.828125 15.625 
Q 13.8125 20.3125 21.34375 26.46875 
Q 33.015625 36.03125 37.109375 41.625 
Q 41.21875 47.21875 41.21875 52.203125 
Q 41.21875 57.421875 37.46875 61 
Q 33.734375 64.59375 27.734375 64.59375 
Q 21.390625 64.59375 17.578125 60.78125 
Q 13.765625 56.984375 13.71875 50.25 
L 4.6875 51.171875 
Q 5.609375 61.28125 11.65625 66.578125 
Q 17.71875 71.875 27.9375 71.875 
Q 38.234375 71.875 44.234375 66.15625 
Q 50.25 60.453125 50.25 52 
Q 50.25 47.703125 48.484375 43.546875 
Q 46.734375 39.40625 42.65625 34.8125 
Q 38.578125 30.21875 29.109375 22.21875 
Q 21.1875 15.578125 18.9375 13.203125 
Q 16.703125 10.84375 15.234375 8.453125 
z
" id="ArialMT-50"/>
       </defs>
       <use xlink:href="#ArialMT-50"/>
       <use x="55.615234" xlink:href="#ArialMT-48"/>
       <use x="111.230469" xlink:href="#ArialMT-48"/>
      </g>
     </g>
    </g>
    <g id="xtick_6">
     <g id="line2d_6">
      <path clip-path="url(#p6daee5e330)" d="M 654.965439 376.1496 
L 654.965439 50.7168 
" style="fill:none;stroke:#cccccc;stroke-linecap:round;stroke-width:0.8;"/>
     </g>
     <g id="text_6">
      <!-- 250 -->
      <g style="fill:#262626;" transform="translate(646.624032 390.307412)scale(0.1 -0.1)">
       <use xlink:href="#ArialMT-50"/>
       <use x="55.615234" xlink:href="#ArialMT-53"/>
       <use x="111.230469" xlink:href="#ArialMT-48"/>
      </g>
     </g>
    </g>
    <g id="text_7">
     <!-- unstables -->
     <g style="fill:#262626;" transform="translate(373.058656 403.452725)scale(0.1 -0.1)">
      <defs>
       <path d="M 40.578125 0 
L 40.578125 7.625 
Q 34.515625 -1.171875 24.125 -1.171875 
Q 19.53125 -1.171875 15.546875 0.578125 
Q 11.578125 2.34375 9.640625 5 
Q 7.71875 7.671875 6.9375 11.53125 
Q 6.390625 14.109375 6.390625 19.734375 
L 6.390625 51.859375 
L 15.1875 51.859375 
L 15.1875 23.09375 
Q 15.1875 16.21875 15.71875 13.8125 
Q 16.546875 10.359375 19.234375 8.375 
Q 21.921875 6.390625 25.875 6.390625 
Q 29.828125 6.390625 33.296875 8.421875 
Q 36.765625 10.453125 38.203125 13.9375 
Q 39.65625 17.4375 39.65625 24.078125 
L 39.65625 51.859375 
L 48.4375 51.859375 
L 48.4375 0 
z
" id="ArialMT-117"/>
       <path d="M 6.59375 0 
L 6.59375 51.859375 
L 14.5 51.859375 
L 14.5 44.484375 
Q 20.21875 53.03125 31 53.03125 
Q 35.6875 53.03125 39.625 51.34375 
Q 43.5625 49.65625 45.515625 46.921875 
Q 47.46875 44.1875 48.25 40.4375 
Q 48.734375 37.984375 48.734375 31.890625 
L 48.734375 0 
L 39.9375 0 
L 39.9375 31.546875 
Q 39.9375 36.921875 38.90625 39.578125 
Q 37.890625 42.234375 35.28125 43.8125 
Q 32.671875 45.40625 29.15625 45.40625 
Q 23.53125 45.40625 19.453125 41.84375 
Q 15.375 38.28125 15.375 28.328125 
L 15.375 0 
z
" id="ArialMT-110"/>
       <path d="M 3.078125 15.484375 
L 11.765625 16.84375 
Q 12.5 11.625 15.84375 8.84375 
Q 19.1875 6.0625 25.203125 6.0625 
Q 31.25 6.0625 34.171875 8.515625 
Q 37.109375 10.984375 37.109375 14.3125 
Q 37.109375 17.28125 34.515625 19 
Q 32.71875 20.171875 25.53125 21.96875 
Q 15.875 24.421875 12.140625 26.203125 
Q 8.40625 27.984375 6.46875 31.125 
Q 4.546875 34.28125 4.546875 38.09375 
Q 4.546875 41.546875 6.125 44.5 
Q 7.71875 47.46875 10.453125 49.421875 
Q 12.5 50.921875 16.03125 51.96875 
Q 19.578125 53.03125 23.640625 53.03125 
Q 29.734375 53.03125 34.34375 51.265625 
Q 38.96875 49.515625 41.15625 46.5 
Q 43.359375 43.5 44.1875 38.484375 
L 35.59375 37.3125 
Q 35.015625 41.3125 32.203125 43.546875 
Q 29.390625 45.796875 24.265625 45.796875 
Q 18.21875 45.796875 15.625 43.796875 
Q 13.03125 41.796875 13.03125 39.109375 
Q 13.03125 37.40625 14.109375 36.03125 
Q 15.1875 34.625 17.484375 33.6875 
Q 18.796875 33.203125 25.25 31.453125 
Q 34.578125 28.953125 38.25 27.359375 
Q 41.9375 25.78125 44.03125 22.75 
Q 46.140625 19.734375 46.140625 15.234375 
Q 46.140625 10.84375 43.578125 6.953125 
Q 41.015625 3.078125 36.171875 0.953125 
Q 31.34375 -1.171875 25.25 -1.171875 
Q 15.140625 -1.171875 9.84375 3.03125 
Q 4.546875 7.234375 3.078125 15.484375 
z
" id="ArialMT-115"/>
       <path d="M 25.78125 7.859375 
L 27.046875 0.09375 
Q 23.34375 -0.6875 20.40625 -0.6875 
Q 15.625 -0.6875 12.984375 0.828125 
Q 10.359375 2.34375 9.28125 4.8125 
Q 8.203125 7.28125 8.203125 15.1875 
L 8.203125 45.015625 
L 1.765625 45.015625 
L 1.765625 51.859375 
L 8.203125 51.859375 
L 8.203125 64.703125 
L 16.9375 69.96875 
L 16.9375 51.859375 
L 25.78125 51.859375 
L 25.78125 45.015625 
L 16.9375 45.015625 
L 16.9375 14.703125 
Q 16.9375 10.9375 17.40625 9.859375 
Q 17.875 8.796875 18.921875 8.15625 
Q 19.96875 7.515625 21.921875 7.515625 
Q 23.390625 7.515625 25.78125 7.859375 
z
" id="ArialMT-116"/>
       <path d="M 40.4375 6.390625 
Q 35.546875 2.25 31.03125 0.53125 
Q 26.515625 -1.171875 21.34375 -1.171875 
Q 12.796875 -1.171875 8.203125 3 
Q 3.609375 7.171875 3.609375 13.671875 
Q 3.609375 17.484375 5.34375 20.625 
Q 7.078125 23.78125 9.890625 25.6875 
Q 12.703125 27.59375 16.21875 28.5625 
Q 18.796875 29.25 24.03125 29.890625 
Q 34.671875 31.15625 39.703125 32.90625 
Q 39.75 34.71875 39.75 35.203125 
Q 39.75 40.578125 37.25 42.78125 
Q 33.890625 45.75 27.25 45.75 
Q 21.046875 45.75 18.09375 43.578125 
Q 15.140625 41.40625 13.71875 35.890625 
L 5.125 37.0625 
Q 6.296875 42.578125 8.984375 45.96875 
Q 11.671875 49.359375 16.75 51.1875 
Q 21.828125 53.03125 28.515625 53.03125 
Q 35.15625 53.03125 39.296875 51.46875 
Q 43.453125 49.90625 45.40625 47.53125 
Q 47.359375 45.171875 48.140625 41.546875 
Q 48.578125 39.3125 48.578125 33.453125 
L 48.578125 21.734375 
Q 48.578125 9.46875 49.140625 6.21875 
Q 49.703125 2.984375 51.375 0 
L 42.1875 0 
Q 40.828125 2.734375 40.4375 6.390625 
z
M 39.703125 26.03125 
Q 34.90625 24.078125 25.34375 22.703125 
Q 19.921875 21.921875 17.671875 20.9375 
Q 15.4375 19.96875 14.203125 18.09375 
Q 12.984375 16.21875 12.984375 13.921875 
Q 12.984375 10.40625 15.640625 8.0625 
Q 18.3125 5.71875 23.4375 5.71875 
Q 28.515625 5.71875 32.46875 7.9375 
Q 36.421875 10.15625 38.28125 14.015625 
Q 39.703125 17 39.703125 22.796875 
z
" id="ArialMT-97"/>
       <path d="M 14.703125 0 
L 6.546875 0 
L 6.546875 71.578125 
L 15.328125 71.578125 
L 15.328125 46.046875 
Q 20.90625 53.03125 29.546875 53.03125 
Q 34.328125 53.03125 38.59375 51.09375 
Q 42.875 49.171875 45.625 45.671875 
Q 48.390625 42.1875 49.953125 37.25 
Q 51.515625 32.328125 51.515625 26.703125 
Q 51.515625 13.375 44.921875 6.09375 
Q 38.328125 -1.171875 29.109375 -1.171875 
Q 19.921875 -1.171875 14.703125 6.5 
z
M 14.59375 26.3125 
Q 14.59375 17 17.140625 12.84375 
Q 21.296875 6.0625 28.375 6.0625 
Q 34.125 6.0625 38.328125 11.0625 
Q 42.53125 16.0625 42.53125 25.984375 
Q 42.53125 36.140625 38.5 40.96875 
Q 34.46875 45.796875 28.765625 45.796875 
Q 23 45.796875 18.796875 40.796875 
Q 14.59375 35.796875 14.59375 26.3125 
z
" id="ArialMT-98"/>
       <path d="M 6.390625 0 
L 6.390625 71.578125 
L 15.1875 71.578125 
L 15.1875 0 
z
" id="ArialMT-108"/>
       <path d="M 42.09375 16.703125 
L 51.171875 15.578125 
Q 49.03125 7.625 43.21875 3.21875 
Q 37.40625 -1.171875 28.375 -1.171875 
Q 17 -1.171875 10.328125 5.828125 
Q 3.65625 12.84375 3.65625 25.484375 
Q 3.65625 38.578125 10.390625 45.796875 
Q 17.140625 53.03125 27.875 53.03125 
Q 38.28125 53.03125 44.875 45.953125 
Q 51.46875 38.875 51.46875 26.03125 
Q 51.46875 25.25 51.421875 23.6875 
L 12.75 23.6875 
Q 13.234375 15.140625 17.578125 10.59375 
Q 21.921875 6.0625 28.421875 6.0625 
Q 33.25 6.0625 36.671875 8.59375 
Q 40.09375 11.140625 42.09375 16.703125 
z
M 13.234375 30.90625 
L 42.1875 30.90625 
Q 41.609375 37.453125 38.875 40.71875 
Q 34.671875 45.796875 27.984375 45.796875 
Q 21.921875 45.796875 17.796875 41.75 
Q 13.671875 37.703125 13.234375 30.90625 
z
" id="ArialMT-101"/>
      </defs>
      <use xlink:href="#ArialMT-117"/>
      <use x="55.615234" xlink:href="#ArialMT-110"/>
      <use x="111.230469" xlink:href="#ArialMT-115"/>
      <use x="161.230469" xlink:href="#ArialMT-116"/>
      <use x="189.013672" xlink:href="#ArialMT-97"/>
      <use x="244.628906" xlink:href="#ArialMT-98"/>
      <use x="300.244141" xlink:href="#ArialMT-108"/>
      <use x="322.460938" xlink:href="#ArialMT-101"/>
      <use x="378.076172" xlink:href="#ArialMT-115"/>
     </g>
    </g>
   </g>
   <g id="matplotlib.axis_2">
    <g id="ytick_1">
     <g id="line2d_7">
      <path clip-path="url(#p6daee5e330)" d="M 96.21 361.3572 
L 692.712 361.3572 
" style="fill:none;stroke:#cccccc;stroke-linecap:round;stroke-width:0.8;"/>
     </g>
     <g id="text_8">
      <!-- −1.00 -->
      <g style="fill:#262626;" transform="translate(63.908437 364.936106)scale(0.1 -0.1)">
       <defs>
        <path d="M 52.828125 31.203125 
L 5.5625 31.203125 
L 5.5625 39.40625 
L 52.828125 39.40625 
z
" id="ArialMT-8722"/>
        <path d="M 9.078125 0 
L 9.078125 10.015625 
L 19.09375 10.015625 
L 19.09375 0 
z
" id="ArialMT-46"/>
       </defs>
       <use xlink:href="#ArialMT-8722"/>
       <use x="58.398438" xlink:href="#ArialMT-49"/>
       <use x="114.013672" xlink:href="#ArialMT-46"/>
       <use x="141.796875" xlink:href="#ArialMT-48"/>
       <use x="197.412109" xlink:href="#ArialMT-48"/>
      </g>
     </g>
    </g>
    <g id="ytick_2">
     <g id="line2d_8">
      <path clip-path="url(#p6daee5e330)" d="M 96.21 321.861676 
L 692.712 321.861676 
" style="fill:none;stroke:#cccccc;stroke-linecap:round;stroke-width:0.8;"/>
     </g>
     <g id="text_9">
      <!-- −0.95 -->
      <g style="fill:#262626;" transform="translate(63.908437 325.440582)scale(0.1 -0.1)">
       <defs>
        <path d="M 5.46875 16.546875 
L 13.921875 17.328125 
Q 14.984375 11.375 18.015625 8.6875 
Q 21.046875 6 25.78125 6 
Q 29.828125 6 32.875 7.859375 
Q 35.9375 9.71875 37.890625 12.8125 
Q 39.84375 15.921875 41.15625 21.1875 
Q 42.484375 26.46875 42.484375 31.9375 
Q 42.484375 32.515625 42.4375 33.6875 
Q 39.796875 29.5 35.234375 26.875 
Q 30.671875 24.265625 25.34375 24.265625 
Q 16.453125 24.265625 10.296875 30.703125 
Q 4.15625 37.15625 4.15625 47.703125 
Q 4.15625 58.59375 10.578125 65.234375 
Q 17 71.875 26.65625 71.875 
Q 33.640625 71.875 39.421875 68.109375 
Q 45.21875 64.359375 48.21875 57.390625 
Q 51.21875 50.4375 51.21875 37.25 
Q 51.21875 23.53125 48.234375 15.40625 
Q 45.265625 7.28125 39.375 3.03125 
Q 33.5 -1.21875 25.59375 -1.21875 
Q 17.1875 -1.21875 11.859375 3.4375 
Q 6.546875 8.109375 5.46875 16.546875 
z
M 41.453125 48.140625 
Q 41.453125 55.71875 37.421875 60.15625 
Q 33.40625 64.59375 27.734375 64.59375 
Q 21.875 64.59375 17.53125 59.8125 
Q 13.1875 55.03125 13.1875 47.40625 
Q 13.1875 40.578125 17.3125 36.296875 
Q 21.4375 32.03125 27.484375 32.03125 
Q 33.59375 32.03125 37.515625 36.296875 
Q 41.453125 40.578125 41.453125 48.140625 
z
" id="ArialMT-57"/>
       </defs>
       <use xlink:href="#ArialMT-8722"/>
       <use x="58.398438" xlink:href="#ArialMT-48"/>
       <use x="114.013672" xlink:href="#ArialMT-46"/>
       <use x="141.796875" xlink:href="#ArialMT-57"/>
       <use x="197.412109" xlink:href="#ArialMT-53"/>
      </g>
     </g>
    </g>
    <g id="ytick_3">
     <g id="line2d_9">
      <path clip-path="url(#p6daee5e330)" d="M 96.21 282.366152 
L 692.712 282.366152 
" style="fill:none;stroke:#cccccc;stroke-linecap:round;stroke-width:0.8;"/>
     </g>
     <g id="text_10">
      <!-- −0.90 -->
      <g style="fill:#262626;" transform="translate(63.908437 285.945059)scale(0.1 -0.1)">
       <use xlink:href="#ArialMT-8722"/>
       <use x="58.398438" xlink:href="#ArialMT-48"/>
       <use x="114.013672" xlink:href="#ArialMT-46"/>
       <use x="141.796875" xlink:href="#ArialMT-57"/>
       <use x="197.412109" xlink:href="#ArialMT-48"/>
      </g>
     </g>
    </g>
    <g id="ytick_4">
     <g id="line2d_10">
      <path clip-path="url(#p6daee5e330)" d="M 96.21 242.870629 
L 692.712 242.870629 
" style="fill:none;stroke:#cccccc;stroke-linecap:round;stroke-width:0.8;"/>
     </g>
     <g id="text_11">
      <!-- −0.85 -->
      <g style="fill:#262626;" transform="translate(63.908437 246.449535)scale(0.1 -0.1)">
       <defs>
        <path d="M 17.671875 38.8125 
Q 12.203125 40.828125 9.5625 44.53125 
Q 6.9375 48.25 6.9375 53.421875 
Q 6.9375 61.234375 12.546875 66.546875 
Q 18.171875 71.875 27.484375 71.875 
Q 36.859375 71.875 42.578125 66.421875 
Q 48.296875 60.984375 48.296875 53.171875 
Q 48.296875 48.1875 45.671875 44.5 
Q 43.0625 40.828125 37.75 38.8125 
Q 44.34375 36.671875 47.78125 31.875 
Q 51.21875 27.09375 51.21875 20.453125 
Q 51.21875 11.28125 44.71875 5.03125 
Q 38.234375 -1.21875 27.640625 -1.21875 
Q 17.046875 -1.21875 10.546875 5.046875 
Q 4.046875 11.328125 4.046875 20.703125 
Q 4.046875 27.6875 7.59375 32.390625 
Q 11.140625 37.109375 17.671875 38.8125 
z
M 15.921875 53.71875 
Q 15.921875 48.640625 19.1875 45.40625 
Q 22.46875 42.1875 27.6875 42.1875 
Q 32.765625 42.1875 36.015625 45.375 
Q 39.265625 48.578125 39.265625 53.21875 
Q 39.265625 58.0625 35.90625 61.359375 
Q 32.5625 64.65625 27.59375 64.65625 
Q 22.5625 64.65625 19.234375 61.421875 
Q 15.921875 58.203125 15.921875 53.71875 
z
M 13.09375 20.65625 
Q 13.09375 16.890625 14.875 13.375 
Q 16.65625 9.859375 20.171875 7.921875 
Q 23.6875 6 27.734375 6 
Q 34.03125 6 38.125 10.046875 
Q 42.234375 14.109375 42.234375 20.359375 
Q 42.234375 26.703125 38.015625 30.859375 
Q 33.796875 35.015625 27.4375 35.015625 
Q 21.234375 35.015625 17.15625 30.90625 
Q 13.09375 26.8125 13.09375 20.65625 
z
" id="ArialMT-56"/>
       </defs>
       <use xlink:href="#ArialMT-8722"/>
       <use x="58.398438" xlink:href="#ArialMT-48"/>
       <use x="114.013672" xlink:href="#ArialMT-46"/>
       <use x="141.796875" xlink:href="#ArialMT-56"/>
       <use x="197.412109" xlink:href="#ArialMT-53"/>
      </g>
     </g>
    </g>
    <g id="ytick_5">
     <g id="line2d_11">
      <path clip-path="url(#p6daee5e330)" d="M 96.21 203.375105 
L 692.712 203.375105 
" style="fill:none;stroke:#cccccc;stroke-linecap:round;stroke-width:0.8;"/>
     </g>
     <g id="text_12">
      <!-- −0.80 -->
      <g style="fill:#262626;" transform="translate(63.908437 206.954011)scale(0.1 -0.1)">
       <use xlink:href="#ArialMT-8722"/>
       <use x="58.398438" xlink:href="#ArialMT-48"/>
       <use x="114.013672" xlink:href="#ArialMT-46"/>
       <use x="141.796875" xlink:href="#ArialMT-56"/>
       <use x="197.412109" xlink:href="#ArialMT-48"/>
      </g>
     </g>
    </g>
    <g id="ytick_6">
     <g id="line2d_12">
      <path clip-path="url(#p6daee5e330)" d="M 96.21 163.879581 
L 692.712 163.879581 
" style="fill:none;stroke:#cccccc;stroke-linecap:round;stroke-width:0.8;"/>
     </g>
     <g id="text_13">
      <!-- −0.75 -->
      <g style="fill:#262626;" transform="translate(63.908437 167.458487)scale(0.1 -0.1)">
       <defs>
        <path d="M 4.734375 62.203125 
L 4.734375 70.65625 
L 51.078125 70.65625 
L 51.078125 63.8125 
Q 44.234375 56.546875 37.515625 44.484375 
Q 30.8125 32.421875 27.15625 19.671875 
Q 24.515625 10.6875 23.78125 0 
L 14.75 0 
Q 14.890625 8.453125 18.0625 20.40625 
Q 21.234375 32.375 27.171875 43.484375 
Q 33.109375 54.59375 39.796875 62.203125 
z
" id="ArialMT-55"/>
       </defs>
       <use xlink:href="#ArialMT-8722"/>
       <use x="58.398438" xlink:href="#ArialMT-48"/>
       <use x="114.013672" xlink:href="#ArialMT-46"/>
       <use x="141.796875" xlink:href="#ArialMT-55"/>
       <use x="197.412109" xlink:href="#ArialMT-53"/>
      </g>
     </g>
    </g>
    <g id="ytick_7">
     <g id="line2d_13">
      <path clip-path="url(#p6daee5e330)" d="M 96.21 124.384057 
L 692.712 124.384057 
" style="fill:none;stroke:#cccccc;stroke-linecap:round;stroke-width:0.8;"/>
     </g>
     <g id="text_14">
      <!-- −0.70 -->
      <g style="fill:#262626;" transform="translate(63.908437 127.962964)scale(0.1 -0.1)">
       <use xlink:href="#ArialMT-8722"/>
       <use x="58.398438" xlink:href="#ArialMT-48"/>
       <use x="114.013672" xlink:href="#ArialMT-46"/>
       <use x="141.796875" xlink:href="#ArialMT-55"/>
       <use x="197.412109" xlink:href="#ArialMT-48"/>
      </g>
     </g>
    </g>
    <g id="ytick_8">
     <g id="line2d_14">
      <path clip-path="url(#p6daee5e330)" d="M 96.21 84.888533 
L 692.712 84.888533 
" style="fill:none;stroke:#cccccc;stroke-linecap:round;stroke-width:0.8;"/>
     </g>
     <g id="text_15">
      <!-- −0.65 -->
      <g style="fill:#262626;" transform="translate(63.908437 88.46744)scale(0.1 -0.1)">
       <defs>
        <path d="M 49.75 54.046875 
L 41.015625 53.375 
Q 39.84375 58.546875 37.703125 60.890625 
Q 34.125 64.65625 28.90625 64.65625 
Q 24.703125 64.65625 21.53125 62.3125 
Q 17.390625 59.28125 14.984375 53.46875 
Q 12.59375 47.65625 12.5 36.921875 
Q 15.671875 41.75 20.265625 44.09375 
Q 24.859375 46.4375 29.890625 46.4375 
Q 38.671875 46.4375 44.84375 39.96875 
Q 51.03125 33.5 51.03125 23.25 
Q 51.03125 16.5 48.125 10.71875 
Q 45.21875 4.9375 40.140625 1.859375 
Q 35.0625 -1.21875 28.609375 -1.21875 
Q 17.625 -1.21875 10.6875 6.859375 
Q 3.765625 14.9375 3.765625 33.5 
Q 3.765625 54.25 11.421875 63.671875 
Q 18.109375 71.875 29.4375 71.875 
Q 37.890625 71.875 43.28125 67.140625 
Q 48.6875 62.40625 49.75 54.046875 
z
M 13.875 23.1875 
Q 13.875 18.65625 15.796875 14.5 
Q 17.71875 10.359375 21.1875 8.171875 
Q 24.65625 6 28.46875 6 
Q 34.03125 6 38.03125 10.484375 
Q 42.046875 14.984375 42.046875 22.703125 
Q 42.046875 30.125 38.078125 34.390625 
Q 34.125 38.671875 28.125 38.671875 
Q 22.171875 38.671875 18.015625 34.390625 
Q 13.875 30.125 13.875 23.1875 
z
" id="ArialMT-54"/>
       </defs>
       <use xlink:href="#ArialMT-8722"/>
       <use x="58.398438" xlink:href="#ArialMT-48"/>
       <use x="114.013672" xlink:href="#ArialMT-46"/>
       <use x="141.796875" xlink:href="#ArialMT-54"/>
       <use x="197.412109" xlink:href="#ArialMT-53"/>
      </g>
     </g>
    </g>
    <g id="text_16">
     <!-- Energy -->
     <g style="fill:#262626;" transform="translate(57.80375 229.274606)rotate(-90)scale(0.1 -0.1)">
      <defs>
       <path d="M 7.90625 0 
L 7.90625 71.578125 
L 59.671875 71.578125 
L 59.671875 63.140625 
L 17.390625 63.140625 
L 17.390625 41.21875 
L 56.984375 41.21875 
L 56.984375 32.8125 
L 17.390625 32.8125 
L 17.390625 8.453125 
L 61.328125 8.453125 
L 61.328125 0 
z
" id="ArialMT-69"/>
       <path d="M 6.5 0 
L 6.5 51.859375 
L 14.40625 51.859375 
L 14.40625 44 
Q 17.4375 49.515625 20 51.265625 
Q 22.5625 53.03125 25.640625 53.03125 
Q 30.078125 53.03125 34.671875 50.203125 
L 31.640625 42.046875 
Q 28.421875 43.953125 25.203125 43.953125 
Q 22.3125 43.953125 20.015625 42.21875 
Q 17.71875 40.484375 16.75 37.40625 
Q 15.28125 32.71875 15.28125 27.15625 
L 15.28125 0 
z
" id="ArialMT-114"/>
       <path d="M 4.984375 -4.296875 
L 13.53125 -5.5625 
Q 14.0625 -9.515625 16.5 -11.328125 
Q 19.78125 -13.765625 25.4375 -13.765625 
Q 31.546875 -13.765625 34.859375 -11.328125 
Q 38.1875 -8.890625 39.359375 -4.5 
Q 40.046875 -1.8125 39.984375 6.78125 
Q 34.234375 0 25.640625 0 
Q 14.9375 0 9.078125 7.71875 
Q 3.21875 15.4375 3.21875 26.21875 
Q 3.21875 33.640625 5.90625 39.90625 
Q 8.59375 46.1875 13.6875 49.609375 
Q 18.796875 53.03125 25.6875 53.03125 
Q 34.859375 53.03125 40.828125 45.609375 
L 40.828125 51.859375 
L 48.921875 51.859375 
L 48.921875 7.03125 
Q 48.921875 -5.078125 46.453125 -10.125 
Q 44 -15.1875 38.640625 -18.109375 
Q 33.296875 -21.046875 25.484375 -21.046875 
Q 16.21875 -21.046875 10.5 -16.875 
Q 4.78125 -12.703125 4.984375 -4.296875 
z
M 12.25 26.859375 
Q 12.25 16.65625 16.296875 11.96875 
Q 20.359375 7.28125 26.46875 7.28125 
Q 32.515625 7.28125 36.609375 11.9375 
Q 40.71875 16.609375 40.71875 26.5625 
Q 40.71875 36.078125 36.5 40.90625 
Q 32.28125 45.75 26.3125 45.75 
Q 20.453125 45.75 16.34375 40.984375 
Q 12.25 36.234375 12.25 26.859375 
z
" id="ArialMT-103"/>
       <path d="M 6.203125 -19.96875 
L 5.21875 -11.71875 
Q 8.109375 -12.5 10.25 -12.5 
Q 13.1875 -12.5 14.9375 -11.515625 
Q 16.703125 -10.546875 17.828125 -8.796875 
Q 18.65625 -7.46875 20.515625 -2.25 
Q 20.75 -1.515625 21.296875 -0.09375 
L 1.609375 51.859375 
L 11.078125 51.859375 
L 21.875 21.828125 
Q 23.96875 16.109375 25.640625 9.8125 
Q 27.15625 15.875 29.25 21.625 
L 40.328125 51.859375 
L 49.125 51.859375 
L 29.390625 -0.875 
Q 26.21875 -9.421875 24.46875 -12.640625 
Q 22.125 -17 19.09375 -19.015625 
Q 16.0625 -21.046875 11.859375 -21.046875 
Q 9.328125 -21.046875 6.203125 -19.96875 
z
" id="ArialMT-121"/>
      </defs>
      <use xlink:href="#ArialMT-69"/>
      <use x="66.699219" xlink:href="#ArialMT-110"/>
      <use x="122.314453" xlink:href="#ArialMT-101"/>
      <use x="177.929688" xlink:href="#ArialMT-114"/>
      <use x="211.230469" xlink:href="#ArialMT-103"/>
      <use x="266.845703" xlink:href="#ArialMT-121"/>
     </g>
    </g>
   </g>
   <g id="line2d_15">
    <path clip-path="url(#p6daee5e330)" d="M 123.323727 65.5092 
L 129.703428 68.947865 
L 133.956561 72.018102 
L 136.083128 72.877768 
L 140.336262 75.149743 
L 144.589396 78.035765 
L 146.715963 78.649813 
L 148.842529 80.000717 
L 150.969096 80.491955 
L 153.095663 81.106002 
L 155.22223 82.027073 
L 157.348797 83.193763 
L 159.475364 84.176239 
L 161.60193 85.281524 
L 163.728497 86.571023 
L 165.855064 87.553499 
L 167.981631 89.088617 
L 172.234765 91.237783 
L 174.361332 92.711496 
L 178.614465 96.150161 
L 182.867599 97.808089 
L 184.994166 99.036184 
L 189.247299 101.001135 
L 191.373866 102.22923 
L 193.500433 103.825753 
L 195.627 104.992443 
L 197.753567 105.422276 
L 199.880134 106.527561 
L 202.006701 107.080204 
L 204.133267 108.001275 
L 206.259834 109.290774 
L 208.386401 110.211845 
L 210.512968 111.746963 
L 219.019235 116.413723 
L 223.272369 118.071651 
L 225.398936 119.115531 
L 229.65207 121.633125 
L 231.778636 122.431387 
L 233.905203 123.475267 
L 236.03177 124.703362 
L 238.158337 125.563028 
L 240.284904 126.23848 
L 242.411471 127.40517 
L 244.538037 128.142027 
L 246.664604 129.370122 
L 248.791171 130.106978 
L 250.917738 131.396478 
L 255.170872 132.931596 
L 257.297439 134.40531 
L 259.424005 135.080762 
L 265.803706 138.458022 
L 267.930273 140.11595 
L 270.05684 141.037021 
L 272.183406 141.835282 
L 274.309973 142.203711 
L 276.43654 143.616019 
L 282.816241 147.054684 
L 284.942807 147.852946 
L 287.069374 148.774017 
L 289.195941 149.817897 
L 291.322508 150.431945 
L 293.449075 151.844254 
L 295.575642 152.949539 
L 297.702209 153.809205 
L 299.828775 154.853085 
L 301.955342 155.467133 
L 306.208476 157.493489 
L 308.335043 158.230346 
L 310.46161 159.45844 
L 312.588176 160.256702 
L 314.714743 161.546201 
L 316.84131 162.467272 
L 318.967877 163.879581 
L 323.221011 165.537509 
L 325.347578 166.888413 
L 327.474144 167.748079 
L 329.600711 169.406007 
L 331.727278 170.511292 
L 333.853845 171.309554 
L 335.980412 172.537648 
L 338.106979 173.397315 
L 340.233545 174.5026 
L 342.360112 175.362266 
L 344.486679 176.344742 
L 346.613246 178.125479 
L 348.739813 178.432503 
L 352.992947 180.581668 
L 355.119513 182.301001 
L 359.372647 184.634381 
L 361.499214 186.046689 
L 363.625781 187.09057 
L 365.752348 187.888831 
L 367.878914 188.380069 
L 370.005481 190.160806 
L 376.385182 192.924019 
L 380.638316 195.257399 
L 382.764882 196.485494 
L 384.891449 197.038136 
L 387.018016 198.63466 
L 393.397717 202.134729 
L 395.524283 203.608443 
L 397.65085 204.590919 
L 399.777417 205.941823 
L 401.903984 206.924298 
L 404.030551 208.336607 
L 406.157118 209.380488 
L 408.283684 211.161225 
L 410.410251 211.775272 
L 412.536818 212.573534 
L 414.663385 213.985843 
L 416.789952 215.029723 
L 418.916519 215.827985 
L 421.043086 216.503437 
L 423.169652 217.731531 
L 425.296219 218.284174 
L 427.422786 219.635078 
L 429.549353 220.187721 
L 431.67592 221.415815 
L 433.802487 223.442171 
L 435.929053 224.301838 
L 438.05562 225.468528 
L 440.182187 226.14398 
L 442.308754 227.003646 
L 444.435321 228.108931 
L 446.561888 229.582645 
L 448.688455 230.626525 
L 450.815021 232.223048 
L 452.941588 233.02131 
L 455.068155 234.433618 
L 457.194722 235.477499 
L 461.447856 237.995093 
L 463.574422 239.100378 
L 465.700989 239.77583 
L 467.827556 241.433758 
L 469.954123 242.416234 
L 472.08069 243.705733 
L 474.207257 244.688209 
L 476.333824 245.547875 
L 478.46039 246.223327 
L 486.966658 250.214635 
L 491.219791 252.732229 
L 493.346358 253.53049 
L 495.472925 255.127013 
L 499.726059 256.784941 
L 501.852626 258.013036 
L 503.979193 258.934107 
L 506.105759 260.100797 
L 508.232326 262.004343 
L 510.358893 263.478057 
L 512.48546 264.337723 
L 514.612027 265.07458 
L 518.86516 267.653579 
L 520.991727 268.758864 
L 527.371428 272.750171 
L 529.497995 274.223885 
L 531.624561 275.206361 
L 535.877695 277.723955 
L 538.004262 278.215193 
L 540.130829 279.136264 
L 544.383963 282.022286 
L 546.510529 282.820547 
L 548.637096 283.803023 
L 552.89023 287.364498 
L 555.016797 288.162759 
L 557.143364 289.329449 
L 561.396497 292.031257 
L 563.523064 293.75059 
L 565.649631 295.040089 
L 567.776198 296.022565 
L 569.902765 298.171731 
L 572.029332 299.399825 
L 574.155898 301.241967 
L 580.535599 305.17187 
L 582.662166 305.908727 
L 584.788733 307.321036 
L 586.915299 308.057892 
L 589.041866 310.207058 
L 591.168433 311.312343 
L 593.295 312.172009 
L 595.421567 313.584318 
L 597.548134 314.443985 
L 599.674701 316.654555 
L 601.801267 318.128268 
L 603.927834 319.417768 
L 606.054401 321.321315 
L 608.180968 322.610814 
L 612.434102 324.391551 
L 614.560668 326.110884 
L 616.687235 327.154764 
L 618.813802 328.711681 
L 625.193503 332.599522 
L 631.573203 335.618126 
L 633.69977 337.41676 
L 635.826337 338.865301 
L 637.952904 340.871442 
L 640.079471 341.660598 
L 642.206037 343.103512 
L 644.332604 343.811047 
L 646.459171 345.642622 
L 648.585738 347.291057 
L 650.712305 347.735459 
L 652.838872 349.095518 
L 654.965439 349.998659 
L 657.092005 351.380466 
L 659.218572 352.614701 
L 661.345139 354.823014 
L 663.471706 356.557397 
L 665.598273 361.3572 
L 665.598273 361.3572 
" style="fill:none;stroke:#edd1cb;stroke-linecap:round;stroke-width:1.5;"/>
   </g>
   <g id="line2d_16">
    <path clip-path="url(#p6daee5e330)" d="M 123.323727 94.492234 
L 125.450294 95.536114 
L 127.576861 96.764209 
L 129.703428 97.194042 
L 133.956561 99.404612 
L 136.083128 100.939731 
L 138.209695 101.553778 
L 140.336262 102.536254 
L 142.462829 103.334515 
L 144.589396 104.56261 
L 146.715963 105.053848 
L 148.842529 105.913514 
L 150.969096 106.89599 
L 153.095663 108.001275 
L 155.22223 108.308298 
L 157.348797 108.98375 
L 159.475364 110.15044 
L 161.60193 111.010107 
L 163.728497 111.624154 
L 165.855064 112.60663 
L 167.981631 113.404891 
L 170.108198 114.018938 
L 172.234765 114.8172 
L 174.361332 115.799676 
L 178.614465 117.887437 
L 180.741032 118.869912 
L 182.867599 119.606769 
L 187.120733 122.124363 
L 191.373866 124.396338 
L 195.627 126.115671 
L 197.753567 126.422694 
L 199.880134 127.40517 
L 202.006701 128.142027 
L 204.133267 128.694669 
L 208.386401 130.352597 
L 210.512968 131.580692 
L 212.639535 132.07193 
L 214.766102 132.993001 
L 216.892668 134.2825 
L 219.019235 135.756214 
L 221.145802 136.861499 
L 223.272369 137.65976 
L 225.398936 138.335212 
L 227.525503 139.317688 
L 229.65207 139.870331 
L 231.778636 140.11595 
L 236.03177 142.817758 
L 238.158337 143.063377 
L 242.411471 145.212542 
L 244.538037 145.82659 
L 246.664604 147.484518 
L 248.791171 148.466993 
L 250.917738 149.081041 
L 255.170872 150.923183 
L 257.297439 151.168801 
L 259.424005 152.151277 
L 261.550572 153.256562 
L 263.677139 153.932014 
L 265.803706 154.730276 
L 270.05684 156.695227 
L 272.183406 157.063656 
L 274.309973 158.168941 
L 276.43654 158.967202 
L 280.689674 161.239178 
L 284.942807 162.651486 
L 289.195941 164.677843 
L 291.322508 165.29189 
L 295.575642 166.949818 
L 297.702209 167.686674 
L 299.828775 168.607745 
L 301.955342 169.221793 
L 304.081909 170.818316 
L 306.208476 172.04641 
L 308.335043 172.16922 
L 312.588176 173.581529 
L 314.714743 174.564004 
L 316.84131 175.730694 
L 318.967877 176.221932 
L 321.094444 176.958789 
L 323.221011 177.265813 
L 327.474144 179.599193 
L 329.600711 180.520264 
L 331.727278 181.686953 
L 333.853845 181.993977 
L 340.233545 184.572976 
L 348.739813 189.730973 
L 350.86638 190.222211 
L 352.992947 191.511711 
L 355.119513 192.985424 
L 357.24608 193.906495 
L 361.499214 196.608303 
L 363.625781 197.590779 
L 367.878914 199.985564 
L 370.005481 200.538206 
L 372.132048 201.950515 
L 376.385182 203.608443 
L 378.511749 204.529514 
L 380.638316 205.266371 
L 382.764882 206.371656 
L 384.891449 207.047108 
L 387.018016 207.906774 
L 389.144583 208.520821 
L 391.27115 209.564702 
L 393.397717 210.117344 
L 395.524283 211.591058 
L 397.65085 212.573534 
L 399.777417 213.863033 
L 401.903984 215.459556 
L 404.030551 216.442032 
L 406.157118 217.731531 
L 408.283684 218.775412 
L 410.410251 219.635078 
L 412.536818 220.985982 
L 414.663385 221.784244 
L 418.916519 223.073743 
L 421.043086 223.8106 
L 423.169652 224.117623 
L 425.296219 225.038694 
L 427.422786 225.652742 
L 433.802487 229.152811 
L 438.05562 230.68793 
L 440.182187 230.749334 
L 442.308754 231.73181 
L 444.435321 232.407262 
L 446.561888 233.512547 
L 448.688455 234.433618 
L 450.815021 235.538904 
L 452.941588 237.319641 
L 457.194722 239.77583 
L 459.321289 241.003925 
L 461.447856 242.477638 
L 463.574422 243.705733 
L 465.700989 244.688209 
L 469.954123 246.284732 
L 472.08069 247.574231 
L 474.207257 248.004064 
L 476.333824 248.740921 
L 478.46039 249.293564 
L 486.966658 254.390156 
L 489.093225 255.372632 
L 491.219791 256.600727 
L 493.346358 258.135845 
L 495.472925 259.36394 
L 497.599492 260.162201 
L 499.726059 261.69732 
L 501.852626 262.495581 
L 503.979193 264.092104 
L 506.105759 264.399128 
L 508.232326 265.872841 
L 510.358893 267.162341 
L 512.48546 268.820268 
L 514.612027 269.250102 
L 520.991727 271.706291 
L 523.118294 273.609838 
L 527.371428 276.434455 
L 529.497995 277.355526 
L 531.624561 278.890645 
L 533.751128 279.688906 
L 535.877695 280.855596 
L 538.004262 282.390714 
L 540.130829 283.618809 
L 542.257396 285.338141 
L 544.383963 286.689046 
L 546.510529 287.732926 
L 548.637096 288.592592 
L 552.89023 290.741758 
L 555.016797 292.154067 
L 559.26993 293.566376 
L 561.396497 294.610256 
L 578.409032 304.864846 
L 584.788733 308.057892 
L 586.915299 309.285987 
L 589.041866 310.145653 
L 591.168433 311.619367 
L 593.295 312.847462 
L 595.421567 314.321175 
L 597.548134 316.040508 
L 599.674701 318.066864 
L 601.801267 319.479173 
L 603.927834 321.751148 
L 606.054401 323.163457 
L 608.180968 324.084528 
L 612.434102 326.233693 
L 616.687235 328.935501 
L 625.193503 333.695448 
L 627.32007 334.927115 
L 629.446636 335.924476 
L 631.573203 337.545189 
L 633.69977 338.435691 
L 637.952904 341.292968 
L 640.079471 342.27109 
L 642.206037 343.62319 
L 644.332604 345.365229 
L 646.459171 346.102609 
L 648.585738 347.627247 
L 650.712305 348.385939 
L 652.838872 349.270208 
L 654.965439 350.278239 
L 657.092005 351.845663 
L 659.218572 351.874662 
L 661.345139 355.088069 
L 663.471706 357.500215 
L 665.598273 361.3572 
L 665.598273 361.3572 
" style="fill:none;stroke:#d499a7;stroke-linecap:round;stroke-width:1.5;"/>
   </g>
   <g id="line2d_17">
    <path clip-path="url(#p6daee5e330)" d="M 123.323727 157.002251 
L 125.450294 157.984727 
L 129.703428 159.397036 
L 131.829995 160.686535 
L 136.083128 162.590082 
L 138.209695 163.265534 
L 140.336262 164.1252 
L 142.462829 164.739247 
L 146.715963 166.45858 
L 148.842529 166.888413 
L 150.969096 167.62527 
L 153.095663 168.853364 
L 155.22223 169.528816 
L 159.475364 171.616577 
L 161.60193 172.414839 
L 163.728497 173.458719 
L 165.855064 174.256981 
L 167.981631 174.564004 
L 170.108198 175.116647 
L 172.234765 176.037718 
L 174.361332 176.71317 
L 178.614465 178.432503 
L 180.741032 179.414978 
L 182.867599 179.660597 
L 184.994166 180.274645 
L 187.120733 181.318525 
L 189.247299 182.116787 
L 191.373866 183.037858 
L 195.627 183.529095 
L 208.386401 187.643212 
L 210.512968 188.502879 
L 212.639535 188.932712 
L 219.019235 190.897663 
L 221.145802 191.941544 
L 225.398936 193.353853 
L 227.525503 193.660876 
L 229.65207 194.274924 
L 231.778636 194.704757 
L 238.158337 196.731113 
L 240.284904 197.652184 
L 242.411471 198.266231 
L 244.538037 199.003088 
L 250.917738 200.231183 
L 257.297439 202.196134 
L 259.424005 203.17861 
L 261.550572 203.976871 
L 263.677139 204.406704 
L 267.930273 206.371656 
L 274.309973 208.336607 
L 276.43654 208.88925 
L 278.563107 209.748916 
L 280.689674 210.915606 
L 282.816241 211.22263 
L 284.942807 211.898082 
L 287.069374 213.064772 
L 289.195941 213.678819 
L 293.449075 215.64377 
L 295.575642 216.196413 
L 297.702209 216.93327 
L 299.828775 217.854341 
L 301.955342 218.345579 
L 304.081909 218.714007 
L 306.208476 220.31053 
L 308.335043 221.415815 
L 310.46161 222.214077 
L 312.588176 222.5211 
L 314.714743 223.380767 
L 316.84131 224.363242 
L 318.967877 224.793075 
L 321.094444 225.468528 
L 323.221011 226.328194 
L 325.347578 226.451003 
L 327.474144 227.310669 
L 331.727278 228.477359 
L 333.853845 228.845788 
L 335.980412 229.337026 
L 340.233545 231.056358 
L 342.360112 231.793215 
L 344.486679 232.345858 
L 346.613246 232.591476 
L 350.86638 234.003785 
L 352.992947 234.249404 
L 355.119513 235.661713 
L 357.24608 236.214356 
L 359.372647 237.074022 
L 361.499214 238.117902 
L 363.625781 238.73195 
L 365.752348 239.530211 
L 370.005481 240.819711 
L 372.132048 241.740782 
L 374.258615 242.170615 
L 376.385182 242.846067 
L 382.764882 245.425066 
L 387.018016 247.574231 
L 391.27115 248.863731 
L 393.397717 249.232159 
L 395.524283 249.354968 
L 397.65085 249.723397 
L 399.777417 250.460254 
L 401.903984 251.012896 
L 404.030551 251.258515 
L 406.157118 252.118181 
L 408.283684 253.407681 
L 410.410251 253.960323 
L 412.536818 255.127013 
L 414.663385 255.495442 
L 416.789952 256.539322 
L 418.916519 257.767417 
L 421.043086 258.565678 
L 423.169652 259.056916 
L 427.422786 259.670963 
L 429.549353 260.40782 
L 431.67592 260.53063 
L 433.802487 261.083272 
L 435.929053 261.942938 
L 438.05562 262.618391 
L 440.182187 263.109628 
L 442.308754 264.214914 
L 444.435321 264.521937 
L 446.561888 265.320199 
L 450.815021 266.425484 
L 452.941588 267.100936 
L 455.068155 267.40796 
L 457.194722 268.758864 
L 459.321289 269.311506 
L 461.447856 270.601006 
L 463.574422 271.153648 
L 467.827556 272.99579 
L 469.954123 273.487028 
L 472.08069 274.592313 
L 474.207257 274.899337 
L 476.333824 276.004622 
L 480.586957 277.416931 
L 484.840091 278.82924 
L 486.966658 279.99593 
L 489.093225 280.794191 
L 491.219791 281.03981 
L 493.346358 282.2065 
L 495.472925 282.2065 
L 499.726059 283.557404 
L 501.852626 283.803023 
L 503.979193 284.53988 
L 506.105759 285.031118 
L 508.232326 286.320617 
L 510.358893 286.996069 
L 512.48546 287.487307 
L 514.612027 288.715402 
L 516.738594 289.636473 
L 520.991727 291.908448 
L 523.118294 292.276876 
L 525.244861 293.566376 
L 527.371428 293.811995 
L 529.497995 294.978684 
L 533.751128 297.557683 
L 535.877695 298.478754 
L 538.004262 300.198087 
L 544.383963 302.408657 
L 546.510529 303.329728 
L 548.637096 304.680632 
L 550.763663 305.478894 
L 552.89023 306.645584 
L 555.016797 307.198226 
L 559.26993 309.408797 
L 561.396497 309.83863 
L 563.523064 311.373748 
L 565.649631 312.233414 
L 567.776198 312.908866 
L 569.902765 313.768533 
L 576.282465 315.54927 
L 578.409032 316.470341 
L 580.535599 316.59315 
L 584.788733 319.417768 
L 586.915299 320.400244 
L 589.041866 321.812552 
L 591.168433 322.4266 
L 597.548134 324.821384 
L 601.801267 326.97055 
L 603.927834 327.415734 
L 612.434102 331.409769 
L 614.560668 332.305204 
L 616.687235 332.707597 
L 620.940369 335.073747 
L 623.066936 336.543931 
L 625.193503 337.322095 
L 627.32007 337.978567 
L 629.446636 339.035927 
L 631.573203 340.742138 
L 633.69977 341.456892 
L 635.826337 342.013632 
L 637.952904 343.024117 
L 640.079471 344.227513 
L 642.206037 344.357358 
L 644.332604 346.420597 
L 646.459171 346.425544 
L 648.585738 347.826326 
L 650.712305 348.513127 
L 652.838872 348.903656 
L 654.965439 350.913672 
L 657.092005 352.028679 
L 659.218572 352.486135 
L 661.345139 355.454336 
L 663.471706 355.74704 
L 665.598273 361.3572 
L 665.598273 361.3572 
" style="fill:none;stroke:#a9678f;stroke-linecap:round;stroke-width:1.5;"/>
   </g>
   <g id="line2d_18">
    <path clip-path="url(#p6daee5e330)" d="M 123.323727 246.77597 
L 127.576861 247.94266 
L 129.703428 248.126874 
L 131.829995 248.433897 
L 133.956561 249.047945 
L 136.083128 249.232159 
L 138.209695 249.907611 
L 142.462829 250.828682 
L 144.589396 251.565539 
L 146.715963 252.118181 
L 148.842529 252.793633 
L 150.969096 253.223467 
L 153.095663 253.960323 
L 155.22223 254.512966 
L 157.348797 254.69718 
L 159.475364 255.065608 
L 161.60193 255.741061 
L 163.728497 255.925275 
L 167.981631 256.723536 
L 170.108198 257.521798 
L 172.234765 257.951631 
L 174.361332 258.19725 
L 176.487898 258.627083 
L 178.614465 259.179726 
L 180.741032 259.486749 
L 182.867599 259.670963 
L 184.994166 260.346415 
L 187.120733 260.776249 
L 189.247299 260.960463 
L 191.373866 261.69732 
L 193.500433 261.942938 
L 197.753567 263.171033 
L 199.880134 263.109628 
L 202.006701 263.232438 
L 204.133267 263.600866 
L 206.259834 263.846485 
L 210.512968 264.521937 
L 212.639535 264.521937 
L 214.766102 264.767556 
L 219.019235 265.504413 
L 221.145802 265.688627 
L 223.272369 266.179865 
L 229.65207 266.978127 
L 231.778636 267.592174 
L 233.905203 268.022007 
L 236.03177 268.820268 
L 238.158337 269.065887 
L 240.284904 269.127292 
L 242.411471 269.802744 
L 244.538037 270.048363 
L 246.664604 270.171173 
L 248.791171 270.478196 
L 250.917738 270.969434 
L 253.044305 271.153648 
L 257.297439 272.443148 
L 259.424005 272.934386 
L 261.550572 272.934386 
L 265.803706 273.364219 
L 270.05684 274.715123 
L 274.309973 275.513384 
L 276.43654 276.066027 
L 280.689674 276.741479 
L 282.816241 277.416931 
L 284.942807 277.416931 
L 287.069374 278.276597 
L 289.195941 278.338002 
L 291.322508 279.074859 
L 293.449075 279.320478 
L 297.702209 280.241549 
L 301.955342 281.224024 
L 304.081909 281.408239 
L 306.208476 282.083691 
L 308.335043 282.145095 
L 310.46161 282.32931 
L 314.714743 283.066166 
L 316.84131 283.250381 
L 318.967877 283.004762 
L 323.221011 283.987237 
L 325.347578 284.232856 
L 327.474144 284.601285 
L 331.727278 285.522356 
L 333.853845 286.197808 
L 335.980412 286.504831 
L 338.106979 287.118879 
L 340.233545 286.996069 
L 342.360112 287.180283 
L 344.486679 287.548712 
L 346.613246 287.671521 
L 348.739813 288.224164 
L 350.86638 288.961021 
L 352.992947 289.20664 
L 355.119513 289.20664 
L 357.24608 289.329449 
L 359.372647 289.636473 
L 361.499214 290.496139 
L 363.625781 290.864567 
L 365.752348 291.478615 
L 367.878914 291.847043 
L 370.005481 292.338281 
L 374.258615 292.768114 
L 378.511749 293.566376 
L 382.764882 293.873399 
L 384.891449 293.62778 
L 387.018016 294.487447 
L 389.144583 294.91728 
L 391.27115 294.978684 
L 393.397717 295.408518 
L 395.524283 295.654136 
L 397.65085 295.757603 
L 404.030551 297.238686 
L 406.157118 297.300397 
L 408.283684 298.164362 
L 410.410251 298.596344 
L 416.789952 299.398597 
L 418.916519 299.707156 
L 421.043086 300.20085 
L 423.169652 300.20085 
L 429.549353 300.756256 
L 431.67592 301.064814 
L 433.802487 301.188238 
L 435.929053 301.62022 
L 440.182187 302.854455 
L 442.308754 303.039591 
L 444.435321 303.101302 
L 446.561888 303.533285 
L 450.815021 303.780132 
L 457.194722 304.829232 
L 459.321289 305.384637 
L 461.447856 305.81662 
L 463.574422 306.433737 
L 465.700989 306.15774 
L 467.827556 306.343806 
L 469.954123 307.336155 
L 474.207257 308.762658 
L 476.333824 309.692986 
L 478.46039 310.251183 
L 480.586957 310.561292 
L 482.713524 310.623314 
L 486.966658 311.305555 
L 489.093225 311.367577 
L 491.219791 312.235883 
L 493.346358 312.48397 
L 495.472925 313.166211 
L 499.726059 314.096539 
L 501.852626 314.282604 
L 503.979193 314.055296 
L 506.105759 314.443671 
L 508.232326 315.45121 
L 510.358893 315.514181 
L 512.48546 315.766066 
L 514.612027 316.52172 
L 516.738594 316.962518 
L 520.991727 318.033029 
L 523.118294 318.977596 
L 525.244861 319.329912 
L 527.371428 319.962853 
L 529.497995 320.449304 
L 533.751128 320.666011 
L 535.877695 321.437408 
L 538.004262 322.465937 
L 540.130829 323.044485 
L 542.257396 324.137297 
L 544.383963 324.589985 
L 546.510529 325.369502 
L 548.637096 325.629341 
L 552.89023 326.863576 
L 555.016797 327.203498 
L 557.143364 327.334105 
L 559.26993 327.743988 
L 563.523064 328.11248 
L 565.649631 328.06621 
L 567.776198 328.19964 
L 569.902765 327.769818 
L 572.029332 328.039596 
L 574.155898 328.670314 
L 578.409032 330.876366 
L 580.535599 331.392714 
L 582.662166 331.639025 
L 584.788733 332.139996 
L 586.915299 332.254497 
L 589.041866 332.913046 
L 591.168433 333.176687 
L 593.295 333.58691 
L 595.421567 334.218463 
L 597.548134 334.408516 
L 599.674701 335.796118 
L 601.801267 336.084767 
L 603.927834 336.598591 
L 606.054401 336.896904 
L 608.180968 337.505417 
L 610.307535 338.641216 
L 612.434102 338.832409 
L 614.560668 339.699867 
L 616.687235 339.878303 
L 618.813802 339.737377 
L 620.940369 340.198884 
L 623.066936 340.332643 
L 625.193503 341.764796 
L 629.446636 343.429259 
L 631.573203 343.644513 
L 633.69977 343.596256 
L 635.826337 344.658725 
L 637.952904 343.835469 
L 640.079471 345.456694 
L 642.206037 346.453229 
L 644.332604 347.086356 
L 646.459171 346.862113 
L 648.585738 347.432496 
L 650.712305 348.145669 
L 652.838872 349.774378 
L 654.965439 349.929097 
L 657.092005 352.357569 
L 659.218572 352.188596 
L 661.345139 354.711319 
L 663.471706 353.422831 
L 665.598273 361.3572 
L 665.598273 361.3572 
" style="fill:none;stroke:#6e4071;stroke-linecap:round;stroke-width:1.5;"/>
   </g>
   <g id="line2d_19">
    <path clip-path="url(#p6daee5e330)" d="M 123.323727 325.128408 
L 125.450294 324.704157 
L 127.576861 324.828827 
L 129.703428 325.140503 
L 131.829995 324.833916 
L 133.956561 325.211743 
L 136.083128 325.279558 
L 138.209695 325.596029 
L 140.336262 325.722617 
L 142.462829 325.975793 
L 144.589396 325.849205 
L 148.842529 325.975793 
L 153.095663 326.482146 
L 155.22223 326.238757 
L 159.475364 326.696297 
L 163.728497 327.079997 
L 165.855064 327.079997 
L 170.108198 327.399747 
L 172.234765 327.335797 
L 176.487898 327.527647 
L 178.614465 327.591597 
L 180.741032 327.847397 
L 189.247299 328.295047 
L 193.500433 328.37998 
L 195.627 328.637113 
L 197.753567 328.401184 
L 199.880134 328.659662 
L 204.133267 328.918141 
L 206.259834 328.682449 
L 208.386401 328.812369 
L 210.512968 329.202127 
L 212.639535 329.267087 
L 214.766102 329.137167 
L 221.145802 329.461966 
L 223.272369 329.293208 
L 225.398936 329.358512 
L 229.65207 329.750332 
L 231.778636 330.07685 
L 233.905203 330.207457 
L 236.03177 330.041766 
L 238.158337 330.173068 
L 242.411471 330.138312 
L 248.791171 330.402319 
L 250.917738 330.534323 
L 253.044305 330.169538 
L 255.170872 330.434965 
L 257.297439 330.567679 
L 259.424005 330.833106 
L 261.550572 330.734826 
L 265.803706 330.970868 
L 276.43654 330.636952 
L 278.563107 330.772583 
L 280.689674 331.179473 
L 282.816241 331.111658 
L 284.942807 331.315103 
L 291.322508 331.012745 
L 293.449075 331.353694 
L 295.575642 331.324145 
L 299.828775 330.917356 
L 306.208476 331.818764 
L 308.335043 331.749425 
L 314.714743 332.209727 
L 316.84131 332.070265 
L 323.221011 332.000534 
L 325.347578 331.791342 
L 327.474144 331.930803 
L 329.600711 331.833735 
L 333.853845 332.18437 
L 338.106979 332.017668 
L 340.233545 332.088196 
L 342.360112 332.511362 
L 344.486679 332.274648 
L 346.613246 331.919983 
L 348.739813 331.919983 
L 352.992947 332.5346 
L 355.119513 332.869331 
L 357.24608 333.063623 
L 359.372647 332.679384 
L 363.625781 332.874851 
L 365.752348 333.146112 
L 367.878914 332.999179 
L 370.005481 333.072645 
L 376.385182 333.864058 
L 380.638316 334.23359 
L 382.764882 334.307496 
L 384.891449 333.830017 
L 389.144583 334.054423 
L 391.27115 333.87086 
L 393.397717 334.098019 
L 395.524283 333.836057 
L 397.65085 333.836057 
L 399.777417 333.452754 
L 401.903984 333.529414 
L 408.283684 334.358307 
L 410.410251 334.033253 
L 412.536818 334.421377 
L 416.789952 334.457204 
L 418.916519 334.536321 
L 421.043086 335.090145 
L 423.169652 335.31882 
L 425.296219 335.31003 
L 427.422786 334.978449 
L 431.67592 334.886105 
L 433.802487 335.454502 
L 438.05562 335.373303 
L 440.182187 335.779301 
L 442.308754 335.609911 
L 444.435321 335.691649 
L 446.561888 335.602827 
L 448.688455 336.178804 
L 450.815021 336.172132 
L 452.941588 336.672498 
L 455.068155 336.839286 
L 459.321289 336.840421 
L 461.447856 336.587961 
L 463.574422 337.095181 
L 465.700989 337.012976 
L 469.954123 336.586187 
L 472.08069 336.845118 
L 474.207257 337.362979 
L 478.46039 337.194005 
L 482.713524 337.547842 
L 484.840091 337.547842 
L 486.966658 337.294055 
L 489.093225 337.826818 
L 491.219791 337.483309 
L 493.346358 337.483309 
L 497.599492 338.306044 
L 499.726059 338.135295 
L 501.852626 338.409569 
L 508.232326 338.806889 
L 514.612027 339.945091 
L 516.738594 339.593207 
L 520.991727 340.064289 
L 523.118294 340.185321 
L 525.244861 339.92552 
L 527.371428 339.92552 
L 529.497995 340.433058 
L 531.624561 340.029617 
L 533.751128 340.255761 
L 538.004262 341.022671 
L 542.257396 341.022671 
L 544.383963 341.326171 
L 546.510529 341.466634 
L 548.637096 341.466634 
L 550.763663 342.180654 
L 552.89023 342.1115 
L 555.016797 342.474458 
L 557.143364 342.575361 
L 559.26993 343.064072 
L 567.776198 343.44869 
L 569.902765 344.24899 
L 572.029332 343.380297 
L 574.155898 342.913012 
L 576.282465 343.404689 
L 578.409032 343.642296 
L 580.535599 343.66154 
L 582.662166 344.499354 
L 584.788733 344.849305 
L 586.915299 344.467667 
L 589.041866 344.280796 
L 591.168433 344.900732 
L 593.295 343.932704 
L 595.421567 343.932704 
L 597.548134 344.84023 
L 599.674701 344.713726 
L 601.801267 344.386467 
L 603.927834 344.436235 
L 606.054401 344.283614 
L 608.180968 344.831001 
L 610.307535 344.971665 
L 612.434102 344.606866 
L 614.560668 344.124483 
L 616.687235 345.691908 
L 618.813802 345.157864 
L 620.940369 344.352183 
L 623.066936 345.723555 
L 625.193503 346.370059 
L 627.32007 346.546379 
L 629.446636 348.347695 
L 631.573203 348.640838 
L 633.69977 346.370059 
L 635.826337 346.64132 
L 637.952904 347.98632 
L 640.079471 347.331801 
L 642.206037 346.546379 
L 648.585738 348.288828 
L 650.712305 350.557643 
L 652.838872 349.96426 
L 654.965439 352.100437 
L 657.092005 350.386221 
L 659.218572 355.186024 
L 661.345139 355.186024 
L 663.471706 361.3572 
L 663.471706 361.3572 
" style="fill:none;stroke:#2d1e3e;stroke-linecap:round;stroke-width:1.5;"/>
   </g>
   <g id="line2d_20"/>
   <g id="line2d_21"/>
   <g id="line2d_22"/>
   <g id="line2d_23"/>
   <g id="line2d_24"/>
   <g id="patch_3">
    <path d="M 96.21 376.1496 
L 96.21 50.7168 
" style="fill:none;stroke:#cccccc;stroke-linecap:square;stroke-linejoin:miter;stroke-width:0.8;"/>
   </g>
   <g id="patch_4">
    <path d="M 692.712 376.1496 
L 692.712 50.7168 
" style="fill:none;stroke:#cccccc;stroke-linecap:square;stroke-linejoin:miter;stroke-width:0.8;"/>
   </g>
   <g id="patch_5">
    <path d="M 96.21 376.1496 
L 692.712 376.1496 
" style="fill:none;stroke:#cccccc;stroke-linecap:square;stroke-linejoin:miter;stroke-width:0.8;"/>
   </g>
   <g id="patch_6">
    <path d="M 96.21 50.7168 
L 692.712 50.7168 
" style="fill:none;stroke:#cccccc;stroke-linecap:square;stroke-linejoin:miter;stroke-width:0.8;"/>
   </g>
   <g id="legend_1">
    <g id="patch_7">
     <path d="M 630.016687 143.705862 
L 685.712 143.705862 
Q 687.712 143.705862 687.712 141.705862 
L 687.712 57.7168 
Q 687.712 55.7168 685.712 55.7168 
L 630.016687 55.7168 
Q 628.016687 55.7168 628.016687 57.7168 
L 628.016687 141.705862 
Q 628.016687 143.705862 630.016687 143.705862 
z
" style="fill:#ffffff;opacity:0.8;stroke:#cccccc;stroke-linejoin:miter;"/>
    </g>
    <g id="text_17">
     <!-- init_magnet -->
     <g style="fill:#262626;" transform="translate(632.016687 66.874612)scale(0.1 -0.1)">
      <defs>
       <path d="M 6.640625 61.46875 
L 6.640625 71.578125 
L 15.4375 71.578125 
L 15.4375 61.46875 
z
M 6.640625 0 
L 6.640625 51.859375 
L 15.4375 51.859375 
L 15.4375 0 
z
" id="ArialMT-105"/>
       <path d="M -1.515625 -19.875 
L -1.515625 -13.53125 
L 56.734375 -13.53125 
L 56.734375 -19.875 
z
" id="ArialMT-95"/>
       <path d="M 6.59375 0 
L 6.59375 51.859375 
L 14.453125 51.859375 
L 14.453125 44.578125 
Q 16.890625 48.390625 20.9375 50.703125 
Q 25 53.03125 30.171875 53.03125 
Q 35.9375 53.03125 39.625 50.640625 
Q 43.3125 48.25 44.828125 43.953125 
Q 50.984375 53.03125 60.84375 53.03125 
Q 68.5625 53.03125 72.703125 48.75 
Q 76.859375 44.484375 76.859375 35.59375 
L 76.859375 0 
L 68.109375 0 
L 68.109375 32.671875 
Q 68.109375 37.9375 67.25 40.25 
Q 66.40625 42.578125 64.15625 43.984375 
Q 61.921875 45.40625 58.890625 45.40625 
Q 53.421875 45.40625 49.796875 41.765625 
Q 46.1875 38.140625 46.1875 30.125 
L 46.1875 0 
L 37.40625 0 
L 37.40625 33.6875 
Q 37.40625 39.546875 35.25 42.46875 
Q 33.109375 45.40625 28.21875 45.40625 
Q 24.515625 45.40625 21.359375 43.453125 
Q 18.21875 41.5 16.796875 37.734375 
Q 15.375 33.984375 15.375 26.90625 
L 15.375 0 
z
" id="ArialMT-109"/>
      </defs>
      <use xlink:href="#ArialMT-105"/>
      <use x="22.216797" xlink:href="#ArialMT-110"/>
      <use x="77.832031" xlink:href="#ArialMT-105"/>
      <use x="100.048828" xlink:href="#ArialMT-116"/>
      <use x="127.832031" xlink:href="#ArialMT-95"/>
      <use x="183.447266" xlink:href="#ArialMT-109"/>
      <use x="266.748047" xlink:href="#ArialMT-97"/>
      <use x="322.363281" xlink:href="#ArialMT-103"/>
      <use x="377.978516" xlink:href="#ArialMT-110"/>
      <use x="433.59375" xlink:href="#ArialMT-101"/>
      <use x="489.208984" xlink:href="#ArialMT-116"/>
     </g>
    </g>
    <g id="line2d_25">
     <path d="M 636.914344 77.637112 
L 656.914344 77.637112 
" style="fill:none;stroke:#edd1cb;stroke-linecap:round;stroke-width:1.5;"/>
    </g>
    <g id="line2d_26"/>
    <g id="text_18">
     <!-- 0.0 -->
     <g style="fill:#262626;" transform="translate(664.914344 81.137112)scale(0.1 -0.1)">
      <use xlink:href="#ArialMT-48"/>
      <use x="55.615234" xlink:href="#ArialMT-46"/>
      <use x="83.398438" xlink:href="#ArialMT-48"/>
     </g>
    </g>
    <g id="line2d_27">
     <path d="M 636.914344 91.782425 
L 656.914344 91.782425 
" style="fill:none;stroke:#d499a7;stroke-linecap:round;stroke-width:1.5;"/>
    </g>
    <g id="line2d_28"/>
    <g id="text_19">
     <!-- 0.2 -->
     <g style="fill:#262626;" transform="translate(664.914344 95.282425)scale(0.1 -0.1)">
      <use xlink:href="#ArialMT-48"/>
      <use x="55.615234" xlink:href="#ArialMT-46"/>
      <use x="83.398438" xlink:href="#ArialMT-50"/>
     </g>
    </g>
    <g id="line2d_29">
     <path d="M 636.914344 105.927737 
L 656.914344 105.927737 
" style="fill:none;stroke:#a9678f;stroke-linecap:round;stroke-width:1.5;"/>
    </g>
    <g id="line2d_30"/>
    <g id="text_20">
     <!-- 0.4 -->
     <g style="fill:#262626;" transform="translate(664.914344 109.427737)scale(0.1 -0.1)">
      <defs>
       <path d="M 32.328125 0 
L 32.328125 17.140625 
L 1.265625 17.140625 
L 1.265625 25.203125 
L 33.9375 71.578125 
L 41.109375 71.578125 
L 41.109375 25.203125 
L 50.78125 25.203125 
L 50.78125 17.140625 
L 41.109375 17.140625 
L 41.109375 0 
z
M 32.328125 25.203125 
L 32.328125 57.46875 
L 9.90625 25.203125 
z
" id="ArialMT-52"/>
      </defs>
      <use xlink:href="#ArialMT-48"/>
      <use x="55.615234" xlink:href="#ArialMT-46"/>
      <use x="83.398438" xlink:href="#ArialMT-52"/>
     </g>
    </g>
    <g id="line2d_31">
     <path d="M 636.914344 120.07305 
L 656.914344 120.07305 
" style="fill:none;stroke:#6e4071;stroke-linecap:round;stroke-width:1.5;"/>
    </g>
    <g id="line2d_32"/>
    <g id="text_21">
     <!-- 0.6 -->
     <g style="fill:#262626;" transform="translate(664.914344 123.57305)scale(0.1 -0.1)">
      <use xlink:href="#ArialMT-48"/>
      <use x="55.615234" xlink:href="#ArialMT-46"/>
      <use x="83.398438" xlink:href="#ArialMT-54"/>
     </g>
    </g>
    <g id="line2d_33">
     <path d="M 636.914344 134.218362 
L 656.914344 134.218362 
" style="fill:none;stroke:#2d1e3e;stroke-linecap:round;stroke-width:1.5;"/>
    </g>
    <g id="line2d_34"/>
    <g id="text_22">
     <!-- 0.8 -->
     <g style="fill:#262626;" transform="translate(664.914344 137.718362)scale(0.1 -0.1)">
      <use xlink:href="#ArialMT-48"/>
      <use x="55.615234" xlink:href="#ArialMT-46"/>
      <use x="83.398438" xlink:href="#ArialMT-56"/>
     </g>
    </g>
   </g>
  </g>
 </g>
 <defs>
  <clipPath id="p6daee5e330">
   <rect height="325.4328" width="596.502" x="96.21" y="50.7168"/>
  </clipPath>
 </defs>
</svg>
