<?xml version="1.0" encoding="utf-8" standalone="no"?>
<!DOCTYPE svg PUBLIC "-//W3C//DTD SVG 1.1//EN"
  "http://www.w3.org/Graphics/SVG/1.1/DTD/svg11.dtd">
<!-- Created with matplotlib (https://matplotlib.org/) -->
<svg height="345.6pt" version="1.1" viewBox="0 0 460.8 345.6" width="460.8pt" xmlns="http://www.w3.org/2000/svg" xmlns:xlink="http://www.w3.org/1999/xlink">
 <metadata>
  <rdf:RDF xmlns:cc="http://creativecommons.org/ns#" xmlns:dc="http://purl.org/dc/elements/1.1/" xmlns:rdf="http://www.w3.org/1999/02/22-rdf-syntax-ns#">
   <cc:Work>
    <dc:type rdf:resource="http://purl.org/dc/dcmitype/StillImage"/>
    <dc:date>2021-01-21T16:14:35.367813</dc:date>
    <dc:format>image/svg+xml</dc:format>
    <dc:creator>
     <cc:Agent>
      <dc:title>Matplotlib v3.3.3, https://matplotlib.org/</dc:title>
     </cc:Agent>
    </dc:creator>
   </cc:Work>
  </rdf:RDF>
 </metadata>
 <defs>
  <style type="text/css">*{stroke-linecap:butt;stroke-linejoin:round;}</style>
 </defs>
 <g id="figure_1">
  <g id="patch_1">
   <path d="M 0 345.6 
L 460.8 345.6 
L 460.8 0 
L 0 0 
z
" style="fill:none;"/>
  </g>
  <g id="axes_1">
   <g id="patch_2">
    <path d="M 57.6 307.584 
L 414.72 307.584 
L 414.72 41.472 
L 57.6 41.472 
z
" style="fill:none;"/>
   </g>
   <g id="matplotlib.axis_1">
    <g id="xtick_1">
     <g id="line2d_1">
      <path clip-path="url(#p972dab56f9)" d="M 73.832727 307.584 
L 73.832727 41.472 
" style="fill:none;stroke:#cccccc;stroke-linecap:round;stroke-width:0.8;"/>
     </g>
     <g id="text_1">
      <!-- 0 -->
      <g style="fill:#262626;" transform="translate(71.052259 321.741812)scale(0.1 -0.1)">
       <defs>
        <path d="M 4.15625 35.296875 
Q 4.15625 48 6.765625 55.734375 
Q 9.375 63.484375 14.515625 67.671875 
Q 19.671875 71.875 27.484375 71.875 
Q 33.25 71.875 37.59375 69.546875 
Q 41.9375 67.234375 44.765625 62.859375 
Q 47.609375 58.5 49.21875 52.21875 
Q 50.828125 45.953125 50.828125 35.296875 
Q 50.828125 22.703125 48.234375 14.96875 
Q 45.65625 7.234375 40.5 3 
Q 35.359375 -1.21875 27.484375 -1.21875 
Q 17.140625 -1.21875 11.234375 6.203125 
Q 4.15625 15.140625 4.15625 35.296875 
z
M 13.1875 35.296875 
Q 13.1875 17.671875 17.3125 11.828125 
Q 21.4375 6 27.484375 6 
Q 33.546875 6 37.671875 11.859375 
Q 41.796875 17.71875 41.796875 35.296875 
Q 41.796875 52.984375 37.671875 58.78125 
Q 33.546875 64.59375 27.390625 64.59375 
Q 21.34375 64.59375 17.71875 59.46875 
Q 13.1875 52.9375 13.1875 35.296875 
z
" id="ArialMT-48"/>
       </defs>
       <use xlink:href="#ArialMT-48"/>
      </g>
     </g>
    </g>
    <g id="xtick_2">
     <g id="line2d_2">
      <path clip-path="url(#p972dab56f9)" d="M 114.414545 307.584 
L 114.414545 41.472 
" style="fill:none;stroke:#cccccc;stroke-linecap:round;stroke-width:0.8;"/>
     </g>
     <g id="text_2">
      <!-- 50 -->
      <g style="fill:#262626;" transform="translate(108.853608 321.741812)scale(0.1 -0.1)">
       <defs>
        <path d="M 4.15625 18.75 
L 13.375 19.53125 
Q 14.40625 12.796875 18.140625 9.390625 
Q 21.875 6 27.15625 6 
Q 33.5 6 37.890625 10.78125 
Q 42.28125 15.578125 42.28125 23.484375 
Q 42.28125 31 38.0625 35.34375 
Q 33.84375 39.703125 27 39.703125 
Q 22.75 39.703125 19.328125 37.765625 
Q 15.921875 35.84375 13.96875 32.765625 
L 5.71875 33.84375 
L 12.640625 70.609375 
L 48.25 70.609375 
L 48.25 62.203125 
L 19.671875 62.203125 
L 15.828125 42.96875 
Q 22.265625 47.46875 29.34375 47.46875 
Q 38.71875 47.46875 45.15625 40.96875 
Q 51.609375 34.46875 51.609375 24.265625 
Q 51.609375 14.546875 45.953125 7.46875 
Q 39.0625 -1.21875 27.15625 -1.21875 
Q 17.390625 -1.21875 11.203125 4.25 
Q 5.03125 9.71875 4.15625 18.75 
z
" id="ArialMT-53"/>
       </defs>
       <use xlink:href="#ArialMT-53"/>
       <use x="55.615234" xlink:href="#ArialMT-48"/>
      </g>
     </g>
    </g>
    <g id="xtick_3">
     <g id="line2d_3">
      <path clip-path="url(#p972dab56f9)" d="M 154.996364 307.584 
L 154.996364 41.472 
" style="fill:none;stroke:#cccccc;stroke-linecap:round;stroke-width:0.8;"/>
     </g>
     <g id="text_3">
      <!-- 100 -->
      <g style="fill:#262626;" transform="translate(146.654957 321.741812)scale(0.1 -0.1)">
       <defs>
        <path d="M 37.25 0 
L 28.46875 0 
L 28.46875 56 
Q 25.296875 52.984375 20.140625 49.953125 
Q 14.984375 46.921875 10.890625 45.40625 
L 10.890625 53.90625 
Q 18.265625 57.375 23.78125 62.296875 
Q 29.296875 67.234375 31.59375 71.875 
L 37.25 71.875 
z
" id="ArialMT-49"/>
       </defs>
       <use xlink:href="#ArialMT-49"/>
       <use x="55.615234" xlink:href="#ArialMT-48"/>
       <use x="111.230469" xlink:href="#ArialMT-48"/>
      </g>
     </g>
    </g>
    <g id="xtick_4">
     <g id="line2d_4">
      <path clip-path="url(#p972dab56f9)" d="M 195.578182 307.584 
L 195.578182 41.472 
" style="fill:none;stroke:#cccccc;stroke-linecap:round;stroke-width:0.8;"/>
     </g>
     <g id="text_4">
      <!-- 150 -->
      <g style="fill:#262626;" transform="translate(187.236776 321.741812)scale(0.1 -0.1)">
       <use xlink:href="#ArialMT-49"/>
       <use x="55.615234" xlink:href="#ArialMT-53"/>
       <use x="111.230469" xlink:href="#ArialMT-48"/>
      </g>
     </g>
    </g>
    <g id="xtick_5">
     <g id="line2d_5">
      <path clip-path="url(#p972dab56f9)" d="M 236.16 307.584 
L 236.16 41.472 
" style="fill:none;stroke:#cccccc;stroke-linecap:round;stroke-width:0.8;"/>
     </g>
     <g id="text_5">
      <!-- 200 -->
      <g style="fill:#262626;" transform="translate(227.818594 321.741812)scale(0.1 -0.1)">
       <defs>
        <path d="M 50.34375 8.453125 
L 50.34375 0 
L 3.03125 0 
Q 2.9375 3.171875 4.046875 6.109375 
Q 5.859375 10.9375 9.828125 15.625 
Q 13.8125 20.3125 21.34375 26.46875 
Q 33.015625 36.03125 37.109375 41.625 
Q 41.21875 47.21875 41.21875 52.203125 
Q 41.21875 57.421875 37.46875 61 
Q 33.734375 64.59375 27.734375 64.59375 
Q 21.390625 64.59375 17.578125 60.78125 
Q 13.765625 56.984375 13.71875 50.25 
L 4.6875 51.171875 
Q 5.609375 61.28125 11.65625 66.578125 
Q 17.71875 71.875 27.9375 71.875 
Q 38.234375 71.875 44.234375 66.15625 
Q 50.25 60.453125 50.25 52 
Q 50.25 47.703125 48.484375 43.546875 
Q 46.734375 39.40625 42.65625 34.8125 
Q 38.578125 30.21875 29.109375 22.21875 
Q 21.1875 15.578125 18.9375 13.203125 
Q 16.703125 10.84375 15.234375 8.453125 
z
" id="ArialMT-50"/>
       </defs>
       <use xlink:href="#ArialMT-50"/>
       <use x="55.615234" xlink:href="#ArialMT-48"/>
       <use x="111.230469" xlink:href="#ArialMT-48"/>
      </g>
     </g>
    </g>
    <g id="xtick_6">
     <g id="line2d_6">
      <path clip-path="url(#p972dab56f9)" d="M 276.741818 307.584 
L 276.741818 41.472 
" style="fill:none;stroke:#cccccc;stroke-linecap:round;stroke-width:0.8;"/>
     </g>
     <g id="text_6">
      <!-- 250 -->
      <g style="fill:#262626;" transform="translate(268.400412 321.741812)scale(0.1 -0.1)">
       <use xlink:href="#ArialMT-50"/>
       <use x="55.615234" xlink:href="#ArialMT-53"/>
       <use x="111.230469" xlink:href="#ArialMT-48"/>
      </g>
     </g>
    </g>
    <g id="xtick_7">
     <g id="line2d_7">
      <path clip-path="url(#p972dab56f9)" d="M 317.323636 307.584 
L 317.323636 41.472 
" style="fill:none;stroke:#cccccc;stroke-linecap:round;stroke-width:0.8;"/>
     </g>
     <g id="text_7">
      <!-- 300 -->
      <g style="fill:#262626;" transform="translate(308.98223 321.741812)scale(0.1 -0.1)">
       <defs>
        <path d="M 4.203125 18.890625 
L 12.984375 20.0625 
Q 14.5 12.59375 18.140625 9.296875 
Q 21.78125 6 27 6 
Q 33.203125 6 37.46875 10.296875 
Q 41.75 14.59375 41.75 20.953125 
Q 41.75 27 37.796875 30.921875 
Q 33.84375 34.859375 27.734375 34.859375 
Q 25.25 34.859375 21.53125 33.890625 
L 22.515625 41.609375 
Q 23.390625 41.5 23.921875 41.5 
Q 29.546875 41.5 34.03125 44.421875 
Q 38.53125 47.359375 38.53125 53.46875 
Q 38.53125 58.296875 35.25 61.46875 
Q 31.984375 64.65625 26.8125 64.65625 
Q 21.6875 64.65625 18.265625 61.421875 
Q 14.84375 58.203125 13.875 51.765625 
L 5.078125 53.328125 
Q 6.6875 62.15625 12.390625 67.015625 
Q 18.109375 71.875 26.609375 71.875 
Q 32.46875 71.875 37.390625 69.359375 
Q 42.328125 66.84375 44.9375 62.5 
Q 47.5625 58.15625 47.5625 53.265625 
Q 47.5625 48.640625 45.0625 44.828125 
Q 42.578125 41.015625 37.703125 38.765625 
Q 44.046875 37.3125 47.5625 32.6875 
Q 51.078125 28.078125 51.078125 21.140625 
Q 51.078125 11.765625 44.234375 5.25 
Q 37.40625 -1.265625 26.953125 -1.265625 
Q 17.53125 -1.265625 11.296875 4.34375 
Q 5.078125 9.96875 4.203125 18.890625 
z
" id="ArialMT-51"/>
       </defs>
       <use xlink:href="#ArialMT-51"/>
       <use x="55.615234" xlink:href="#ArialMT-48"/>
       <use x="111.230469" xlink:href="#ArialMT-48"/>
      </g>
     </g>
    </g>
    <g id="xtick_8">
     <g id="line2d_8">
      <path clip-path="url(#p972dab56f9)" d="M 357.905455 307.584 
L 357.905455 41.472 
" style="fill:none;stroke:#cccccc;stroke-linecap:round;stroke-width:0.8;"/>
     </g>
     <g id="text_8">
      <!-- 350 -->
      <g style="fill:#262626;" transform="translate(349.564048 321.741812)scale(0.1 -0.1)">
       <use xlink:href="#ArialMT-51"/>
       <use x="55.615234" xlink:href="#ArialMT-53"/>
       <use x="111.230469" xlink:href="#ArialMT-48"/>
      </g>
     </g>
    </g>
    <g id="xtick_9">
     <g id="line2d_9">
      <path clip-path="url(#p972dab56f9)" d="M 398.487273 307.584 
L 398.487273 41.472 
" style="fill:none;stroke:#cccccc;stroke-linecap:round;stroke-width:0.8;"/>
     </g>
     <g id="text_9">
      <!-- 400 -->
      <g style="fill:#262626;" transform="translate(390.145866 321.741812)scale(0.1 -0.1)">
       <defs>
        <path d="M 32.328125 0 
L 32.328125 17.140625 
L 1.265625 17.140625 
L 1.265625 25.203125 
L 33.9375 71.578125 
L 41.109375 71.578125 
L 41.109375 25.203125 
L 50.78125 25.203125 
L 50.78125 17.140625 
L 41.109375 17.140625 
L 41.109375 0 
z
M 32.328125 25.203125 
L 32.328125 57.46875 
L 9.90625 25.203125 
z
" id="ArialMT-52"/>
       </defs>
       <use xlink:href="#ArialMT-52"/>
       <use x="55.615234" xlink:href="#ArialMT-48"/>
       <use x="111.230469" xlink:href="#ArialMT-48"/>
      </g>
     </g>
    </g>
    <g id="text_10">
     <!-- unstables -->
     <g style="fill:#262626;" transform="translate(214.757656 334.887125)scale(0.1 -0.1)">
      <defs>
       <path d="M 40.578125 0 
L 40.578125 7.625 
Q 34.515625 -1.171875 24.125 -1.171875 
Q 19.53125 -1.171875 15.546875 0.578125 
Q 11.578125 2.34375 9.640625 5 
Q 7.71875 7.671875 6.9375 11.53125 
Q 6.390625 14.109375 6.390625 19.734375 
L 6.390625 51.859375 
L 15.1875 51.859375 
L 15.1875 23.09375 
Q 15.1875 16.21875 15.71875 13.8125 
Q 16.546875 10.359375 19.234375 8.375 
Q 21.921875 6.390625 25.875 6.390625 
Q 29.828125 6.390625 33.296875 8.421875 
Q 36.765625 10.453125 38.203125 13.9375 
Q 39.65625 17.4375 39.65625 24.078125 
L 39.65625 51.859375 
L 48.4375 51.859375 
L 48.4375 0 
z
" id="ArialMT-117"/>
       <path d="M 6.59375 0 
L 6.59375 51.859375 
L 14.5 51.859375 
L 14.5 44.484375 
Q 20.21875 53.03125 31 53.03125 
Q 35.6875 53.03125 39.625 51.34375 
Q 43.5625 49.65625 45.515625 46.921875 
Q 47.46875 44.1875 48.25 40.4375 
Q 48.734375 37.984375 48.734375 31.890625 
L 48.734375 0 
L 39.9375 0 
L 39.9375 31.546875 
Q 39.9375 36.921875 38.90625 39.578125 
Q 37.890625 42.234375 35.28125 43.8125 
Q 32.671875 45.40625 29.15625 45.40625 
Q 23.53125 45.40625 19.453125 41.84375 
Q 15.375 38.28125 15.375 28.328125 
L 15.375 0 
z
" id="ArialMT-110"/>
       <path d="M 3.078125 15.484375 
L 11.765625 16.84375 
Q 12.5 11.625 15.84375 8.84375 
Q 19.1875 6.0625 25.203125 6.0625 
Q 31.25 6.0625 34.171875 8.515625 
Q 37.109375 10.984375 37.109375 14.3125 
Q 37.109375 17.28125 34.515625 19 
Q 32.71875 20.171875 25.53125 21.96875 
Q 15.875 24.421875 12.140625 26.203125 
Q 8.40625 27.984375 6.46875 31.125 
Q 4.546875 34.28125 4.546875 38.09375 
Q 4.546875 41.546875 6.125 44.5 
Q 7.71875 47.46875 10.453125 49.421875 
Q 12.5 50.921875 16.03125 51.96875 
Q 19.578125 53.03125 23.640625 53.03125 
Q 29.734375 53.03125 34.34375 51.265625 
Q 38.96875 49.515625 41.15625 46.5 
Q 43.359375 43.5 44.1875 38.484375 
L 35.59375 37.3125 
Q 35.015625 41.3125 32.203125 43.546875 
Q 29.390625 45.796875 24.265625 45.796875 
Q 18.21875 45.796875 15.625 43.796875 
Q 13.03125 41.796875 13.03125 39.109375 
Q 13.03125 37.40625 14.109375 36.03125 
Q 15.1875 34.625 17.484375 33.6875 
Q 18.796875 33.203125 25.25 31.453125 
Q 34.578125 28.953125 38.25 27.359375 
Q 41.9375 25.78125 44.03125 22.75 
Q 46.140625 19.734375 46.140625 15.234375 
Q 46.140625 10.84375 43.578125 6.953125 
Q 41.015625 3.078125 36.171875 0.953125 
Q 31.34375 -1.171875 25.25 -1.171875 
Q 15.140625 -1.171875 9.84375 3.03125 
Q 4.546875 7.234375 3.078125 15.484375 
z
" id="ArialMT-115"/>
       <path d="M 25.78125 7.859375 
L 27.046875 0.09375 
Q 23.34375 -0.6875 20.40625 -0.6875 
Q 15.625 -0.6875 12.984375 0.828125 
Q 10.359375 2.34375 9.28125 4.8125 
Q 8.203125 7.28125 8.203125 15.1875 
L 8.203125 45.015625 
L 1.765625 45.015625 
L 1.765625 51.859375 
L 8.203125 51.859375 
L 8.203125 64.703125 
L 16.9375 69.96875 
L 16.9375 51.859375 
L 25.78125 51.859375 
L 25.78125 45.015625 
L 16.9375 45.015625 
L 16.9375 14.703125 
Q 16.9375 10.9375 17.40625 9.859375 
Q 17.875 8.796875 18.921875 8.15625 
Q 19.96875 7.515625 21.921875 7.515625 
Q 23.390625 7.515625 25.78125 7.859375 
z
" id="ArialMT-116"/>
       <path d="M 40.4375 6.390625 
Q 35.546875 2.25 31.03125 0.53125 
Q 26.515625 -1.171875 21.34375 -1.171875 
Q 12.796875 -1.171875 8.203125 3 
Q 3.609375 7.171875 3.609375 13.671875 
Q 3.609375 17.484375 5.34375 20.625 
Q 7.078125 23.78125 9.890625 25.6875 
Q 12.703125 27.59375 16.21875 28.5625 
Q 18.796875 29.25 24.03125 29.890625 
Q 34.671875 31.15625 39.703125 32.90625 
Q 39.75 34.71875 39.75 35.203125 
Q 39.75 40.578125 37.25 42.78125 
Q 33.890625 45.75 27.25 45.75 
Q 21.046875 45.75 18.09375 43.578125 
Q 15.140625 41.40625 13.71875 35.890625 
L 5.125 37.0625 
Q 6.296875 42.578125 8.984375 45.96875 
Q 11.671875 49.359375 16.75 51.1875 
Q 21.828125 53.03125 28.515625 53.03125 
Q 35.15625 53.03125 39.296875 51.46875 
Q 43.453125 49.90625 45.40625 47.53125 
Q 47.359375 45.171875 48.140625 41.546875 
Q 48.578125 39.3125 48.578125 33.453125 
L 48.578125 21.734375 
Q 48.578125 9.46875 49.140625 6.21875 
Q 49.703125 2.984375 51.375 0 
L 42.1875 0 
Q 40.828125 2.734375 40.4375 6.390625 
z
M 39.703125 26.03125 
Q 34.90625 24.078125 25.34375 22.703125 
Q 19.921875 21.921875 17.671875 20.9375 
Q 15.4375 19.96875 14.203125 18.09375 
Q 12.984375 16.21875 12.984375 13.921875 
Q 12.984375 10.40625 15.640625 8.0625 
Q 18.3125 5.71875 23.4375 5.71875 
Q 28.515625 5.71875 32.46875 7.9375 
Q 36.421875 10.15625 38.28125 14.015625 
Q 39.703125 17 39.703125 22.796875 
z
" id="ArialMT-97"/>
       <path d="M 14.703125 0 
L 6.546875 0 
L 6.546875 71.578125 
L 15.328125 71.578125 
L 15.328125 46.046875 
Q 20.90625 53.03125 29.546875 53.03125 
Q 34.328125 53.03125 38.59375 51.09375 
Q 42.875 49.171875 45.625 45.671875 
Q 48.390625 42.1875 49.953125 37.25 
Q 51.515625 32.328125 51.515625 26.703125 
Q 51.515625 13.375 44.921875 6.09375 
Q 38.328125 -1.171875 29.109375 -1.171875 
Q 19.921875 -1.171875 14.703125 6.5 
z
M 14.59375 26.3125 
Q 14.59375 17 17.140625 12.84375 
Q 21.296875 6.0625 28.375 6.0625 
Q 34.125 6.0625 38.328125 11.0625 
Q 42.53125 16.0625 42.53125 25.984375 
Q 42.53125 36.140625 38.5 40.96875 
Q 34.46875 45.796875 28.765625 45.796875 
Q 23 45.796875 18.796875 40.796875 
Q 14.59375 35.796875 14.59375 26.3125 
z
" id="ArialMT-98"/>
       <path d="M 6.390625 0 
L 6.390625 71.578125 
L 15.1875 71.578125 
L 15.1875 0 
z
" id="ArialMT-108"/>
       <path d="M 42.09375 16.703125 
L 51.171875 15.578125 
Q 49.03125 7.625 43.21875 3.21875 
Q 37.40625 -1.171875 28.375 -1.171875 
Q 17 -1.171875 10.328125 5.828125 
Q 3.65625 12.84375 3.65625 25.484375 
Q 3.65625 38.578125 10.390625 45.796875 
Q 17.140625 53.03125 27.875 53.03125 
Q 38.28125 53.03125 44.875 45.953125 
Q 51.46875 38.875 51.46875 26.03125 
Q 51.46875 25.25 51.421875 23.6875 
L 12.75 23.6875 
Q 13.234375 15.140625 17.578125 10.59375 
Q 21.921875 6.0625 28.421875 6.0625 
Q 33.25 6.0625 36.671875 8.59375 
Q 40.09375 11.140625 42.09375 16.703125 
z
M 13.234375 30.90625 
L 42.1875 30.90625 
Q 41.609375 37.453125 38.875 40.71875 
Q 34.671875 45.796875 27.984375 45.796875 
Q 21.921875 45.796875 17.796875 41.75 
Q 13.671875 37.703125 13.234375 30.90625 
z
" id="ArialMT-101"/>
      </defs>
      <use xlink:href="#ArialMT-117"/>
      <use x="55.615234" xlink:href="#ArialMT-110"/>
      <use x="111.230469" xlink:href="#ArialMT-115"/>
      <use x="161.230469" xlink:href="#ArialMT-116"/>
      <use x="189.013672" xlink:href="#ArialMT-97"/>
      <use x="244.628906" xlink:href="#ArialMT-98"/>
      <use x="300.244141" xlink:href="#ArialMT-108"/>
      <use x="322.460938" xlink:href="#ArialMT-101"/>
      <use x="378.076172" xlink:href="#ArialMT-115"/>
     </g>
    </g>
   </g>
   <g id="matplotlib.axis_2">
    <g id="ytick_1">
     <g id="line2d_10">
      <path clip-path="url(#p972dab56f9)" d="M 57.6 262.1082 
L 414.72 262.1082 
" style="fill:none;stroke:#cccccc;stroke-linecap:round;stroke-width:0.8;"/>
     </g>
     <g id="text_11">
      <!-- 0.2 -->
      <g style="fill:#262626;" transform="translate(36.7 265.687106)scale(0.1 -0.1)">
       <defs>
        <path d="M 9.078125 0 
L 9.078125 10.015625 
L 19.09375 10.015625 
L 19.09375 0 
z
" id="ArialMT-46"/>
       </defs>
       <use xlink:href="#ArialMT-48"/>
       <use x="55.615234" xlink:href="#ArialMT-46"/>
       <use x="83.398438" xlink:href="#ArialMT-50"/>
      </g>
     </g>
    </g>
    <g id="ytick_2">
     <g id="line2d_11">
      <path clip-path="url(#p972dab56f9)" d="M 57.6 209.97315 
L 414.72 209.97315 
" style="fill:none;stroke:#cccccc;stroke-linecap:round;stroke-width:0.8;"/>
     </g>
     <g id="text_12">
      <!-- 0.4 -->
      <g style="fill:#262626;" transform="translate(36.7 213.552056)scale(0.1 -0.1)">
       <use xlink:href="#ArialMT-48"/>
       <use x="55.615234" xlink:href="#ArialMT-46"/>
       <use x="83.398438" xlink:href="#ArialMT-52"/>
      </g>
     </g>
    </g>
    <g id="ytick_3">
     <g id="line2d_12">
      <path clip-path="url(#p972dab56f9)" d="M 57.6 157.8381 
L 414.72 157.8381 
" style="fill:none;stroke:#cccccc;stroke-linecap:round;stroke-width:0.8;"/>
     </g>
     <g id="text_13">
      <!-- 0.6 -->
      <g style="fill:#262626;" transform="translate(36.7 161.417006)scale(0.1 -0.1)">
       <defs>
        <path d="M 49.75 54.046875 
L 41.015625 53.375 
Q 39.84375 58.546875 37.703125 60.890625 
Q 34.125 64.65625 28.90625 64.65625 
Q 24.703125 64.65625 21.53125 62.3125 
Q 17.390625 59.28125 14.984375 53.46875 
Q 12.59375 47.65625 12.5 36.921875 
Q 15.671875 41.75 20.265625 44.09375 
Q 24.859375 46.4375 29.890625 46.4375 
Q 38.671875 46.4375 44.84375 39.96875 
Q 51.03125 33.5 51.03125 23.25 
Q 51.03125 16.5 48.125 10.71875 
Q 45.21875 4.9375 40.140625 1.859375 
Q 35.0625 -1.21875 28.609375 -1.21875 
Q 17.625 -1.21875 10.6875 6.859375 
Q 3.765625 14.9375 3.765625 33.5 
Q 3.765625 54.25 11.421875 63.671875 
Q 18.109375 71.875 29.4375 71.875 
Q 37.890625 71.875 43.28125 67.140625 
Q 48.6875 62.40625 49.75 54.046875 
z
M 13.875 23.1875 
Q 13.875 18.65625 15.796875 14.5 
Q 17.71875 10.359375 21.1875 8.171875 
Q 24.65625 6 28.46875 6 
Q 34.03125 6 38.03125 10.484375 
Q 42.046875 14.984375 42.046875 22.703125 
Q 42.046875 30.125 38.078125 34.390625 
Q 34.125 38.671875 28.125 38.671875 
Q 22.171875 38.671875 18.015625 34.390625 
Q 13.875 30.125 13.875 23.1875 
z
" id="ArialMT-54"/>
       </defs>
       <use xlink:href="#ArialMT-48"/>
       <use x="55.615234" xlink:href="#ArialMT-46"/>
       <use x="83.398438" xlink:href="#ArialMT-54"/>
      </g>
     </g>
    </g>
    <g id="ytick_4">
     <g id="line2d_13">
      <path clip-path="url(#p972dab56f9)" d="M 57.6 105.70305 
L 414.72 105.70305 
" style="fill:none;stroke:#cccccc;stroke-linecap:round;stroke-width:0.8;"/>
     </g>
     <g id="text_14">
      <!-- 0.8 -->
      <g style="fill:#262626;" transform="translate(36.7 109.281956)scale(0.1 -0.1)">
       <defs>
        <path d="M 17.671875 38.8125 
Q 12.203125 40.828125 9.5625 44.53125 
Q 6.9375 48.25 6.9375 53.421875 
Q 6.9375 61.234375 12.546875 66.546875 
Q 18.171875 71.875 27.484375 71.875 
Q 36.859375 71.875 42.578125 66.421875 
Q 48.296875 60.984375 48.296875 53.171875 
Q 48.296875 48.1875 45.671875 44.5 
Q 43.0625 40.828125 37.75 38.8125 
Q 44.34375 36.671875 47.78125 31.875 
Q 51.21875 27.09375 51.21875 20.453125 
Q 51.21875 11.28125 44.71875 5.03125 
Q 38.234375 -1.21875 27.640625 -1.21875 
Q 17.046875 -1.21875 10.546875 5.046875 
Q 4.046875 11.328125 4.046875 20.703125 
Q 4.046875 27.6875 7.59375 32.390625 
Q 11.140625 37.109375 17.671875 38.8125 
z
M 15.921875 53.71875 
Q 15.921875 48.640625 19.1875 45.40625 
Q 22.46875 42.1875 27.6875 42.1875 
Q 32.765625 42.1875 36.015625 45.375 
Q 39.265625 48.578125 39.265625 53.21875 
Q 39.265625 58.0625 35.90625 61.359375 
Q 32.5625 64.65625 27.59375 64.65625 
Q 22.5625 64.65625 19.234375 61.421875 
Q 15.921875 58.203125 15.921875 53.71875 
z
M 13.09375 20.65625 
Q 13.09375 16.890625 14.875 13.375 
Q 16.65625 9.859375 20.171875 7.921875 
Q 23.6875 6 27.734375 6 
Q 34.03125 6 38.125 10.046875 
Q 42.234375 14.109375 42.234375 20.359375 
Q 42.234375 26.703125 38.015625 30.859375 
Q 33.796875 35.015625 27.4375 35.015625 
Q 21.234375 35.015625 17.15625 30.90625 
Q 13.09375 26.8125 13.09375 20.65625 
z
" id="ArialMT-56"/>
       </defs>
       <use xlink:href="#ArialMT-48"/>
       <use x="55.615234" xlink:href="#ArialMT-46"/>
       <use x="83.398438" xlink:href="#ArialMT-56"/>
      </g>
     </g>
    </g>
    <g id="ytick_5">
     <g id="line2d_14">
      <path clip-path="url(#p972dab56f9)" d="M 57.6 53.568 
L 414.72 53.568 
" style="fill:none;stroke:#cccccc;stroke-linecap:round;stroke-width:0.8;"/>
     </g>
     <g id="text_15">
      <!-- 1.0 -->
      <g style="fill:#262626;" transform="translate(36.7 57.146906)scale(0.1 -0.1)">
       <use xlink:href="#ArialMT-49"/>
       <use x="55.615234" xlink:href="#ArialMT-46"/>
       <use x="83.398438" xlink:href="#ArialMT-48"/>
      </g>
     </g>
    </g>
    <g id="text_16">
     <!-- Consensus_mean -->
     <g style="fill:#262626;" transform="translate(30.7125 214.828)rotate(-90)scale(0.1 -0.1)">
      <defs>
       <path d="M 58.796875 25.09375 
L 68.265625 22.703125 
Q 65.28125 11.03125 57.546875 4.90625 
Q 49.8125 -1.21875 38.625 -1.21875 
Q 27.046875 -1.21875 19.796875 3.484375 
Q 12.546875 8.203125 8.765625 17.140625 
Q 4.984375 26.078125 4.984375 36.328125 
Q 4.984375 47.515625 9.25 55.828125 
Q 13.53125 64.15625 21.40625 68.46875 
Q 29.296875 72.796875 38.765625 72.796875 
Q 49.515625 72.796875 56.828125 67.328125 
Q 64.15625 61.859375 67.046875 51.953125 
L 57.71875 49.75 
Q 55.21875 57.5625 50.484375 61.125 
Q 45.75 64.703125 38.578125 64.703125 
Q 30.328125 64.703125 24.78125 60.734375 
Q 19.234375 56.78125 16.984375 50.109375 
Q 14.75 43.453125 14.75 36.375 
Q 14.75 27.25 17.40625 20.4375 
Q 20.0625 13.625 25.671875 10.25 
Q 31.296875 6.890625 37.84375 6.890625 
Q 45.796875 6.890625 51.3125 11.46875 
Q 56.84375 16.0625 58.796875 25.09375 
z
" id="ArialMT-67"/>
       <path d="M 3.328125 25.921875 
Q 3.328125 40.328125 11.328125 47.265625 
Q 18.015625 53.03125 27.640625 53.03125 
Q 38.328125 53.03125 45.109375 46.015625 
Q 51.90625 39.015625 51.90625 26.65625 
Q 51.90625 16.65625 48.90625 10.90625 
Q 45.90625 5.171875 40.15625 2 
Q 34.421875 -1.171875 27.640625 -1.171875 
Q 16.75 -1.171875 10.03125 5.8125 
Q 3.328125 12.796875 3.328125 25.921875 
z
M 12.359375 25.921875 
Q 12.359375 15.96875 16.703125 11.015625 
Q 21.046875 6.0625 27.640625 6.0625 
Q 34.1875 6.0625 38.53125 11.03125 
Q 42.875 16.015625 42.875 26.21875 
Q 42.875 35.84375 38.5 40.796875 
Q 34.125 45.75 27.640625 45.75 
Q 21.046875 45.75 16.703125 40.8125 
Q 12.359375 35.890625 12.359375 25.921875 
z
" id="ArialMT-111"/>
       <path d="M -1.515625 -19.875 
L -1.515625 -13.53125 
L 56.734375 -13.53125 
L 56.734375 -19.875 
z
" id="ArialMT-95"/>
       <path d="M 6.59375 0 
L 6.59375 51.859375 
L 14.453125 51.859375 
L 14.453125 44.578125 
Q 16.890625 48.390625 20.9375 50.703125 
Q 25 53.03125 30.171875 53.03125 
Q 35.9375 53.03125 39.625 50.640625 
Q 43.3125 48.25 44.828125 43.953125 
Q 50.984375 53.03125 60.84375 53.03125 
Q 68.5625 53.03125 72.703125 48.75 
Q 76.859375 44.484375 76.859375 35.59375 
L 76.859375 0 
L 68.109375 0 
L 68.109375 32.671875 
Q 68.109375 37.9375 67.25 40.25 
Q 66.40625 42.578125 64.15625 43.984375 
Q 61.921875 45.40625 58.890625 45.40625 
Q 53.421875 45.40625 49.796875 41.765625 
Q 46.1875 38.140625 46.1875 30.125 
L 46.1875 0 
L 37.40625 0 
L 37.40625 33.6875 
Q 37.40625 39.546875 35.25 42.46875 
Q 33.109375 45.40625 28.21875 45.40625 
Q 24.515625 45.40625 21.359375 43.453125 
Q 18.21875 41.5 16.796875 37.734375 
Q 15.375 33.984375 15.375 26.90625 
L 15.375 0 
z
" id="ArialMT-109"/>
      </defs>
      <use xlink:href="#ArialMT-67"/>
      <use x="72.216797" xlink:href="#ArialMT-111"/>
      <use x="127.832031" xlink:href="#ArialMT-110"/>
      <use x="183.447266" xlink:href="#ArialMT-115"/>
      <use x="233.447266" xlink:href="#ArialMT-101"/>
      <use x="289.0625" xlink:href="#ArialMT-110"/>
      <use x="344.677734" xlink:href="#ArialMT-115"/>
      <use x="394.677734" xlink:href="#ArialMT-117"/>
      <use x="450.292969" xlink:href="#ArialMT-115"/>
      <use x="500.292969" xlink:href="#ArialMT-95"/>
      <use x="555.908203" xlink:href="#ArialMT-109"/>
      <use x="639.208984" xlink:href="#ArialMT-101"/>
      <use x="694.824219" xlink:href="#ArialMT-97"/>
      <use x="750.439453" xlink:href="#ArialMT-110"/>
     </g>
    </g>
   </g>
   <g id="line2d_15">
    <path clip-path="url(#p972dab56f9)" d="M 73.832727 295.488 
L 74.644364 295.020121 
L 77.890909 294.829628 
L 80.325818 294.488745 
L 81.949091 294.695948 
L 83.572364 294.698176 
L 85.195636 294.750534 
L 86.007273 294.994499 
L 87.630545 294.87753 
L 88.442182 294.600145 
L 90.877091 294.640248 
L 91.688727 294.516595 
L 92.500364 294.508797 
L 94.123636 294.017524 
L 94.935273 293.564128 
L 97.370182 292.876792 
L 98.181818 292.537022 
L 98.993455 292.486893 
L 99.805091 292.598292 
L 100.616727 292.868994 
L 101.428364 292.621686 
L 102.24 292.5671 
L 103.051636 292.681842 
L 103.863273 292.55039 
L 104.674909 292.623914 
L 107.109818 292.099222 
L 107.921455 292.139326 
L 108.733091 292.050206 
L 109.544727 292.187227 
L 110.356364 292.131528 
L 111.979636 291.643597 
L 113.602909 291.152324 
L 114.414545 291.024215 
L 115.226182 290.511776 
L 116.037818 290.532942 
L 116.849455 290.389237 
L 117.661091 290.558564 
L 120.096 290.558564 
L 120.907636 290.365843 
L 121.719273 290.458304 
L 122.530909 290.358268 
L 123.342545 290.578839 
L 124.154182 290.37816 
L 124.965818 290.371476 
L 126.589091 289.77326 
L 128.212364 289.492374 
L 129.024 288.946674 
L 129.835636 288.892367 
L 130.647273 289.469139 
L 131.458909 289.199775 
L 133.893818 289.34714 
L 134.705455 289.119885 
L 137.140364 289.390363 
L 137.952 289.163108 
L 138.763636 288.793993 
L 139.575273 288.770758 
L 140.386909 288.454383 
L 141.198545 288.5894 
L 142.010182 288.313566 
L 143.633455 288.549893 
L 145.256727 288.695985 
L 146.068364 288.372926 
L 146.88 288.194687 
L 149.314909 288.231751 
L 150.126545 288.018744 
L 150.938182 288.250901 
L 151.749818 288.017137 
L 152.561455 287.555783 
L 153.373091 287.47723 
L 154.996364 286.985083 
L 155.808 287.425965 
L 156.619636 287.11691 
L 157.431273 286.55657 
L 158.242909 286.308435 
L 159.054545 286.405146 
L 160.677818 286.239845 
L 161.489455 286.145554 
L 162.301091 285.638304 
L 163.112727 285.735424 
L 163.924364 285.372747 
L 164.736 285.245274 
L 165.547636 285.502639 
L 168.794182 284.047649 
L 169.605818 284.059707 
L 171.229091 283.672058 
L 172.852364 284.206422 
L 173.664 283.957031 
L 175.287273 284.062732 
L 176.098909 283.810905 
L 176.910545 283.996369 
L 179.345455 282.577748 
L 180.157091 282.739438 
L 180.968727 282.433471 
L 182.592 282.129022 
L 183.403636 282.279967 
L 185.026909 281.7618 
L 185.838545 281.312168 
L 186.650182 281.834235 
L 187.461818 281.508587 
L 188.273455 281.728379 
L 189.085091 281.10871 
L 191.52 280.88817 
L 192.331636 280.596294 
L 193.143273 280.454817 
L 193.954909 279.703613 
L 194.766545 279.976891 
L 195.578182 279.320312 
L 196.389818 279.482611 
L 198.013091 279.501939 
L 198.824727 279.560084 
L 199.636364 278.936239 
L 202.071273 278.938392 
L 202.882909 279.072946 
L 204.506182 278.846277 
L 205.317818 278.518532 
L 206.129455 277.82768 
L 206.941091 277.97994 
L 207.752727 277.799517 
L 208.564364 277.40841 
L 209.376 276.891935 
L 210.187636 276.891349 
L 210.999273 276.653789 
L 211.810909 275.862786 
L 212.622545 275.882586 
L 214.245818 275.502213 
L 215.057455 275.723392 
L 215.869091 276.155108 
L 216.680727 275.848238 
L 217.492364 275.836907 
L 219.115636 276.104955 
L 219.927273 275.339939 
L 220.738909 276.154732 
L 221.550545 275.648024 
L 222.362182 274.808797 
L 223.173818 274.737089 
L 223.985455 274.286737 
L 224.797091 273.364842 
L 225.608727 272.685919 
L 226.420364 272.630017 
L 227.232 272.890489 
L 228.855273 271.13271 
L 229.666909 271.939975 
L 230.478545 271.790135 
L 231.290182 272.053721 
L 232.101818 271.748055 
L 232.913455 271.211157 
L 233.725091 271.802192 
L 234.536727 271.835589 
L 235.348364 272.00823 
L 236.16 271.339101 
L 236.971636 272.009725 
L 237.783273 271.362371 
L 238.594909 271.349268 
L 239.406545 271.488367 
L 240.218182 271.140237 
L 241.029818 271.329742 
L 241.841455 271.210712 
L 242.653091 271.51682 
L 243.464727 270.918237 
L 244.276364 270.092668 
L 245.088 270.035414 
L 245.899636 269.62152 
L 246.711273 269.574125 
L 248.334545 268.742539 
L 249.146182 267.901748 
L 249.957818 267.412579 
L 250.769455 266.48594 
L 253.204364 265.183303 
L 254.016 265.061505 
L 254.827636 264.608679 
L 255.639273 263.800934 
L 256.450909 263.829317 
L 257.262545 264.936435 
L 258.074182 264.176402 
L 259.697455 263.685605 
L 260.509091 263.183484 
L 261.320727 263.4292 
L 262.944 263.327768 
L 263.755636 262.499115 
L 264.567273 262.377386 
L 265.378909 262.082869 
L 266.190545 262.22778 
L 267.002182 262.523392 
L 267.813818 262.011273 
L 268.625455 262.470004 
L 269.437091 262.241758 
L 270.248727 262.400933 
L 271.060364 262.851212 
L 271.872 263.766151 
L 272.683636 263.408334 
L 273.495273 261.976296 
L 274.306909 260.990582 
L 275.118545 261.220695 
L 275.930182 260.160536 
L 276.741818 259.863841 
L 277.553455 259.323556 
L 278.365091 258.45364 
L 279.176727 259.476702 
L 279.988364 258.876609 
L 280.8 259.562339 
L 281.611636 259.993566 
L 282.423273 259.40941 
L 283.234909 259.120989 
L 284.046545 258.647899 
L 284.858182 257.679587 
L 285.669818 258.150117 
L 286.481455 256.990637 
L 287.293091 257.243053 
L 288.104727 255.495432 
L 288.916364 254.787206 
L 289.728 253.899527 
L 290.539636 252.47892 
L 291.351273 251.964456 
L 293.786182 247.645021 
L 294.597818 249.176672 
L 295.409455 247.68355 
L 296.221091 247.189429 
L 297.032727 248.11765 
L 297.844364 249.701099 
L 298.656 249.129678 
L 299.467636 249.542531 
L 300.279273 248.77047 
L 301.090909 248.351521 
L 301.902545 247.353598 
L 302.714182 246.881593 
L 303.525818 245.772493 
L 304.337455 243.788627 
L 305.149091 243.330977 
L 305.960727 242.66226 
L 307.584 240.496447 
L 309.207273 240.638541 
L 310.018909 239.495271 
L 310.830545 240.352017 
L 311.642182 240.466462 
L 312.453818 239.437355 
L 313.265455 239.867721 
L 314.077091 239.21261 
L 314.888727 240.244867 
L 315.700364 238.493646 
L 317.323636 234.351571 
L 318.135273 233.201994 
L 319.758545 228.60995 
L 320.570182 228.077379 
L 321.381818 227.348062 
L 322.193455 226.824713 
L 323.005091 225.568538 
L 323.816727 224.876058 
L 324.628364 222.942804 
L 325.44 222.129766 
L 326.251636 221.83238 
L 327.063273 220.620338 
L 327.874909 222.824473 
L 328.686545 222.475312 
L 329.498182 218.876291 
L 330.309818 219.182021 
L 331.121455 216.800104 
L 331.933091 217.020077 
L 332.744727 216.52821 
L 333.556364 216.465678 
L 335.179636 213.959893 
L 335.991273 215.211962 
L 336.802909 213.322625 
L 337.614545 210.723956 
L 338.426182 208.736934 
L 339.237818 208.552449 
L 340.049455 207.565254 
L 340.861091 206.119425 
L 341.672727 205.246581 
L 343.296 202.753084 
L 344.107636 202.444892 
L 344.919273 205.37955 
L 345.730909 204.681129 
L 346.542545 205.035706 
L 347.354182 205.71247 
L 348.165818 203.750209 
L 348.977455 203.575175 
L 350.600727 196.852146 
L 351.412364 198.892297 
L 352.224 192.407056 
L 353.035636 194.772383 
L 353.847273 196.099962 
L 354.658909 196.63224 
L 355.470545 196.325993 
L 356.282182 199.545389 
L 357.093818 201.561405 
L 357.905455 202.660252 
L 358.717091 198.959787 
L 359.528727 203.126748 
L 360.340364 205.628627 
L 361.152 207.006238 
L 361.963636 207.205072 
L 362.775273 205.297011 
L 363.586909 198.358313 
L 364.398545 199.40191 
L 365.210182 193.751352 
L 366.021818 197.072459 
L 366.833455 194.016442 
L 367.645091 201.889953 
L 368.456727 204.99502 
L 369.268364 210.401574 
L 370.08 206.923041 
L 370.891636 205.761453 
L 371.703273 194.986444 
L 372.514909 209.449995 
L 374.138182 213.090362 
L 374.949818 211.143945 
L 375.761455 222.684878 
L 376.573091 232.38787 
L 377.384727 231.129455 
L 378.196364 236.256902 
L 379.008 254.4288 
L 379.819636 230.56084 
L 380.631273 234.503247 
L 381.442909 232.822994 
L 382.254545 232.476843 
L 383.066182 248.079578 
L 383.877818 252.005596 
L 384.689455 260.604012 
L 385.501091 249.770647 
L 386.312727 247.683537 
L 387.124364 240.987161 
L 387.936 240.81501 
L 388.747636 242.366096 
L 389.559273 258.522159 
L 390.370909 241.648091 
L 391.182545 257.393559 
L 391.994182 250.333604 
L 393.617455 260.755559 
L 394.429091 267.812942 
L 395.240727 272.325818 
L 396.052364 273.517097 
L 397.675636 260.654637 
L 398.487273 273.006339 
L 398.487273 273.006339 
" style="fill:none;stroke:#edd1cb;stroke-linecap:round;stroke-width:1.5;"/>
   </g>
   <g id="line2d_16">
    <path clip-path="url(#p972dab56f9)" d="M 73.832727 188.784931 
L 74.644364 188.390576 
L 75.456 188.176689 
L 76.267636 187.75894 
L 77.890909 187.598524 
L 80.325818 187.107252 
L 81.137455 187.057122 
L 83.572364 186.306288 
L 84.384 186.319656 
L 85.195636 186.102427 
L 86.818909 186.025561 
L 87.630545 185.734808 
L 89.253818 185.718098 
L 90.065455 185.312603 
L 90.877091 185.319287 
L 92.500364 185.155529 
L 93.312 185.422889 
L 95.746909 184.617469 
L 96.558545 184.286612 
L 98.181818 184.129538 
L 99.805091 183.564742 
L 100.616727 183.574768 
L 102.24 183.197123 
L 103.863273 182.790514 
L 105.486545 182.131028 
L 106.298182 181.839161 
L 107.109818 181.254313 
L 107.921455 181.033741 
L 109.544727 180.906746 
L 110.356364 181.025943 
L 111.168 181.009233 
L 111.979636 181.129545 
L 112.791273 180.761926 
L 114.414545 180.471173 
L 115.226182 180.482313 
L 116.037818 180.285135 
L 116.849455 180.275109 
L 117.661091 180.071248 
L 118.472727 180.325239 
L 119.284364 180.100371 
L 120.096 179.685964 
L 120.907636 179.759488 
L 122.530909 179.664798 
L 123.342545 179.766013 
L 124.154182 179.669095 
L 124.965818 179.733548 
L 125.777455 179.516319 
L 126.589091 179.497938 
L 128.212364 179.023375 
L 129.024 178.893037 
L 129.835636 178.453009 
L 130.647273 178.321557 
L 131.458909 178.484041 
L 132.270545 178.267926 
L 133.893818 177.637961 
L 134.705455 177.807288 
L 135.517091 177.272165 
L 136.328727 177.367968 
L 137.140364 177.005919 
L 138.763636 176.882266 
L 139.575273 176.4677 
L 140.386909 176.50112 
L 141.198545 176.380808 
L 142.010182 175.759198 
L 142.821818 175.533375 
L 143.633455 175.502342 
L 146.068364 174.664617 
L 146.88 174.736867 
L 147.691636 174.168888 
L 148.503273 173.772464 
L 149.314909 173.729973 
L 150.126545 173.45036 
L 151.749818 173.398448 
L 152.561455 173.095998 
L 153.373091 172.623663 
L 154.184727 172.456563 
L 154.996364 172.119579 
L 155.808 172.061811 
L 156.619636 171.837897 
L 158.242909 170.532081 
L 159.054545 170.232416 
L 160.677818 170.331402 
L 161.489455 170.055131 
L 163.924364 168.760349 
L 164.736 168.911088 
L 170.417455 166.523395 
L 171.229091 166.421363 
L 172.040727 166.168486 
L 172.852364 166.563955 
L 173.664 166.368289 
L 174.475636 166.035523 
L 175.287273 165.928579 
L 176.098909 165.631513 
L 176.910545 165.787153 
L 178.533818 165.1474 
L 179.345455 164.917081 
L 181.780364 164.70059 
L 183.403636 163.771246 
L 184.215273 163.608443 
L 185.838545 164.169479 
L 186.650182 164.041763 
L 187.461818 164.23627 
L 188.273455 164.294464 
L 189.085091 163.67162 
L 189.896727 163.452004 
L 190.708364 162.919672 
L 192.331636 162.72468 
L 193.954909 163.193006 
L 194.766545 162.447344 
L 195.578182 162.20505 
L 198.013091 159.982323 
L 198.824727 159.873438 
L 199.636364 160.158939 
L 201.259636 159.644551 
L 202.071273 158.915357 
L 202.882909 158.468094 
L 203.694545 158.233745 
L 204.506182 157.779977 
L 205.317818 157.626922 
L 206.129455 156.616166 
L 206.941091 156.555055 
L 207.752727 156.217254 
L 208.564364 156.499143 
L 209.376 156.383305 
L 210.187636 156.532683 
L 210.999273 156.264564 
L 211.810909 156.405858 
L 212.622545 156.394691 
L 213.434182 155.905747 
L 214.245818 156.3798 
L 215.057455 155.760959 
L 215.869091 155.639803 
L 216.680727 154.586555 
L 217.492364 153.746041 
L 218.304 153.084597 
L 219.115636 153.186793 
L 219.927273 152.642608 
L 220.738909 152.28846 
L 221.550545 152.17722 
L 223.173818 151.169752 
L 223.985455 150.291803 
L 224.797091 149.845727 
L 226.420364 149.283068 
L 227.232 148.561079 
L 228.043636 148.508555 
L 228.855273 148.865346 
L 229.666909 149.628826 
L 230.478545 149.601067 
L 232.101818 148.8684 
L 232.913455 147.241756 
L 234.536727 145.547815 
L 235.348364 145.093434 
L 236.971636 144.75655 
L 238.594909 145.30306 
L 240.218182 144.452506 
L 241.029818 144.32558 
L 241.841455 144.813206 
L 242.653091 144.861652 
L 243.464727 144.725445 
L 244.276364 145.308627 
L 245.899636 145.200707 
L 246.711273 144.6129 
L 247.522909 144.588511 
L 248.334545 144.44987 
L 249.146182 143.9958 
L 249.957818 143.68105 
L 250.769455 143.168691 
L 251.581091 143.048126 
L 252.392727 142.53686 
L 253.204364 141.810917 
L 254.016 141.319794 
L 254.827636 141.232254 
L 255.639273 140.076236 
L 256.450909 139.556668 
L 257.262545 139.520444 
L 258.074182 138.535928 
L 258.885818 138.538219 
L 259.697455 138.322461 
L 260.509091 137.815702 
L 262.132364 138.217263 
L 262.944 137.930853 
L 263.755636 136.860884 
L 264.567273 136.088807 
L 265.378909 136.047288 
L 266.190545 136.220267 
L 267.002182 135.988579 
L 267.813818 134.593171 
L 268.625455 134.651782 
L 269.437091 133.899944 
L 270.248727 134.687548 
L 271.060364 134.68451 
L 271.872 134.192984 
L 272.683636 134.358016 
L 273.495273 133.758144 
L 274.306909 133.422756 
L 275.118545 132.394172 
L 275.930182 131.914631 
L 276.741818 132.382841 
L 277.553455 131.87353 
L 278.365091 130.959257 
L 279.176727 130.920113 
L 279.988364 130.557027 
L 280.8 130.688078 
L 282.423273 130.222673 
L 283.234909 131.29739 
L 284.046545 130.387258 
L 284.858182 130.177706 
L 285.669818 130.250753 
L 286.481455 131.214052 
L 287.293091 131.503468 
L 288.104727 130.581865 
L 288.916364 130.238664 
L 289.728 129.754191 
L 290.539636 130.209062 
L 291.351273 130.416205 
L 292.162909 130.167613 
L 292.974545 128.522424 
L 293.786182 129.014304 
L 294.597818 128.16408 
L 295.409455 127.740881 
L 296.221091 128.270072 
L 297.032727 129.394917 
L 297.844364 128.915708 
L 298.656 129.279826 
L 299.467636 129.893191 
L 300.279273 129.250214 
L 301.090909 128.291583 
L 301.902545 127.885112 
L 302.714182 126.148989 
L 303.525818 125.851196 
L 305.149091 126.968448 
L 305.960727 126.416469 
L 306.772364 125.713871 
L 307.584 125.715117 
L 308.395636 124.054804 
L 309.207273 124.04164 
L 310.018909 124.694517 
L 310.830545 125.074376 
L 311.642182 126.331092 
L 312.453818 125.306986 
L 313.265455 126.202432 
L 314.077091 124.858888 
L 314.888727 124.081821 
L 315.700364 122.053776 
L 316.512 120.985773 
L 317.323636 122.318779 
L 318.135273 121.585595 
L 318.946909 121.65781 
L 319.758545 119.47514 
L 320.570182 120.355226 
L 321.381818 118.648553 
L 322.193455 118.415401 
L 323.005091 121.958923 
L 323.816727 121.905662 
L 324.628364 120.48536 
L 325.44 122.159893 
L 326.251636 120.389011 
L 327.063273 120.606717 
L 327.874909 121.489694 
L 328.686545 123.706252 
L 329.498182 122.601985 
L 331.121455 119.735016 
L 331.933091 122.525946 
L 332.744727 124.443545 
L 334.368 126.471597 
L 335.179636 126.311825 
L 335.991273 125.284396 
L 336.802909 122.378336 
L 337.614545 122.757905 
L 338.426182 123.268498 
L 339.237818 125.233658 
L 340.049455 122.251743 
L 340.861091 121.939418 
L 341.672727 123.376047 
L 342.484364 123.90087 
L 343.296 122.339476 
L 344.107636 122.090582 
L 345.730909 119.488806 
L 346.542545 120.27551 
L 348.165818 116.979251 
L 348.977455 117.507661 
L 349.789091 117.00372 
L 350.600727 118.244462 
L 351.412364 114.445532 
L 352.224 122.880396 
L 353.035636 123.058337 
L 353.847273 123.652476 
L 354.658909 121.246714 
L 355.470545 122.533077 
L 356.282182 121.904672 
L 357.093818 122.251622 
L 357.905455 116.68949 
L 358.717091 116.419389 
L 359.528727 115.309023 
L 360.340364 120.513429 
L 361.152 116.525361 
L 361.963636 118.54379 
L 362.775273 128.065104 
L 363.586909 128.950028 
L 364.398545 128.643372 
L 366.021818 146.746618 
L 366.833455 146.680243 
L 367.645091 145.575994 
L 368.456727 148.526295 
L 369.268364 144.293721 
L 370.08 146.552939 
L 370.891636 145.98881 
L 371.703273 156.995583 
L 372.514909 181.387497 
L 373.326545 198.745107 
L 374.138182 194.341092 
L 374.949818 165.261235 
L 375.761455 202.492313 
L 376.573091 204.664607 
L 377.384727 205.309288 
L 378.196364 189.717046 
L 379.008 189.717046 
L 379.819636 210.136607 
L 380.631273 244.839107 
L 381.442909 197.917562 
L 382.254545 233.190342 
L 383.066182 191.136093 
L 383.877818 236.992124 
L 384.689455 233.015978 
L 385.501091 220.464948 
L 387.124364 220.464948 
L 387.936 146.252533 
L 388.747636 192.5948 
L 390.370909 192.5948 
L 391.182545 210.697248 
L 391.994182 217.214129 
L 392.805818 217.214129 
L 393.617455 204.180367 
L 395.240727 204.180367 
L 396.052364 199.440817 
L 396.864 199.440817 
L 397.675636 225.508342 
L 398.487273 225.508342 
L 398.487273 225.508342 
" style="fill:none;stroke:#a9678f;stroke-linecap:round;stroke-width:1.5;"/>
   </g>
   <g id="line2d_17">
    <path clip-path="url(#p972dab56f9)" d="M 73.832727 100.95074 
L 75.456 100.549701 
L 76.267636 100.506255 
L 77.079273 100.342497 
L 77.890909 100.402653 
L 78.702545 100.168714 
L 79.514182 100.168714 
L 81.949091 99.891329 
L 82.760727 99.44016 
L 83.572364 99.256351 
L 84.384 99.229615 
L 85.195636 98.965597 
L 86.007273 98.85197 
L 86.818909 98.945545 
L 89.253818 98.511087 
L 90.065455 98.223676 
L 90.877091 98.153494 
L 91.688727 97.869425 
L 98.181818 96.937009 
L 98.993455 96.542654 
L 100.616727 96.408975 
L 101.428364 96.342135 
L 102.24 96.148299 
L 103.051636 96.201771 
L 103.863273 95.957806 
L 104.674909 95.977858 
L 105.486545 95.710499 
L 106.298182 95.620265 
L 107.109818 95.790707 
L 107.921455 95.526689 
L 109.544727 95.570135 
L 111.979636 94.891711 
L 114.414545 94.397097 
L 116.849455 93.615071 
L 117.661091 93.544889 
L 118.472727 93.357738 
L 119.284364 93.36108 
L 120.096 93.010171 
L 123.342545 92.351798 
L 124.154182 92.091123 
L 124.965818 91.97845 
L 125.777455 91.657619 
L 127.400727 91.443732 
L 128.212364 91.233186 
L 129.024 91.144067 
L 129.835636 91.170803 
L 131.458909 90.592638 
L 133.082182 90.168206 
L 136.328727 90.067548 
L 137.140364 89.703271 
L 139.575273 89.386896 
L 140.386909 89.179693 
L 141.198545 89.273268 
L 142.821818 89.072749 
L 143.633455 89.003822 
L 144.445091 88.708211 
L 145.256727 88.694774 
L 146.068364 88.499939 
L 146.88 88.634308 
L 147.691636 88.620871 
L 148.503273 88.726126 
L 150.126545 88.521214 
L 150.938182 88.551447 
L 151.749818 88.262554 
L 153.373091 87.869526 
L 154.996364 87.563837 
L 155.808 87.521847 
L 156.619636 87.212799 
L 157.431273 87.20944 
L 158.242909 86.974295 
L 159.054545 87.13838 
L 161.489455 86.407904 
L 165.547636 85.910872 
L 166.359273 85.495647 
L 167.982545 85.149438 
L 168.794182 85.356484 
L 171.229091 84.664066 
L 173.664 83.922997 
L 174.475636 83.865295 
L 175.287273 83.352608 
L 178.533818 82.724679 
L 179.345455 83.158252 
L 181.780364 82.37307 
L 182.592 82.246827 
L 184.215273 82.190992 
L 185.838545 81.833135 
L 186.650182 81.915453 
L 188.273455 81.533015 
L 189.085091 81.199332 
L 190.708364 81.475785 
L 191.52 81.012439 
L 192.331636 81.084078 
L 193.143273 80.705949 
L 194.766545 80.515296 
L 195.578182 80.624549 
L 197.201455 80.483768 
L 198.013091 80.311289 
L 198.824727 80.514405 
L 199.636364 80.502524 
L 200.448 80.251875 
L 201.259636 79.840222 
L 202.071273 79.560927 
L 202.882909 79.535311 
L 203.694545 79.164461 
L 204.506182 79.293905 
L 206.129455 78.916484 
L 206.941091 78.501442 
L 207.752727 78.49141 
L 208.564364 78.264417 
L 209.376 77.877554 
L 212.622545 77.262303 
L 213.434182 77.246443 
L 214.245818 77.481742 
L 215.869091 77.526421 
L 216.680727 77.115334 
L 218.304 77.47005 
L 219.115636 77.051335 
L 219.927273 76.860932 
L 221.550545 77.03176 
L 223.173818 76.559986 
L 223.985455 76.484022 
L 224.797091 76.062292 
L 225.608727 76.203904 
L 226.420364 76.146523 
L 227.232 76.215675 
L 228.043636 75.94243 
L 228.855273 76.063418 
L 229.666909 75.781235 
L 230.478545 75.768783 
L 231.290182 75.593606 
L 232.913455 75.541114 
L 234.536727 75.222584 
L 235.348364 75.65009 
L 236.16 75.49936 
L 237.783273 75.57087 
L 238.594909 75.54157 
L 240.218182 75.849746 
L 241.841455 75.534798 
L 242.653091 75.644577 
L 243.464727 75.634547 
L 244.276364 74.866519 
L 245.088 74.832446 
L 245.899636 75.276084 
L 246.711273 74.929275 
L 247.522909 75.351391 
L 249.146182 75.504603 
L 249.957818 75.482339 
L 251.581091 74.902903 
L 253.204364 74.096706 
L 255.639273 73.375206 
L 256.450909 73.334333 
L 257.262545 73.17667 
L 258.074182 73.450754 
L 259.697455 73.342253 
L 261.320727 73.376278 
L 262.944 73.321573 
L 263.755636 73.471036 
L 264.567273 73.481184 
L 265.378909 73.175061 
L 266.190545 73.094406 
L 267.002182 71.738652 
L 267.813818 71.876736 
L 268.625455 72.27655 
L 269.437091 71.604282 
L 271.060364 72.149921 
L 271.872 72.008249 
L 272.683636 72.077707 
L 274.306909 72.817379 
L 275.118545 72.931045 
L 275.930182 72.522492 
L 276.741818 71.971496 
L 278.365091 71.261028 
L 279.176727 71.281882 
L 279.988364 70.880255 
L 280.8 70.302027 
L 281.611636 70.797166 
L 282.423273 70.583594 
L 283.234909 70.893442 
L 284.046545 70.889888 
L 284.858182 71.745092 
L 285.669818 71.90704 
L 286.481455 71.596256 
L 287.293091 71.862013 
L 288.104727 71.601058 
L 288.916364 70.719933 
L 289.728 70.283212 
L 290.539636 70.190248 
L 291.351273 69.207374 
L 292.162909 68.998165 
L 292.974545 69.082964 
L 293.786182 70.50919 
L 294.597818 69.227156 
L 295.409455 69.074686 
L 296.221091 69.552462 
L 297.032727 70.391566 
L 297.844364 70.31779 
L 299.467636 69.832098 
L 300.279273 69.317726 
L 301.090909 69.191757 
L 301.902545 70.236475 
L 302.714182 68.729447 
L 303.525818 68.168917 
L 304.337455 68.226653 
L 305.149091 68.528443 
L 305.960727 67.419211 
L 306.772364 67.594811 
L 308.395636 66.697377 
L 309.207273 67.317289 
L 310.018909 66.795939 
L 310.830545 67.163173 
L 311.642182 66.531233 
L 312.453818 66.121724 
L 313.265455 66.269712 
L 314.077091 66.107378 
L 314.888727 67.181041 
L 315.700364 67.181041 
L 317.323636 67.55423 
L 318.135273 68.50252 
L 318.946909 68.783501 
L 319.758545 68.783501 
L 320.570182 68.44349 
L 321.381818 69.238137 
L 322.193455 68.527205 
L 323.005091 68.401663 
L 323.816727 68.621996 
L 324.628364 69.139916 
L 326.251636 67.061778 
L 327.063273 63.880006 
L 328.686545 64.786346 
L 329.498182 67.203321 
L 330.309818 66.902542 
L 331.121455 62.942283 
L 331.933091 60.302111 
L 332.744727 60.914303 
L 333.556364 60.20337 
L 334.368 60.866907 
L 335.179636 60.866907 
L 335.991273 59.824206 
L 336.802909 59.940062 
L 337.614545 60.736569 
L 339.237818 60.736569 
L 340.049455 59.759037 
L 340.861091 59.898685 
L 341.672727 60.953799 
L 342.484364 60.953799 
L 343.296 59.215964 
L 344.107636 62.039946 
L 344.919273 62.039946 
L 345.730909 63.343322 
L 346.542545 62.039946 
L 348.165818 62.039946 
L 348.977455 60.084881 
L 350.600727 73.118644 
L 352.224 73.118644 
L 353.035636 63.99501 
L 354.658909 63.99501 
L 355.470545 58.781505 
L 356.282182 63.99501 
L 370.891636 63.99501 
L 371.703273 53.568 
L 371.703273 53.568 
" style="fill:none;stroke:#2d1e3e;stroke-linecap:round;stroke-width:1.5;"/>
   </g>
   <g id="line2d_18"/>
   <g id="line2d_19"/>
   <g id="line2d_20"/>
   <g id="patch_3">
    <path d="M 57.6 307.584 
L 57.6 41.472 
" style="fill:none;stroke:#cccccc;stroke-linecap:square;stroke-linejoin:miter;stroke-width:0.8;"/>
   </g>
   <g id="patch_4">
    <path d="M 414.72 307.584 
L 414.72 41.472 
" style="fill:none;stroke:#cccccc;stroke-linecap:square;stroke-linejoin:miter;stroke-width:0.8;"/>
   </g>
   <g id="patch_5">
    <path d="M 57.6 307.584 
L 414.72 307.584 
" style="fill:none;stroke:#cccccc;stroke-linecap:square;stroke-linejoin:miter;stroke-width:0.8;"/>
   </g>
   <g id="patch_6">
    <path d="M 57.6 41.472 
L 414.72 41.472 
" style="fill:none;stroke:#cccccc;stroke-linecap:square;stroke-linejoin:miter;stroke-width:0.8;"/>
   </g>
   <g id="legend_1">
    <g id="patch_7">
     <path d="M 363.152 60.296738 
L 409.052 60.296738 
Q 411.052 60.296738 411.052 58.296738 
L 411.052 16.8608 
Q 411.052 14.8608 409.052 14.8608 
L 363.152 14.8608 
Q 361.152 14.8608 361.152 16.8608 
L 361.152 58.296738 
Q 361.152 60.296738 363.152 60.296738 
z
" style="fill:#ffffff;opacity:0.8;stroke:#cccccc;stroke-linejoin:miter;"/>
    </g>
    <g id="line2d_21">
     <path d="M 365.152 22.518613 
L 385.152 22.518613 
" style="fill:none;stroke:#edd1cb;stroke-linecap:round;stroke-width:1.5;"/>
    </g>
    <g id="line2d_22"/>
    <g id="text_17">
     <!-- 0.0 -->
     <g style="fill:#262626;" transform="translate(393.152 26.018613)scale(0.1 -0.1)">
      <use xlink:href="#ArialMT-48"/>
      <use x="55.615234" xlink:href="#ArialMT-46"/>
      <use x="83.398438" xlink:href="#ArialMT-48"/>
     </g>
    </g>
    <g id="line2d_23">
     <path d="M 365.152 36.663925 
L 385.152 36.663925 
" style="fill:none;stroke:#a9678f;stroke-linecap:round;stroke-width:1.5;"/>
    </g>
    <g id="line2d_24"/>
    <g id="text_18">
     <!-- 0.2 -->
     <g style="fill:#262626;" transform="translate(393.152 40.163925)scale(0.1 -0.1)">
      <use xlink:href="#ArialMT-48"/>
      <use x="55.615234" xlink:href="#ArialMT-46"/>
      <use x="83.398438" xlink:href="#ArialMT-50"/>
     </g>
    </g>
    <g id="line2d_25">
     <path d="M 365.152 50.809237 
L 385.152 50.809237 
" style="fill:none;stroke:#2d1e3e;stroke-linecap:round;stroke-width:1.5;"/>
    </g>
    <g id="line2d_26"/>
    <g id="text_19">
     <!-- 0.4 -->
     <g style="fill:#262626;" transform="translate(393.152 54.309237)scale(0.1 -0.1)">
      <use xlink:href="#ArialMT-48"/>
      <use x="55.615234" xlink:href="#ArialMT-46"/>
      <use x="83.398438" xlink:href="#ArialMT-52"/>
     </g>
    </g>
   </g>
  </g>
 </g>
 <defs>
  <clipPath id="p972dab56f9">
   <rect height="266.112" width="357.12" x="57.6" y="41.472"/>
  </clipPath>
 </defs>
</svg>
