<?xml version="1.0" encoding="utf-8" standalone="no"?>
<!DOCTYPE svg PUBLIC "-//W3C//DTD SVG 1.1//EN"
  "http://www.w3.org/Graphics/SVG/1.1/DTD/svg11.dtd">
<!-- Created with matplotlib (https://matplotlib.org/) -->
<svg height="448.56pt" version="1.1" viewBox="0 0 779.76 448.56" width="779.76pt" xmlns="http://www.w3.org/2000/svg" xmlns:xlink="http://www.w3.org/1999/xlink">
 <metadata>
  <rdf:RDF xmlns:cc="http://creativecommons.org/ns#" xmlns:dc="http://purl.org/dc/elements/1.1/" xmlns:rdf="http://www.w3.org/1999/02/22-rdf-syntax-ns#">
   <cc:Work>
    <dc:type rdf:resource="http://purl.org/dc/dcmitype/StillImage"/>
    <dc:date>2021-03-07T17:39:37.864841</dc:date>
    <dc:format>image/svg+xml</dc:format>
    <dc:creator>
     <cc:Agent>
      <dc:title>Matplotlib v3.3.3, https://matplotlib.org/</dc:title>
     </cc:Agent>
    </dc:creator>
   </cc:Work>
  </rdf:RDF>
 </metadata>
 <defs>
  <style type="text/css">*{stroke-linecap:butt;stroke-linejoin:round;}</style>
 </defs>
 <g id="figure_1">
  <g id="patch_1">
   <path d="M 0 448.56 
L 779.76 448.56 
L 779.76 0 
L 0 0 
z
" style="fill:none;"/>
  </g>
  <g id="axes_1">
   <g id="patch_2">
    <path d="M 97.47 399.2184 
L 701.784 399.2184 
L 701.784 53.8272 
L 97.47 53.8272 
z
" style="fill:none;"/>
   </g>
   <g id="matplotlib.axis_1">
    <g id="xtick_1">
     <g id="line2d_1">
      <path clip-path="url(#p54df226806)" d="M 124.938818 399.2184 
L 124.938818 53.8272 
" style="fill:none;stroke:#cccccc;stroke-linecap:round;stroke-width:0.8;"/>
     </g>
     <g id="text_1">
      <!-- 0 -->
      <g style="fill:#262626;" transform="translate(122.158349 413.376213)scale(0.1 -0.1)">
       <defs>
        <path d="M 4.15625 35.296875 
Q 4.15625 48 6.765625 55.734375 
Q 9.375 63.484375 14.515625 67.671875 
Q 19.671875 71.875 27.484375 71.875 
Q 33.25 71.875 37.59375 69.546875 
Q 41.9375 67.234375 44.765625 62.859375 
Q 47.609375 58.5 49.21875 52.21875 
Q 50.828125 45.953125 50.828125 35.296875 
Q 50.828125 22.703125 48.234375 14.96875 
Q 45.65625 7.234375 40.5 3 
Q 35.359375 -1.21875 27.484375 -1.21875 
Q 17.140625 -1.21875 11.234375 6.203125 
Q 4.15625 15.140625 4.15625 35.296875 
z
M 13.1875 35.296875 
Q 13.1875 17.671875 17.3125 11.828125 
Q 21.4375 6 27.484375 6 
Q 33.546875 6 37.671875 11.859375 
Q 41.796875 17.71875 41.796875 35.296875 
Q 41.796875 52.984375 37.671875 58.78125 
Q 33.546875 64.59375 27.390625 64.59375 
Q 21.34375 64.59375 17.71875 59.46875 
Q 13.1875 52.9375 13.1875 35.296875 
z
" id="ArialMT-48"/>
       </defs>
       <use xlink:href="#ArialMT-48"/>
      </g>
     </g>
    </g>
    <g id="xtick_2">
     <g id="line2d_2">
      <path clip-path="url(#p54df226806)" d="M 193.610864 399.2184 
L 193.610864 53.8272 
" style="fill:none;stroke:#cccccc;stroke-linecap:round;stroke-width:0.8;"/>
     </g>
     <g id="text_2">
      <!-- 50 -->
      <g style="fill:#262626;" transform="translate(188.049926 413.376213)scale(0.1 -0.1)">
       <defs>
        <path d="M 4.15625 18.75 
L 13.375 19.53125 
Q 14.40625 12.796875 18.140625 9.390625 
Q 21.875 6 27.15625 6 
Q 33.5 6 37.890625 10.78125 
Q 42.28125 15.578125 42.28125 23.484375 
Q 42.28125 31 38.0625 35.34375 
Q 33.84375 39.703125 27 39.703125 
Q 22.75 39.703125 19.328125 37.765625 
Q 15.921875 35.84375 13.96875 32.765625 
L 5.71875 33.84375 
L 12.640625 70.609375 
L 48.25 70.609375 
L 48.25 62.203125 
L 19.671875 62.203125 
L 15.828125 42.96875 
Q 22.265625 47.46875 29.34375 47.46875 
Q 38.71875 47.46875 45.15625 40.96875 
Q 51.609375 34.46875 51.609375 24.265625 
Q 51.609375 14.546875 45.953125 7.46875 
Q 39.0625 -1.21875 27.15625 -1.21875 
Q 17.390625 -1.21875 11.203125 4.25 
Q 5.03125 9.71875 4.15625 18.75 
z
" id="ArialMT-53"/>
       </defs>
       <use xlink:href="#ArialMT-53"/>
       <use x="55.615234" xlink:href="#ArialMT-48"/>
      </g>
     </g>
    </g>
    <g id="xtick_3">
     <g id="line2d_3">
      <path clip-path="url(#p54df226806)" d="M 262.282909 399.2184 
L 262.282909 53.8272 
" style="fill:none;stroke:#cccccc;stroke-linecap:round;stroke-width:0.8;"/>
     </g>
     <g id="text_3">
      <!-- 100 -->
      <g style="fill:#262626;" transform="translate(253.941503 413.376213)scale(0.1 -0.1)">
       <defs>
        <path d="M 37.25 0 
L 28.46875 0 
L 28.46875 56 
Q 25.296875 52.984375 20.140625 49.953125 
Q 14.984375 46.921875 10.890625 45.40625 
L 10.890625 53.90625 
Q 18.265625 57.375 23.78125 62.296875 
Q 29.296875 67.234375 31.59375 71.875 
L 37.25 71.875 
z
" id="ArialMT-49"/>
       </defs>
       <use xlink:href="#ArialMT-49"/>
       <use x="55.615234" xlink:href="#ArialMT-48"/>
       <use x="111.230469" xlink:href="#ArialMT-48"/>
      </g>
     </g>
    </g>
    <g id="xtick_4">
     <g id="line2d_4">
      <path clip-path="url(#p54df226806)" d="M 330.954955 399.2184 
L 330.954955 53.8272 
" style="fill:none;stroke:#cccccc;stroke-linecap:round;stroke-width:0.8;"/>
     </g>
     <g id="text_4">
      <!-- 150 -->
      <g style="fill:#262626;" transform="translate(322.613548 413.376213)scale(0.1 -0.1)">
       <use xlink:href="#ArialMT-49"/>
       <use x="55.615234" xlink:href="#ArialMT-53"/>
       <use x="111.230469" xlink:href="#ArialMT-48"/>
      </g>
     </g>
    </g>
    <g id="xtick_5">
     <g id="line2d_5">
      <path clip-path="url(#p54df226806)" d="M 399.627 399.2184 
L 399.627 53.8272 
" style="fill:none;stroke:#cccccc;stroke-linecap:round;stroke-width:0.8;"/>
     </g>
     <g id="text_5">
      <!-- 200 -->
      <g style="fill:#262626;" transform="translate(391.285594 413.376213)scale(0.1 -0.1)">
       <defs>
        <path d="M 50.34375 8.453125 
L 50.34375 0 
L 3.03125 0 
Q 2.9375 3.171875 4.046875 6.109375 
Q 5.859375 10.9375 9.828125 15.625 
Q 13.8125 20.3125 21.34375 26.46875 
Q 33.015625 36.03125 37.109375 41.625 
Q 41.21875 47.21875 41.21875 52.203125 
Q 41.21875 57.421875 37.46875 61 
Q 33.734375 64.59375 27.734375 64.59375 
Q 21.390625 64.59375 17.578125 60.78125 
Q 13.765625 56.984375 13.71875 50.25 
L 4.6875 51.171875 
Q 5.609375 61.28125 11.65625 66.578125 
Q 17.71875 71.875 27.9375 71.875 
Q 38.234375 71.875 44.234375 66.15625 
Q 50.25 60.453125 50.25 52 
Q 50.25 47.703125 48.484375 43.546875 
Q 46.734375 39.40625 42.65625 34.8125 
Q 38.578125 30.21875 29.109375 22.21875 
Q 21.1875 15.578125 18.9375 13.203125 
Q 16.703125 10.84375 15.234375 8.453125 
z
" id="ArialMT-50"/>
       </defs>
       <use xlink:href="#ArialMT-50"/>
       <use x="55.615234" xlink:href="#ArialMT-48"/>
       <use x="111.230469" xlink:href="#ArialMT-48"/>
      </g>
     </g>
    </g>
    <g id="xtick_6">
     <g id="line2d_6">
      <path clip-path="url(#p54df226806)" d="M 468.299045 399.2184 
L 468.299045 53.8272 
" style="fill:none;stroke:#cccccc;stroke-linecap:round;stroke-width:0.8;"/>
     </g>
     <g id="text_6">
      <!-- 250 -->
      <g style="fill:#262626;" transform="translate(459.957639 413.376213)scale(0.1 -0.1)">
       <use xlink:href="#ArialMT-50"/>
       <use x="55.615234" xlink:href="#ArialMT-53"/>
       <use x="111.230469" xlink:href="#ArialMT-48"/>
      </g>
     </g>
    </g>
    <g id="xtick_7">
     <g id="line2d_7">
      <path clip-path="url(#p54df226806)" d="M 536.971091 399.2184 
L 536.971091 53.8272 
" style="fill:none;stroke:#cccccc;stroke-linecap:round;stroke-width:0.8;"/>
     </g>
     <g id="text_7">
      <!-- 300 -->
      <g style="fill:#262626;" transform="translate(528.629685 413.376213)scale(0.1 -0.1)">
       <defs>
        <path d="M 4.203125 18.890625 
L 12.984375 20.0625 
Q 14.5 12.59375 18.140625 9.296875 
Q 21.78125 6 27 6 
Q 33.203125 6 37.46875 10.296875 
Q 41.75 14.59375 41.75 20.953125 
Q 41.75 27 37.796875 30.921875 
Q 33.84375 34.859375 27.734375 34.859375 
Q 25.25 34.859375 21.53125 33.890625 
L 22.515625 41.609375 
Q 23.390625 41.5 23.921875 41.5 
Q 29.546875 41.5 34.03125 44.421875 
Q 38.53125 47.359375 38.53125 53.46875 
Q 38.53125 58.296875 35.25 61.46875 
Q 31.984375 64.65625 26.8125 64.65625 
Q 21.6875 64.65625 18.265625 61.421875 
Q 14.84375 58.203125 13.875 51.765625 
L 5.078125 53.328125 
Q 6.6875 62.15625 12.390625 67.015625 
Q 18.109375 71.875 26.609375 71.875 
Q 32.46875 71.875 37.390625 69.359375 
Q 42.328125 66.84375 44.9375 62.5 
Q 47.5625 58.15625 47.5625 53.265625 
Q 47.5625 48.640625 45.0625 44.828125 
Q 42.578125 41.015625 37.703125 38.765625 
Q 44.046875 37.3125 47.5625 32.6875 
Q 51.078125 28.078125 51.078125 21.140625 
Q 51.078125 11.765625 44.234375 5.25 
Q 37.40625 -1.265625 26.953125 -1.265625 
Q 17.53125 -1.265625 11.296875 4.34375 
Q 5.078125 9.96875 4.203125 18.890625 
z
" id="ArialMT-51"/>
       </defs>
       <use xlink:href="#ArialMT-51"/>
       <use x="55.615234" xlink:href="#ArialMT-48"/>
       <use x="111.230469" xlink:href="#ArialMT-48"/>
      </g>
     </g>
    </g>
    <g id="xtick_8">
     <g id="line2d_8">
      <path clip-path="url(#p54df226806)" d="M 605.643136 399.2184 
L 605.643136 53.8272 
" style="fill:none;stroke:#cccccc;stroke-linecap:round;stroke-width:0.8;"/>
     </g>
     <g id="text_8">
      <!-- 350 -->
      <g style="fill:#262626;" transform="translate(597.30173 413.376213)scale(0.1 -0.1)">
       <use xlink:href="#ArialMT-51"/>
       <use x="55.615234" xlink:href="#ArialMT-53"/>
       <use x="111.230469" xlink:href="#ArialMT-48"/>
      </g>
     </g>
    </g>
    <g id="xtick_9">
     <g id="line2d_9">
      <path clip-path="url(#p54df226806)" d="M 674.315182 399.2184 
L 674.315182 53.8272 
" style="fill:none;stroke:#cccccc;stroke-linecap:round;stroke-width:0.8;"/>
     </g>
     <g id="text_9">
      <!-- 400 -->
      <g style="fill:#262626;" transform="translate(665.973776 413.376213)scale(0.1 -0.1)">
       <defs>
        <path d="M 32.328125 0 
L 32.328125 17.140625 
L 1.265625 17.140625 
L 1.265625 25.203125 
L 33.9375 71.578125 
L 41.109375 71.578125 
L 41.109375 25.203125 
L 50.78125 25.203125 
L 50.78125 17.140625 
L 41.109375 17.140625 
L 41.109375 0 
z
M 32.328125 25.203125 
L 32.328125 57.46875 
L 9.90625 25.203125 
z
" id="ArialMT-52"/>
       </defs>
       <use xlink:href="#ArialMT-52"/>
       <use x="55.615234" xlink:href="#ArialMT-48"/>
       <use x="111.230469" xlink:href="#ArialMT-48"/>
      </g>
     </g>
    </g>
    <g id="text_10">
     <!-- unstables -->
     <g style="fill:#262626;" transform="translate(378.224656 426.521525)scale(0.1 -0.1)">
      <defs>
       <path d="M 40.578125 0 
L 40.578125 7.625 
Q 34.515625 -1.171875 24.125 -1.171875 
Q 19.53125 -1.171875 15.546875 0.578125 
Q 11.578125 2.34375 9.640625 5 
Q 7.71875 7.671875 6.9375 11.53125 
Q 6.390625 14.109375 6.390625 19.734375 
L 6.390625 51.859375 
L 15.1875 51.859375 
L 15.1875 23.09375 
Q 15.1875 16.21875 15.71875 13.8125 
Q 16.546875 10.359375 19.234375 8.375 
Q 21.921875 6.390625 25.875 6.390625 
Q 29.828125 6.390625 33.296875 8.421875 
Q 36.765625 10.453125 38.203125 13.9375 
Q 39.65625 17.4375 39.65625 24.078125 
L 39.65625 51.859375 
L 48.4375 51.859375 
L 48.4375 0 
z
" id="ArialMT-117"/>
       <path d="M 6.59375 0 
L 6.59375 51.859375 
L 14.5 51.859375 
L 14.5 44.484375 
Q 20.21875 53.03125 31 53.03125 
Q 35.6875 53.03125 39.625 51.34375 
Q 43.5625 49.65625 45.515625 46.921875 
Q 47.46875 44.1875 48.25 40.4375 
Q 48.734375 37.984375 48.734375 31.890625 
L 48.734375 0 
L 39.9375 0 
L 39.9375 31.546875 
Q 39.9375 36.921875 38.90625 39.578125 
Q 37.890625 42.234375 35.28125 43.8125 
Q 32.671875 45.40625 29.15625 45.40625 
Q 23.53125 45.40625 19.453125 41.84375 
Q 15.375 38.28125 15.375 28.328125 
L 15.375 0 
z
" id="ArialMT-110"/>
       <path d="M 3.078125 15.484375 
L 11.765625 16.84375 
Q 12.5 11.625 15.84375 8.84375 
Q 19.1875 6.0625 25.203125 6.0625 
Q 31.25 6.0625 34.171875 8.515625 
Q 37.109375 10.984375 37.109375 14.3125 
Q 37.109375 17.28125 34.515625 19 
Q 32.71875 20.171875 25.53125 21.96875 
Q 15.875 24.421875 12.140625 26.203125 
Q 8.40625 27.984375 6.46875 31.125 
Q 4.546875 34.28125 4.546875 38.09375 
Q 4.546875 41.546875 6.125 44.5 
Q 7.71875 47.46875 10.453125 49.421875 
Q 12.5 50.921875 16.03125 51.96875 
Q 19.578125 53.03125 23.640625 53.03125 
Q 29.734375 53.03125 34.34375 51.265625 
Q 38.96875 49.515625 41.15625 46.5 
Q 43.359375 43.5 44.1875 38.484375 
L 35.59375 37.3125 
Q 35.015625 41.3125 32.203125 43.546875 
Q 29.390625 45.796875 24.265625 45.796875 
Q 18.21875 45.796875 15.625 43.796875 
Q 13.03125 41.796875 13.03125 39.109375 
Q 13.03125 37.40625 14.109375 36.03125 
Q 15.1875 34.625 17.484375 33.6875 
Q 18.796875 33.203125 25.25 31.453125 
Q 34.578125 28.953125 38.25 27.359375 
Q 41.9375 25.78125 44.03125 22.75 
Q 46.140625 19.734375 46.140625 15.234375 
Q 46.140625 10.84375 43.578125 6.953125 
Q 41.015625 3.078125 36.171875 0.953125 
Q 31.34375 -1.171875 25.25 -1.171875 
Q 15.140625 -1.171875 9.84375 3.03125 
Q 4.546875 7.234375 3.078125 15.484375 
z
" id="ArialMT-115"/>
       <path d="M 25.78125 7.859375 
L 27.046875 0.09375 
Q 23.34375 -0.6875 20.40625 -0.6875 
Q 15.625 -0.6875 12.984375 0.828125 
Q 10.359375 2.34375 9.28125 4.8125 
Q 8.203125 7.28125 8.203125 15.1875 
L 8.203125 45.015625 
L 1.765625 45.015625 
L 1.765625 51.859375 
L 8.203125 51.859375 
L 8.203125 64.703125 
L 16.9375 69.96875 
L 16.9375 51.859375 
L 25.78125 51.859375 
L 25.78125 45.015625 
L 16.9375 45.015625 
L 16.9375 14.703125 
Q 16.9375 10.9375 17.40625 9.859375 
Q 17.875 8.796875 18.921875 8.15625 
Q 19.96875 7.515625 21.921875 7.515625 
Q 23.390625 7.515625 25.78125 7.859375 
z
" id="ArialMT-116"/>
       <path d="M 40.4375 6.390625 
Q 35.546875 2.25 31.03125 0.53125 
Q 26.515625 -1.171875 21.34375 -1.171875 
Q 12.796875 -1.171875 8.203125 3 
Q 3.609375 7.171875 3.609375 13.671875 
Q 3.609375 17.484375 5.34375 20.625 
Q 7.078125 23.78125 9.890625 25.6875 
Q 12.703125 27.59375 16.21875 28.5625 
Q 18.796875 29.25 24.03125 29.890625 
Q 34.671875 31.15625 39.703125 32.90625 
Q 39.75 34.71875 39.75 35.203125 
Q 39.75 40.578125 37.25 42.78125 
Q 33.890625 45.75 27.25 45.75 
Q 21.046875 45.75 18.09375 43.578125 
Q 15.140625 41.40625 13.71875 35.890625 
L 5.125 37.0625 
Q 6.296875 42.578125 8.984375 45.96875 
Q 11.671875 49.359375 16.75 51.1875 
Q 21.828125 53.03125 28.515625 53.03125 
Q 35.15625 53.03125 39.296875 51.46875 
Q 43.453125 49.90625 45.40625 47.53125 
Q 47.359375 45.171875 48.140625 41.546875 
Q 48.578125 39.3125 48.578125 33.453125 
L 48.578125 21.734375 
Q 48.578125 9.46875 49.140625 6.21875 
Q 49.703125 2.984375 51.375 0 
L 42.1875 0 
Q 40.828125 2.734375 40.4375 6.390625 
z
M 39.703125 26.03125 
Q 34.90625 24.078125 25.34375 22.703125 
Q 19.921875 21.921875 17.671875 20.9375 
Q 15.4375 19.96875 14.203125 18.09375 
Q 12.984375 16.21875 12.984375 13.921875 
Q 12.984375 10.40625 15.640625 8.0625 
Q 18.3125 5.71875 23.4375 5.71875 
Q 28.515625 5.71875 32.46875 7.9375 
Q 36.421875 10.15625 38.28125 14.015625 
Q 39.703125 17 39.703125 22.796875 
z
" id="ArialMT-97"/>
       <path d="M 14.703125 0 
L 6.546875 0 
L 6.546875 71.578125 
L 15.328125 71.578125 
L 15.328125 46.046875 
Q 20.90625 53.03125 29.546875 53.03125 
Q 34.328125 53.03125 38.59375 51.09375 
Q 42.875 49.171875 45.625 45.671875 
Q 48.390625 42.1875 49.953125 37.25 
Q 51.515625 32.328125 51.515625 26.703125 
Q 51.515625 13.375 44.921875 6.09375 
Q 38.328125 -1.171875 29.109375 -1.171875 
Q 19.921875 -1.171875 14.703125 6.5 
z
M 14.59375 26.3125 
Q 14.59375 17 17.140625 12.84375 
Q 21.296875 6.0625 28.375 6.0625 
Q 34.125 6.0625 38.328125 11.0625 
Q 42.53125 16.0625 42.53125 25.984375 
Q 42.53125 36.140625 38.5 40.96875 
Q 34.46875 45.796875 28.765625 45.796875 
Q 23 45.796875 18.796875 40.796875 
Q 14.59375 35.796875 14.59375 26.3125 
z
" id="ArialMT-98"/>
       <path d="M 6.390625 0 
L 6.390625 71.578125 
L 15.1875 71.578125 
L 15.1875 0 
z
" id="ArialMT-108"/>
       <path d="M 42.09375 16.703125 
L 51.171875 15.578125 
Q 49.03125 7.625 43.21875 3.21875 
Q 37.40625 -1.171875 28.375 -1.171875 
Q 17 -1.171875 10.328125 5.828125 
Q 3.65625 12.84375 3.65625 25.484375 
Q 3.65625 38.578125 10.390625 45.796875 
Q 17.140625 53.03125 27.875 53.03125 
Q 38.28125 53.03125 44.875 45.953125 
Q 51.46875 38.875 51.46875 26.03125 
Q 51.46875 25.25 51.421875 23.6875 
L 12.75 23.6875 
Q 13.234375 15.140625 17.578125 10.59375 
Q 21.921875 6.0625 28.421875 6.0625 
Q 33.25 6.0625 36.671875 8.59375 
Q 40.09375 11.140625 42.09375 16.703125 
z
M 13.234375 30.90625 
L 42.1875 30.90625 
Q 41.609375 37.453125 38.875 40.71875 
Q 34.671875 45.796875 27.984375 45.796875 
Q 21.921875 45.796875 17.796875 41.75 
Q 13.671875 37.703125 13.234375 30.90625 
z
" id="ArialMT-101"/>
      </defs>
      <use xlink:href="#ArialMT-117"/>
      <use x="55.615234" xlink:href="#ArialMT-110"/>
      <use x="111.230469" xlink:href="#ArialMT-115"/>
      <use x="161.230469" xlink:href="#ArialMT-116"/>
      <use x="189.013672" xlink:href="#ArialMT-97"/>
      <use x="244.628906" xlink:href="#ArialMT-98"/>
      <use x="300.244141" xlink:href="#ArialMT-108"/>
      <use x="322.460938" xlink:href="#ArialMT-101"/>
      <use x="378.076172" xlink:href="#ArialMT-115"/>
     </g>
    </g>
   </g>
   <g id="matplotlib.axis_2">
    <g id="ytick_1">
     <g id="line2d_10">
      <path clip-path="url(#p54df226806)" d="M 97.47 383.5188 
L 701.784 383.5188 
" style="fill:none;stroke:#cccccc;stroke-linecap:round;stroke-width:0.8;"/>
     </g>
     <g id="text_11">
      <!-- −1.00 -->
      <g style="fill:#262626;" transform="translate(65.168437 387.097706)scale(0.1 -0.1)">
       <defs>
        <path d="M 52.828125 31.203125 
L 5.5625 31.203125 
L 5.5625 39.40625 
L 52.828125 39.40625 
z
" id="ArialMT-8722"/>
        <path d="M 9.078125 0 
L 9.078125 10.015625 
L 19.09375 10.015625 
L 19.09375 0 
z
" id="ArialMT-46"/>
       </defs>
       <use xlink:href="#ArialMT-8722"/>
       <use x="58.398438" xlink:href="#ArialMT-49"/>
       <use x="114.013672" xlink:href="#ArialMT-46"/>
       <use x="141.796875" xlink:href="#ArialMT-48"/>
       <use x="197.412109" xlink:href="#ArialMT-48"/>
      </g>
     </g>
    </g>
    <g id="ytick_2">
     <g id="line2d_11">
      <path clip-path="url(#p54df226806)" d="M 97.47 343.850229 
L 701.784 343.850229 
" style="fill:none;stroke:#cccccc;stroke-linecap:round;stroke-width:0.8;"/>
     </g>
     <g id="text_12">
      <!-- −0.95 -->
      <g style="fill:#262626;" transform="translate(65.168437 347.429135)scale(0.1 -0.1)">
       <defs>
        <path d="M 5.46875 16.546875 
L 13.921875 17.328125 
Q 14.984375 11.375 18.015625 8.6875 
Q 21.046875 6 25.78125 6 
Q 29.828125 6 32.875 7.859375 
Q 35.9375 9.71875 37.890625 12.8125 
Q 39.84375 15.921875 41.15625 21.1875 
Q 42.484375 26.46875 42.484375 31.9375 
Q 42.484375 32.515625 42.4375 33.6875 
Q 39.796875 29.5 35.234375 26.875 
Q 30.671875 24.265625 25.34375 24.265625 
Q 16.453125 24.265625 10.296875 30.703125 
Q 4.15625 37.15625 4.15625 47.703125 
Q 4.15625 58.59375 10.578125 65.234375 
Q 17 71.875 26.65625 71.875 
Q 33.640625 71.875 39.421875 68.109375 
Q 45.21875 64.359375 48.21875 57.390625 
Q 51.21875 50.4375 51.21875 37.25 
Q 51.21875 23.53125 48.234375 15.40625 
Q 45.265625 7.28125 39.375 3.03125 
Q 33.5 -1.21875 25.59375 -1.21875 
Q 17.1875 -1.21875 11.859375 3.4375 
Q 6.546875 8.109375 5.46875 16.546875 
z
M 41.453125 48.140625 
Q 41.453125 55.71875 37.421875 60.15625 
Q 33.40625 64.59375 27.734375 64.59375 
Q 21.875 64.59375 17.53125 59.8125 
Q 13.1875 55.03125 13.1875 47.40625 
Q 13.1875 40.578125 17.3125 36.296875 
Q 21.4375 32.03125 27.484375 32.03125 
Q 33.59375 32.03125 37.515625 36.296875 
Q 41.453125 40.578125 41.453125 48.140625 
z
" id="ArialMT-57"/>
       </defs>
       <use xlink:href="#ArialMT-8722"/>
       <use x="58.398438" xlink:href="#ArialMT-48"/>
       <use x="114.013672" xlink:href="#ArialMT-46"/>
       <use x="141.796875" xlink:href="#ArialMT-57"/>
       <use x="197.412109" xlink:href="#ArialMT-53"/>
      </g>
     </g>
    </g>
    <g id="ytick_3">
     <g id="line2d_12">
      <path clip-path="url(#p54df226806)" d="M 97.47 304.181657 
L 701.784 304.181657 
" style="fill:none;stroke:#cccccc;stroke-linecap:round;stroke-width:0.8;"/>
     </g>
     <g id="text_13">
      <!-- −0.90 -->
      <g style="fill:#262626;" transform="translate(65.168437 307.760563)scale(0.1 -0.1)">
       <use xlink:href="#ArialMT-8722"/>
       <use x="58.398438" xlink:href="#ArialMT-48"/>
       <use x="114.013672" xlink:href="#ArialMT-46"/>
       <use x="141.796875" xlink:href="#ArialMT-57"/>
       <use x="197.412109" xlink:href="#ArialMT-48"/>
      </g>
     </g>
    </g>
    <g id="ytick_4">
     <g id="line2d_13">
      <path clip-path="url(#p54df226806)" d="M 97.47 264.513086 
L 701.784 264.513086 
" style="fill:none;stroke:#cccccc;stroke-linecap:round;stroke-width:0.8;"/>
     </g>
     <g id="text_14">
      <!-- −0.85 -->
      <g style="fill:#262626;" transform="translate(65.168437 268.091992)scale(0.1 -0.1)">
       <defs>
        <path d="M 17.671875 38.8125 
Q 12.203125 40.828125 9.5625 44.53125 
Q 6.9375 48.25 6.9375 53.421875 
Q 6.9375 61.234375 12.546875 66.546875 
Q 18.171875 71.875 27.484375 71.875 
Q 36.859375 71.875 42.578125 66.421875 
Q 48.296875 60.984375 48.296875 53.171875 
Q 48.296875 48.1875 45.671875 44.5 
Q 43.0625 40.828125 37.75 38.8125 
Q 44.34375 36.671875 47.78125 31.875 
Q 51.21875 27.09375 51.21875 20.453125 
Q 51.21875 11.28125 44.71875 5.03125 
Q 38.234375 -1.21875 27.640625 -1.21875 
Q 17.046875 -1.21875 10.546875 5.046875 
Q 4.046875 11.328125 4.046875 20.703125 
Q 4.046875 27.6875 7.59375 32.390625 
Q 11.140625 37.109375 17.671875 38.8125 
z
M 15.921875 53.71875 
Q 15.921875 48.640625 19.1875 45.40625 
Q 22.46875 42.1875 27.6875 42.1875 
Q 32.765625 42.1875 36.015625 45.375 
Q 39.265625 48.578125 39.265625 53.21875 
Q 39.265625 58.0625 35.90625 61.359375 
Q 32.5625 64.65625 27.59375 64.65625 
Q 22.5625 64.65625 19.234375 61.421875 
Q 15.921875 58.203125 15.921875 53.71875 
z
M 13.09375 20.65625 
Q 13.09375 16.890625 14.875 13.375 
Q 16.65625 9.859375 20.171875 7.921875 
Q 23.6875 6 27.734375 6 
Q 34.03125 6 38.125 10.046875 
Q 42.234375 14.109375 42.234375 20.359375 
Q 42.234375 26.703125 38.015625 30.859375 
Q 33.796875 35.015625 27.4375 35.015625 
Q 21.234375 35.015625 17.15625 30.90625 
Q 13.09375 26.8125 13.09375 20.65625 
z
" id="ArialMT-56"/>
       </defs>
       <use xlink:href="#ArialMT-8722"/>
       <use x="58.398438" xlink:href="#ArialMT-48"/>
       <use x="114.013672" xlink:href="#ArialMT-46"/>
       <use x="141.796875" xlink:href="#ArialMT-56"/>
       <use x="197.412109" xlink:href="#ArialMT-53"/>
      </g>
     </g>
    </g>
    <g id="ytick_5">
     <g id="line2d_14">
      <path clip-path="url(#p54df226806)" d="M 97.47 224.844514 
L 701.784 224.844514 
" style="fill:none;stroke:#cccccc;stroke-linecap:round;stroke-width:0.8;"/>
     </g>
     <g id="text_15">
      <!-- −0.80 -->
      <g style="fill:#262626;" transform="translate(65.168437 228.423421)scale(0.1 -0.1)">
       <use xlink:href="#ArialMT-8722"/>
       <use x="58.398438" xlink:href="#ArialMT-48"/>
       <use x="114.013672" xlink:href="#ArialMT-46"/>
       <use x="141.796875" xlink:href="#ArialMT-56"/>
       <use x="197.412109" xlink:href="#ArialMT-48"/>
      </g>
     </g>
    </g>
    <g id="ytick_6">
     <g id="line2d_15">
      <path clip-path="url(#p54df226806)" d="M 97.47 185.175943 
L 701.784 185.175943 
" style="fill:none;stroke:#cccccc;stroke-linecap:round;stroke-width:0.8;"/>
     </g>
     <g id="text_16">
      <!-- −0.75 -->
      <g style="fill:#262626;" transform="translate(65.168437 188.754849)scale(0.1 -0.1)">
       <defs>
        <path d="M 4.734375 62.203125 
L 4.734375 70.65625 
L 51.078125 70.65625 
L 51.078125 63.8125 
Q 44.234375 56.546875 37.515625 44.484375 
Q 30.8125 32.421875 27.15625 19.671875 
Q 24.515625 10.6875 23.78125 0 
L 14.75 0 
Q 14.890625 8.453125 18.0625 20.40625 
Q 21.234375 32.375 27.171875 43.484375 
Q 33.109375 54.59375 39.796875 62.203125 
z
" id="ArialMT-55"/>
       </defs>
       <use xlink:href="#ArialMT-8722"/>
       <use x="58.398438" xlink:href="#ArialMT-48"/>
       <use x="114.013672" xlink:href="#ArialMT-46"/>
       <use x="141.796875" xlink:href="#ArialMT-55"/>
       <use x="197.412109" xlink:href="#ArialMT-53"/>
      </g>
     </g>
    </g>
    <g id="ytick_7">
     <g id="line2d_16">
      <path clip-path="url(#p54df226806)" d="M 97.47 145.507371 
L 701.784 145.507371 
" style="fill:none;stroke:#cccccc;stroke-linecap:round;stroke-width:0.8;"/>
     </g>
     <g id="text_17">
      <!-- −0.70 -->
      <g style="fill:#262626;" transform="translate(65.168437 149.086278)scale(0.1 -0.1)">
       <use xlink:href="#ArialMT-8722"/>
       <use x="58.398438" xlink:href="#ArialMT-48"/>
       <use x="114.013672" xlink:href="#ArialMT-46"/>
       <use x="141.796875" xlink:href="#ArialMT-55"/>
       <use x="197.412109" xlink:href="#ArialMT-48"/>
      </g>
     </g>
    </g>
    <g id="ytick_8">
     <g id="line2d_17">
      <path clip-path="url(#p54df226806)" d="M 97.47 105.8388 
L 701.784 105.8388 
" style="fill:none;stroke:#cccccc;stroke-linecap:round;stroke-width:0.8;"/>
     </g>
     <g id="text_18">
      <!-- −0.65 -->
      <g style="fill:#262626;" transform="translate(65.168437 109.417706)scale(0.1 -0.1)">
       <defs>
        <path d="M 49.75 54.046875 
L 41.015625 53.375 
Q 39.84375 58.546875 37.703125 60.890625 
Q 34.125 64.65625 28.90625 64.65625 
Q 24.703125 64.65625 21.53125 62.3125 
Q 17.390625 59.28125 14.984375 53.46875 
Q 12.59375 47.65625 12.5 36.921875 
Q 15.671875 41.75 20.265625 44.09375 
Q 24.859375 46.4375 29.890625 46.4375 
Q 38.671875 46.4375 44.84375 39.96875 
Q 51.03125 33.5 51.03125 23.25 
Q 51.03125 16.5 48.125 10.71875 
Q 45.21875 4.9375 40.140625 1.859375 
Q 35.0625 -1.21875 28.609375 -1.21875 
Q 17.625 -1.21875 10.6875 6.859375 
Q 3.765625 14.9375 3.765625 33.5 
Q 3.765625 54.25 11.421875 63.671875 
Q 18.109375 71.875 29.4375 71.875 
Q 37.890625 71.875 43.28125 67.140625 
Q 48.6875 62.40625 49.75 54.046875 
z
M 13.875 23.1875 
Q 13.875 18.65625 15.796875 14.5 
Q 17.71875 10.359375 21.1875 8.171875 
Q 24.65625 6 28.46875 6 
Q 34.03125 6 38.03125 10.484375 
Q 42.046875 14.984375 42.046875 22.703125 
Q 42.046875 30.125 38.078125 34.390625 
Q 34.125 38.671875 28.125 38.671875 
Q 22.171875 38.671875 18.015625 34.390625 
Q 13.875 30.125 13.875 23.1875 
z
" id="ArialMT-54"/>
       </defs>
       <use xlink:href="#ArialMT-8722"/>
       <use x="58.398438" xlink:href="#ArialMT-48"/>
       <use x="114.013672" xlink:href="#ArialMT-46"/>
       <use x="141.796875" xlink:href="#ArialMT-54"/>
       <use x="197.412109" xlink:href="#ArialMT-53"/>
      </g>
     </g>
    </g>
    <g id="ytick_9">
     <g id="line2d_18">
      <path clip-path="url(#p54df226806)" d="M 97.47 66.170229 
L 701.784 66.170229 
" style="fill:none;stroke:#cccccc;stroke-linecap:round;stroke-width:0.8;"/>
     </g>
     <g id="text_19">
      <!-- −0.60 -->
      <g style="fill:#262626;" transform="translate(65.168437 69.749135)scale(0.1 -0.1)">
       <use xlink:href="#ArialMT-8722"/>
       <use x="58.398438" xlink:href="#ArialMT-48"/>
       <use x="114.013672" xlink:href="#ArialMT-46"/>
       <use x="141.796875" xlink:href="#ArialMT-54"/>
       <use x="197.412109" xlink:href="#ArialMT-48"/>
      </g>
     </g>
    </g>
    <g id="text_20">
     <!-- Energy -->
     <g style="fill:#262626;" transform="translate(59.06375 242.364206)rotate(-90)scale(0.1 -0.1)">
      <defs>
       <path d="M 7.90625 0 
L 7.90625 71.578125 
L 59.671875 71.578125 
L 59.671875 63.140625 
L 17.390625 63.140625 
L 17.390625 41.21875 
L 56.984375 41.21875 
L 56.984375 32.8125 
L 17.390625 32.8125 
L 17.390625 8.453125 
L 61.328125 8.453125 
L 61.328125 0 
z
" id="ArialMT-69"/>
       <path d="M 6.5 0 
L 6.5 51.859375 
L 14.40625 51.859375 
L 14.40625 44 
Q 17.4375 49.515625 20 51.265625 
Q 22.5625 53.03125 25.640625 53.03125 
Q 30.078125 53.03125 34.671875 50.203125 
L 31.640625 42.046875 
Q 28.421875 43.953125 25.203125 43.953125 
Q 22.3125 43.953125 20.015625 42.21875 
Q 17.71875 40.484375 16.75 37.40625 
Q 15.28125 32.71875 15.28125 27.15625 
L 15.28125 0 
z
" id="ArialMT-114"/>
       <path d="M 4.984375 -4.296875 
L 13.53125 -5.5625 
Q 14.0625 -9.515625 16.5 -11.328125 
Q 19.78125 -13.765625 25.4375 -13.765625 
Q 31.546875 -13.765625 34.859375 -11.328125 
Q 38.1875 -8.890625 39.359375 -4.5 
Q 40.046875 -1.8125 39.984375 6.78125 
Q 34.234375 0 25.640625 0 
Q 14.9375 0 9.078125 7.71875 
Q 3.21875 15.4375 3.21875 26.21875 
Q 3.21875 33.640625 5.90625 39.90625 
Q 8.59375 46.1875 13.6875 49.609375 
Q 18.796875 53.03125 25.6875 53.03125 
Q 34.859375 53.03125 40.828125 45.609375 
L 40.828125 51.859375 
L 48.921875 51.859375 
L 48.921875 7.03125 
Q 48.921875 -5.078125 46.453125 -10.125 
Q 44 -15.1875 38.640625 -18.109375 
Q 33.296875 -21.046875 25.484375 -21.046875 
Q 16.21875 -21.046875 10.5 -16.875 
Q 4.78125 -12.703125 4.984375 -4.296875 
z
M 12.25 26.859375 
Q 12.25 16.65625 16.296875 11.96875 
Q 20.359375 7.28125 26.46875 7.28125 
Q 32.515625 7.28125 36.609375 11.9375 
Q 40.71875 16.609375 40.71875 26.5625 
Q 40.71875 36.078125 36.5 40.90625 
Q 32.28125 45.75 26.3125 45.75 
Q 20.453125 45.75 16.34375 40.984375 
Q 12.25 36.234375 12.25 26.859375 
z
" id="ArialMT-103"/>
       <path d="M 6.203125 -19.96875 
L 5.21875 -11.71875 
Q 8.109375 -12.5 10.25 -12.5 
Q 13.1875 -12.5 14.9375 -11.515625 
Q 16.703125 -10.546875 17.828125 -8.796875 
Q 18.65625 -7.46875 20.515625 -2.25 
Q 20.75 -1.515625 21.296875 -0.09375 
L 1.609375 51.859375 
L 11.078125 51.859375 
L 21.875 21.828125 
Q 23.96875 16.109375 25.640625 9.8125 
Q 27.15625 15.875 29.25 21.625 
L 40.328125 51.859375 
L 49.125 51.859375 
L 29.390625 -0.875 
Q 26.21875 -9.421875 24.46875 -12.640625 
Q 22.125 -17 19.09375 -19.015625 
Q 16.0625 -21.046875 11.859375 -21.046875 
Q 9.328125 -21.046875 6.203125 -19.96875 
z
" id="ArialMT-121"/>
      </defs>
      <use xlink:href="#ArialMT-69"/>
      <use x="66.699219" xlink:href="#ArialMT-110"/>
      <use x="122.314453" xlink:href="#ArialMT-101"/>
      <use x="177.929688" xlink:href="#ArialMT-114"/>
      <use x="211.230469" xlink:href="#ArialMT-103"/>
      <use x="266.845703" xlink:href="#ArialMT-121"/>
     </g>
    </g>
   </g>
   <g id="line2d_19">
    <path clip-path="url(#p54df226806)" d="M 124.938818 69.5268 
L 126.312259 70.625314 
L 127.6857 72.130686 
L 129.059141 72.761314 
L 130.432582 73.147829 
L 131.806023 73.961543 
L 133.179464 74.531143 
L 134.552905 74.978686 
L 137.299786 76.260286 
L 138.673227 77.175714 
L 142.79355 79.393086 
L 144.166991 79.413429 
L 145.540432 80.166114 
L 148.287314 80.979829 
L 149.660755 81.712171 
L 152.407636 82.220743 
L 155.154518 83.522686 
L 157.9014 84.722914 
L 159.274841 85.028057 
L 166.142045 88.364286 
L 167.515486 89.3204 
L 168.888927 89.991714 
L 170.262368 90.357886 
L 173.00925 92.148057 
L 174.382691 93.063486 
L 175.756132 93.633086 
L 177.129573 94.5892 
L 178.503014 95.138457 
L 181.249895 96.460743 
L 182.623336 96.8676 
L 183.996777 97.681314 
L 185.370218 97.925429 
L 186.743659 98.678114 
L 189.490541 99.776629 
L 190.863982 100.549657 
L 193.610864 101.831257 
L 194.984305 102.868743 
L 196.357745 103.356971 
L 199.104627 104.597886 
L 200.478068 105.065771 
L 201.851509 105.899829 
L 203.22495 106.367714 
L 204.598391 107.161086 
L 207.345273 108.239257 
L 208.718714 108.564743 
L 210.092155 109.012286 
L 211.465595 109.297086 
L 214.212477 110.517657 
L 215.585918 110.660057 
L 216.959359 111.127943 
L 218.3328 111.839943 
L 219.706241 112.002686 
L 221.079682 111.921314 
L 223.826564 113.792857 
L 225.200005 114.281086 
L 226.573445 115.176171 
L 227.946886 115.623714 
L 229.320327 115.908514 
L 230.693768 116.396743 
L 233.44065 117.8004 
L 236.187532 119.794 
L 238.934414 121.523143 
L 240.307855 122.4996 
L 241.681295 122.886114 
L 243.054736 122.845429 
L 248.5485 125.245886 
L 251.295382 127.117429 
L 254.042264 128.419371 
L 258.162586 130.0468 
L 259.536027 130.575714 
L 260.909468 130.779143 
L 263.65635 131.552171 
L 265.029791 132.060743 
L 266.403232 133.118571 
L 267.776673 133.627143 
L 269.150114 133.952629 
L 270.523555 134.786686 
L 273.270436 135.437657 
L 276.017318 136.475143 
L 278.7642 138.611143 
L 280.137641 139.465543 
L 282.884523 140.543714 
L 284.257964 140.909886 
L 285.631405 141.133657 
L 287.004845 141.804971 
L 288.378286 142.781429 
L 289.751727 143.371371 
L 295.245491 144.836057 
L 296.618932 145.629429 
L 297.992373 145.893886 
L 299.365814 146.015943 
L 302.112695 146.9924 
L 303.486136 147.867143 
L 307.606459 149.596286 
L 310.353341 150.084514 
L 311.726782 151.060971 
L 313.100223 151.711943 
L 315.847105 152.220514 
L 318.593986 153.746229 
L 319.967427 154.010686 
L 321.340868 154.641314 
L 324.08775 155.129543 
L 325.461191 155.394 
L 326.834632 156.167029 
L 328.208073 157.285886 
L 329.581514 157.489314 
L 330.954955 158.323371 
L 333.701836 159.198114 
L 335.075277 159.788057 
L 336.448718 160.154229 
L 337.822159 160.723829 
L 339.1956 161.435829 
L 340.569041 161.557886 
L 341.942482 161.822343 
L 343.315923 162.717429 
L 344.689364 163.897314 
L 347.436245 165.2196 
L 348.809686 166.074 
L 351.556568 167.030114 
L 352.930009 168.026914 
L 354.30345 169.166114 
L 355.676891 169.125429 
L 357.050332 170.244286 
L 358.423773 171.017314 
L 359.797214 171.281771 
L 361.170655 172.217543 
L 362.544095 173.3364 
L 363.917536 174.068743 
L 365.290977 175.207943 
L 366.664418 175.8996 
L 368.037859 176.021657 
L 369.4113 177.059143 
L 370.784741 177.140514 
L 373.531623 177.832171 
L 374.905064 178.523829 
L 376.278505 178.971371 
L 377.651945 180.110571 
L 379.025386 180.537771 
L 380.398827 181.392171 
L 384.51915 183.284057 
L 385.892591 184.606343 
L 387.266032 185.684514 
L 388.639473 186.416857 
L 391.386355 187.495029 
L 392.759795 188.552857 
L 394.133236 189.2852 
L 395.506677 189.203829 
L 396.880118 189.671714 
L 398.253559 189.936171 
L 399.627 191.156743 
L 401.000441 191.095714 
L 402.373882 191.706 
L 403.747323 192.621429 
L 405.120764 192.601086 
L 406.494205 193.028286 
L 407.867645 193.740286 
L 410.614527 194.431943 
L 411.987968 195.225314 
L 413.361409 196.344171 
L 414.73485 196.9748 
L 416.108291 197.402 
L 417.481732 198.215714 
L 418.855173 199.212514 
L 420.228614 200.351714 
L 421.602055 201.145086 
L 422.975495 201.328171 
L 424.348936 202.731829 
L 425.722377 203.2404 
L 428.469259 204.908514 
L 429.8427 205.579829 
L 432.589582 206.596971 
L 433.963023 206.637657 
L 435.336464 207.268286 
L 436.709905 208.631257 
L 438.083345 209.058457 
L 440.830227 209.546686 
L 442.203668 210.014571 
L 443.577109 210.889314 
L 444.95055 211.052057 
L 447.697432 211.743714 
L 449.070873 212.537086 
L 450.444314 213.676286 
L 451.817755 214.408629 
L 453.191195 214.978229 
L 454.564636 215.283371 
L 455.938077 215.934343 
L 457.311518 216.442914 
L 458.684959 217.297314 
L 460.0584 217.154914 
L 461.431841 217.541429 
L 462.805282 219.250229 
L 464.178723 219.962229 
L 465.552164 220.348743 
L 466.925605 221.0404 
L 468.299045 221.426914 
L 469.672486 222.403371 
L 471.045927 224.091829 
L 472.419368 223.883472 
L 473.792809 224.047053 
L 475.16625 224.599142 
L 476.539691 224.394665 
L 477.913132 224.803619 
L 480.660014 226.030482 
L 482.033455 227.523165 
L 484.780336 229.17943 
L 487.527218 230.160921 
L 488.900659 231.265097 
L 491.647541 232.205692 
L 495.767864 235.334193 
L 497.141305 236.970011 
L 498.514745 236.703978 
L 499.888186 238.368825 
L 501.261627 239.149864 
L 502.635068 239.017764 
L 504.008509 239.307014 
L 505.38195 240.34005 
L 506.755391 240.402032 
L 508.128832 241.49705 
L 509.502273 241.559032 
L 510.875714 242.716032 
L 512.249155 242.860657 
L 513.622595 243.315193 
L 514.996036 244.6788 
L 516.369477 245.360604 
L 519.116359 247.178746 
L 521.863241 249.616711 
L 523.236682 249.926621 
L 524.610123 250.546443 
L 525.983564 250.257193 
L 527.357005 250.75305 
L 528.730445 251.579479 
L 530.103886 251.553301 
L 531.477327 253.110968 
L 532.850768 253.879416 
L 534.224209 255.229394 
L 535.59765 255.540927 
L 536.971091 257.243976 
L 539.717973 259.113175 
L 541.091414 260.982375 
L 542.464855 261.709286 
L 543.838295 263.391566 
L 545.211736 264.57572 
L 546.585177 266.120707 
L 547.958618 266.955835 
L 549.332059 268.375552 
L 550.7055 268.834872 
L 552.078941 269.106289 
L 553.452382 270.09607 
L 554.825823 269.556058 
L 556.199264 269.893663 
L 557.572705 271.644988 
L 558.946145 271.03308 
L 561.693027 273.061981 
L 563.066468 273.380178 
L 564.439909 275.522705 
L 565.81335 276.922772 
L 567.186791 277.714616 
L 568.560232 277.035489 
L 569.933673 278.021842 
L 571.307114 279.865895 
L 572.680555 280.725458 
L 574.053995 282.418135 
L 575.427436 282.637897 
L 576.800877 284.36941 
L 578.174318 284.481841 
L 579.547759 285.826538 
L 582.294641 289.016929 
L 583.668082 287.316715 
L 585.041523 287.919863 
L 586.414964 288.804252 
L 587.788405 288.880922 
L 589.161845 289.691939 
L 590.535286 290.034793 
L 591.908727 291.277423 
L 593.282168 293.963995 
L 594.655609 293.23607 
L 596.02905 297.570229 
L 597.402491 296.399542 
L 598.775932 296.22235 
L 600.149373 296.377579 
L 601.522814 297.517337 
L 602.896255 297.178102 
L 605.643136 297.617793 
L 607.016577 300.012114 
L 608.390018 300.275363 
L 611.1369 299.919745 
L 612.510341 300.013095 
L 615.257223 304.824931 
L 616.630664 303.463845 
L 618.004105 307.362998 
L 619.377545 305.225567 
L 620.750986 307.42339 
L 622.124427 306.525709 
L 623.497868 306.684555 
L 624.871309 306.189572 
L 626.24475 305.859943 
L 627.618191 308.670469 
L 628.991632 314.014993 
L 630.365073 307.518854 
L 631.738514 305.872449 
L 633.111955 306.06754 
L 634.485395 310.099428 
L 635.858836 307.085963 
L 637.232277 304.555889 
L 638.605718 305.89285 
L 639.979159 307.074157 
L 641.3526 300.2148 
L 642.726041 308.779605 
L 644.099482 305.826452 
L 645.472923 306.363429 
L 646.846364 310.691371 
L 648.219805 304.521673 
L 649.593245 304.531674 
L 650.966686 302.017917 
L 652.340127 304.662488 
L 653.713568 304.677514 
L 655.087009 304.181657 
L 656.46045 304.578343 
L 657.833891 304.455233 
L 659.207332 301.631535 
L 660.580773 307.298473 
L 661.954214 300.977657 
L 663.327655 304.029086 
L 664.701095 304.022983 
L 666.074536 304.512229 
L 667.447977 300.904688 
L 668.821418 300.732216 
L 671.5683 300.042328 
L 672.941741 303.319297 
L 674.315182 298.231371 
L 674.315182 298.231371 
" style="fill:none;stroke:#edd1cb;stroke-linecap:round;stroke-width:1.5;"/>
   </g>
   <g id="line2d_20">
    <path clip-path="url(#p54df226806)" d="M 124.938818 139.892743 
L 126.312259 140.665771 
L 127.6857 141.113314 
L 130.432582 142.252514 
L 133.179464 143.188286 
L 134.552905 143.900286 
L 135.926345 144.8564 
L 138.673227 145.914229 
L 140.046668 146.972057 
L 142.79355 148.050229 
L 144.166991 148.192629 
L 146.913873 148.680857 
L 148.287314 149.352171 
L 149.660755 149.474229 
L 151.034195 149.942114 
L 152.407636 151.020286 
L 153.781077 151.5492 
L 155.154518 152.301886 
L 156.527959 152.586686 
L 157.9014 152.6884 
L 159.274841 153.217314 
L 160.648282 154.519257 
L 162.021723 154.865086 
L 163.395164 155.027829 
L 164.768605 155.455029 
L 166.142045 156.065314 
L 167.515486 156.980743 
L 170.262368 157.936857 
L 171.635809 158.791257 
L 174.382691 159.645657 
L 177.129573 161.578229 
L 179.876455 163.185314 
L 181.249895 164.304171 
L 182.623336 164.812743 
L 183.996777 165.484057 
L 185.370218 165.992629 
L 189.490541 166.480857 
L 192.237423 167.986229 
L 194.984305 168.7796 
L 196.357745 169.572971 
L 197.731186 170.0612 
L 199.104627 170.732514 
L 200.478068 170.793543 
L 201.851509 171.4852 
L 203.22495 172.6244 
L 204.598391 172.929543 
L 205.971832 173.031257 
L 207.345273 173.458457 
L 208.718714 173.661886 
L 210.092155 174.129771 
L 211.465595 174.251829 
L 212.839036 174.740057 
L 214.212477 174.943486 
L 215.585918 175.940286 
L 216.959359 176.367486 
L 219.706241 178.157657 
L 222.453123 178.869657 
L 223.826564 179.479943 
L 226.573445 181.087029 
L 227.946886 181.148057 
L 229.320327 182.287257 
L 230.693768 182.490686 
L 232.067209 183.507829 
L 233.44065 183.548514 
L 236.187532 184.850457 
L 237.560973 185.114914 
L 238.934414 185.664171 
L 240.307855 186.620286 
L 241.681295 187.088171 
L 243.054736 187.678114 
L 244.428177 188.634229 
L 245.801618 189.325886 
L 247.175059 189.773429 
L 248.5485 189.976857 
L 251.295382 192.112857 
L 254.042264 192.926571 
L 255.415705 193.679257 
L 256.789145 193.882686 
L 258.162586 194.2692 
L 260.909468 196.812057 
L 262.282909 197.483371 
L 263.65635 197.808857 
L 265.029791 198.561543 
L 266.403232 199.497314 
L 267.776673 200.8196 
L 269.150114 201.490914 
L 270.523555 201.674 
L 271.896995 202.060514 
L 274.643877 203.504857 
L 276.017318 204.481314 
L 277.390759 205.315371 
L 278.7642 205.539143 
L 280.137641 206.332514 
L 281.511082 206.556286 
L 284.257964 207.959943 
L 285.631405 208.305771 
L 287.004845 209.465314 
L 288.378286 210.401086 
L 289.751727 210.685886 
L 291.125168 211.3572 
L 292.498609 211.336857 
L 293.87205 211.682686 
L 296.618932 212.7812 
L 297.992373 213.6356 
L 299.365814 213.9204 
L 300.739255 214.591714 
L 302.112695 215.425771 
L 303.486136 216.422571 
L 307.606459 217.134571 
L 308.9799 217.968629 
L 310.353341 218.436514 
L 311.726782 219.290914 
L 313.100223 219.3316 
L 314.473664 219.962229 
L 315.847105 220.775943 
L 317.220545 221.162457 
L 318.593986 221.162457 
L 321.340868 222.871257 
L 322.714309 224.071486 
L 324.08775 224.437657 
L 325.461191 225.190343 
L 328.208073 225.902343 
L 329.581514 227.102571 
L 330.954955 227.956971 
L 332.328395 229.380971 
L 333.701836 230.418457 
L 335.075277 231.8628 
L 337.822159 232.086571 
L 341.942482 234.873543 
L 343.315923 235.2804 
L 344.689364 235.544857 
L 346.062805 236.1348 
L 347.436245 236.338229 
L 348.809686 237.497771 
L 350.183127 238.047029 
L 351.556568 238.881086 
L 352.930009 238.962457 
L 354.30345 239.715143 
L 355.676891 239.796514 
L 357.050332 240.142343 
L 359.797214 240.5492 
L 361.170655 241.6884 
L 362.544095 241.668057 
L 363.917536 242.522457 
L 365.290977 242.603829 
L 368.037859 244.760171 
L 372.158182 247.282686 
L 376.278505 249.052514 
L 377.651945 249.825543 
L 379.025386 250.964743 
L 381.772268 252.124286 
L 383.145709 252.470114 
L 384.51915 253.446571 
L 385.892591 253.9348 
L 387.266032 254.260286 
L 388.639473 253.348632 
L 390.012914 253.348632 
L 392.759795 255.270718 
L 394.133236 257.049669 
L 395.506677 258.010712 
L 396.880118 259.217127 
L 398.253559 259.789663 
L 399.627 260.668915 
L 401.000441 260.873392 
L 402.373882 260.587124 
L 406.494205 262.652343 
L 407.867645 262.979507 
L 409.241086 262.897716 
L 410.614527 263.449804 
L 411.987968 263.75652 
L 413.361409 263.858759 
L 414.73485 264.329056 
L 418.855173 265.249204 
L 420.228614 265.351442 
L 424.348936 267.662034 
L 427.095818 269.870388 
L 428.469259 270.320237 
L 429.8427 270.586058 
L 431.216141 271.260832 
L 432.589582 273.060232 
L 433.963023 273.469186 
L 435.336464 273.474483 
L 436.709905 274.337737 
L 439.456786 275.773175 
L 440.830227 276.723568 
L 442.203668 276.888854 
L 443.577109 276.723568 
L 444.95055 277.281407 
L 446.323991 278.459068 
L 447.697432 279.347479 
L 449.070873 280.607782 
L 450.444314 280.959014 
L 451.817755 281.764782 
L 453.191195 283.24662 
L 454.564636 283.578923 
L 455.938077 284.74198 
L 457.311518 284.138589 
L 460.0584 285.495672 
L 461.431841 285.746211 
L 462.805282 286.978024 
L 465.552164 288.961453 
L 466.925605 289.379017 
L 468.299045 289.065844 
L 469.672486 289.608677 
L 471.045927 290.736099 
L 473.792809 292.218451 
L 475.16625 292.239108 
L 476.539691 292.998496 
L 477.913132 293.617514 
L 479.286573 293.326118 
L 480.660014 294.456459 
L 482.033455 294.883003 
L 483.406895 295.458837 
L 484.780336 294.811297 
L 486.153777 295.347359 
L 487.527218 296.676792 
L 488.900659 297.234297 
L 490.2741 298.188253 
L 491.647541 297.786997 
L 493.020982 297.751861 
L 494.394423 298.176581 
L 495.767864 299.575695 
L 497.141305 299.033657 
L 498.514745 300.0588 
L 499.888186 300.393086 
L 501.261627 300.883371 
L 502.635068 300.34927 
L 504.008509 301.626732 
L 505.38195 301.9503 
L 506.755391 301.484194 
L 508.128832 301.937549 
L 509.502273 302.889595 
L 510.875714 303.155746 
L 512.249155 305.161972 
L 513.622595 305.819139 
L 514.996036 305.331811 
L 516.369477 305.203063 
L 519.116359 307.458626 
L 520.4898 307.305557 
L 521.863241 309.660879 
L 523.236682 310.081729 
L 524.610123 309.841377 
L 525.983564 310.170332 
L 527.357005 308.983642 
L 528.730445 310.210236 
L 530.103886 309.682366 
L 531.477327 310.607966 
L 532.850768 311.156936 
L 534.224209 312.967314 
L 535.59765 313.696754 
L 536.971091 312.740287 
L 538.344532 313.811545 
L 539.717973 314.649752 
L 541.091414 315.300031 
L 542.464855 315.013147 
L 543.838295 317.555633 
L 545.211736 317.91764 
L 546.585177 314.780604 
L 547.958618 315.214479 
L 549.332059 316.738166 
L 550.7055 315.464439 
L 552.078941 316.803475 
L 553.452382 316.6442 
L 554.825823 316.760324 
L 556.199264 314.958871 
L 557.572705 315.939279 
L 558.946145 317.792708 
L 560.319586 318.552158 
L 561.693027 316.659926 
L 563.066468 316.082229 
L 564.439909 316.04256 
L 565.81335 315.758403 
L 567.186791 315.918647 
L 568.560232 316.660729 
L 569.933673 318.313586 
L 571.307114 317.939055 
L 572.680555 318.556182 
L 574.053995 317.203297 
L 575.427436 320.005494 
L 576.800877 320.762229 
L 578.174318 319.495571 
L 579.547759 319.246269 
L 580.9212 320.285208 
L 582.294641 320.288053 
L 583.668082 321.935762 
L 585.041523 323.162315 
L 586.414964 323.011006 
L 587.788405 323.961602 
L 589.161845 326.921247 
L 590.535286 325.910561 
L 591.908727 326.681175 
L 593.282168 325.423537 
L 594.655609 329.673592 
L 596.02905 324.383244 
L 597.402491 324.397371 
L 598.775932 324.571303 
L 600.149373 326.577871 
L 601.522814 325.867143 
L 602.896255 325.307478 
L 604.269695 326.87577 
L 605.643136 330.595121 
L 607.016577 331.746229 
L 608.390018 332.700144 
L 609.763459 328.824255 
L 611.1369 332.817407 
L 612.510341 331.676081 
L 613.883782 327.835879 
L 615.257223 327.348103 
L 616.630664 331.949657 
L 618.004105 327.387771 
L 619.377545 320.489848 
L 620.750986 321.591752 
L 622.124427 322.914038 
L 623.497868 322.615876 
L 624.871309 323.768014 
L 626.24475 323.487029 
L 627.618191 329.399535 
L 628.991632 326.540306 
L 631.738514 309.140229 
L 633.111955 310.131943 
L 634.485395 327.486943 
L 635.858836 308.809657 
L 637.232277 309.4708 
L 638.605718 309.4708 
L 639.979159 308.148514 
L 641.3526 308.148514 
L 642.726041 312.115371 
L 644.099482 298.628057 
L 645.472923 314.495486 
L 646.846364 297.239657 
L 648.219805 318.065657 
L 649.593245 296.247943 
L 650.966686 297.570229 
L 652.340127 296.247943 
L 655.087009 296.247943 
L 656.46045 326.660514 
L 657.833891 298.231371 
L 660.580773 298.231371 
L 663.327655 302.198229 
L 668.821418 302.198229 
L 670.194859 300.2148 
L 674.315182 300.2148 
L 674.315182 300.2148 
" style="fill:none;stroke:#d499a7;stroke-linecap:round;stroke-width:1.5;"/>
   </g>
   <g id="line2d_21">
    <path clip-path="url(#p54df226806)" d="M 124.938818 273.382571 
L 127.6857 274.379371 
L 130.432582 275.050686 
L 131.806023 275.132057 
L 134.552905 275.945771 
L 135.926345 276.311943 
L 138.673227 276.779829 
L 140.046668 277.959714 
L 141.420109 278.447943 
L 142.79355 278.773429 
L 144.166991 279.404057 
L 145.540432 279.627829 
L 146.913873 279.587143 
L 148.287314 280.116057 
L 151.034195 280.909429 
L 152.407636 281.743486 
L 153.781077 281.967257 
L 155.154518 282.455486 
L 156.527959 282.719943 
L 157.9014 283.228514 
L 159.274841 283.533657 
L 160.648282 283.6964 
L 163.395164 284.713543 
L 166.142045 285.201771 
L 167.515486 285.954457 
L 168.888927 286.076514 
L 171.635809 286.503714 
L 173.00925 286.930914 
L 174.382691 286.910571 
L 175.756132 287.419143 
L 177.129573 287.480171 
L 178.503014 288.192171 
L 179.876455 288.354914 
L 181.249895 288.131143 
L 182.623336 288.599029 
L 183.996777 288.578686 
L 185.370218 288.6804 
L 186.743659 289.188971 
L 188.1171 289.514457 
L 189.490541 290.1044 
L 193.610864 291.365657 
L 196.357745 292.728629 
L 197.731186 293.318571 
L 199.104627 293.562686 
L 200.478068 294.030571 
L 201.851509 294.315371 
L 203.22495 295.068057 
L 205.971832 295.617314 
L 207.345273 296.268286 
L 208.718714 296.614114 
L 210.092155 297.265086 
L 211.465595 297.732971 
L 212.839036 298.383943 
L 214.212477 298.892514 
L 215.585918 299.197657 
L 216.959359 299.726571 
L 218.3328 300.011371 
L 219.706241 300.052057 
L 223.826564 302.147371 
L 225.200005 302.574571 
L 226.573445 302.6356 
L 227.946886 302.859371 
L 229.320327 302.839029 
L 230.693768 303.144171 
L 232.067209 304.100286 
L 233.44065 304.385086 
L 234.814091 304.4868 
L 237.560973 305.259829 
L 238.934414 305.402229 
L 243.054736 306.226429 
L 244.428177 306.962547 
L 245.801618 307.003442 
L 247.175059 307.453292 
L 248.5485 307.269262 
L 249.921941 307.228367 
L 251.295382 307.064785 
L 254.042264 307.862246 
L 255.415705 308.128067 
L 256.789145 308.864184 
L 258.162586 309.1709 
L 259.536027 309.722989 
L 260.909468 310.0706 
L 262.282909 310.561345 
L 263.65635 310.847613 
L 265.029791 311.563283 
L 266.403232 311.685969 
L 267.776673 312.094924 
L 269.150114 311.786513 
L 270.523555 312.320908 
L 271.896995 312.464784 
L 273.270436 313.204716 
L 274.643877 313.45136 
L 276.017318 313.862433 
L 277.390759 313.995496 
L 280.137641 314.635979 
L 281.511082 315.400425 
L 282.884523 315.772318 
L 284.257964 316.268175 
L 285.631405 315.999586 
L 287.004845 316.433461 
L 288.378286 316.9913 
L 289.751727 317.817729 
L 291.125168 318.416889 
L 292.498609 318.7268 
L 293.87205 319.160675 
L 295.245491 319.201996 
L 296.618932 320.338336 
L 297.992373 320.627586 
L 299.365814 321.164764 
L 302.112695 321.970532 
L 303.486136 321.336757 
L 307.606459 323.060574 
L 308.9799 323.434414 
L 310.353341 323.493988 
L 313.100223 324.224725 
L 314.473664 324.725802 
L 315.847105 324.684045 
L 317.220545 325.038974 
L 318.593986 325.540051 
L 319.967427 326.291666 
L 321.340868 326.324696 
L 322.714309 325.978271 
L 324.08775 327.033286 
L 325.461191 326.843384 
L 326.834632 327.518593 
L 329.581514 328.236004 
L 330.954955 328.194931 
L 333.701836 328.647517 
L 335.075277 329.017632 
L 336.448718 328.893226 
L 337.822159 328.94182 
L 339.1956 329.399535 
L 341.942482 330.925249 
L 343.315923 331.007255 
L 344.689364 331.75241 
L 346.062805 331.550755 
L 347.436245 331.949657 
L 350.183127 333.190685 
L 351.556568 333.420514 
L 352.930009 333.799371 
L 354.30345 334.5348 
L 355.676891 334.735371 
L 357.050332 334.713086 
L 358.423773 335.247943 
L 359.797214 335.515371 
L 361.170655 335.600969 
L 362.544095 335.113971 
L 365.290977 335.26697 
L 366.664418 336.149859 
L 368.037859 336.127767 
L 369.4113 335.845253 
L 370.784741 336.585623 
L 372.158182 336.920177 
L 374.905064 336.743957 
L 379.025386 337.960784 
L 380.398827 338.634546 
L 381.772268 338.436342 
L 384.51915 338.610983 
L 385.892591 339.184805 
L 387.266032 339.004637 
L 388.639473 339.529639 
L 391.386355 339.7308 
L 392.759795 340.139298 
L 394.133236 340.321271 
L 395.506677 340.350061 
L 396.880118 340.738968 
L 398.253559 340.227166 
L 401.000441 340.504036 
L 402.373882 340.75282 
L 406.494205 340.833182 
L 407.867645 341.177523 
L 409.241086 341.740198 
L 410.614527 341.452991 
L 411.987968 341.493111 
L 413.361409 342.508497 
L 414.73485 342.537885 
L 416.108291 341.851659 
L 417.481732 342.396724 
L 418.855173 342.005179 
L 421.602055 341.959773 
L 422.975495 341.976123 
L 425.722377 342.858514 
L 428.469259 344.398493 
L 433.963023 345.402477 
L 435.336464 345.64058 
L 436.709905 345.3378 
L 439.456786 345.473034 
L 440.830227 345.797595 
L 442.203668 345.760197 
L 444.95055 346.117004 
L 447.697432 345.872548 
L 449.070873 346.481708 
L 450.444314 346.599536 
L 451.817755 348.689794 
L 453.191195 348.667127 
L 454.564636 347.817086 
L 455.938077 349.028021 
L 457.311518 348.661098 
L 458.684959 347.989558 
L 460.0584 348.463856 
L 461.431841 348.478229 
L 462.805282 348.177709 
L 464.178723 347.540328 
L 465.552164 347.40195 
L 466.925605 348.003761 
L 468.299045 348.843802 
L 469.672486 349.263822 
L 471.045927 350.057193 
L 472.419368 349.942188 
L 473.792809 350.541313 
L 475.16625 351.392154 
L 476.539691 350.679248 
L 477.913132 351.1228 
L 479.286573 350.75359 
L 480.660014 351.105402 
L 482.033455 349.610323 
L 483.406895 349.359752 
L 484.780336 350.666518 
L 486.153777 350.303772 
L 487.527218 350.702073 
L 488.900659 351.600857 
L 490.2741 352.098773 
L 491.647541 352.044065 
L 493.020982 353.734856 
L 495.767864 353.868224 
L 497.141305 351.714349 
L 498.514745 353.454198 
L 499.888186 354.263229 
L 501.261627 353.47353 
L 502.635068 352.45756 
L 504.008509 352.45756 
L 506.755391 353.430563 
L 508.128832 354.377657 
L 509.502273 354.798754 
L 510.875714 352.940943 
L 512.249155 355.254943 
L 513.622595 355.574495 
L 514.996036 355.474043 
L 516.369477 355.073532 
L 517.742918 356.911831 
L 519.116359 356.666229 
L 520.4898 356.286862 
L 521.863241 357.680622 
L 523.236682 356.317494 
L 524.610123 357.56422 
L 525.983564 356.83267 
L 527.357005 357.794332 
L 528.730445 358.973871 
L 530.103886 358.659829 
L 531.477327 359.170504 
L 532.850768 357.220006 
L 534.224209 357.220006 
L 536.971091 357.581657 
L 538.344532 356.081371 
L 539.717973 355.405856 
L 541.091414 355.405856 
L 542.464855 356.268216 
L 543.838295 354.849242 
L 545.211736 356.652358 
L 546.585177 356.884188 
L 547.958618 356.742514 
L 549.332059 356.377146 
L 550.7055 356.632324 
L 552.078941 356.684178 
L 553.452382 361.584413 
L 554.825823 360.511029 
L 556.199264 360.001004 
L 557.572705 356.361086 
L 558.946145 356.666229 
L 560.319586 362.769086 
L 561.693027 365.998514 
L 563.066468 364.405761 
L 564.439909 366.208878 
L 565.81335 364.477886 
L 567.186791 364.477886 
L 568.560232 366.858 
L 569.933673 366.769848 
L 571.307114 364.676229 
L 574.053995 364.676229 
L 575.427436 367.155514 
L 576.800877 367.084678 
L 578.174318 364.345657 
L 579.547759 364.345657 
L 580.9212 369.6348 
L 582.294641 362.6928 
L 583.668082 362.6928 
L 585.041523 358.725943 
L 586.414964 362.6928 
L 589.161845 362.6928 
L 590.535286 367.651371 
L 591.908727 362.362229 
L 593.282168 351.783943 
L 596.02905 351.783943 
L 597.402491 359.717657 
L 600.149373 359.717657 
L 601.522814 371.618229 
L 602.896255 359.717657 
L 627.618191 359.717657 
L 628.991632 383.5188 
L 628.991632 383.5188 
" style="fill:none;stroke:#a9678f;stroke-linecap:round;stroke-width:1.5;"/>
   </g>
   <g id="line2d_22">
    <path clip-path="url(#p54df226806)" d="M 124.938818 356.239029 
L 126.312259 351.396932 
L 127.6857 351.638814 
L 129.059141 351.540577 
L 133.179464 352.053297 
L 134.552905 352.273678 
L 137.299786 352.155836 
L 138.673227 352.183123 
L 141.420109 352.432611 
L 142.79355 352.856741 
L 145.540432 353.405614 
L 149.660755 353.189918 
L 151.034195 353.390771 
L 152.407636 353.466091 
L 153.781077 353.867798 
L 155.154518 353.881071 
L 159.274841 354.555657 
L 162.021723 354.266428 
L 163.395164 354.368798 
L 164.768605 354.308306 
L 168.888927 354.66893 
L 174.382691 355.802318 
L 175.756132 355.7508 
L 177.129573 356.217489 
L 178.503014 355.7508 
L 179.876455 355.882153 
L 182.623336 355.803691 
L 185.370218 356.12104 
L 186.743659 356.363134 
L 189.490541 356.484397 
L 190.863982 356.946291 
L 192.237423 357.009251 
L 193.610864 357.228112 
L 194.984305 357.155729 
L 196.357745 357.513848 
L 197.731186 357.541395 
L 199.104627 357.982157 
L 200.478068 357.63576 
L 203.22495 358.170302 
L 204.598391 358.10258 
L 205.971832 357.820465 
L 208.718714 358.107918 
L 210.092155 357.964191 
L 211.465595 358.309135 
L 212.839036 358.424117 
L 214.212477 358.970278 
L 215.585918 358.521766 
L 216.959359 358.842615 
L 221.079682 358.681538 
L 222.453123 358.711141 
L 223.826564 358.545631 
L 225.200005 358.876203 
L 226.573445 358.5276 
L 227.946886 358.5276 
L 229.320327 358.680171 
L 233.44065 358.832743 
L 234.814091 359.107371 
L 236.187532 359.07189 
L 237.560973 359.345764 
L 238.934414 359.114695 
L 240.307855 359.104891 
L 241.681295 358.937292 
L 243.054736 359.262444 
L 244.428177 359.132383 
L 245.801618 359.35999 
L 247.175059 359.750172 
L 248.5485 359.880233 
L 249.921941 360.563053 
L 251.295382 360.284351 
L 252.668823 359.887181 
L 256.789145 360.752489 
L 258.162586 360.349546 
L 259.536027 360.525071 
L 260.909468 360.461443 
L 262.282909 360.575356 
L 263.65635 360.511029 
L 265.029791 360.943777 
L 266.403232 360.459126 
L 267.776673 360.607419 
L 271.896995 360.681566 
L 273.270436 361.089374 
L 274.643877 360.813265 
L 277.390759 360.900086 
L 278.7642 360.709371 
L 280.137641 360.8238 
L 281.511082 360.8238 
L 282.884523 361.205229 
L 284.257964 361.273287 
L 285.631405 361.145726 
L 287.004845 361.240289 
L 288.378286 360.780938 
L 289.751727 360.985416 
L 291.125168 360.998621 
L 292.498609 360.761567 
L 293.87205 361.012105 
L 295.245491 360.899274 
L 296.618932 361.338524 
L 299.365814 361.313024 
L 300.739255 361.83044 
L 302.112695 361.524781 
L 303.486136 361.901657 
L 304.859577 361.656008 
L 306.233018 361.881397 
L 307.606459 361.836319 
L 308.9799 361.587096 
L 310.353341 361.76948 
L 311.726782 361.701086 
L 313.100223 361.977843 
L 314.473664 361.771089 
L 315.847105 362.051103 
L 317.220545 362.471123 
L 318.593986 362.220555 
L 319.967427 362.598351 
L 321.340868 362.787249 
L 322.714309 362.537471 
L 324.08775 362.728645 
L 325.461191 363.249128 
L 326.834632 362.819943 
L 328.208073 362.640605 
L 332.328395 362.797191 
L 333.701836 363.162559 
L 335.075277 363.314274 
L 336.448718 362.815066 
L 337.822159 363.032428 
L 339.1956 363.521493 
L 340.569041 363.243752 
L 341.942482 363.8498 
L 343.315923 363.287829 
L 346.062805 363.741184 
L 347.436245 363.397061 
L 348.809686 364.14444 
L 351.556568 364.050686 
L 352.930009 363.621548 
L 354.30345 363.876459 
L 357.050332 363.415575 
L 358.423773 363.751749 
L 359.797214 363.684514 
L 361.170655 363.336544 
L 362.544095 363.96289 
L 363.917536 363.897024 
L 365.290977 364.405761 
L 366.664418 363.303086 
L 368.037859 363.913371 
L 369.4113 363.129154 
L 372.158182 363.129154 
L 373.531623 363.446503 
L 374.905064 363.11782 
L 377.651945 363.11782 
L 379.025386 363.441645 
L 380.398827 364.008339 
L 381.772268 363.601871 
L 383.145709 364.015086 
L 384.51915 363.346909 
L 385.892591 363.346909 
L 387.266032 363.684514 
L 388.639473 364.288166 
L 390.012914 364.301581 
L 391.386355 364.676229 
L 392.759795 363.778963 
L 396.880118 363.778963 
L 398.253559 364.723453 
L 399.627 364.26503 
L 402.373882 364.973743 
L 403.747323 364.415251 
L 405.120764 364.327788 
L 406.494205 365.11699 
L 407.867645 364.646177 
L 409.241086 363.940441 
L 410.614527 364.742343 
L 411.987968 364.77882 
L 413.361409 364.109535 
L 414.73485 364.109535 
L 416.108291 364.392882 
L 420.228614 364.392882 
L 422.975495 366.329086 
L 424.348936 364.905086 
L 425.722377 364.905086 
L 427.095818 365.515371 
L 428.469259 364.795234 
L 433.963023 364.795234 
L 435.336464 365.588606 
L 436.709905 365.667943 
L 438.083345 364.891819 
L 440.830227 364.891819 
L 442.203668 365.581707 
L 443.577109 364.766384 
L 444.95055 365.487631 
L 446.323991 364.629004 
L 449.070873 364.629004 
L 450.444314 365.573494 
L 451.817755 365.667943 
L 453.191195 364.728424 
L 458.684959 364.728424 
L 460.0584 365.563552 
L 461.431841 365.447562 
L 462.805282 365.551271 
L 466.925605 365.101249 
L 468.299045 366.125657 
L 469.672486 362.963268 
L 472.419368 362.963268 
L 473.792809 364.405761 
L 475.16625 362.494457 
L 476.539691 362.494457 
L 477.913132 364.0812 
L 479.286573 361.921467 
L 480.660014 361.921467 
L 482.033455 363.684514 
L 483.406895 361.205229 
L 490.2741 361.205229 
L 491.647541 363.684514 
L 498.514745 363.684514 
L 499.888186 365.667943 
L 501.261627 365.95129 
L 502.635068 366.990229 
L 504.008509 363.684514 
L 513.622595 363.684514 
L 514.996036 367.651371 
L 516.369477 364.676229 
L 527.357005 364.676229 
L 528.730445 370.626514 
L 530.103886 366.329086 
L 546.585177 366.329086 
L 547.958618 371.618229 
L 549.332059 365.667943 
L 553.452382 365.667943 
L 554.825823 373.601657 
L 556.199264 363.684514 
L 568.560232 363.684514 
L 569.933673 383.5188 
L 569.933673 383.5188 
" style="fill:none;stroke:#6e4071;stroke-linecap:round;stroke-width:1.5;"/>
   </g>
   <g id="line2d_23">
    <path clip-path="url(#p54df226806)" d="M 124.938818 381.586229 
L 126.312259 365.573494 
L 131.806023 365.573494 
L 133.179464 366.329086 
L 134.552905 365.4696 
L 140.046668 365.4696 
L 141.420109 366.262971 
L 144.166991 366.262971 
L 145.540432 367.254686 
L 148.287314 367.21061 
L 149.660755 366.251304 
L 163.395164 366.251304 
L 164.768605 366.484649 
L 166.142045 366.484649 
L 167.515486 367.418027 
L 168.888927 366.411729 
L 177.129573 366.411729 
L 178.503014 367.403443 
L 179.876455 366.329086 
L 183.996777 366.329086 
L 185.370218 367.386914 
L 186.743659 367.368024 
L 188.1171 366.125657 
L 200.478068 366.125657 
L 201.851509 367.346229 
L 203.22495 365.998514 
L 204.598391 367.651371 
L 205.971832 366.208878 
L 216.959359 366.208878 
L 218.3328 366.569501 
L 221.079682 366.569501 
L 222.453123 368.011995 
L 223.826564 366.461314 
L 226.573445 366.461314 
L 227.946886 368.048057 
L 229.320327 366.329086 
L 247.175059 366.329086 
L 248.5485 366.769848 
L 270.523555 366.769848 
L 271.896995 368.532895 
L 273.270436 366.659657 
L 274.643877 368.643086 
L 276.017318 366.517984 
L 311.726782 366.517984 
L 313.100223 368.784759 
L 314.473664 366.329086 
L 324.08775 366.329086 
L 325.461191 366.990229 
L 328.208073 366.990229 
L 329.581514 369.6348 
L 330.954955 366.858 
L 332.328395 370.031486 
L 333.701836 366.659657 
L 337.822159 366.659657 
L 339.1956 370.626514 
L 340.569041 366.329086 
L 352.930009 366.329086 
L 354.30345 372.940514 
L 355.676891 367.651371 
L 411.987968 367.651371 
L 413.361409 375.585086 
L 414.73485 367.651371 
L 442.203668 367.651371 
L 443.577109 383.5188 
L 443.577109 383.5188 
" style="fill:none;stroke:#2d1e3e;stroke-linecap:round;stroke-width:1.5;"/>
   </g>
   <g id="line2d_24"/>
   <g id="line2d_25"/>
   <g id="line2d_26"/>
   <g id="line2d_27"/>
   <g id="line2d_28"/>
   <g id="patch_3">
    <path d="M 97.47 399.2184 
L 97.47 53.8272 
" style="fill:none;stroke:#cccccc;stroke-linecap:square;stroke-linejoin:miter;stroke-width:0.8;"/>
   </g>
   <g id="patch_4">
    <path d="M 701.784 399.2184 
L 701.784 53.8272 
" style="fill:none;stroke:#cccccc;stroke-linecap:square;stroke-linejoin:miter;stroke-width:0.8;"/>
   </g>
   <g id="patch_5">
    <path d="M 97.47 399.2184 
L 701.784 399.2184 
" style="fill:none;stroke:#cccccc;stroke-linecap:square;stroke-linejoin:miter;stroke-width:0.8;"/>
   </g>
   <g id="patch_6">
    <path d="M 97.47 53.8272 
L 701.784 53.8272 
" style="fill:none;stroke:#cccccc;stroke-linecap:square;stroke-linejoin:miter;stroke-width:0.8;"/>
   </g>
   <g id="legend_1">
    <g id="patch_7">
     <path d="M 639.088687 146.816262 
L 694.784 146.816262 
Q 696.784 146.816262 696.784 144.816262 
L 696.784 60.8272 
Q 696.784 58.8272 694.784 58.8272 
L 639.088687 58.8272 
Q 637.088687 58.8272 637.088687 60.8272 
L 637.088687 144.816262 
Q 637.088687 146.816262 639.088687 146.816262 
z
" style="fill:#ffffff;opacity:0.8;stroke:#cccccc;stroke-linejoin:miter;"/>
    </g>
    <g id="text_21">
     <!-- init_magnet -->
     <g style="fill:#262626;" transform="translate(641.088687 69.985012)scale(0.1 -0.1)">
      <defs>
       <path d="M 6.640625 61.46875 
L 6.640625 71.578125 
L 15.4375 71.578125 
L 15.4375 61.46875 
z
M 6.640625 0 
L 6.640625 51.859375 
L 15.4375 51.859375 
L 15.4375 0 
z
" id="ArialMT-105"/>
       <path d="M -1.515625 -19.875 
L -1.515625 -13.53125 
L 56.734375 -13.53125 
L 56.734375 -19.875 
z
" id="ArialMT-95"/>
       <path d="M 6.59375 0 
L 6.59375 51.859375 
L 14.453125 51.859375 
L 14.453125 44.578125 
Q 16.890625 48.390625 20.9375 50.703125 
Q 25 53.03125 30.171875 53.03125 
Q 35.9375 53.03125 39.625 50.640625 
Q 43.3125 48.25 44.828125 43.953125 
Q 50.984375 53.03125 60.84375 53.03125 
Q 68.5625 53.03125 72.703125 48.75 
Q 76.859375 44.484375 76.859375 35.59375 
L 76.859375 0 
L 68.109375 0 
L 68.109375 32.671875 
Q 68.109375 37.9375 67.25 40.25 
Q 66.40625 42.578125 64.15625 43.984375 
Q 61.921875 45.40625 58.890625 45.40625 
Q 53.421875 45.40625 49.796875 41.765625 
Q 46.1875 38.140625 46.1875 30.125 
L 46.1875 0 
L 37.40625 0 
L 37.40625 33.6875 
Q 37.40625 39.546875 35.25 42.46875 
Q 33.109375 45.40625 28.21875 45.40625 
Q 24.515625 45.40625 21.359375 43.453125 
Q 18.21875 41.5 16.796875 37.734375 
Q 15.375 33.984375 15.375 26.90625 
L 15.375 0 
z
" id="ArialMT-109"/>
      </defs>
      <use xlink:href="#ArialMT-105"/>
      <use x="22.216797" xlink:href="#ArialMT-110"/>
      <use x="77.832031" xlink:href="#ArialMT-105"/>
      <use x="100.048828" xlink:href="#ArialMT-116"/>
      <use x="127.832031" xlink:href="#ArialMT-95"/>
      <use x="183.447266" xlink:href="#ArialMT-109"/>
      <use x="266.748047" xlink:href="#ArialMT-97"/>
      <use x="322.363281" xlink:href="#ArialMT-103"/>
      <use x="377.978516" xlink:href="#ArialMT-110"/>
      <use x="433.59375" xlink:href="#ArialMT-101"/>
      <use x="489.208984" xlink:href="#ArialMT-116"/>
     </g>
    </g>
    <g id="line2d_29">
     <path d="M 645.986344 80.747512 
L 665.986344 80.747512 
" style="fill:none;stroke:#edd1cb;stroke-linecap:round;stroke-width:1.5;"/>
    </g>
    <g id="line2d_30"/>
    <g id="text_22">
     <!-- 0.0 -->
     <g style="fill:#262626;" transform="translate(673.986344 84.247512)scale(0.1 -0.1)">
      <use xlink:href="#ArialMT-48"/>
      <use x="55.615234" xlink:href="#ArialMT-46"/>
      <use x="83.398438" xlink:href="#ArialMT-48"/>
     </g>
    </g>
    <g id="line2d_31">
     <path d="M 645.986344 94.892825 
L 665.986344 94.892825 
" style="fill:none;stroke:#d499a7;stroke-linecap:round;stroke-width:1.5;"/>
    </g>
    <g id="line2d_32"/>
    <g id="text_23">
     <!-- 0.2 -->
     <g style="fill:#262626;" transform="translate(673.986344 98.392825)scale(0.1 -0.1)">
      <use xlink:href="#ArialMT-48"/>
      <use x="55.615234" xlink:href="#ArialMT-46"/>
      <use x="83.398438" xlink:href="#ArialMT-50"/>
     </g>
    </g>
    <g id="line2d_33">
     <path d="M 645.986344 109.038137 
L 665.986344 109.038137 
" style="fill:none;stroke:#a9678f;stroke-linecap:round;stroke-width:1.5;"/>
    </g>
    <g id="line2d_34"/>
    <g id="text_24">
     <!-- 0.4 -->
     <g style="fill:#262626;" transform="translate(673.986344 112.538137)scale(0.1 -0.1)">
      <use xlink:href="#ArialMT-48"/>
      <use x="55.615234" xlink:href="#ArialMT-46"/>
      <use x="83.398438" xlink:href="#ArialMT-52"/>
     </g>
    </g>
    <g id="line2d_35">
     <path d="M 645.986344 123.18345 
L 665.986344 123.18345 
" style="fill:none;stroke:#6e4071;stroke-linecap:round;stroke-width:1.5;"/>
    </g>
    <g id="line2d_36"/>
    <g id="text_25">
     <!-- 0.6 -->
     <g style="fill:#262626;" transform="translate(673.986344 126.68345)scale(0.1 -0.1)">
      <use xlink:href="#ArialMT-48"/>
      <use x="55.615234" xlink:href="#ArialMT-46"/>
      <use x="83.398438" xlink:href="#ArialMT-54"/>
     </g>
    </g>
    <g id="line2d_37">
     <path d="M 645.986344 137.328762 
L 665.986344 137.328762 
" style="fill:none;stroke:#2d1e3e;stroke-linecap:round;stroke-width:1.5;"/>
    </g>
    <g id="line2d_38"/>
    <g id="text_26">
     <!-- 0.8 -->
     <g style="fill:#262626;" transform="translate(673.986344 140.828762)scale(0.1 -0.1)">
      <use xlink:href="#ArialMT-48"/>
      <use x="55.615234" xlink:href="#ArialMT-46"/>
      <use x="83.398438" xlink:href="#ArialMT-56"/>
     </g>
    </g>
   </g>
  </g>
 </g>
 <defs>
  <clipPath id="p54df226806">
   <rect height="345.3912" width="604.314" x="97.47" y="53.8272"/>
  </clipPath>
 </defs>
</svg>
