<?xml version="1.0" encoding="utf-8" standalone="no"?>
<!DOCTYPE svg PUBLIC "-//W3C//DTD SVG 1.1//EN"
  "http://www.w3.org/Graphics/SVG/1.1/DTD/svg11.dtd">
<!-- Created with matplotlib (https://matplotlib.org/) -->
<svg height="400.32pt" version="1.1" viewBox="0 0 838.08 400.32" width="838.08pt" xmlns="http://www.w3.org/2000/svg" xmlns:xlink="http://www.w3.org/1999/xlink">
 <metadata>
  <rdf:RDF xmlns:cc="http://creativecommons.org/ns#" xmlns:dc="http://purl.org/dc/elements/1.1/" xmlns:rdf="http://www.w3.org/1999/02/22-rdf-syntax-ns#">
   <cc:Work>
    <dc:type rdf:resource="http://purl.org/dc/dcmitype/StillImage"/>
    <dc:date>2021-03-07T17:38:30.293403</dc:date>
    <dc:format>image/svg+xml</dc:format>
    <dc:creator>
     <cc:Agent>
      <dc:title>Matplotlib v3.3.3, https://matplotlib.org/</dc:title>
     </cc:Agent>
    </dc:creator>
   </cc:Work>
  </rdf:RDF>
 </metadata>
 <defs>
  <style type="text/css">*{stroke-linecap:butt;stroke-linejoin:round;}</style>
 </defs>
 <g id="figure_1">
  <g id="patch_1">
   <path d="M 0 400.32 
L 838.08 400.32 
L 838.08 0 
L 0 0 
z
" style="fill:none;"/>
  </g>
  <g id="axes_1">
   <g id="patch_2">
    <path d="M 104.76 356.2848 
L 754.272 356.2848 
L 754.272 48.0384 
L 104.76 48.0384 
z
" style="fill:none;"/>
   </g>
   <g id="matplotlib.axis_1">
    <g id="xtick_1">
     <g id="line2d_1">
      <path clip-path="url(#p21f8cd7da0)" d="M 134.283273 356.2848 
L 134.283273 48.0384 
" style="fill:none;stroke:#cccccc;stroke-linecap:round;stroke-width:0.8;"/>
     </g>
     <g id="text_1">
      <!-- 0 -->
      <g style="fill:#262626;" transform="translate(131.502804 370.442612)scale(0.1 -0.1)">
       <defs>
        <path d="M 4.15625 35.296875 
Q 4.15625 48 6.765625 55.734375 
Q 9.375 63.484375 14.515625 67.671875 
Q 19.671875 71.875 27.484375 71.875 
Q 33.25 71.875 37.59375 69.546875 
Q 41.9375 67.234375 44.765625 62.859375 
Q 47.609375 58.5 49.21875 52.21875 
Q 50.828125 45.953125 50.828125 35.296875 
Q 50.828125 22.703125 48.234375 14.96875 
Q 45.65625 7.234375 40.5 3 
Q 35.359375 -1.21875 27.484375 -1.21875 
Q 17.140625 -1.21875 11.234375 6.203125 
Q 4.15625 15.140625 4.15625 35.296875 
z
M 13.1875 35.296875 
Q 13.1875 17.671875 17.3125 11.828125 
Q 21.4375 6 27.484375 6 
Q 33.546875 6 37.671875 11.859375 
Q 41.796875 17.71875 41.796875 35.296875 
Q 41.796875 52.984375 37.671875 58.78125 
Q 33.546875 64.59375 27.390625 64.59375 
Q 21.34375 64.59375 17.71875 59.46875 
Q 13.1875 52.9375 13.1875 35.296875 
z
" id="ArialMT-48"/>
       </defs>
       <use xlink:href="#ArialMT-48"/>
      </g>
     </g>
    </g>
    <g id="xtick_2">
     <g id="line2d_2">
      <path clip-path="url(#p21f8cd7da0)" d="M 208.091455 356.2848 
L 208.091455 48.0384 
" style="fill:none;stroke:#cccccc;stroke-linecap:round;stroke-width:0.8;"/>
     </g>
     <g id="text_2">
      <!-- 50 -->
      <g style="fill:#262626;" transform="translate(202.530517 370.442612)scale(0.1 -0.1)">
       <defs>
        <path d="M 4.15625 18.75 
L 13.375 19.53125 
Q 14.40625 12.796875 18.140625 9.390625 
Q 21.875 6 27.15625 6 
Q 33.5 6 37.890625 10.78125 
Q 42.28125 15.578125 42.28125 23.484375 
Q 42.28125 31 38.0625 35.34375 
Q 33.84375 39.703125 27 39.703125 
Q 22.75 39.703125 19.328125 37.765625 
Q 15.921875 35.84375 13.96875 32.765625 
L 5.71875 33.84375 
L 12.640625 70.609375 
L 48.25 70.609375 
L 48.25 62.203125 
L 19.671875 62.203125 
L 15.828125 42.96875 
Q 22.265625 47.46875 29.34375 47.46875 
Q 38.71875 47.46875 45.15625 40.96875 
Q 51.609375 34.46875 51.609375 24.265625 
Q 51.609375 14.546875 45.953125 7.46875 
Q 39.0625 -1.21875 27.15625 -1.21875 
Q 17.390625 -1.21875 11.203125 4.25 
Q 5.03125 9.71875 4.15625 18.75 
z
" id="ArialMT-53"/>
       </defs>
       <use xlink:href="#ArialMT-53"/>
       <use x="55.615234" xlink:href="#ArialMT-48"/>
      </g>
     </g>
    </g>
    <g id="xtick_3">
     <g id="line2d_3">
      <path clip-path="url(#p21f8cd7da0)" d="M 281.899636 356.2848 
L 281.899636 48.0384 
" style="fill:none;stroke:#cccccc;stroke-linecap:round;stroke-width:0.8;"/>
     </g>
     <g id="text_3">
      <!-- 100 -->
      <g style="fill:#262626;" transform="translate(273.55823 370.442612)scale(0.1 -0.1)">
       <defs>
        <path d="M 37.25 0 
L 28.46875 0 
L 28.46875 56 
Q 25.296875 52.984375 20.140625 49.953125 
Q 14.984375 46.921875 10.890625 45.40625 
L 10.890625 53.90625 
Q 18.265625 57.375 23.78125 62.296875 
Q 29.296875 67.234375 31.59375 71.875 
L 37.25 71.875 
z
" id="ArialMT-49"/>
       </defs>
       <use xlink:href="#ArialMT-49"/>
       <use x="55.615234" xlink:href="#ArialMT-48"/>
       <use x="111.230469" xlink:href="#ArialMT-48"/>
      </g>
     </g>
    </g>
    <g id="xtick_4">
     <g id="line2d_4">
      <path clip-path="url(#p21f8cd7da0)" d="M 355.707818 356.2848 
L 355.707818 48.0384 
" style="fill:none;stroke:#cccccc;stroke-linecap:round;stroke-width:0.8;"/>
     </g>
     <g id="text_4">
      <!-- 150 -->
      <g style="fill:#262626;" transform="translate(347.366412 370.442612)scale(0.1 -0.1)">
       <use xlink:href="#ArialMT-49"/>
       <use x="55.615234" xlink:href="#ArialMT-53"/>
       <use x="111.230469" xlink:href="#ArialMT-48"/>
      </g>
     </g>
    </g>
    <g id="xtick_5">
     <g id="line2d_5">
      <path clip-path="url(#p21f8cd7da0)" d="M 429.516 356.2848 
L 429.516 48.0384 
" style="fill:none;stroke:#cccccc;stroke-linecap:round;stroke-width:0.8;"/>
     </g>
     <g id="text_5">
      <!-- 200 -->
      <g style="fill:#262626;" transform="translate(421.174594 370.442612)scale(0.1 -0.1)">
       <defs>
        <path d="M 50.34375 8.453125 
L 50.34375 0 
L 3.03125 0 
Q 2.9375 3.171875 4.046875 6.109375 
Q 5.859375 10.9375 9.828125 15.625 
Q 13.8125 20.3125 21.34375 26.46875 
Q 33.015625 36.03125 37.109375 41.625 
Q 41.21875 47.21875 41.21875 52.203125 
Q 41.21875 57.421875 37.46875 61 
Q 33.734375 64.59375 27.734375 64.59375 
Q 21.390625 64.59375 17.578125 60.78125 
Q 13.765625 56.984375 13.71875 50.25 
L 4.6875 51.171875 
Q 5.609375 61.28125 11.65625 66.578125 
Q 17.71875 71.875 27.9375 71.875 
Q 38.234375 71.875 44.234375 66.15625 
Q 50.25 60.453125 50.25 52 
Q 50.25 47.703125 48.484375 43.546875 
Q 46.734375 39.40625 42.65625 34.8125 
Q 38.578125 30.21875 29.109375 22.21875 
Q 21.1875 15.578125 18.9375 13.203125 
Q 16.703125 10.84375 15.234375 8.453125 
z
" id="ArialMT-50"/>
       </defs>
       <use xlink:href="#ArialMT-50"/>
       <use x="55.615234" xlink:href="#ArialMT-48"/>
       <use x="111.230469" xlink:href="#ArialMT-48"/>
      </g>
     </g>
    </g>
    <g id="xtick_6">
     <g id="line2d_6">
      <path clip-path="url(#p21f8cd7da0)" d="M 503.324182 356.2848 
L 503.324182 48.0384 
" style="fill:none;stroke:#cccccc;stroke-linecap:round;stroke-width:0.8;"/>
     </g>
     <g id="text_6">
      <!-- 250 -->
      <g style="fill:#262626;" transform="translate(494.982776 370.442612)scale(0.1 -0.1)">
       <use xlink:href="#ArialMT-50"/>
       <use x="55.615234" xlink:href="#ArialMT-53"/>
       <use x="111.230469" xlink:href="#ArialMT-48"/>
      </g>
     </g>
    </g>
    <g id="xtick_7">
     <g id="line2d_7">
      <path clip-path="url(#p21f8cd7da0)" d="M 577.132364 356.2848 
L 577.132364 48.0384 
" style="fill:none;stroke:#cccccc;stroke-linecap:round;stroke-width:0.8;"/>
     </g>
     <g id="text_7">
      <!-- 300 -->
      <g style="fill:#262626;" transform="translate(568.790957 370.442612)scale(0.1 -0.1)">
       <defs>
        <path d="M 4.203125 18.890625 
L 12.984375 20.0625 
Q 14.5 12.59375 18.140625 9.296875 
Q 21.78125 6 27 6 
Q 33.203125 6 37.46875 10.296875 
Q 41.75 14.59375 41.75 20.953125 
Q 41.75 27 37.796875 30.921875 
Q 33.84375 34.859375 27.734375 34.859375 
Q 25.25 34.859375 21.53125 33.890625 
L 22.515625 41.609375 
Q 23.390625 41.5 23.921875 41.5 
Q 29.546875 41.5 34.03125 44.421875 
Q 38.53125 47.359375 38.53125 53.46875 
Q 38.53125 58.296875 35.25 61.46875 
Q 31.984375 64.65625 26.8125 64.65625 
Q 21.6875 64.65625 18.265625 61.421875 
Q 14.84375 58.203125 13.875 51.765625 
L 5.078125 53.328125 
Q 6.6875 62.15625 12.390625 67.015625 
Q 18.109375 71.875 26.609375 71.875 
Q 32.46875 71.875 37.390625 69.359375 
Q 42.328125 66.84375 44.9375 62.5 
Q 47.5625 58.15625 47.5625 53.265625 
Q 47.5625 48.640625 45.0625 44.828125 
Q 42.578125 41.015625 37.703125 38.765625 
Q 44.046875 37.3125 47.5625 32.6875 
Q 51.078125 28.078125 51.078125 21.140625 
Q 51.078125 11.765625 44.234375 5.25 
Q 37.40625 -1.265625 26.953125 -1.265625 
Q 17.53125 -1.265625 11.296875 4.34375 
Q 5.078125 9.96875 4.203125 18.890625 
z
" id="ArialMT-51"/>
       </defs>
       <use xlink:href="#ArialMT-51"/>
       <use x="55.615234" xlink:href="#ArialMT-48"/>
       <use x="111.230469" xlink:href="#ArialMT-48"/>
      </g>
     </g>
    </g>
    <g id="xtick_8">
     <g id="line2d_8">
      <path clip-path="url(#p21f8cd7da0)" d="M 650.940545 356.2848 
L 650.940545 48.0384 
" style="fill:none;stroke:#cccccc;stroke-linecap:round;stroke-width:0.8;"/>
     </g>
     <g id="text_8">
      <!-- 350 -->
      <g style="fill:#262626;" transform="translate(642.599139 370.442612)scale(0.1 -0.1)">
       <use xlink:href="#ArialMT-51"/>
       <use x="55.615234" xlink:href="#ArialMT-53"/>
       <use x="111.230469" xlink:href="#ArialMT-48"/>
      </g>
     </g>
    </g>
    <g id="xtick_9">
     <g id="line2d_9">
      <path clip-path="url(#p21f8cd7da0)" d="M 724.748727 356.2848 
L 724.748727 48.0384 
" style="fill:none;stroke:#cccccc;stroke-linecap:round;stroke-width:0.8;"/>
     </g>
     <g id="text_9">
      <!-- 400 -->
      <g style="fill:#262626;" transform="translate(716.407321 370.442612)scale(0.1 -0.1)">
       <defs>
        <path d="M 32.328125 0 
L 32.328125 17.140625 
L 1.265625 17.140625 
L 1.265625 25.203125 
L 33.9375 71.578125 
L 41.109375 71.578125 
L 41.109375 25.203125 
L 50.78125 25.203125 
L 50.78125 17.140625 
L 41.109375 17.140625 
L 41.109375 0 
z
M 32.328125 25.203125 
L 32.328125 57.46875 
L 9.90625 25.203125 
z
" id="ArialMT-52"/>
       </defs>
       <use xlink:href="#ArialMT-52"/>
       <use x="55.615234" xlink:href="#ArialMT-48"/>
       <use x="111.230469" xlink:href="#ArialMT-48"/>
      </g>
     </g>
    </g>
    <g id="text_10">
     <!-- unstables -->
     <g style="fill:#262626;" transform="translate(408.113656 383.587925)scale(0.1 -0.1)">
      <defs>
       <path d="M 40.578125 0 
L 40.578125 7.625 
Q 34.515625 -1.171875 24.125 -1.171875 
Q 19.53125 -1.171875 15.546875 0.578125 
Q 11.578125 2.34375 9.640625 5 
Q 7.71875 7.671875 6.9375 11.53125 
Q 6.390625 14.109375 6.390625 19.734375 
L 6.390625 51.859375 
L 15.1875 51.859375 
L 15.1875 23.09375 
Q 15.1875 16.21875 15.71875 13.8125 
Q 16.546875 10.359375 19.234375 8.375 
Q 21.921875 6.390625 25.875 6.390625 
Q 29.828125 6.390625 33.296875 8.421875 
Q 36.765625 10.453125 38.203125 13.9375 
Q 39.65625 17.4375 39.65625 24.078125 
L 39.65625 51.859375 
L 48.4375 51.859375 
L 48.4375 0 
z
" id="ArialMT-117"/>
       <path d="M 6.59375 0 
L 6.59375 51.859375 
L 14.5 51.859375 
L 14.5 44.484375 
Q 20.21875 53.03125 31 53.03125 
Q 35.6875 53.03125 39.625 51.34375 
Q 43.5625 49.65625 45.515625 46.921875 
Q 47.46875 44.1875 48.25 40.4375 
Q 48.734375 37.984375 48.734375 31.890625 
L 48.734375 0 
L 39.9375 0 
L 39.9375 31.546875 
Q 39.9375 36.921875 38.90625 39.578125 
Q 37.890625 42.234375 35.28125 43.8125 
Q 32.671875 45.40625 29.15625 45.40625 
Q 23.53125 45.40625 19.453125 41.84375 
Q 15.375 38.28125 15.375 28.328125 
L 15.375 0 
z
" id="ArialMT-110"/>
       <path d="M 3.078125 15.484375 
L 11.765625 16.84375 
Q 12.5 11.625 15.84375 8.84375 
Q 19.1875 6.0625 25.203125 6.0625 
Q 31.25 6.0625 34.171875 8.515625 
Q 37.109375 10.984375 37.109375 14.3125 
Q 37.109375 17.28125 34.515625 19 
Q 32.71875 20.171875 25.53125 21.96875 
Q 15.875 24.421875 12.140625 26.203125 
Q 8.40625 27.984375 6.46875 31.125 
Q 4.546875 34.28125 4.546875 38.09375 
Q 4.546875 41.546875 6.125 44.5 
Q 7.71875 47.46875 10.453125 49.421875 
Q 12.5 50.921875 16.03125 51.96875 
Q 19.578125 53.03125 23.640625 53.03125 
Q 29.734375 53.03125 34.34375 51.265625 
Q 38.96875 49.515625 41.15625 46.5 
Q 43.359375 43.5 44.1875 38.484375 
L 35.59375 37.3125 
Q 35.015625 41.3125 32.203125 43.546875 
Q 29.390625 45.796875 24.265625 45.796875 
Q 18.21875 45.796875 15.625 43.796875 
Q 13.03125 41.796875 13.03125 39.109375 
Q 13.03125 37.40625 14.109375 36.03125 
Q 15.1875 34.625 17.484375 33.6875 
Q 18.796875 33.203125 25.25 31.453125 
Q 34.578125 28.953125 38.25 27.359375 
Q 41.9375 25.78125 44.03125 22.75 
Q 46.140625 19.734375 46.140625 15.234375 
Q 46.140625 10.84375 43.578125 6.953125 
Q 41.015625 3.078125 36.171875 0.953125 
Q 31.34375 -1.171875 25.25 -1.171875 
Q 15.140625 -1.171875 9.84375 3.03125 
Q 4.546875 7.234375 3.078125 15.484375 
z
" id="ArialMT-115"/>
       <path d="M 25.78125 7.859375 
L 27.046875 0.09375 
Q 23.34375 -0.6875 20.40625 -0.6875 
Q 15.625 -0.6875 12.984375 0.828125 
Q 10.359375 2.34375 9.28125 4.8125 
Q 8.203125 7.28125 8.203125 15.1875 
L 8.203125 45.015625 
L 1.765625 45.015625 
L 1.765625 51.859375 
L 8.203125 51.859375 
L 8.203125 64.703125 
L 16.9375 69.96875 
L 16.9375 51.859375 
L 25.78125 51.859375 
L 25.78125 45.015625 
L 16.9375 45.015625 
L 16.9375 14.703125 
Q 16.9375 10.9375 17.40625 9.859375 
Q 17.875 8.796875 18.921875 8.15625 
Q 19.96875 7.515625 21.921875 7.515625 
Q 23.390625 7.515625 25.78125 7.859375 
z
" id="ArialMT-116"/>
       <path d="M 40.4375 6.390625 
Q 35.546875 2.25 31.03125 0.53125 
Q 26.515625 -1.171875 21.34375 -1.171875 
Q 12.796875 -1.171875 8.203125 3 
Q 3.609375 7.171875 3.609375 13.671875 
Q 3.609375 17.484375 5.34375 20.625 
Q 7.078125 23.78125 9.890625 25.6875 
Q 12.703125 27.59375 16.21875 28.5625 
Q 18.796875 29.25 24.03125 29.890625 
Q 34.671875 31.15625 39.703125 32.90625 
Q 39.75 34.71875 39.75 35.203125 
Q 39.75 40.578125 37.25 42.78125 
Q 33.890625 45.75 27.25 45.75 
Q 21.046875 45.75 18.09375 43.578125 
Q 15.140625 41.40625 13.71875 35.890625 
L 5.125 37.0625 
Q 6.296875 42.578125 8.984375 45.96875 
Q 11.671875 49.359375 16.75 51.1875 
Q 21.828125 53.03125 28.515625 53.03125 
Q 35.15625 53.03125 39.296875 51.46875 
Q 43.453125 49.90625 45.40625 47.53125 
Q 47.359375 45.171875 48.140625 41.546875 
Q 48.578125 39.3125 48.578125 33.453125 
L 48.578125 21.734375 
Q 48.578125 9.46875 49.140625 6.21875 
Q 49.703125 2.984375 51.375 0 
L 42.1875 0 
Q 40.828125 2.734375 40.4375 6.390625 
z
M 39.703125 26.03125 
Q 34.90625 24.078125 25.34375 22.703125 
Q 19.921875 21.921875 17.671875 20.9375 
Q 15.4375 19.96875 14.203125 18.09375 
Q 12.984375 16.21875 12.984375 13.921875 
Q 12.984375 10.40625 15.640625 8.0625 
Q 18.3125 5.71875 23.4375 5.71875 
Q 28.515625 5.71875 32.46875 7.9375 
Q 36.421875 10.15625 38.28125 14.015625 
Q 39.703125 17 39.703125 22.796875 
z
" id="ArialMT-97"/>
       <path d="M 14.703125 0 
L 6.546875 0 
L 6.546875 71.578125 
L 15.328125 71.578125 
L 15.328125 46.046875 
Q 20.90625 53.03125 29.546875 53.03125 
Q 34.328125 53.03125 38.59375 51.09375 
Q 42.875 49.171875 45.625 45.671875 
Q 48.390625 42.1875 49.953125 37.25 
Q 51.515625 32.328125 51.515625 26.703125 
Q 51.515625 13.375 44.921875 6.09375 
Q 38.328125 -1.171875 29.109375 -1.171875 
Q 19.921875 -1.171875 14.703125 6.5 
z
M 14.59375 26.3125 
Q 14.59375 17 17.140625 12.84375 
Q 21.296875 6.0625 28.375 6.0625 
Q 34.125 6.0625 38.328125 11.0625 
Q 42.53125 16.0625 42.53125 25.984375 
Q 42.53125 36.140625 38.5 40.96875 
Q 34.46875 45.796875 28.765625 45.796875 
Q 23 45.796875 18.796875 40.796875 
Q 14.59375 35.796875 14.59375 26.3125 
z
" id="ArialMT-98"/>
       <path d="M 6.390625 0 
L 6.390625 71.578125 
L 15.1875 71.578125 
L 15.1875 0 
z
" id="ArialMT-108"/>
       <path d="M 42.09375 16.703125 
L 51.171875 15.578125 
Q 49.03125 7.625 43.21875 3.21875 
Q 37.40625 -1.171875 28.375 -1.171875 
Q 17 -1.171875 10.328125 5.828125 
Q 3.65625 12.84375 3.65625 25.484375 
Q 3.65625 38.578125 10.390625 45.796875 
Q 17.140625 53.03125 27.875 53.03125 
Q 38.28125 53.03125 44.875 45.953125 
Q 51.46875 38.875 51.46875 26.03125 
Q 51.46875 25.25 51.421875 23.6875 
L 12.75 23.6875 
Q 13.234375 15.140625 17.578125 10.59375 
Q 21.921875 6.0625 28.421875 6.0625 
Q 33.25 6.0625 36.671875 8.59375 
Q 40.09375 11.140625 42.09375 16.703125 
z
M 13.234375 30.90625 
L 42.1875 30.90625 
Q 41.609375 37.453125 38.875 40.71875 
Q 34.671875 45.796875 27.984375 45.796875 
Q 21.921875 45.796875 17.796875 41.75 
Q 13.671875 37.703125 13.234375 30.90625 
z
" id="ArialMT-101"/>
      </defs>
      <use xlink:href="#ArialMT-117"/>
      <use x="55.615234" xlink:href="#ArialMT-110"/>
      <use x="111.230469" xlink:href="#ArialMT-115"/>
      <use x="161.230469" xlink:href="#ArialMT-116"/>
      <use x="189.013672" xlink:href="#ArialMT-97"/>
      <use x="244.628906" xlink:href="#ArialMT-98"/>
      <use x="300.244141" xlink:href="#ArialMT-108"/>
      <use x="322.460938" xlink:href="#ArialMT-101"/>
      <use x="378.076172" xlink:href="#ArialMT-115"/>
     </g>
    </g>
   </g>
   <g id="matplotlib.axis_2">
    <g id="ytick_1">
     <g id="line2d_10">
      <path clip-path="url(#p21f8cd7da0)" d="M 104.76 303.608665 
L 754.272 303.608665 
" style="fill:none;stroke:#cccccc;stroke-linecap:round;stroke-width:0.8;"/>
     </g>
     <g id="text_11">
      <!-- 0.2 -->
      <g style="fill:#262626;" transform="translate(83.86 307.187571)scale(0.1 -0.1)">
       <defs>
        <path d="M 9.078125 0 
L 9.078125 10.015625 
L 19.09375 10.015625 
L 19.09375 0 
z
" id="ArialMT-46"/>
       </defs>
       <use xlink:href="#ArialMT-48"/>
       <use x="55.615234" xlink:href="#ArialMT-46"/>
       <use x="83.398438" xlink:href="#ArialMT-50"/>
      </g>
     </g>
    </g>
    <g id="ytick_2">
     <g id="line2d_11">
      <path clip-path="url(#p21f8cd7da0)" d="M 104.76 243.218899 
L 754.272 243.218899 
" style="fill:none;stroke:#cccccc;stroke-linecap:round;stroke-width:0.8;"/>
     </g>
     <g id="text_12">
      <!-- 0.4 -->
      <g style="fill:#262626;" transform="translate(83.86 246.797805)scale(0.1 -0.1)">
       <use xlink:href="#ArialMT-48"/>
       <use x="55.615234" xlink:href="#ArialMT-46"/>
       <use x="83.398438" xlink:href="#ArialMT-52"/>
      </g>
     </g>
    </g>
    <g id="ytick_3">
     <g id="line2d_12">
      <path clip-path="url(#p21f8cd7da0)" d="M 104.76 182.829133 
L 754.272 182.829133 
" style="fill:none;stroke:#cccccc;stroke-linecap:round;stroke-width:0.8;"/>
     </g>
     <g id="text_13">
      <!-- 0.6 -->
      <g style="fill:#262626;" transform="translate(83.86 186.408039)scale(0.1 -0.1)">
       <defs>
        <path d="M 49.75 54.046875 
L 41.015625 53.375 
Q 39.84375 58.546875 37.703125 60.890625 
Q 34.125 64.65625 28.90625 64.65625 
Q 24.703125 64.65625 21.53125 62.3125 
Q 17.390625 59.28125 14.984375 53.46875 
Q 12.59375 47.65625 12.5 36.921875 
Q 15.671875 41.75 20.265625 44.09375 
Q 24.859375 46.4375 29.890625 46.4375 
Q 38.671875 46.4375 44.84375 39.96875 
Q 51.03125 33.5 51.03125 23.25 
Q 51.03125 16.5 48.125 10.71875 
Q 45.21875 4.9375 40.140625 1.859375 
Q 35.0625 -1.21875 28.609375 -1.21875 
Q 17.625 -1.21875 10.6875 6.859375 
Q 3.765625 14.9375 3.765625 33.5 
Q 3.765625 54.25 11.421875 63.671875 
Q 18.109375 71.875 29.4375 71.875 
Q 37.890625 71.875 43.28125 67.140625 
Q 48.6875 62.40625 49.75 54.046875 
z
M 13.875 23.1875 
Q 13.875 18.65625 15.796875 14.5 
Q 17.71875 10.359375 21.1875 8.171875 
Q 24.65625 6 28.46875 6 
Q 34.03125 6 38.03125 10.484375 
Q 42.046875 14.984375 42.046875 22.703125 
Q 42.046875 30.125 38.078125 34.390625 
Q 34.125 38.671875 28.125 38.671875 
Q 22.171875 38.671875 18.015625 34.390625 
Q 13.875 30.125 13.875 23.1875 
z
" id="ArialMT-54"/>
       </defs>
       <use xlink:href="#ArialMT-48"/>
       <use x="55.615234" xlink:href="#ArialMT-46"/>
       <use x="83.398438" xlink:href="#ArialMT-54"/>
      </g>
     </g>
    </g>
    <g id="ytick_4">
     <g id="line2d_13">
      <path clip-path="url(#p21f8cd7da0)" d="M 104.76 122.439366 
L 754.272 122.439366 
" style="fill:none;stroke:#cccccc;stroke-linecap:round;stroke-width:0.8;"/>
     </g>
     <g id="text_14">
      <!-- 0.8 -->
      <g style="fill:#262626;" transform="translate(83.86 126.018273)scale(0.1 -0.1)">
       <defs>
        <path d="M 17.671875 38.8125 
Q 12.203125 40.828125 9.5625 44.53125 
Q 6.9375 48.25 6.9375 53.421875 
Q 6.9375 61.234375 12.546875 66.546875 
Q 18.171875 71.875 27.484375 71.875 
Q 36.859375 71.875 42.578125 66.421875 
Q 48.296875 60.984375 48.296875 53.171875 
Q 48.296875 48.1875 45.671875 44.5 
Q 43.0625 40.828125 37.75 38.8125 
Q 44.34375 36.671875 47.78125 31.875 
Q 51.21875 27.09375 51.21875 20.453125 
Q 51.21875 11.28125 44.71875 5.03125 
Q 38.234375 -1.21875 27.640625 -1.21875 
Q 17.046875 -1.21875 10.546875 5.046875 
Q 4.046875 11.328125 4.046875 20.703125 
Q 4.046875 27.6875 7.59375 32.390625 
Q 11.140625 37.109375 17.671875 38.8125 
z
M 15.921875 53.71875 
Q 15.921875 48.640625 19.1875 45.40625 
Q 22.46875 42.1875 27.6875 42.1875 
Q 32.765625 42.1875 36.015625 45.375 
Q 39.265625 48.578125 39.265625 53.21875 
Q 39.265625 58.0625 35.90625 61.359375 
Q 32.5625 64.65625 27.59375 64.65625 
Q 22.5625 64.65625 19.234375 61.421875 
Q 15.921875 58.203125 15.921875 53.71875 
z
M 13.09375 20.65625 
Q 13.09375 16.890625 14.875 13.375 
Q 16.65625 9.859375 20.171875 7.921875 
Q 23.6875 6 27.734375 6 
Q 34.03125 6 38.125 10.046875 
Q 42.234375 14.109375 42.234375 20.359375 
Q 42.234375 26.703125 38.015625 30.859375 
Q 33.796875 35.015625 27.4375 35.015625 
Q 21.234375 35.015625 17.15625 30.90625 
Q 13.09375 26.8125 13.09375 20.65625 
z
" id="ArialMT-56"/>
       </defs>
       <use xlink:href="#ArialMT-48"/>
       <use x="55.615234" xlink:href="#ArialMT-46"/>
       <use x="83.398438" xlink:href="#ArialMT-56"/>
      </g>
     </g>
    </g>
    <g id="ytick_5">
     <g id="line2d_14">
      <path clip-path="url(#p21f8cd7da0)" d="M 104.76 62.0496 
L 754.272 62.0496 
" style="fill:none;stroke:#cccccc;stroke-linecap:round;stroke-width:0.8;"/>
     </g>
     <g id="text_15">
      <!-- 1.0 -->
      <g style="fill:#262626;" transform="translate(83.86 65.628506)scale(0.1 -0.1)">
       <use xlink:href="#ArialMT-49"/>
       <use x="55.615234" xlink:href="#ArialMT-46"/>
       <use x="83.398438" xlink:href="#ArialMT-48"/>
      </g>
     </g>
    </g>
    <g id="text_16">
     <!-- Consensus_mean -->
     <g style="fill:#262626;" transform="translate(77.8725 242.4616)rotate(-90)scale(0.1 -0.1)">
      <defs>
       <path d="M 58.796875 25.09375 
L 68.265625 22.703125 
Q 65.28125 11.03125 57.546875 4.90625 
Q 49.8125 -1.21875 38.625 -1.21875 
Q 27.046875 -1.21875 19.796875 3.484375 
Q 12.546875 8.203125 8.765625 17.140625 
Q 4.984375 26.078125 4.984375 36.328125 
Q 4.984375 47.515625 9.25 55.828125 
Q 13.53125 64.15625 21.40625 68.46875 
Q 29.296875 72.796875 38.765625 72.796875 
Q 49.515625 72.796875 56.828125 67.328125 
Q 64.15625 61.859375 67.046875 51.953125 
L 57.71875 49.75 
Q 55.21875 57.5625 50.484375 61.125 
Q 45.75 64.703125 38.578125 64.703125 
Q 30.328125 64.703125 24.78125 60.734375 
Q 19.234375 56.78125 16.984375 50.109375 
Q 14.75 43.453125 14.75 36.375 
Q 14.75 27.25 17.40625 20.4375 
Q 20.0625 13.625 25.671875 10.25 
Q 31.296875 6.890625 37.84375 6.890625 
Q 45.796875 6.890625 51.3125 11.46875 
Q 56.84375 16.0625 58.796875 25.09375 
z
" id="ArialMT-67"/>
       <path d="M 3.328125 25.921875 
Q 3.328125 40.328125 11.328125 47.265625 
Q 18.015625 53.03125 27.640625 53.03125 
Q 38.328125 53.03125 45.109375 46.015625 
Q 51.90625 39.015625 51.90625 26.65625 
Q 51.90625 16.65625 48.90625 10.90625 
Q 45.90625 5.171875 40.15625 2 
Q 34.421875 -1.171875 27.640625 -1.171875 
Q 16.75 -1.171875 10.03125 5.8125 
Q 3.328125 12.796875 3.328125 25.921875 
z
M 12.359375 25.921875 
Q 12.359375 15.96875 16.703125 11.015625 
Q 21.046875 6.0625 27.640625 6.0625 
Q 34.1875 6.0625 38.53125 11.03125 
Q 42.875 16.015625 42.875 26.21875 
Q 42.875 35.84375 38.5 40.796875 
Q 34.125 45.75 27.640625 45.75 
Q 21.046875 45.75 16.703125 40.8125 
Q 12.359375 35.890625 12.359375 25.921875 
z
" id="ArialMT-111"/>
       <path d="M -1.515625 -19.875 
L -1.515625 -13.53125 
L 56.734375 -13.53125 
L 56.734375 -19.875 
z
" id="ArialMT-95"/>
       <path d="M 6.59375 0 
L 6.59375 51.859375 
L 14.453125 51.859375 
L 14.453125 44.578125 
Q 16.890625 48.390625 20.9375 50.703125 
Q 25 53.03125 30.171875 53.03125 
Q 35.9375 53.03125 39.625 50.640625 
Q 43.3125 48.25 44.828125 43.953125 
Q 50.984375 53.03125 60.84375 53.03125 
Q 68.5625 53.03125 72.703125 48.75 
Q 76.859375 44.484375 76.859375 35.59375 
L 76.859375 0 
L 68.109375 0 
L 68.109375 32.671875 
Q 68.109375 37.9375 67.25 40.25 
Q 66.40625 42.578125 64.15625 43.984375 
Q 61.921875 45.40625 58.890625 45.40625 
Q 53.421875 45.40625 49.796875 41.765625 
Q 46.1875 38.140625 46.1875 30.125 
L 46.1875 0 
L 37.40625 0 
L 37.40625 33.6875 
Q 37.40625 39.546875 35.25 42.46875 
Q 33.109375 45.40625 28.21875 45.40625 
Q 24.515625 45.40625 21.359375 43.453125 
Q 18.21875 41.5 16.796875 37.734375 
Q 15.375 33.984375 15.375 26.90625 
L 15.375 0 
z
" id="ArialMT-109"/>
      </defs>
      <use xlink:href="#ArialMT-67"/>
      <use x="72.216797" xlink:href="#ArialMT-111"/>
      <use x="127.832031" xlink:href="#ArialMT-110"/>
      <use x="183.447266" xlink:href="#ArialMT-115"/>
      <use x="233.447266" xlink:href="#ArialMT-101"/>
      <use x="289.0625" xlink:href="#ArialMT-110"/>
      <use x="344.677734" xlink:href="#ArialMT-115"/>
      <use x="394.677734" xlink:href="#ArialMT-117"/>
      <use x="450.292969" xlink:href="#ArialMT-115"/>
      <use x="500.292969" xlink:href="#ArialMT-95"/>
      <use x="555.908203" xlink:href="#ArialMT-109"/>
      <use x="639.208984" xlink:href="#ArialMT-101"/>
      <use x="694.824219" xlink:href="#ArialMT-97"/>
      <use x="750.439453" xlink:href="#ArialMT-110"/>
     </g>
    </g>
   </g>
   <g id="line2d_15">
    <path clip-path="url(#p21f8cd7da0)" d="M 134.283273 342.2736 
L 135.759436 341.731641 
L 140.187927 341.588408 
L 143.140255 341.35614 
L 146.092582 341.116129 
L 149.044909 341.35614 
L 151.997236 341.358721 
L 154.949564 341.419369 
L 156.425727 341.701962 
L 159.378055 341.566472 
L 160.854218 341.245167 
L 165.282709 341.291621 
L 166.758873 341.148389 
L 168.235036 341.139356 
L 171.187364 340.570299 
L 172.663527 340.045114 
L 177.092018 339.24895 
L 178.568182 338.855384 
L 180.044345 338.797317 
L 181.520509 338.926355 
L 182.996673 339.239918 
L 184.472836 338.953453 
L 185.949 338.890225 
L 187.425164 339.023134 
L 188.901327 338.870869 
L 190.377491 338.956034 
L 194.805982 338.348265 
L 196.282145 338.394719 
L 197.758309 338.291488 
L 199.234473 338.450205 
L 200.710636 338.385686 
L 203.662964 337.8205 
L 205.139127 337.469517 
L 208.091455 337.103049 
L 209.567618 336.509474 
L 211.043782 336.533991 
L 212.519945 336.367532 
L 213.996109 336.56367 
L 218.4246 336.56367 
L 219.900764 336.340435 
L 221.376927 336.447536 
L 222.853091 336.33166 
L 224.329255 336.587155 
L 225.805418 336.354702 
L 227.281582 336.34696 
L 230.233909 335.654026 
L 233.186236 335.328666 
L 234.6624 334.696565 
L 236.138564 334.633659 
L 237.614727 335.301753 
L 239.090891 334.989739 
L 243.519382 335.160438 
L 244.995545 334.8972 
L 249.424036 335.210504 
L 250.9002 334.947267 
L 252.376364 334.519709 
L 253.852527 334.492795 
L 255.328691 334.126327 
L 256.804855 334.282721 
L 258.281018 333.963214 
L 261.233345 334.236959 
L 264.185673 334.406183 
L 265.661836 334.031973 
L 267.138 333.825512 
L 268.614164 333.84332 
L 270.090327 333.734504 
L 271.566491 333.868445 
L 273.042655 333.621712 
L 274.518818 333.890627 
L 275.994982 333.61985 
L 277.471145 333.085449 
L 278.947309 332.994459 
L 281.899636 332.424387 
L 283.3758 332.935076 
L 284.851964 332.577088 
L 286.328127 331.928027 
L 287.804291 331.640604 
L 289.280455 331.752627 
L 290.756618 331.597339 
L 293.708945 331.451934 
L 295.185109 330.864369 
L 296.661273 330.976866 
L 298.137436 330.556766 
L 299.6136 330.409109 
L 301.089764 330.707224 
L 306.994418 329.02186 
L 308.470582 329.035827 
L 309.946745 328.872621 
L 311.422909 328.586801 
L 314.375236 329.205772 
L 315.8514 328.916894 
L 318.803727 329.039331 
L 320.279891 328.747631 
L 321.756055 328.962461 
L 326.184545 327.319225 
L 327.660709 327.506516 
L 329.136873 327.152104 
L 332.0892 326.79945 
L 333.565364 326.974296 
L 336.517691 326.374085 
L 337.993855 325.853261 
L 339.470018 326.457989 
L 340.946182 326.08078 
L 342.422345 326.335372 
L 343.898509 325.617589 
L 348.327 325.362131 
L 349.803164 325.024041 
L 351.279327 324.860163 
L 352.755491 323.990018 
L 354.231655 324.306565 
L 355.707818 323.546028 
L 357.183982 323.734024 
L 358.660145 323.685847 
L 361.612473 323.823764 
L 363.088636 323.101144 
L 367.517127 323.103638 
L 368.993291 323.259495 
L 371.945618 322.996938 
L 373.421782 322.617299 
L 374.897945 321.817063 
L 376.374109 321.99343 
L 377.850273 321.784441 
L 379.326436 321.331408 
L 380.8026 320.733158 
L 382.278764 320.73248 
L 383.754927 320.457306 
L 385.231091 319.54106 
L 386.707255 319.563995 
L 388.183418 319.407343 
L 389.659582 319.123396 
L 391.135745 319.379596 
L 392.611909 319.879667 
L 394.088073 319.524209 
L 395.564236 319.511084 
L 397.0404 319.728163 
L 398.516564 319.821573 
L 399.992727 318.935429 
L 401.468891 319.879231 
L 402.945055 319.292295 
L 404.421218 318.320189 
L 405.897382 318.237128 
L 407.373545 317.71547 
L 408.849709 316.647609 
L 410.325873 315.86119 
L 411.802036 315.796436 
L 413.2782 316.09815 
L 416.230527 314.062056 
L 417.706691 314.997138 
L 419.182855 314.823573 
L 420.659018 315.128893 
L 422.135182 314.774831 
L 423.611345 314.152923 
L 425.087509 314.837539 
L 426.563673 314.876224 
L 428.039836 315.0762 
L 429.516 314.301125 
L 430.992164 315.077931 
L 432.468327 314.32808 
L 433.944491 314.312902 
L 435.420655 314.474025 
L 436.896818 314.070775 
L 438.372982 314.290285 
L 439.849145 314.152408 
L 441.325309 314.506983 
L 442.801473 313.813624 
L 444.277636 312.857341 
L 445.7538 312.791021 
L 447.229964 312.311594 
L 448.706127 312.256695 
L 451.658455 311.293441 
L 453.134618 310.319525 
L 454.610782 309.752904 
L 456.086945 308.679547 
L 460.515436 307.17066 
L 461.9916 307.029576 
L 463.467764 306.505053 
L 464.943927 305.569415 
L 466.420091 305.602292 
L 467.896255 306.884704 
L 469.372418 306.004332 
L 472.324745 305.435826 
L 473.800909 304.854203 
L 475.277073 305.138823 
L 478.2294 305.021332 
L 479.705564 304.061475 
L 481.181727 303.920472 
L 482.657891 303.579323 
L 484.134055 303.747178 
L 485.610218 304.089595 
L 487.086382 303.496392 
L 488.562545 304.027755 
L 490.038709 303.76337 
L 491.514873 303.947747 
L 492.991036 304.469321 
L 494.4672 305.529125 
L 495.943364 305.114654 
L 497.419527 303.455876 
L 498.895691 302.314091 
L 500.371855 302.580639 
L 501.848018 301.352621 
L 503.324182 301.008949 
L 504.800345 300.383119 
L 506.276509 299.375466 
L 507.752673 300.560514 
L 509.228836 299.865405 
L 510.705 300.65971 
L 512.181164 301.159214 
L 513.657327 300.482566 
L 515.133491 300.148479 
L 516.609655 299.600483 
L 518.085818 298.478855 
L 519.561982 299.023885 
L 521.038145 297.680822 
L 522.514309 297.973203 
L 523.990473 295.948876 
L 525.466636 295.128514 
L 526.9428 294.100286 
L 528.418964 292.454749 
L 529.895127 291.858828 
L 532.847455 288.678796 
L 534.323618 286.855483 
L 535.799782 288.629644 
L 537.275945 286.900112 
L 538.752109 286.327755 
L 540.228273 287.402944 
L 541.704436 289.237106 
L 543.1806 288.575211 
L 544.656764 289.053432 
L 546.132927 288.159128 
L 547.609091 287.673845 
L 549.085255 286.517917 
L 550.561418 285.971179 
L 552.037582 284.686471 
L 553.513745 282.388493 
L 554.989909 281.858382 
L 556.466073 281.083784 
L 559.4184 278.575051 
L 562.370727 278.739644 
L 563.846891 277.415356 
L 565.323055 278.407754 
L 566.799218 278.540318 
L 568.275382 277.348269 
L 569.751545 277.846777 
L 571.227709 277.08794 
L 572.703873 278.283638 
L 574.180036 276.255139 
L 577.132364 271.457237 
L 578.608527 270.125643 
L 580.084691 267.641341 
L 581.560855 264.806525 
L 583.037018 264.189631 
L 584.513182 263.344838 
L 585.989345 262.738625 
L 587.465509 261.283556 
L 588.941673 260.481434 
L 590.417836 258.242082 
L 591.894 257.300312 
L 593.370164 256.955841 
L 594.846327 255.551892 
L 596.322491 258.105015 
L 597.798655 257.70057 
L 599.274818 253.531704 
L 600.750982 253.885841 
L 602.227145 251.126787 
L 603.703309 251.381589 
L 605.179473 250.811843 
L 606.655636 250.739411 
L 608.1318 249.394699 
L 609.607964 247.836876 
L 611.084127 249.28719 
L 612.560291 247.098708 
L 614.036455 244.088582 
L 615.512618 241.786948 
L 616.988782 241.573254 
L 618.464945 240.429753 
L 619.941109 238.755 
L 621.417273 237.743956 
L 624.3696 234.855656 
L 625.845764 234.498667 
L 627.321927 237.897979 
L 628.798091 237.088975 
L 630.274255 237.499692 
L 631.750418 238.283611 
L 633.226582 236.010659 
L 634.702745 235.807911 
L 636.178909 232.128364 
L 637.655073 228.020402 
L 639.131236 230.383578 
L 640.6074 222.871506 
L 642.083564 225.611344 
L 643.559727 227.149123 
L 645.035891 227.765677 
L 646.512055 227.410942 
L 647.988218 231.140076 
L 649.464382 233.475294 
L 650.940545 234.748126 
L 652.416709 230.461753 
L 653.892873 235.288483 
L 655.369036 238.186492 
L 656.8452 239.782226 
L 658.321364 240.012542 
L 659.797527 237.802371 
L 661.273691 229.765046 
L 662.749855 230.973879 
L 664.226018 224.42865 
L 665.702182 228.275598 
L 667.178345 224.735713 
L 668.654509 233.855863 
L 670.130673 237.452565 
L 671.606836 243.715157 
L 673.083 239.685855 
L 674.559164 238.34035 
L 676.035327 225.859298 
L 677.511491 242.612911 
L 680.463818 246.82967 
L 681.939982 244.575069 
L 683.416145 257.943317 
L 684.892309 269.182616 
L 686.368473 267.724952 
L 687.844636 273.664245 
L 689.3208 294.71336 
L 690.796964 267.066306 
L 692.273127 271.632928 
L 693.749291 269.686634 
L 695.225455 269.285677 
L 696.701618 287.358845 
L 698.177782 291.906482 
L 699.653945 301.866314 
L 701.130109 289.317666 
L 702.606273 286.900098 
L 704.082436 279.143462 
L 705.5586 278.944053 
L 707.034764 280.740728 
L 708.510927 299.454834 
L 709.987091 279.909039 
L 711.463255 298.147539 
L 712.939418 289.969759 
L 714.415582 295.688573 
L 715.891745 302.041856 
L 717.367909 310.216658 
L 718.844073 315.444073 
L 720.320236 316.82397 
L 723.272564 301.924954 
L 724.748727 316.232342 
L 724.748727 316.232342 
" style="fill:none;stroke:#edd1cb;stroke-linecap:round;stroke-width:1.5;"/>
   </g>
   <g id="line2d_16">
    <path clip-path="url(#p21f8cd7da0)" d="M 134.283273 218.675878 
L 135.759436 218.219084 
L 137.2356 217.971331 
L 138.711764 217.487439 
L 141.664091 217.301624 
L 146.092582 216.732567 
L 147.568745 216.6745 
L 149.044909 216.384164 
L 150.521073 215.967372 
L 151.997236 215.804784 
L 153.4734 215.820268 
L 154.949564 215.568644 
L 157.901891 215.479608 
L 159.378055 215.142819 
L 162.330382 215.123463 
L 163.806545 214.653765 
L 165.282709 214.661507 
L 168.235036 214.471822 
L 169.7112 214.781513 
L 171.187364 214.487306 
L 172.663527 214.065352 
L 174.139691 213.848568 
L 175.615855 213.465325 
L 178.568182 213.283382 
L 181.520509 212.629159 
L 182.996673 212.640773 
L 184.472836 212.35818 
L 187.425164 212.033004 
L 188.901327 211.732346 
L 191.853655 210.968441 
L 193.329818 210.630361 
L 194.805982 209.952912 
L 196.282145 209.697417 
L 199.234473 209.550314 
L 200.710636 209.688384 
L 202.1868 209.669029 
L 203.662964 209.80839 
L 205.139127 209.382564 
L 208.091455 209.045775 
L 209.567618 209.058679 
L 211.043782 208.830282 
L 212.519945 208.818668 
L 213.996109 208.582529 
L 215.472273 208.876736 
L 216.948436 208.616263 
L 218.4246 208.136242 
L 219.900764 208.221407 
L 222.853091 208.111725 
L 224.329255 208.228965 
L 225.805418 208.116702 
L 227.281582 208.19136 
L 228.757745 207.939736 
L 230.233909 207.918444 
L 233.186236 207.368743 
L 234.6624 207.217768 
L 236.138564 206.708068 
L 237.614727 206.555803 
L 239.090891 206.744015 
L 240.567055 206.493681 
L 242.043218 206.069791 
L 243.519382 205.763971 
L 244.995545 205.960109 
L 246.471709 205.340257 
L 247.947873 205.45123 
L 249.424036 205.031857 
L 252.376364 204.888625 
L 253.852527 204.408419 
L 255.328691 204.44713 
L 256.804855 204.307769 
L 258.281018 203.587738 
L 259.757182 203.326159 
L 261.233345 203.290213 
L 265.661836 202.319847 
L 267.138 202.403538 
L 268.614164 201.745629 
L 270.090327 201.286438 
L 271.566491 201.237219 
L 273.042655 200.913334 
L 275.994982 200.853202 
L 277.471145 200.502864 
L 278.947309 199.955743 
L 280.423473 199.762186 
L 281.899636 199.371846 
L 283.3758 199.304931 
L 284.851964 199.045564 
L 286.328127 198.359482 
L 287.804291 197.532994 
L 289.280455 197.185882 
L 292.232782 197.300541 
L 293.708945 196.980527 
L 298.137436 195.480737 
L 299.6136 195.655344 
L 309.946745 192.8896 
L 311.422909 192.771413 
L 312.899073 192.478496 
L 314.375236 192.936581 
L 315.8514 192.709935 
L 317.327564 192.32448 
L 318.803727 192.200604 
L 320.279891 191.856503 
L 321.756055 192.036785 
L 324.708382 191.295739 
L 326.184545 191.028953 
L 330.613036 190.778183 
L 333.565364 189.701693 
L 335.041527 189.513113 
L 337.993855 190.16298 
L 339.470018 190.015042 
L 340.946182 190.240346 
L 342.422345 190.307754 
L 343.898509 189.586294 
L 345.374673 189.331904 
L 346.850836 188.715287 
L 349.803164 188.489421 
L 352.755491 189.031899 
L 354.231655 188.168174 
L 355.707818 187.887516 
L 358.660145 186.117116 
L 360.136309 185.312857 
L 361.612473 185.186732 
L 363.088636 185.517438 
L 366.040964 184.921605 
L 367.517127 184.076955 
L 368.993291 183.558876 
L 370.469455 183.287422 
L 371.945618 182.761807 
L 373.421782 182.584518 
L 374.897945 181.413726 
L 376.374109 181.342939 
L 377.850273 180.951653 
L 379.326436 181.278174 
L 380.8026 181.143995 
L 382.278764 181.317025 
L 383.754927 181.006453 
L 385.231091 181.170119 
L 386.707255 181.157184 
L 388.183418 180.590824 
L 389.659582 181.139936 
L 391.135745 180.423111 
L 392.611909 180.282772 
L 394.088073 179.06276 
L 395.564236 178.089165 
L 397.0404 177.322992 
L 398.516564 177.441368 
L 399.992727 176.811021 
L 401.468891 176.4008 
L 402.945055 176.271946 
L 405.897382 175.104963 
L 407.373545 174.088006 
L 408.849709 173.571301 
L 411.802036 172.919554 
L 413.2782 172.08325 
L 414.754364 172.022409 
L 416.230527 172.435692 
L 417.706691 173.320056 
L 419.182855 173.287903 
L 420.659018 172.794504 
L 422.135182 172.43923 
L 423.611345 170.555034 
L 425.087509 169.660057 
L 426.563673 168.592886 
L 428.039836 168.066561 
L 430.992164 167.676337 
L 433.944491 168.309377 
L 436.896818 167.324153 
L 438.372982 167.17713 
L 439.849145 167.741964 
L 441.325309 167.798081 
L 442.801473 167.640307 
L 444.277636 168.315826 
L 447.229964 168.190819 
L 448.706127 167.509942 
L 450.182291 167.481692 
L 451.658455 167.3211 
L 453.134618 166.795135 
L 454.610782 166.430549 
L 456.086945 165.837067 
L 457.563109 165.697412 
L 459.039273 165.105196 
L 460.515436 164.264312 
L 461.9916 163.695428 
L 463.467764 163.594027 
L 464.943927 162.254973 
L 466.420091 161.65314 
L 467.896255 161.611181 
L 469.372418 160.470783 
L 470.848582 160.473437 
L 472.324745 160.223517 
L 473.800909 159.636521 
L 476.753236 160.101664 
L 478.2294 159.769905 
L 479.705564 158.530524 
L 481.181727 157.636202 
L 482.657891 157.588109 
L 484.134055 157.788476 
L 485.610218 157.520104 
L 487.086382 155.903756 
L 488.562545 155.971648 
L 490.038709 155.100769 
L 491.514873 156.013077 
L 492.991036 156.009557 
L 494.4672 155.440206 
L 495.943364 155.631369 
L 497.419527 154.936517 
L 498.895691 154.548026 
L 500.371855 153.356583 
L 501.848018 152.801114 
L 503.324182 153.343458 
L 504.800345 152.753506 
L 506.276509 151.694473 
L 507.752673 151.649131 
L 509.228836 151.228556 
L 510.705 151.380357 
L 512.181164 151.16852 
L 513.657327 150.841263 
L 515.133491 152.086143 
L 516.609655 151.031907 
L 518.085818 150.789176 
L 519.561982 150.873789 
L 521.038145 151.98961 
L 522.514309 152.32485 
L 523.990473 151.257327 
L 525.466636 150.859786 
L 526.9428 150.298605 
L 528.418964 150.825497 
L 529.895127 151.065438 
L 531.371291 150.777485 
L 532.847455 148.871808 
L 534.323618 149.441568 
L 535.799782 148.456727 
L 537.275945 147.96652 
L 538.752109 148.5795 
L 540.228273 149.882446 
L 541.704436 149.327362 
L 543.1806 149.749132 
L 544.656764 150.459613 
L 546.132927 149.714831 
L 547.609091 148.604416 
L 549.085255 148.133589 
L 550.561418 146.122579 
L 552.037582 145.777635 
L 554.989909 147.071785 
L 556.466073 146.43241 
L 557.942236 145.618567 
L 559.4184 145.62001 
L 560.894564 143.696815 
L 562.370727 143.681566 
L 563.846891 144.437816 
L 565.323055 144.877819 
L 566.799218 146.333515 
L 568.275382 145.147259 
L 569.751545 146.184483 
L 571.227709 144.628212 
L 572.703873 143.72811 
L 574.180036 141.378957 
L 575.6562 140.141853 
L 577.132364 141.685919 
L 578.608527 140.836648 
L 580.084691 140.920297 
L 581.560855 138.392037 
L 583.037018 139.41147 
L 584.513182 137.434573 
L 585.989345 137.164507 
L 587.465509 141.269086 
L 588.941673 141.207391 
L 590.417836 139.562209 
L 591.894 141.501876 
L 593.370164 139.450605 
L 594.846327 139.70278 
L 596.322491 140.725563 
L 597.798655 143.293076 
L 599.274818 142.013966 
L 602.227145 138.693061 
L 603.703309 141.925887 
L 605.179473 144.147106 
L 608.1318 146.496266 
L 609.607964 146.311197 
L 611.084127 145.121092 
L 612.560291 141.754905 
L 614.036455 142.194574 
L 615.512618 142.786011 
L 616.988782 145.06232 
L 618.464945 141.608269 
L 619.941109 141.246493 
L 621.417273 142.910588 
L 622.893436 143.518508 
L 624.3696 141.709893 
L 625.845764 141.421591 
L 628.798091 138.407867 
L 630.274255 139.319132 
L 631.750418 137.284457 
L 633.226582 135.500966 
L 634.702745 136.113041 
L 636.178909 135.529309 
L 637.655073 136.966502 
L 639.131236 132.566074 
L 640.6074 142.336458 
L 642.083564 142.542573 
L 643.559727 143.230785 
L 645.035891 140.44411 
L 646.512055 141.934148 
L 647.988218 141.206245 
L 649.464382 141.608128 
L 650.940545 135.165326 
L 652.416709 134.852459 
L 653.892873 133.566284 
L 655.369036 139.594722 
L 656.8452 134.97521 
L 658.321364 137.313224 
L 659.797527 148.342079 
L 661.273691 149.367116 
L 662.749855 149.011906 
L 664.226018 159.100241 
L 665.702182 169.9815 
L 667.178345 169.904615 
L 668.654509 168.625526 
L 670.130673 172.042959 
L 671.606836 167.140227 
L 673.083 169.757154 
L 674.559164 169.103704 
L 676.035327 181.853217 
L 677.511491 210.107184 
L 678.987655 230.213082 
L 680.463818 225.111765 
L 681.939982 191.427597 
L 683.416145 234.553596 
L 684.892309 237.069837 
L 686.368473 237.816592 
L 687.844636 219.755578 
L 689.3208 219.755578 
L 690.796964 243.408237 
L 692.273127 283.605299 
L 693.749291 229.254509 
L 695.225455 270.112147 
L 696.701618 221.399308 
L 698.177782 274.515877 
L 699.653945 269.910175 
L 701.130109 255.371898 
L 704.082436 255.371898 
L 705.5586 169.409184 
L 707.034764 223.088977 
L 709.987091 223.088977 
L 711.463255 244.057646 
L 712.939418 251.606366 
L 714.415582 251.606366 
L 715.891745 236.508925 
L 718.844073 236.508925 
L 720.320236 231.018946 
L 721.7964 231.018946 
L 723.272564 261.213829 
L 724.748727 261.213829 
L 724.748727 261.213829 
" style="fill:none;stroke:#d499a7;stroke-linecap:round;stroke-width:1.5;"/>
   </g>
   <g id="line2d_17">
    <path clip-path="url(#p21f8cd7da0)" d="M 134.283273 116.934607 
L 137.2356 116.47007 
L 138.711764 116.419745 
L 140.187927 116.23006 
L 141.664091 116.29974 
L 143.140255 116.02876 
L 144.616418 116.02876 
L 149.044909 115.707456 
L 150.521073 115.184852 
L 151.997236 114.971939 
L 153.4734 114.94097 
L 154.949564 114.63515 
L 156.425727 114.503532 
L 157.901891 114.611923 
L 162.330382 114.108675 
L 163.806545 113.775757 
L 165.282709 113.694464 
L 166.758873 113.365417 
L 178.568182 112.285369 
L 180.044345 111.828575 
L 182.996673 111.673729 
L 184.472836 111.596306 
L 185.949 111.37178 
L 187.425164 111.433718 
L 188.901327 111.151125 
L 190.377491 111.174352 
L 191.853655 110.864661 
L 193.329818 110.76014 
L 194.805982 110.957568 
L 196.282145 110.651748 
L 199.234473 110.702073 
L 203.662964 109.916232 
L 208.091455 109.343303 
L 212.519945 108.437457 
L 213.996109 108.356163 
L 215.472273 108.139379 
L 216.948436 108.14325 
L 218.4246 107.736781 
L 224.329255 106.974167 
L 225.805418 106.672218 
L 227.281582 106.541705 
L 228.757745 106.170076 
L 231.710073 105.922323 
L 233.186236 105.678441 
L 234.6624 105.575211 
L 236.138564 105.60618 
L 239.090891 104.936473 
L 242.043218 104.444838 
L 246.471709 104.448248 
L 247.947873 104.328243 
L 249.424036 103.906289 
L 253.852527 103.539821 
L 255.328691 103.299811 
L 256.804855 103.408202 
L 259.757182 103.175934 
L 261.233345 103.096094 
L 262.709509 102.753677 
L 264.185673 102.738113 
L 265.661836 102.51243 
L 267.138 102.668073 
L 268.614164 102.652509 
L 270.090327 102.77443 
L 273.042655 102.537073 
L 274.518818 102.572093 
L 275.994982 102.237459 
L 277.471145 102.068845 
L 280.423473 101.579864 
L 287.804291 100.745225 
L 289.280455 100.93529 
L 290.756618 100.640642 
L 292.232782 100.47637 
L 293.708945 100.089155 
L 301.089764 99.513427 
L 302.565927 99.032458 
L 305.518255 98.631432 
L 306.994418 98.871261 
L 311.422909 98.06921 
L 315.8514 97.210805 
L 317.327564 97.143967 
L 318.803727 96.550104 
L 324.708382 95.822754 
L 326.184545 96.324975 
L 330.613036 95.415473 
L 332.0892 95.269241 
L 335.041527 95.204565 
L 337.993855 94.790048 
L 339.470018 94.8854 
L 342.422345 94.44241 
L 343.898509 94.055892 
L 346.850836 94.376117 
L 348.327 93.839409 
L 349.803164 93.922391 
L 351.279327 93.484391 
L 354.231655 93.263551 
L 355.707818 93.390103 
L 358.660145 93.227031 
L 360.136309 93.027243 
L 361.612473 93.262519 
L 363.088636 93.248757 
L 364.5648 92.958422 
L 366.040964 92.48159 
L 367.517127 92.158074 
L 368.993291 92.128402 
L 370.469455 91.698834 
L 371.945618 91.848773 
L 374.897945 91.411594 
L 376.374109 90.930837 
L 377.850273 90.919216 
L 379.326436 90.656283 
L 380.8026 90.208166 
L 386.707255 89.495501 
L 388.183418 89.477129 
L 389.659582 89.749684 
L 392.611909 89.801437 
L 394.088073 89.325262 
L 397.0404 89.736141 
L 398.516564 89.25113 
L 399.992727 89.03058 
L 402.945055 89.228455 
L 405.897382 88.681984 
L 407.373545 88.593992 
L 408.849709 88.105488 
L 410.325873 88.269523 
L 411.802036 88.203056 
L 413.2782 88.283157 
L 414.754364 87.966649 
L 416.230527 88.106792 
L 417.706691 87.779931 
L 419.182855 87.765507 
L 420.659018 87.562594 
L 423.611345 87.50179 
L 426.563673 87.132827 
L 428.039836 87.628021 
L 429.516 87.453426 
L 432.468327 87.536258 
L 433.944491 87.502319 
L 436.896818 87.859289 
L 439.849145 87.494474 
L 441.325309 87.621635 
L 442.801473 87.610017 
L 444.277636 86.720384 
L 445.7538 86.680916 
L 447.229964 87.194798 
L 448.706127 86.793077 
L 450.182291 87.282028 
L 453.134618 87.459498 
L 454.610782 87.433709 
L 457.563109 86.762529 
L 460.515436 85.828684 
L 461.9916 85.529241 
L 463.467764 85.351363 
L 464.943927 84.992947 
L 466.420091 84.945602 
L 467.896255 84.762976 
L 469.372418 85.080457 
L 472.324745 84.954777 
L 475.277073 84.994188 
L 478.2294 84.930822 
L 479.705564 85.10395 
L 481.181727 85.115705 
L 482.657891 84.761112 
L 484.134055 84.667687 
L 485.610218 83.097272 
L 487.086382 83.257219 
L 488.562545 83.720337 
L 490.038709 82.941627 
L 492.991036 83.573658 
L 494.4672 83.409555 
L 495.943364 83.49001 
L 498.895691 84.346797 
L 500.371855 84.478461 
L 501.848018 84.005219 
L 503.324182 83.366983 
L 506.276509 82.544024 
L 507.752673 82.56818 
L 509.228836 82.102962 
L 510.705 81.433181 
L 512.181164 82.006717 
L 513.657327 81.75933 
L 515.133491 82.118237 
L 516.609655 82.11412 
L 518.085818 83.104732 
L 519.561982 83.292321 
L 521.038145 82.93233 
L 522.514309 83.240165 
L 523.990473 82.937892 
L 525.466636 81.917256 
L 526.9428 81.411388 
L 528.418964 81.303703 
L 529.895127 80.165208 
L 531.371291 79.922874 
L 532.847455 80.0211 
L 534.323618 81.673146 
L 535.799782 80.188122 
L 537.275945 80.011512 
L 538.752109 80.564935 
L 540.228273 81.536897 
L 541.704436 81.45144 
L 544.656764 80.888847 
L 546.132927 80.293033 
L 547.609091 80.147119 
L 549.085255 81.357251 
L 550.561418 79.611609 
L 552.037582 78.962329 
L 553.513745 79.029206 
L 554.989909 79.37878 
L 556.466073 78.093919 
L 557.942236 78.297323 
L 560.894564 77.257795 
L 562.370727 77.97586 
L 563.846891 77.371963 
L 565.323055 77.797343 
L 566.799218 77.065345 
L 568.275382 76.590997 
L 569.751545 76.762416 
L 571.227709 76.57438 
L 572.703873 77.818039 
L 574.180036 77.818039 
L 575.6562 78.097621 
L 577.132364 78.250316 
L 578.608527 79.348752 
L 580.084691 79.674222 
L 581.560855 79.674222 
L 583.037018 79.280376 
L 584.513182 80.200842 
L 585.989345 79.377345 
L 587.465509 79.231926 
L 588.941673 79.487145 
L 590.417836 80.08707 
L 593.370164 77.679892 
L 594.846327 73.994341 
L 596.322491 74.580476 
L 597.798655 75.044184 
L 599.274818 77.843847 
L 600.750982 77.495444 
L 602.227145 72.908145 
L 603.703309 69.849945 
L 605.179473 70.559067 
L 606.655636 69.73557 
L 608.1318 70.504167 
L 609.607964 70.504167 
L 611.084127 69.296372 
L 612.560291 69.430571 
L 614.036455 70.353193 
L 616.988782 70.353193 
L 618.464945 69.220885 
L 619.941109 69.382643 
L 621.417273 70.604817 
L 622.893436 70.604817 
L 624.3696 68.591825 
L 625.845764 71.862937 
L 627.321927 71.862937 
L 628.798091 73.372681 
L 630.274255 71.862937 
L 633.226582 71.862937 
L 634.702745 69.598321 
L 637.655073 84.695762 
L 640.6074 84.695762 
L 642.083564 74.127553 
L 645.035891 74.127553 
L 646.512055 68.088577 
L 647.988218 74.127553 
L 674.559164 74.127553 
L 676.035327 62.0496 
L 676.035327 62.0496 
" style="fill:none;stroke:#a9678f;stroke-linecap:round;stroke-width:1.5;"/>
   </g>
   <g id="line2d_18">
    <path clip-path="url(#p21f8cd7da0)" d="M 134.283273 73.477202 
L 135.759436 75.508417 
L 140.187927 75.478867 
L 154.949564 74.986873 
L 156.425727 74.85394 
L 162.330382 74.87287 
L 163.806545 74.853759 
L 165.282709 74.686541 
L 168.235036 74.574707 
L 171.187364 74.384016 
L 175.615855 74.463593 
L 178.568182 74.446168 
L 181.520509 74.328526 
L 187.425164 73.857956 
L 188.901327 73.875929 
L 190.377491 73.678577 
L 191.853655 73.872596 
L 194.805982 73.860832 
L 197.758309 73.820572 
L 208.091455 73.320621 
L 209.567618 73.356955 
L 211.043782 73.220658 
L 212.519945 73.19969 
L 213.996109 73.026698 
L 215.472273 73.158533 
L 219.900764 72.957502 
L 221.376927 73.055416 
L 224.329255 72.978835 
L 225.805418 73.055416 
L 230.233909 72.628749 
L 231.710073 72.850931 
L 233.186236 72.695517 
L 240.567055 72.840839 
L 242.043218 72.726465 
L 243.519382 72.867498 
L 249.424036 72.79201 
L 252.376364 72.559742 
L 253.852527 72.570995 
L 255.328691 72.452681 
L 258.281018 72.574849 
L 259.757182 72.636372 
L 261.233345 72.487872 
L 262.709509 72.537372 
L 268.614164 71.943374 
L 271.566491 72.250051 
L 275.994982 71.928578 
L 277.471145 72.103427 
L 278.947309 72.023264 
L 283.3758 72.048224 
L 284.851964 71.883524 
L 286.328127 72.102803 
L 290.756618 72.060474 
L 292.232782 72.032254 
L 293.708945 71.834718 
L 295.185109 71.963587 
L 302.565927 72.015363 
L 304.042091 71.826645 
L 308.470582 71.862937 
L 309.946745 72.065274 
L 312.899073 71.949433 
L 314.375236 72.053642 
L 315.8514 71.998019 
L 317.327564 72.071731 
L 318.803727 71.85482 
L 329.136873 71.648485 
L 332.0892 71.871614 
L 333.565364 71.8022 
L 335.041527 71.854159 
L 336.517691 71.713718 
L 337.993855 71.79189 
L 340.946182 71.454418 
L 342.422345 71.56638 
L 345.374673 71.350702 
L 346.850836 71.462764 
L 351.279327 71.3113 
L 357.183982 71.28685 
L 358.660145 71.078267 
L 360.136309 71.03761 
L 361.612473 71.242494 
L 363.088636 71.159769 
L 364.5648 70.880569 
L 366.040964 71.003222 
L 367.517127 70.70966 
L 368.993291 70.957091 
L 371.945618 70.741413 
L 373.421782 70.954902 
L 374.897945 70.648578 
L 377.850273 70.713209 
L 379.326436 70.96428 
L 380.8026 70.864558 
L 388.183418 71.094822 
L 389.659582 70.803467 
L 391.135745 70.838468 
L 392.611909 70.668867 
L 394.088073 71.166132 
L 395.564236 70.933864 
L 397.0404 71.289234 
L 399.992727 71.289234 
L 401.468891 71.168455 
L 402.945055 71.292932 
L 405.897382 71.292932 
L 407.373545 71.169687 
L 408.849709 70.861576 
L 410.325873 71.045159 
L 411.802036 70.856441 
L 413.2782 71.284737 
L 414.754364 71.284737 
L 416.230527 71.140187 
L 417.706691 70.79627 
L 419.182855 70.789341 
L 420.659018 70.644848 
L 422.135182 71.036172 
L 426.563673 71.036172 
L 428.039836 70.568871 
L 429.516 70.776658 
L 432.468327 70.541911 
L 433.944491 70.829954 
L 435.420655 70.904045 
L 436.896818 70.646754 
L 439.849145 71.205468 
L 441.325309 70.52933 
L 442.801473 70.509373 
L 444.277636 70.811508 
L 445.7538 70.811508 
L 447.229964 70.514951 
L 451.658455 70.514951 
L 454.610782 69.402613 
L 456.086945 70.41126 
L 457.563109 70.41126 
L 459.039273 70.178992 
L 460.515436 70.504167 
L 466.420091 70.504167 
L 467.896255 70.141829 
L 469.372418 70.101569 
L 470.848582 70.451654 
L 473.800909 70.451654 
L 475.277073 70.18909 
L 476.753236 70.559067 
L 478.2294 70.284568 
L 479.705564 70.676709 
L 482.657891 70.676709 
L 484.134055 70.245354 
L 485.610218 70.202218 
L 487.086382 70.631304 
L 492.991036 70.631304 
L 494.4672 70.313463 
L 495.943364 70.437068 
L 497.419527 70.397597 
L 501.848018 70.892387 
L 503.324182 70.643528 
L 504.800345 72.206061 
L 507.752673 72.206061 
L 509.228836 71.657063 
L 510.705 72.617809 
L 512.181164 72.617809 
L 513.657327 72.013911 
L 515.133491 73.121057 
L 516.609655 73.121057 
L 518.085818 72.45006 
L 519.561982 73.750117 
L 522.514309 73.655758 
L 526.9428 73.655758 
L 528.418964 71.296783 
L 535.799782 71.296783 
L 537.275945 70.541911 
L 538.752109 70.461032 
L 540.228273 69.849945 
L 541.704436 71.410014 
L 552.037582 71.410014 
L 553.513745 69.598321 
L 554.989909 70.353193 
L 566.799218 70.353193 
L 568.275382 67.333705 
L 569.751545 69.095073 
L 587.465509 69.095073 
L 588.941673 67.082081 
L 590.417836 69.598321 
L 594.846327 69.598321 
L 596.322491 66.578832 
L 597.798655 71.108065 
L 611.084127 71.108065 
L 612.560291 62.0496 
L 612.560291 62.0496 
" style="fill:none;stroke:#6e4071;stroke-linecap:round;stroke-width:1.5;"/>
   </g>
   <g id="line2d_19">
    <path clip-path="url(#p21f8cd7da0)" d="M 134.283273 62.839312 
L 135.759436 69.382643 
L 141.664091 69.382643 
L 143.140255 69.095073 
L 144.616418 69.447346 
L 150.521073 69.447346 
L 151.997236 69.145398 
L 154.949564 69.145398 
L 156.425727 68.692474 
L 159.378055 68.759574 
L 160.854218 69.154278 
L 175.615855 69.154278 
L 177.092018 68.976661 
L 178.568182 68.976661 
L 180.044345 68.621428 
L 181.520509 69.032167 
L 190.377491 69.032167 
L 191.853655 68.654731 
L 193.329818 69.095073 
L 197.758309 69.095073 
L 199.234473 68.692474 
L 200.710636 68.73561 
L 202.1868 69.249918 
L 215.472273 69.249918 
L 216.948436 68.785382 
L 218.4246 69.346697 
L 219.900764 68.591825 
L 221.376927 69.186572 
L 233.186236 69.186572 
L 234.6624 68.912073 
L 237.614727 68.912073 
L 239.090891 68.363076 
L 240.567055 68.994423 
L 243.519382 68.994423 
L 244.995545 68.390525 
L 246.471709 69.095073 
L 265.661836 69.095073 
L 267.138 68.759574 
L 290.756618 68.759574 
L 292.232782 68.088577 
L 293.708945 68.843449 
L 295.185109 68.088577 
L 296.661273 68.951288 
L 335.041527 68.951288 
L 336.517691 68.088577 
L 337.993855 69.095073 
L 348.327 69.095073 
L 349.803164 68.591825 
L 352.755491 68.591825 
L 354.231655 67.585329 
L 355.707818 68.692474 
L 357.183982 67.484679 
L 358.660145 68.843449 
L 363.088636 68.843449 
L 364.5648 67.333705 
L 366.040964 69.095073 
L 379.326436 69.095073 
L 380.8026 66.075584 
L 382.278764 68.088577 
L 442.801473 68.088577 
L 444.277636 65.069088 
L 445.7538 68.088577 
L 475.277073 68.088577 
L 476.753236 62.0496 
L 476.753236 62.0496 
" style="fill:none;stroke:#2d1e3e;stroke-linecap:round;stroke-width:1.5;"/>
   </g>
   <g id="line2d_20"/>
   <g id="line2d_21"/>
   <g id="line2d_22"/>
   <g id="line2d_23"/>
   <g id="line2d_24"/>
   <g id="patch_3">
    <path d="M 104.76 356.2848 
L 104.76 48.0384 
" style="fill:none;stroke:#cccccc;stroke-linecap:square;stroke-linejoin:miter;stroke-width:0.8;"/>
   </g>
   <g id="patch_4">
    <path d="M 754.272 356.2848 
L 754.272 48.0384 
" style="fill:none;stroke:#cccccc;stroke-linecap:square;stroke-linejoin:miter;stroke-width:0.8;"/>
   </g>
   <g id="patch_5">
    <path d="M 104.76 356.2848 
L 754.272 356.2848 
" style="fill:none;stroke:#cccccc;stroke-linecap:square;stroke-linejoin:miter;stroke-width:0.8;"/>
   </g>
   <g id="patch_6">
    <path d="M 104.76 48.0384 
L 754.272 48.0384 
" style="fill:none;stroke:#cccccc;stroke-linecap:square;stroke-linejoin:miter;stroke-width:0.8;"/>
   </g>
   <g id="legend_1">
    <g id="patch_7">
     <path d="M 691.576687 141.027463 
L 747.272 141.027463 
Q 749.272 141.027463 749.272 139.027463 
L 749.272 55.0384 
Q 749.272 53.0384 747.272 53.0384 
L 691.576687 53.0384 
Q 689.576687 53.0384 689.576687 55.0384 
L 689.576687 139.027463 
Q 689.576687 141.027463 691.576687 141.027463 
z
" style="fill:#ffffff;opacity:0.8;stroke:#cccccc;stroke-linejoin:miter;"/>
    </g>
    <g id="text_17">
     <!-- init_magnet -->
     <g style="fill:#262626;" transform="translate(693.576687 64.196213)scale(0.1 -0.1)">
      <defs>
       <path d="M 6.640625 61.46875 
L 6.640625 71.578125 
L 15.4375 71.578125 
L 15.4375 61.46875 
z
M 6.640625 0 
L 6.640625 51.859375 
L 15.4375 51.859375 
L 15.4375 0 
z
" id="ArialMT-105"/>
       <path d="M 4.984375 -4.296875 
L 13.53125 -5.5625 
Q 14.0625 -9.515625 16.5 -11.328125 
Q 19.78125 -13.765625 25.4375 -13.765625 
Q 31.546875 -13.765625 34.859375 -11.328125 
Q 38.1875 -8.890625 39.359375 -4.5 
Q 40.046875 -1.8125 39.984375 6.78125 
Q 34.234375 0 25.640625 0 
Q 14.9375 0 9.078125 7.71875 
Q 3.21875 15.4375 3.21875 26.21875 
Q 3.21875 33.640625 5.90625 39.90625 
Q 8.59375 46.1875 13.6875 49.609375 
Q 18.796875 53.03125 25.6875 53.03125 
Q 34.859375 53.03125 40.828125 45.609375 
L 40.828125 51.859375 
L 48.921875 51.859375 
L 48.921875 7.03125 
Q 48.921875 -5.078125 46.453125 -10.125 
Q 44 -15.1875 38.640625 -18.109375 
Q 33.296875 -21.046875 25.484375 -21.046875 
Q 16.21875 -21.046875 10.5 -16.875 
Q 4.78125 -12.703125 4.984375 -4.296875 
z
M 12.25 26.859375 
Q 12.25 16.65625 16.296875 11.96875 
Q 20.359375 7.28125 26.46875 7.28125 
Q 32.515625 7.28125 36.609375 11.9375 
Q 40.71875 16.609375 40.71875 26.5625 
Q 40.71875 36.078125 36.5 40.90625 
Q 32.28125 45.75 26.3125 45.75 
Q 20.453125 45.75 16.34375 40.984375 
Q 12.25 36.234375 12.25 26.859375 
z
" id="ArialMT-103"/>
      </defs>
      <use xlink:href="#ArialMT-105"/>
      <use x="22.216797" xlink:href="#ArialMT-110"/>
      <use x="77.832031" xlink:href="#ArialMT-105"/>
      <use x="100.048828" xlink:href="#ArialMT-116"/>
      <use x="127.832031" xlink:href="#ArialMT-95"/>
      <use x="183.447266" xlink:href="#ArialMT-109"/>
      <use x="266.748047" xlink:href="#ArialMT-97"/>
      <use x="322.363281" xlink:href="#ArialMT-103"/>
      <use x="377.978516" xlink:href="#ArialMT-110"/>
      <use x="433.59375" xlink:href="#ArialMT-101"/>
      <use x="489.208984" xlink:href="#ArialMT-116"/>
     </g>
    </g>
    <g id="line2d_25">
     <path d="M 698.474344 74.958712 
L 718.474344 74.958712 
" style="fill:none;stroke:#edd1cb;stroke-linecap:round;stroke-width:1.5;"/>
    </g>
    <g id="line2d_26"/>
    <g id="text_18">
     <!-- 0.0 -->
     <g style="fill:#262626;" transform="translate(726.474344 78.458712)scale(0.1 -0.1)">
      <use xlink:href="#ArialMT-48"/>
      <use x="55.615234" xlink:href="#ArialMT-46"/>
      <use x="83.398438" xlink:href="#ArialMT-48"/>
     </g>
    </g>
    <g id="line2d_27">
     <path d="M 698.474344 89.104025 
L 718.474344 89.104025 
" style="fill:none;stroke:#d499a7;stroke-linecap:round;stroke-width:1.5;"/>
    </g>
    <g id="line2d_28"/>
    <g id="text_19">
     <!-- 0.2 -->
     <g style="fill:#262626;" transform="translate(726.474344 92.604025)scale(0.1 -0.1)">
      <use xlink:href="#ArialMT-48"/>
      <use x="55.615234" xlink:href="#ArialMT-46"/>
      <use x="83.398438" xlink:href="#ArialMT-50"/>
     </g>
    </g>
    <g id="line2d_29">
     <path d="M 698.474344 103.249337 
L 718.474344 103.249337 
" style="fill:none;stroke:#a9678f;stroke-linecap:round;stroke-width:1.5;"/>
    </g>
    <g id="line2d_30"/>
    <g id="text_20">
     <!-- 0.4 -->
     <g style="fill:#262626;" transform="translate(726.474344 106.749337)scale(0.1 -0.1)">
      <use xlink:href="#ArialMT-48"/>
      <use x="55.615234" xlink:href="#ArialMT-46"/>
      <use x="83.398438" xlink:href="#ArialMT-52"/>
     </g>
    </g>
    <g id="line2d_31">
     <path d="M 698.474344 117.39465 
L 718.474344 117.39465 
" style="fill:none;stroke:#6e4071;stroke-linecap:round;stroke-width:1.5;"/>
    </g>
    <g id="line2d_32"/>
    <g id="text_21">
     <!-- 0.6 -->
     <g style="fill:#262626;" transform="translate(726.474344 120.89465)scale(0.1 -0.1)">
      <use xlink:href="#ArialMT-48"/>
      <use x="55.615234" xlink:href="#ArialMT-46"/>
      <use x="83.398438" xlink:href="#ArialMT-54"/>
     </g>
    </g>
    <g id="line2d_33">
     <path d="M 698.474344 131.539963 
L 718.474344 131.539963 
" style="fill:none;stroke:#2d1e3e;stroke-linecap:round;stroke-width:1.5;"/>
    </g>
    <g id="line2d_34"/>
    <g id="text_22">
     <!-- 0.8 -->
     <g style="fill:#262626;" transform="translate(726.474344 135.039963)scale(0.1 -0.1)">
      <use xlink:href="#ArialMT-48"/>
      <use x="55.615234" xlink:href="#ArialMT-46"/>
      <use x="83.398438" xlink:href="#ArialMT-56"/>
     </g>
    </g>
   </g>
  </g>
 </g>
 <defs>
  <clipPath id="p21f8cd7da0">
   <rect height="308.2464" width="649.512" x="104.76" y="48.0384"/>
  </clipPath>
 </defs>
</svg>
