<?xml version="1.0" encoding="utf-8" standalone="no"?>
<!DOCTYPE svg PUBLIC "-//W3C//DTD SVG 1.1//EN"
  "http://www.w3.org/Graphics/SVG/1.1/DTD/svg11.dtd">
<!-- Created with matplotlib (https://matplotlib.org/) -->
<svg height="447.12pt" version="1.1" viewBox="0 0 648.72 447.12" width="648.72pt" xmlns="http://www.w3.org/2000/svg" xmlns:xlink="http://www.w3.org/1999/xlink">
 <metadata>
  <rdf:RDF xmlns:cc="http://creativecommons.org/ns#" xmlns:dc="http://purl.org/dc/elements/1.1/" xmlns:rdf="http://www.w3.org/1999/02/22-rdf-syntax-ns#">
   <cc:Work>
    <dc:type rdf:resource="http://purl.org/dc/dcmitype/StillImage"/>
    <dc:date>2021-03-07T16:58:56.252676</dc:date>
    <dc:format>image/svg+xml</dc:format>
    <dc:creator>
     <cc:Agent>
      <dc:title>Matplotlib v3.3.3, https://matplotlib.org/</dc:title>
     </cc:Agent>
    </dc:creator>
   </cc:Work>
  </rdf:RDF>
 </metadata>
 <defs>
  <style type="text/css">*{stroke-linecap:butt;stroke-linejoin:round;}</style>
 </defs>
 <g id="figure_1">
  <g id="patch_1">
   <path d="M 0 447.12 
L 648.72 447.12 
L 648.72 0 
L 0 0 
z
" style="fill:none;"/>
  </g>
  <g id="axes_1">
   <g id="patch_2">
    <path d="M 81.09 397.9368 
L 583.848 397.9368 
L 583.848 53.6544 
L 81.09 53.6544 
z
" style="fill:none;"/>
   </g>
   <g id="matplotlib.axis_1">
    <g id="xtick_1">
     <g id="line2d_1">
      <path clip-path="url(#p572439af30)" d="M 103.942636 397.9368 
L 103.942636 53.6544 
" style="fill:none;stroke:#cccccc;stroke-linecap:round;stroke-width:0.8;"/>
     </g>
     <g id="text_1">
      <!-- 0 -->
      <g style="fill:#262626;" transform="translate(101.162168 412.094612)scale(0.1 -0.1)">
       <defs>
        <path d="M 4.15625 35.296875 
Q 4.15625 48 6.765625 55.734375 
Q 9.375 63.484375 14.515625 67.671875 
Q 19.671875 71.875 27.484375 71.875 
Q 33.25 71.875 37.59375 69.546875 
Q 41.9375 67.234375 44.765625 62.859375 
Q 47.609375 58.5 49.21875 52.21875 
Q 50.828125 45.953125 50.828125 35.296875 
Q 50.828125 22.703125 48.234375 14.96875 
Q 45.65625 7.234375 40.5 3 
Q 35.359375 -1.21875 27.484375 -1.21875 
Q 17.140625 -1.21875 11.234375 6.203125 
Q 4.15625 15.140625 4.15625 35.296875 
z
M 13.1875 35.296875 
Q 13.1875 17.671875 17.3125 11.828125 
Q 21.4375 6 27.484375 6 
Q 33.546875 6 37.671875 11.859375 
Q 41.796875 17.71875 41.796875 35.296875 
Q 41.796875 52.984375 37.671875 58.78125 
Q 33.546875 64.59375 27.390625 64.59375 
Q 21.34375 64.59375 17.71875 59.46875 
Q 13.1875 52.9375 13.1875 35.296875 
z
" id="ArialMT-48"/>
       </defs>
       <use xlink:href="#ArialMT-48"/>
      </g>
     </g>
    </g>
    <g id="xtick_2">
     <g id="line2d_2">
      <path clip-path="url(#p572439af30)" d="M 193.210747 397.9368 
L 193.210747 53.6544 
" style="fill:none;stroke:#cccccc;stroke-linecap:round;stroke-width:0.8;"/>
     </g>
     <g id="text_2">
      <!-- 200 -->
      <g style="fill:#262626;" transform="translate(184.869341 412.094612)scale(0.1 -0.1)">
       <defs>
        <path d="M 50.34375 8.453125 
L 50.34375 0 
L 3.03125 0 
Q 2.9375 3.171875 4.046875 6.109375 
Q 5.859375 10.9375 9.828125 15.625 
Q 13.8125 20.3125 21.34375 26.46875 
Q 33.015625 36.03125 37.109375 41.625 
Q 41.21875 47.21875 41.21875 52.203125 
Q 41.21875 57.421875 37.46875 61 
Q 33.734375 64.59375 27.734375 64.59375 
Q 21.390625 64.59375 17.578125 60.78125 
Q 13.765625 56.984375 13.71875 50.25 
L 4.6875 51.171875 
Q 5.609375 61.28125 11.65625 66.578125 
Q 17.71875 71.875 27.9375 71.875 
Q 38.234375 71.875 44.234375 66.15625 
Q 50.25 60.453125 50.25 52 
Q 50.25 47.703125 48.484375 43.546875 
Q 46.734375 39.40625 42.65625 34.8125 
Q 38.578125 30.21875 29.109375 22.21875 
Q 21.1875 15.578125 18.9375 13.203125 
Q 16.703125 10.84375 15.234375 8.453125 
z
" id="ArialMT-50"/>
       </defs>
       <use xlink:href="#ArialMT-50"/>
       <use x="55.615234" xlink:href="#ArialMT-48"/>
       <use x="111.230469" xlink:href="#ArialMT-48"/>
      </g>
     </g>
    </g>
    <g id="xtick_3">
     <g id="line2d_3">
      <path clip-path="url(#p572439af30)" d="M 282.478858 397.9368 
L 282.478858 53.6544 
" style="fill:none;stroke:#cccccc;stroke-linecap:round;stroke-width:0.8;"/>
     </g>
     <g id="text_3">
      <!-- 400 -->
      <g style="fill:#262626;" transform="translate(274.137452 412.094612)scale(0.1 -0.1)">
       <defs>
        <path d="M 32.328125 0 
L 32.328125 17.140625 
L 1.265625 17.140625 
L 1.265625 25.203125 
L 33.9375 71.578125 
L 41.109375 71.578125 
L 41.109375 25.203125 
L 50.78125 25.203125 
L 50.78125 17.140625 
L 41.109375 17.140625 
L 41.109375 0 
z
M 32.328125 25.203125 
L 32.328125 57.46875 
L 9.90625 25.203125 
z
" id="ArialMT-52"/>
       </defs>
       <use xlink:href="#ArialMT-52"/>
       <use x="55.615234" xlink:href="#ArialMT-48"/>
       <use x="111.230469" xlink:href="#ArialMT-48"/>
      </g>
     </g>
    </g>
    <g id="xtick_4">
     <g id="line2d_4">
      <path clip-path="url(#p572439af30)" d="M 371.746969 397.9368 
L 371.746969 53.6544 
" style="fill:none;stroke:#cccccc;stroke-linecap:round;stroke-width:0.8;"/>
     </g>
     <g id="text_4">
      <!-- 600 -->
      <g style="fill:#262626;" transform="translate(363.405563 412.094612)scale(0.1 -0.1)">
       <defs>
        <path d="M 49.75 54.046875 
L 41.015625 53.375 
Q 39.84375 58.546875 37.703125 60.890625 
Q 34.125 64.65625 28.90625 64.65625 
Q 24.703125 64.65625 21.53125 62.3125 
Q 17.390625 59.28125 14.984375 53.46875 
Q 12.59375 47.65625 12.5 36.921875 
Q 15.671875 41.75 20.265625 44.09375 
Q 24.859375 46.4375 29.890625 46.4375 
Q 38.671875 46.4375 44.84375 39.96875 
Q 51.03125 33.5 51.03125 23.25 
Q 51.03125 16.5 48.125 10.71875 
Q 45.21875 4.9375 40.140625 1.859375 
Q 35.0625 -1.21875 28.609375 -1.21875 
Q 17.625 -1.21875 10.6875 6.859375 
Q 3.765625 14.9375 3.765625 33.5 
Q 3.765625 54.25 11.421875 63.671875 
Q 18.109375 71.875 29.4375 71.875 
Q 37.890625 71.875 43.28125 67.140625 
Q 48.6875 62.40625 49.75 54.046875 
z
M 13.875 23.1875 
Q 13.875 18.65625 15.796875 14.5 
Q 17.71875 10.359375 21.1875 8.171875 
Q 24.65625 6 28.46875 6 
Q 34.03125 6 38.03125 10.484375 
Q 42.046875 14.984375 42.046875 22.703125 
Q 42.046875 30.125 38.078125 34.390625 
Q 34.125 38.671875 28.125 38.671875 
Q 22.171875 38.671875 18.015625 34.390625 
Q 13.875 30.125 13.875 23.1875 
z
" id="ArialMT-54"/>
       </defs>
       <use xlink:href="#ArialMT-54"/>
       <use x="55.615234" xlink:href="#ArialMT-48"/>
       <use x="111.230469" xlink:href="#ArialMT-48"/>
      </g>
     </g>
    </g>
    <g id="xtick_5">
     <g id="line2d_5">
      <path clip-path="url(#p572439af30)" d="M 461.01508 397.9368 
L 461.01508 53.6544 
" style="fill:none;stroke:#cccccc;stroke-linecap:round;stroke-width:0.8;"/>
     </g>
     <g id="text_5">
      <!-- 800 -->
      <g style="fill:#262626;" transform="translate(452.673673 412.094612)scale(0.1 -0.1)">
       <defs>
        <path d="M 17.671875 38.8125 
Q 12.203125 40.828125 9.5625 44.53125 
Q 6.9375 48.25 6.9375 53.421875 
Q 6.9375 61.234375 12.546875 66.546875 
Q 18.171875 71.875 27.484375 71.875 
Q 36.859375 71.875 42.578125 66.421875 
Q 48.296875 60.984375 48.296875 53.171875 
Q 48.296875 48.1875 45.671875 44.5 
Q 43.0625 40.828125 37.75 38.8125 
Q 44.34375 36.671875 47.78125 31.875 
Q 51.21875 27.09375 51.21875 20.453125 
Q 51.21875 11.28125 44.71875 5.03125 
Q 38.234375 -1.21875 27.640625 -1.21875 
Q 17.046875 -1.21875 10.546875 5.046875 
Q 4.046875 11.328125 4.046875 20.703125 
Q 4.046875 27.6875 7.59375 32.390625 
Q 11.140625 37.109375 17.671875 38.8125 
z
M 15.921875 53.71875 
Q 15.921875 48.640625 19.1875 45.40625 
Q 22.46875 42.1875 27.6875 42.1875 
Q 32.765625 42.1875 36.015625 45.375 
Q 39.265625 48.578125 39.265625 53.21875 
Q 39.265625 58.0625 35.90625 61.359375 
Q 32.5625 64.65625 27.59375 64.65625 
Q 22.5625 64.65625 19.234375 61.421875 
Q 15.921875 58.203125 15.921875 53.71875 
z
M 13.09375 20.65625 
Q 13.09375 16.890625 14.875 13.375 
Q 16.65625 9.859375 20.171875 7.921875 
Q 23.6875 6 27.734375 6 
Q 34.03125 6 38.125 10.046875 
Q 42.234375 14.109375 42.234375 20.359375 
Q 42.234375 26.703125 38.015625 30.859375 
Q 33.796875 35.015625 27.4375 35.015625 
Q 21.234375 35.015625 17.15625 30.90625 
Q 13.09375 26.8125 13.09375 20.65625 
z
" id="ArialMT-56"/>
       </defs>
       <use xlink:href="#ArialMT-56"/>
       <use x="55.615234" xlink:href="#ArialMT-48"/>
       <use x="111.230469" xlink:href="#ArialMT-48"/>
      </g>
     </g>
    </g>
    <g id="xtick_6">
     <g id="line2d_6">
      <path clip-path="url(#p572439af30)" d="M 550.28319 397.9368 
L 550.28319 53.6544 
" style="fill:none;stroke:#cccccc;stroke-linecap:round;stroke-width:0.8;"/>
     </g>
     <g id="text_6">
      <!-- 1000 -->
      <g style="fill:#262626;" transform="translate(539.161315 412.094612)scale(0.1 -0.1)">
       <defs>
        <path d="M 37.25 0 
L 28.46875 0 
L 28.46875 56 
Q 25.296875 52.984375 20.140625 49.953125 
Q 14.984375 46.921875 10.890625 45.40625 
L 10.890625 53.90625 
Q 18.265625 57.375 23.78125 62.296875 
Q 29.296875 67.234375 31.59375 71.875 
L 37.25 71.875 
z
" id="ArialMT-49"/>
       </defs>
       <use xlink:href="#ArialMT-49"/>
       <use x="55.615234" xlink:href="#ArialMT-48"/>
       <use x="111.230469" xlink:href="#ArialMT-48"/>
       <use x="166.845703" xlink:href="#ArialMT-48"/>
      </g>
     </g>
    </g>
    <g id="text_7">
     <!-- fct -->
     <g style="fill:#262626;" transform="translate(327.190875 425.239925)scale(0.1 -0.1)">
      <defs>
       <path d="M 8.6875 0 
L 8.6875 45.015625 
L 0.921875 45.015625 
L 0.921875 51.859375 
L 8.6875 51.859375 
L 8.6875 57.375 
Q 8.6875 62.59375 9.625 65.140625 
Q 10.890625 68.5625 14.078125 70.671875 
Q 17.28125 72.796875 23.046875 72.796875 
Q 26.765625 72.796875 31.25 71.921875 
L 29.9375 64.265625 
Q 27.203125 64.75 24.75 64.75 
Q 20.75 64.75 19.09375 63.03125 
Q 17.4375 61.328125 17.4375 56.640625 
L 17.4375 51.859375 
L 27.546875 51.859375 
L 27.546875 45.015625 
L 17.4375 45.015625 
L 17.4375 0 
z
" id="ArialMT-102"/>
       <path d="M 40.4375 19 
L 49.078125 17.875 
Q 47.65625 8.9375 41.8125 3.875 
Q 35.984375 -1.171875 27.484375 -1.171875 
Q 16.84375 -1.171875 10.375 5.78125 
Q 3.90625 12.75 3.90625 25.734375 
Q 3.90625 34.125 6.6875 40.421875 
Q 9.46875 46.734375 15.15625 49.875 
Q 20.84375 53.03125 27.546875 53.03125 
Q 35.984375 53.03125 41.359375 48.75 
Q 46.734375 44.484375 48.25 36.625 
L 39.703125 35.296875 
Q 38.484375 40.53125 35.375 43.15625 
Q 32.28125 45.796875 27.875 45.796875 
Q 21.234375 45.796875 17.078125 41.03125 
Q 12.9375 36.28125 12.9375 25.984375 
Q 12.9375 15.53125 16.9375 10.796875 
Q 20.953125 6.0625 27.390625 6.0625 
Q 32.5625 6.0625 36.03125 9.234375 
Q 39.5 12.40625 40.4375 19 
z
" id="ArialMT-99"/>
       <path d="M 25.78125 7.859375 
L 27.046875 0.09375 
Q 23.34375 -0.6875 20.40625 -0.6875 
Q 15.625 -0.6875 12.984375 0.828125 
Q 10.359375 2.34375 9.28125 4.8125 
Q 8.203125 7.28125 8.203125 15.1875 
L 8.203125 45.015625 
L 1.765625 45.015625 
L 1.765625 51.859375 
L 8.203125 51.859375 
L 8.203125 64.703125 
L 16.9375 69.96875 
L 16.9375 51.859375 
L 25.78125 51.859375 
L 25.78125 45.015625 
L 16.9375 45.015625 
L 16.9375 14.703125 
Q 16.9375 10.9375 17.40625 9.859375 
Q 17.875 8.796875 18.921875 8.15625 
Q 19.96875 7.515625 21.921875 7.515625 
Q 23.390625 7.515625 25.78125 7.859375 
z
" id="ArialMT-116"/>
      </defs>
      <use xlink:href="#ArialMT-102"/>
      <use x="27.783203" xlink:href="#ArialMT-99"/>
      <use x="77.783203" xlink:href="#ArialMT-116"/>
     </g>
    </g>
   </g>
   <g id="matplotlib.axis_2">
    <g id="ytick_1">
     <g id="line2d_7">
      <path clip-path="url(#p572439af30)" d="M 81.09 395.876917 
L 583.848 395.876917 
" style="fill:none;stroke:#cccccc;stroke-linecap:round;stroke-width:0.8;"/>
     </g>
     <g id="text_8">
      <!-- 0.0 -->
      <g style="fill:#262626;" transform="translate(60.19 399.455824)scale(0.1 -0.1)">
       <defs>
        <path d="M 9.078125 0 
L 9.078125 10.015625 
L 19.09375 10.015625 
L 19.09375 0 
z
" id="ArialMT-46"/>
       </defs>
       <use xlink:href="#ArialMT-48"/>
       <use x="55.615234" xlink:href="#ArialMT-46"/>
       <use x="83.398438" xlink:href="#ArialMT-48"/>
      </g>
     </g>
    </g>
    <g id="ytick_2">
     <g id="line2d_8">
      <path clip-path="url(#p572439af30)" d="M 81.09 330.562254 
L 583.848 330.562254 
" style="fill:none;stroke:#cccccc;stroke-linecap:round;stroke-width:0.8;"/>
     </g>
     <g id="text_9">
      <!-- 0.2 -->
      <g style="fill:#262626;" transform="translate(60.19 334.14116)scale(0.1 -0.1)">
       <use xlink:href="#ArialMT-48"/>
       <use x="55.615234" xlink:href="#ArialMT-46"/>
       <use x="83.398438" xlink:href="#ArialMT-50"/>
      </g>
     </g>
    </g>
    <g id="ytick_3">
     <g id="line2d_9">
      <path clip-path="url(#p572439af30)" d="M 81.09 265.24759 
L 583.848 265.24759 
" style="fill:none;stroke:#cccccc;stroke-linecap:round;stroke-width:0.8;"/>
     </g>
     <g id="text_10">
      <!-- 0.4 -->
      <g style="fill:#262626;" transform="translate(60.19 268.826497)scale(0.1 -0.1)">
       <use xlink:href="#ArialMT-48"/>
       <use x="55.615234" xlink:href="#ArialMT-46"/>
       <use x="83.398438" xlink:href="#ArialMT-52"/>
      </g>
     </g>
    </g>
    <g id="ytick_4">
     <g id="line2d_10">
      <path clip-path="url(#p572439af30)" d="M 81.09 199.932927 
L 583.848 199.932927 
" style="fill:none;stroke:#cccccc;stroke-linecap:round;stroke-width:0.8;"/>
     </g>
     <g id="text_11">
      <!-- 0.6 -->
      <g style="fill:#262626;" transform="translate(60.19 203.511833)scale(0.1 -0.1)">
       <use xlink:href="#ArialMT-48"/>
       <use x="55.615234" xlink:href="#ArialMT-46"/>
       <use x="83.398438" xlink:href="#ArialMT-54"/>
      </g>
     </g>
    </g>
    <g id="ytick_5">
     <g id="line2d_11">
      <path clip-path="url(#p572439af30)" d="M 81.09 134.618263 
L 583.848 134.618263 
" style="fill:none;stroke:#cccccc;stroke-linecap:round;stroke-width:0.8;"/>
     </g>
     <g id="text_12">
      <!-- 0.8 -->
      <g style="fill:#262626;" transform="translate(60.19 138.19717)scale(0.1 -0.1)">
       <use xlink:href="#ArialMT-48"/>
       <use x="55.615234" xlink:href="#ArialMT-46"/>
       <use x="83.398438" xlink:href="#ArialMT-56"/>
      </g>
     </g>
    </g>
    <g id="ytick_6">
     <g id="line2d_12">
      <path clip-path="url(#p572439af30)" d="M 81.09 69.3036 
L 583.848 69.3036 
" style="fill:none;stroke:#cccccc;stroke-linecap:round;stroke-width:0.8;"/>
     </g>
     <g id="text_13">
      <!-- 1.0 -->
      <g style="fill:#262626;" transform="translate(60.19 72.882506)scale(0.1 -0.1)">
       <use xlink:href="#ArialMT-49"/>
       <use x="55.615234" xlink:href="#ArialMT-46"/>
       <use x="83.398438" xlink:href="#ArialMT-48"/>
      </g>
     </g>
    </g>
   </g>
   <g id="line2d_13">
    <path clip-path="url(#p572439af30)" d="M 103.942636 69.3036 
L 150.362054 69.3036 
L 152.147416 87.800917 
L 153.932778 69.3036 
L 155.718141 69.3036 
L 157.503503 71.854954 
L 159.288865 69.3036 
L 161.074227 74.406308 
L 162.859589 69.3036 
L 164.644952 69.3036 
L 166.430314 90.224703 
L 168.215676 94.830711 
L 170.001038 69.3036 
L 171.786401 122.116629 
L 173.571763 78.233339 
L 175.357125 114.363655 
L 177.142487 130.642403 
L 178.927849 133.937902 
L 180.713212 123.519873 
L 182.498574 79.509016 
L 184.283936 174.012428 
L 186.069298 144.710113 
L 187.854661 153.627673 
L 189.640023 156.049637 
L 191.425385 88.438755 
L 193.210747 146.032195 
L 194.996109 173.85113 
L 196.781472 122.507918 
L 198.566834 197.418021 
L 200.352196 173.909116 
L 202.137558 179.707648 
L 203.92292 151.993639 
L 205.708283 154.951138 
L 207.493645 173.909116 
L 209.279007 177.098308 
L 212.849732 188.473095 
L 214.635094 161.751018 
L 216.420456 215.530999 
L 218.205818 201.336172 
L 219.99118 156.150882 
L 221.776543 199.23123 
L 223.561905 202.346083 
L 225.347267 212.204231 
L 227.132629 198.490431 
L 228.917991 165.104909 
L 230.703354 206.185046 
L 232.488716 189.932392 
L 236.05944 248.51496 
L 237.844803 211.541588 
L 239.630165 246.188135 
L 241.415527 221.240004 
L 243.200889 205.351011 
L 244.986251 238.332876 
L 246.771614 223.022681 
L 248.556976 223.928597 
L 250.342338 228.125389 
L 252.1277 227.487551 
L 253.913063 231.505933 
L 255.698425 215.199779 
L 257.483787 210.749122 
L 259.269149 260.885484 
L 261.054511 221.157487 
L 262.839874 246.303787 
L 264.625236 262.240469 
L 266.410598 225.338525 
L 268.19596 231.580231 
L 269.981322 242.795675 
L 271.766685 264.828439 
L 273.552047 245.476505 
L 275.337409 249.202535 
L 277.122771 255.705261 
L 278.908134 235.257583 
L 280.693496 255.757971 
L 282.478858 242.795675 
L 284.26422 231.829292 
L 286.049582 217.656738 
L 287.834945 280.212964 
L 289.620307 277.876793 
L 291.405669 230.086743 
L 293.191031 255.254787 
L 294.976393 255.803715 
L 296.761756 246.76289 
L 298.547118 245.984867 
L 300.33248 257.306501 
L 302.117842 266.931905 
L 303.903205 253.335197 
L 305.688567 255.0361 
L 307.473929 270.222731 
L 309.259291 272.824339 
L 311.044653 242.583062 
L 312.830016 278.658904 
L 314.615378 277.345261 
L 316.40074 255.020913 
L 318.186102 262.189003 
L 319.971464 279.684002 
L 321.756827 260.108434 
L 323.542189 278.16257 
L 325.327551 238.330805 
L 327.112913 280.215534 
L 328.898276 256.175097 
L 330.683638 279.444053 
L 332.469 279.98166 
L 334.254362 287.231758 
L 336.039724 283.617339 
L 337.825087 275.963277 
L 339.610449 299.977897 
L 341.395811 275.325439 
L 343.181173 300.201141 
L 344.966536 284.94617 
L 346.751898 294.85127 
L 348.53726 276.520581 
L 350.322622 308.174122 
L 352.107984 284.095718 
L 353.893347 266.757142 
L 355.678709 299.410608 
L 357.464071 284.467791 
L 359.249433 289.464193 
L 361.034795 257.55708 
L 362.820158 286.578733 
L 364.60552 290.952482 
L 366.390882 297.756093 
L 368.176244 293.610143 
L 369.961607 301.354565 
L 371.746969 312.001153 
L 373.532331 301.423665 
L 375.317693 296.37411 
L 377.103055 301.902043 
L 378.888418 305.022896 
L 380.67378 297.968706 
L 382.459142 312.764573 
L 384.244504 276.140455 
L 386.029866 291.058789 
L 387.815229 290.208337 
L 389.600591 320.39936 
L 391.385953 301.84889 
L 393.171315 319.336296 
L 394.956678 307.019938 
L 396.74204 295.827391 
L 398.527402 309.13088 
L 400.312764 318.210414 
L 402.098126 320.915706 
L 403.883489 321.568731 
L 405.668851 286.472426 
L 407.454213 316.466023 
L 409.239575 321.356118 
L 411.024938 295.098433 
L 412.8103 321.356118 
L 414.595662 283.936259 
L 416.381024 299.430419 
L 418.166386 304.66601 
L 419.951749 319.867828 
L 421.737111 322.419182 
L 423.522473 323.960625 
L 425.307835 287.76329 
L 427.093197 282.341662 
L 428.87856 318.698458 
L 430.663922 315.084039 
L 432.449284 316.876062 
L 434.234646 322.206569 
L 436.020009 321.249812 
L 437.805371 324.211205 
L 439.590733 319.974135 
L 441.376095 328.584954 
L 443.161457 321.568731 
L 444.94682 311.257008 
L 446.732182 322.206569 
L 450.302906 332.837211 
L 452.088268 321.249812 
L 453.873631 328.584954 
L 455.658993 324.013778 
L 457.444355 307.111058 
L 459.229717 319.867828 
L 461.01508 330.179551 
L 462.800442 322.206569 
L 464.585804 323.482246 
L 466.371166 321.568731 
L 468.156528 333.368743 
L 469.941891 328.357155 
L 471.727253 323.892285 
L 473.512615 326.0336 
L 475.297977 326.990358 
L 477.083339 335.282259 
L 478.868702 324.120085 
L 480.654064 322.844408 
L 482.439426 319.655215 
L 484.224788 314.233588 
L 486.010151 324.439004 
L 487.795513 328.584954 
L 489.580875 328.266035 
L 491.366237 326.990358 
L 493.151599 320.930892 
L 494.936962 320.293054 
L 496.722324 336.239017 
L 498.507686 339.747128 
L 500.293048 340.066048 
L 502.078411 344.530917 
L 503.863773 325.608375 
L 505.649135 340.066048 
L 507.434497 342.617402 
L 509.219859 324.439004 
L 511.005222 329.860631 
L 512.790584 340.703886 
L 514.575946 341.341725 
L 516.361308 345.806594 
L 518.14667 337.195774 
L 519.932033 326.35252 
L 521.717395 337.833613 
L 523.502757 332.411986 
L 525.288119 334.006582 
L 527.073482 339.747128 
L 528.858844 329.860631 
L 530.644206 340.384967 
L 532.429568 342.936321 
L 534.21493 327.309277 
L 536.000293 339.10929 
L 537.785655 342.936321 
L 539.571017 345.806594 
L 541.356379 346.444433 
L 543.141741 348.995787 
L 544.927104 340.384967 
L 546.712466 341.979563 
L 548.497828 338.790371 
L 550.28319 342.936321 
L 552.068553 346.444433 
L 553.853915 348.357948 
L 555.639277 347.401191 
L 560.995364 347.401191 
L 560.995364 347.401191 
" style="fill:none;stroke:#1f77b4;stroke-linecap:round;stroke-width:1.5;"/>
   </g>
   <g id="line2d_14">
    <path clip-path="url(#p572439af30)" d="M 103.942636 244.505313 
L 105.727999 246.111136 
L 107.513361 241.434934 
L 109.298723 235.132266 
L 111.084085 239.179601 
L 112.869447 238.896556 
L 114.65481 233.424675 
L 116.440172 237.327443 
L 118.225534 246.669338 
L 120.010896 233.128009 
L 121.796259 246.113348 
L 123.581621 253.571981 
L 125.366983 256.94746 
L 128.937707 252.655243 
L 130.72307 268.253336 
L 132.508432 282.826367 
L 134.293794 267.39477 
L 136.079156 284.136127 
L 137.864518 277.753048 
L 139.649881 291.351541 
L 141.435243 282.066207 
L 143.220605 296.561194 
L 145.005967 289.134477 
L 146.79133 302.293164 
L 148.576692 304.323898 
L 150.362054 306.88074 
L 152.147416 308.92067 
L 153.932778 301.735849 
L 155.718141 310.10426 
L 157.503503 305.660899 
L 159.288865 320.916846 
L 161.074227 318.357122 
L 162.859589 322.208719 
L 164.644952 319.246715 
L 166.430314 325.978477 
L 168.215676 326.336223 
L 170.001038 327.022443 
L 171.786401 319.279836 
L 173.571763 315.464266 
L 175.357125 326.779197 
L 177.142487 325.947149 
L 178.927849 335.419394 
L 180.713212 330.579965 
L 182.498574 330.936988 
L 184.283936 334.375175 
L 186.069298 331.627366 
L 187.854661 337.790511 
L 189.640023 339.284648 
L 191.425385 343.153381 
L 193.210747 336.906036 
L 194.996109 338.413285 
L 196.781472 347.105165 
L 198.566834 340.577056 
L 200.352196 342.516786 
L 202.137558 344.876226 
L 203.92292 344.23635 
L 205.708283 342.898697 
L 207.493645 349.656549 
L 209.279007 346.293831 
L 211.064369 346.94234 
L 212.849732 364.326944 
L 214.635094 363.519532 
L 216.420456 365.892663 
L 218.205818 364.412613 
L 219.99118 365.717351 
L 221.776543 363.107189 
L 223.561905 366.611587 
L 225.347267 367.949788 
L 227.132629 368.158551 
L 228.917991 367.020637 
L 230.703354 367.184538 
L 232.488716 367.117678 
L 234.274078 367.35102 
L 236.05944 371.335689 
L 237.844803 372.430044 
L 239.630165 367.346459 
L 241.415527 370.379392 
L 243.200889 371.669454 
L 244.986251 369.8112 
L 246.771614 347.927124 
L 248.556976 342.446776 
L 250.342338 345.22082 
L 252.1277 345.301255 
L 253.913063 343.466908 
L 255.698425 349.319349 
L 257.483787 346.33175 
L 259.269149 346.629892 
L 261.054511 348.32424 
L 262.839874 352.233398 
L 264.625236 350.394405 
L 266.410598 349.574413 
L 268.19596 351.611673 
L 269.981322 352.942685 
L 271.766685 347.733311 
L 273.552047 348.35405 
L 275.337409 349.644419 
L 278.908134 353.760092 
L 280.693496 358.072086 
L 284.26422 352.544408 
L 286.049582 355.216687 
L 287.834945 355.380677 
L 289.620307 354.559606 
L 291.405669 353.355405 
L 293.191031 351.809217 
L 294.976393 352.342112 
L 296.761756 358.273233 
L 298.547118 353.090779 
L 300.33248 359.220296 
L 302.117842 353.830691 
L 303.903205 357.313855 
L 305.688567 356.672594 
L 307.473929 357.780779 
L 309.259291 358.496282 
L 311.044653 358.235977 
L 312.830016 358.57139 
L 314.615378 358.108949 
L 316.40074 360.194181 
L 318.186102 360.879819 
L 319.971464 362.006668 
L 321.756827 356.870243 
L 323.542189 364.707003 
L 325.327551 358.529831 
L 327.112913 359.896908 
L 328.898276 362.764293 
L 330.683638 363.137571 
L 332.469 361.328227 
L 334.254362 360.938677 
L 336.039724 362.987826 
L 337.825087 364.147446 
L 339.610449 361.277171 
L 341.395811 365.704027 
L 343.181173 366.557473 
L 344.966536 363.945252 
L 346.751898 363.591348 
L 348.53726 362.351213 
L 350.322622 363.989147 
L 352.107984 361.263086 
L 353.893347 368.151387 
L 355.678709 364.86162 
L 357.464071 362.784796 
L 359.249433 365.74306 
L 361.034795 366.802183 
L 362.820158 366.861138 
L 364.60552 363.942998 
L 366.390882 369.106559 
L 368.176244 366.834458 
L 369.961607 365.78593 
L 371.746969 368.581599 
L 373.532331 367.847134 
L 375.317693 368.3659 
L 377.103055 369.805621 
L 378.888418 366.206274 
L 380.67378 368.687603 
L 382.459142 367.137861 
L 384.244504 370.08348 
L 386.029866 367.11891 
L 387.815229 368.007126 
L 389.600591 368.216054 
L 391.385953 369.531517 
L 393.171315 371.747211 
L 394.956678 372.387596 
L 396.74204 369.827357 
L 398.527402 371.473649 
L 400.312764 370.981249 
L 402.098126 370.729478 
L 403.883489 370.628099 
L 405.668851 370.227187 
L 407.454213 370.917932 
L 409.239575 372.767597 
L 411.024938 371.872085 
L 412.8103 371.383589 
L 414.595662 372.748085 
L 418.166386 369.62179 
L 419.951749 371.620206 
L 421.737111 373.287238 
L 423.522473 373.930335 
L 425.307835 371.287485 
L 427.093197 374.102046 
L 428.87856 372.320603 
L 430.663922 372.857577 
L 432.449284 375.068125 
L 434.234646 374.824448 
L 436.020009 374.707752 
L 437.805371 376.175921 
L 439.590733 374.132688 
L 441.376095 374.709161 
L 443.161457 375.522683 
L 444.94682 375.033417 
L 446.732182 376.393113 
L 448.517544 375.090054 
L 450.302906 375.14866 
L 452.088268 375.610082 
L 453.873631 376.867457 
L 455.658993 375.774838 
L 457.444355 375.051785 
L 461.01508 375.0548 
L 462.800442 376.035302 
L 464.585804 376.477768 
L 466.371166 375.604308 
L 468.156528 377.404662 
L 469.941891 377.762751 
L 471.727253 377.387705 
L 473.512615 379.139299 
L 477.083339 376.217408 
L 478.868702 377.234045 
L 480.654064 378.383777 
L 482.439426 376.490399 
L 484.224788 378.222811 
L 486.010151 375.861167 
L 487.795513 378.87713 
L 489.580875 377.301303 
L 491.366237 378.939088 
L 493.151599 377.856501 
L 494.936962 378.273973 
L 496.722324 378.217823 
L 498.507686 378.869529 
L 500.293048 380.084939 
L 502.078411 378.832541 
L 503.863773 379.691755 
L 505.649135 379.374385 
L 507.434497 379.260976 
L 511.005222 379.993619 
L 512.790584 381.104242 
L 514.575946 380.063318 
L 516.361308 380.303027 
L 518.14667 379.784364 
L 519.932033 379.781007 
L 521.717395 380.200973 
L 523.502757 380.474316 
L 525.288119 379.683093 
L 527.073482 379.718901 
L 528.858844 380.482629 
L 530.644206 380.938068 
L 532.429568 380.005929 
L 534.21493 380.493483 
L 536.000293 380.741121 
L 539.571017 381.517158 
L 541.356379 381.425479 
L 543.141741 381.531705 
L 544.927104 381.193763 
L 546.712466 381.144526 
L 548.497828 381.3784 
L 552.068553 381.579264 
L 553.853915 381.90154 
L 555.639277 381.691725 
L 557.424639 382.017358 
L 560.995364 382.2876 
L 560.995364 382.2876 
" style="fill:none;stroke:#ff7f0e;stroke-dasharray:6,2.25;stroke-dashoffset:0;stroke-width:1.5;"/>
   </g>
   <g id="line2d_15"/>
   <g id="line2d_16"/>
   <g id="patch_3">
    <path d="M 81.09 397.9368 
L 81.09 53.6544 
" style="fill:none;stroke:#cccccc;stroke-linecap:square;stroke-linejoin:miter;stroke-width:0.8;"/>
   </g>
   <g id="patch_4">
    <path d="M 583.848 397.9368 
L 583.848 53.6544 
" style="fill:none;stroke:#cccccc;stroke-linecap:square;stroke-linejoin:miter;stroke-width:0.8;"/>
   </g>
   <g id="patch_5">
    <path d="M 81.09 397.9368 
L 583.848 397.9368 
" style="fill:none;stroke:#cccccc;stroke-linecap:square;stroke-linejoin:miter;stroke-width:0.8;"/>
   </g>
   <g id="patch_6">
    <path d="M 81.09 53.6544 
L 583.848 53.6544 
" style="fill:none;stroke:#cccccc;stroke-linecap:square;stroke-linejoin:miter;stroke-width:0.8;"/>
   </g>
   <g id="legend_1">
    <g id="patch_7">
     <path d="M 519.8355 89.945025 
L 576.848 89.945025 
Q 578.848 89.945025 578.848 87.945025 
L 578.848 60.6544 
Q 578.848 58.6544 576.848 58.6544 
L 519.8355 58.6544 
Q 517.8355 58.6544 517.8355 60.6544 
L 517.8355 87.945025 
Q 517.8355 89.945025 519.8355 89.945025 
z
" style="fill:#ffffff;opacity:0.8;stroke:#cccccc;stroke-linejoin:miter;"/>
    </g>
    <g id="line2d_17">
     <path d="M 521.8355 66.312212 
L 541.8355 66.312212 
" style="fill:none;stroke:#1f77b4;stroke-linecap:round;stroke-width:1.5;"/>
    </g>
    <g id="line2d_18"/>
    <g id="text_14">
     <!-- max -->
     <g style="fill:#262626;" transform="translate(549.8355 69.812212)scale(0.1 -0.1)">
      <defs>
       <path d="M 6.59375 0 
L 6.59375 51.859375 
L 14.453125 51.859375 
L 14.453125 44.578125 
Q 16.890625 48.390625 20.9375 50.703125 
Q 25 53.03125 30.171875 53.03125 
Q 35.9375 53.03125 39.625 50.640625 
Q 43.3125 48.25 44.828125 43.953125 
Q 50.984375 53.03125 60.84375 53.03125 
Q 68.5625 53.03125 72.703125 48.75 
Q 76.859375 44.484375 76.859375 35.59375 
L 76.859375 0 
L 68.109375 0 
L 68.109375 32.671875 
Q 68.109375 37.9375 67.25 40.25 
Q 66.40625 42.578125 64.15625 43.984375 
Q 61.921875 45.40625 58.890625 45.40625 
Q 53.421875 45.40625 49.796875 41.765625 
Q 46.1875 38.140625 46.1875 30.125 
L 46.1875 0 
L 37.40625 0 
L 37.40625 33.6875 
Q 37.40625 39.546875 35.25 42.46875 
Q 33.109375 45.40625 28.21875 45.40625 
Q 24.515625 45.40625 21.359375 43.453125 
Q 18.21875 41.5 16.796875 37.734375 
Q 15.375 33.984375 15.375 26.90625 
L 15.375 0 
z
" id="ArialMT-109"/>
       <path d="M 40.4375 6.390625 
Q 35.546875 2.25 31.03125 0.53125 
Q 26.515625 -1.171875 21.34375 -1.171875 
Q 12.796875 -1.171875 8.203125 3 
Q 3.609375 7.171875 3.609375 13.671875 
Q 3.609375 17.484375 5.34375 20.625 
Q 7.078125 23.78125 9.890625 25.6875 
Q 12.703125 27.59375 16.21875 28.5625 
Q 18.796875 29.25 24.03125 29.890625 
Q 34.671875 31.15625 39.703125 32.90625 
Q 39.75 34.71875 39.75 35.203125 
Q 39.75 40.578125 37.25 42.78125 
Q 33.890625 45.75 27.25 45.75 
Q 21.046875 45.75 18.09375 43.578125 
Q 15.140625 41.40625 13.71875 35.890625 
L 5.125 37.0625 
Q 6.296875 42.578125 8.984375 45.96875 
Q 11.671875 49.359375 16.75 51.1875 
Q 21.828125 53.03125 28.515625 53.03125 
Q 35.15625 53.03125 39.296875 51.46875 
Q 43.453125 49.90625 45.40625 47.53125 
Q 47.359375 45.171875 48.140625 41.546875 
Q 48.578125 39.3125 48.578125 33.453125 
L 48.578125 21.734375 
Q 48.578125 9.46875 49.140625 6.21875 
Q 49.703125 2.984375 51.375 0 
L 42.1875 0 
Q 40.828125 2.734375 40.4375 6.390625 
z
M 39.703125 26.03125 
Q 34.90625 24.078125 25.34375 22.703125 
Q 19.921875 21.921875 17.671875 20.9375 
Q 15.4375 19.96875 14.203125 18.09375 
Q 12.984375 16.21875 12.984375 13.921875 
Q 12.984375 10.40625 15.640625 8.0625 
Q 18.3125 5.71875 23.4375 5.71875 
Q 28.515625 5.71875 32.46875 7.9375 
Q 36.421875 10.15625 38.28125 14.015625 
Q 39.703125 17 39.703125 22.796875 
z
" id="ArialMT-97"/>
       <path d="M 0.734375 0 
L 19.671875 26.953125 
L 2.15625 51.859375 
L 13.140625 51.859375 
L 21.09375 39.703125 
Q 23.34375 36.234375 24.703125 33.890625 
Q 26.859375 37.109375 28.65625 39.59375 
L 37.40625 51.859375 
L 47.90625 51.859375 
L 29.984375 27.4375 
L 49.265625 0 
L 38.484375 0 
L 27.828125 16.109375 
L 25 20.453125 
L 11.375 0 
z
" id="ArialMT-120"/>
      </defs>
      <use xlink:href="#ArialMT-109"/>
      <use x="83.300781" xlink:href="#ArialMT-97"/>
      <use x="138.916016" xlink:href="#ArialMT-120"/>
     </g>
    </g>
    <g id="line2d_19">
     <path d="M 521.8355 80.457525 
L 541.8355 80.457525 
" style="fill:none;stroke:#ff7f0e;stroke-dasharray:6,2.25;stroke-dashoffset:0;stroke-width:1.5;"/>
    </g>
    <g id="line2d_20"/>
    <g id="text_15">
     <!-- mean -->
     <g style="fill:#262626;" transform="translate(549.8355 83.957525)scale(0.1 -0.1)">
      <defs>
       <path d="M 42.09375 16.703125 
L 51.171875 15.578125 
Q 49.03125 7.625 43.21875 3.21875 
Q 37.40625 -1.171875 28.375 -1.171875 
Q 17 -1.171875 10.328125 5.828125 
Q 3.65625 12.84375 3.65625 25.484375 
Q 3.65625 38.578125 10.390625 45.796875 
Q 17.140625 53.03125 27.875 53.03125 
Q 38.28125 53.03125 44.875 45.953125 
Q 51.46875 38.875 51.46875 26.03125 
Q 51.46875 25.25 51.421875 23.6875 
L 12.75 23.6875 
Q 13.234375 15.140625 17.578125 10.59375 
Q 21.921875 6.0625 28.421875 6.0625 
Q 33.25 6.0625 36.671875 8.59375 
Q 40.09375 11.140625 42.09375 16.703125 
z
M 13.234375 30.90625 
L 42.1875 30.90625 
Q 41.609375 37.453125 38.875 40.71875 
Q 34.671875 45.796875 27.984375 45.796875 
Q 21.921875 45.796875 17.796875 41.75 
Q 13.671875 37.703125 13.234375 30.90625 
z
" id="ArialMT-101"/>
       <path d="M 6.59375 0 
L 6.59375 51.859375 
L 14.5 51.859375 
L 14.5 44.484375 
Q 20.21875 53.03125 31 53.03125 
Q 35.6875 53.03125 39.625 51.34375 
Q 43.5625 49.65625 45.515625 46.921875 
Q 47.46875 44.1875 48.25 40.4375 
Q 48.734375 37.984375 48.734375 31.890625 
L 48.734375 0 
L 39.9375 0 
L 39.9375 31.546875 
Q 39.9375 36.921875 38.90625 39.578125 
Q 37.890625 42.234375 35.28125 43.8125 
Q 32.671875 45.40625 29.15625 45.40625 
Q 23.53125 45.40625 19.453125 41.84375 
Q 15.375 38.28125 15.375 28.328125 
L 15.375 0 
z
" id="ArialMT-110"/>
      </defs>
      <use xlink:href="#ArialMT-109"/>
      <use x="83.300781" xlink:href="#ArialMT-101"/>
      <use x="138.916016" xlink:href="#ArialMT-97"/>
      <use x="194.53125" xlink:href="#ArialMT-110"/>
     </g>
    </g>
   </g>
  </g>
 </g>
 <defs>
  <clipPath id="p572439af30">
   <rect height="344.2824" width="502.758" x="81.09" y="53.6544"/>
  </clipPath>
 </defs>
</svg>
